<svg xmlns="http://www.w3.org/2000/svg" xmlns:xlink="http://www.w3.org/1999/xlink" viewBox="0 0 366.72 831.06"><defs><linearGradient id="linear-gradient" x1="-4098.29" y1="357.06" x2="-4097.59" y2="356.36" gradientTransform="translate(327863.07 -28386.79) scale(80)" gradientUnits="userSpaceOnUse"><stop offset="0" stop-color="#c8511b"/><stop offset="1" stop-color="#f90"/></linearGradient><linearGradient id="linear-gradient-2" x1="-4098.25" y1="358.37" x2="-4097.55" y2="357.66" gradientTransform="translate(327863.07 -28386.79) scale(80)" gradientUnits="userSpaceOnUse"><stop offset="0" stop-color="#2e27ad"/><stop offset="1" stop-color="#527fff"/></linearGradient><linearGradient id="linear-gradient-3" x1="-4094.63" y1="357.06" x2="-4093.93" y2="356.36" xlink:href="#linear-gradient-2"/><linearGradient id="linear-gradient-4" x1="-4096.81" y1="360.87" x2="-4096.11" y2="360.17" gradientTransform="translate(327863.07 -28386.79) scale(80)" gradientUnits="userSpaceOnUse"><stop offset="0" stop-color="#b0084d"/><stop offset="1" stop-color="#ff4f8b"/></linearGradient><linearGradient id="linear-gradient-5" x1="-4095.45" y1="363.77" x2="-4094.75" y2="363.07" xlink:href="#linear-gradient-4"/></defs><g id="Layer_2" data-name="Layer 2"><g id="Layer_1-2" data-name="Layer 1"><rect x="107.12" y="642.34" width="149.66" height="99.16" rx="10.89" style="fill:#c2eaf1"/><rect x="182.7" y="71.31" width="184.02" height="211.66" rx="17.64" style="fill:#c2eaf1"/><rect x="2.84" y="400.68" width="151.45" height="119.16" rx="12.01" style="fill:#c2eaf1"/><path d="M109.07,73.62h-3.24l-.46,1.26h-1.69l2.8-7.26h1.94l2.8,7.26h-1.69Zm-2.83-1.33h2.41L107.45,69Z"/><path d="M118.38,71.53c0-.49-.22-.84-.79-.84a1.41,1.41,0,0,0-1.09.61v3.55h-1.39V71.53c0-.49-.22-.84-.78-.84a1.45,1.45,0,0,0-1.09.62v3.54h-1.38V69.62h1.38v.69a2.29,2.29,0,0,1,1.72-.82,1.4,1.4,0,0,1,1.46,1,2.22,2.22,0,0,1,1.8-1,1.41,1.41,0,0,1,1.55,1.25,1,1,0,0,1,0,.34v3.8h-1.39Z"/><path d="M124.29,74.3a2.17,2.17,0,0,1-1.67.67,1.75,1.75,0,0,1-1.83-1.67v-.07a1.68,1.68,0,0,1,1.66-1.68h.17a2.14,2.14,0,0,1,1.67.64v-.73c0-.53-.46-.88-1.16-.88a2.19,2.19,0,0,0-1.53.62l-.52-.92a3.44,3.44,0,0,1,2.29-.83c1.2,0,2.3.48,2.3,2v3.4h-1.38Zm0-1.37a1.41,1.41,0,0,0-1.11-.46c-.55,0-1,.29-1,.8s.45.77,1,.77a1.41,1.41,0,0,0,1.11-.46Z"/><path d="M126.81,73.81l2.37-3h-2.37V69.62h4.24v1l-2.4,3h2.45v1.21h-4.29Z"/><path d="M132,72.21a2.78,2.78,0,1,1,2.8,2.76h0A2.66,2.66,0,0,1,132,72.42Zm4.12,0a1.36,1.36,0,1,0-1.35,1.54,1.39,1.39,0,0,0,1.33-1.45s0-.06,0-.09Z"/><path d="M142.05,71.67a.86.86,0,0,0-.69-1,.81.81,0,0,0-.31,0,1.47,1.47,0,0,0-1.2.62v3.54h-1.38V69.62h1.38v.69a2.4,2.4,0,0,1,1.84-.82,1.54,1.54,0,0,1,1.71,1.33,2,2,0,0,1,0,.35v3.71h-1.35Z"/><path d="M79.08,84.28a3.66,3.66,0,0,1,3.59-3.75h.22A3.36,3.36,0,0,1,86,82.3L84.62,83a2,2,0,0,0-1.76-1,2.39,2.39,0,0,0,0,4.76,2,2,0,0,0,1.79-1.09l1.33.64A3.39,3.39,0,0,1,82.89,88a3.67,3.67,0,0,1-3.81-3.53Z"/><path d="M86.87,80.62h1.39v7.25H86.87Z"/><path d="M89.29,85.27A2.78,2.78,0,1,1,92.09,88h0a2.66,2.66,0,0,1-2.77-2.55Zm4.12,0a1.37,1.37,0,0,0-1.23-1.51h-.12a1.55,1.55,0,0,0,0,3.06,1.39,1.39,0,0,0,1.36-1.42S93.41,85.31,93.41,85.27Z"/><path d="M99.42,87.24a2.49,2.49,0,0,1-1.85.79,1.5,1.5,0,0,1-1.69-1.3,1.37,1.37,0,0,1,0-.35V82.62h1.39v3.19a.85.85,0,0,0,.67,1,.92.92,0,0,0,.33,0,1.57,1.57,0,0,0,1.2-.6V82.62h1.38v5.25H99.46Z"/><path d="M105.79,87.23a2.07,2.07,0,0,1-1.62.8c-1.33,0-2.33-1-2.33-2.75s1-2.76,2.33-2.76a2,2,0,0,1,1.62.8v-2.7h1.39v7.25h-1.39Zm0-2.88a1.49,1.49,0,0,0-1.2-.6,1.55,1.55,0,0,0,0,3.06,1.54,1.54,0,0,0,1.2-.6Z"/><path d="M112.86,82.92l-1.26,5H110l-2.07-7.3h1.73l1.27,5.24,1.38-5.24h1.21l1.37,5.24,1.26-5.24h1.74l-2.07,7.25h-1.64Z"/><path d="M121.26,87.36a2.2,2.2,0,0,1-1.66.67,1.75,1.75,0,0,1-1.83-1.67v-.07a1.66,1.66,0,0,1,1.64-1.68h.19a2.14,2.14,0,0,1,1.66.64v-.73c0-.53-.46-.88-1.15-.88a2.21,2.21,0,0,0-1.54.62l-.52-.92a3.41,3.41,0,0,1,2.3-.83c1.19,0,2.29.48,2.29,2v3.39h-1.38Zm0-1.37a1.35,1.35,0,0,0-1.11-.46c-.54,0-1,.28-1,.8s.45.77,1,.77a1.35,1.35,0,0,0,1.11-.46Z"/><path d="M124.29,86.62V83.88h-.87V82.62h.87V81.21h1.39v1.41h1.07v1.21h-1.07V86.2c0,.32.17.58.48.58a.77.77,0,0,0,.48-.16l.29,1a1.75,1.75,0,0,1-1.15.33,1.31,1.31,0,0,1-1.48-1.12A1.48,1.48,0,0,1,124.29,86.62Z"/><path d="M130.14,82.52a2.46,2.46,0,0,1,2.08.94l-.9.85a1.27,1.27,0,0,0-1.11-.56,1.41,1.41,0,0,0-1.43,1.39v.13a1.41,1.41,0,0,0,1.29,1.53h.14a1.33,1.33,0,0,0,1.11-.57l.9.84a2.43,2.43,0,0,1-2.08,1,2.76,2.76,0,0,1-.33-5.51h.33Z"/><path d="M136.68,84.7a.88.88,0,0,0-1-1,1.52,1.52,0,0,0-1.19.62v3.53H133.1V80.62h1.39V83.3a2.44,2.44,0,0,1,1.84-.81,1.5,1.5,0,0,1,1.7,1.29,1.45,1.45,0,0,1,0,.36v3.73h-1.38Z"/><path d="M144.6,82.52a2.66,2.66,0,0,1,2.64,2.89v.31h-3.91a1.41,1.41,0,0,0,1.51,1.21,2.14,2.14,0,0,0,1.41-.52l.61.9a3.34,3.34,0,0,1-2.17.72,2.76,2.76,0,1,1-.41-5.5Zm-1.29,2.26H146a1.21,1.21,0,0,0-1.26-1.16h0a1.25,1.25,0,0,0-1.34,1.15Z"/><path d="M147.49,82.62H149l1.37,3.65,1.39-3.65h1.49l-2.11,5.25H149.6Z"/><path d="M156.2,82.52a2.66,2.66,0,0,1,2.64,2.89v.31H155a1.41,1.41,0,0,0,1.51,1.21,2.14,2.14,0,0,0,1.41-.52l.61.9a3.34,3.34,0,0,1-2.17.72,2.76,2.76,0,1,1-.41-5.5h.3ZM155,84.78h2.59a1.21,1.21,0,0,0-1.26-1.16h0A1.26,1.26,0,0,0,155,84.78Z"/><path d="M163.39,84.73a.85.85,0,0,0-.67-1,.91.91,0,0,0-.33,0,1.47,1.47,0,0,0-1.2.62v3.53h-1.38V82.62h1.38v.68a2.44,2.44,0,0,1,1.84-.81,1.54,1.54,0,0,1,1.71,1.33,1.93,1.93,0,0,1,0,.34v3.71h-1.38Z"/><path d="M166.41,86.62V83.88h-.87V82.62h.87V81.21h1.39v1.41h1.07v1.21H167.8V86.2a.52.52,0,0,0,.43.58h.05a.71.71,0,0,0,.48-.16l.3,1a1.79,1.79,0,0,1-1.16.33,1.31,1.31,0,0,1-1.48-1.12A1.48,1.48,0,0,1,166.41,86.62Z"/><path d="M93.71,98.32a7.61,7.61,0,0,1,1.72-4.81l.87.65a8,8,0,0,0-1.1,4.16,7.9,7.9,0,0,0,1.1,4.13l-.87.68A7.59,7.59,0,0,1,93.71,98.32Z"/><path d="M97.45,99.62v-2.7h-.87V95.71h.87V94.27h1.39v1.44H100v1.21H98.88v2.37a.52.52,0,0,0,.45.57h0a.71.71,0,0,0,.48-.15l.3,1A1.79,1.79,0,0,1,99,101,1.31,1.31,0,0,1,97.46,100,1.45,1.45,0,0,1,97.45,99.62Z"/><path d="M100.72,94.11a.83.83,0,1,1,1.65-.18.54.54,0,0,1,0,.18.83.83,0,0,1-1.65,0Zm.14,1.6h1.38V101h-1.38Z"/><path d="M110.13,97.62a.73.73,0,0,0-.6-.83.61.61,0,0,0-.19,0,1.35,1.35,0,0,0-1.08.61v3.54h-1.4V97.62c0-.49-.21-.83-.78-.83a1.39,1.39,0,0,0-1.09.62v3.53h-1.38V95.69H105v.68a2.33,2.33,0,0,1,1.72-.81,1.4,1.4,0,0,1,1.46,1,2.22,2.22,0,0,1,1.8-1,1.41,1.41,0,0,1,1.55,1.25,1,1,0,0,1,0,.34v3.79h-1.39Z"/><path d="M115.26,95.62a2.66,2.66,0,0,1,2.64,2.89v.31h-4a1.41,1.41,0,0,0,1.51,1.21,2.14,2.14,0,0,0,1.41-.52l.61.89a3.28,3.28,0,0,1-2.17.73,2.76,2.76,0,1,1-.41-5.5h.36ZM114,97.84h2.59a1.21,1.21,0,0,0-1.26-1.16h0A1.27,1.27,0,0,0,114,97.84Z"/><path d="M118.54,97.74h2.61v1.18h-2.61Z"/><path d="M122.17,93.71h1.38v2.67a2,2,0,0,1,1.62-.8c1.34,0,2.33,1,2.33,2.76s-1,2.75-2.33,2.75a2,2,0,0,1-1.62-.8V101h-1.38Zm2.56,6.15a1.54,1.54,0,0,0,0-3,1.52,1.52,0,0,0-1.18.61v1.86A1.57,1.57,0,0,0,124.73,99.86Z"/><path d="M131.7,100.42a2.17,2.17,0,0,1-1.67.67,1.75,1.75,0,0,1-1.83-1.67v-.07a1.66,1.66,0,0,1,1.64-1.68H130a2.13,2.13,0,0,1,1.67.64v-.7c0-.53-.46-.88-1.16-.88a2.23,2.23,0,0,0-1.53.62l-.52-.93a3.48,3.48,0,0,1,2.29-.82c1.2,0,2.3.48,2.3,2V101H131.7Zm0-1.37a1.41,1.41,0,0,0-1.11-.46c-.55,0-1,.28-1,.8s.44.77,1,.77a1.41,1.41,0,0,0,1.11-.46Z"/><path d="M134.59,99.31a3,3,0,0,0,1.82.72c.6,0,.88-.21.88-.54s-.46-.5-1-.62c-.91-.17-2.07-.39-2.07-1.64,0-.88.77-1.65,2.15-1.65a3.26,3.26,0,0,1,2.12.72l-.55.94a2.21,2.21,0,0,0-1.56-.61c-.5,0-.82.19-.82.49s.41.45,1,.57c.9.17,2.11.41,2.11,1.72,0,1-.82,1.68-2.28,1.68a3.58,3.58,0,0,1-2.35-.81Z"/><path d="M142,95.62a2.66,2.66,0,0,1,2.64,2.89v.31h-3.91a1.41,1.41,0,0,0,1.51,1.21,2.14,2.14,0,0,0,1.41-.52l.61.89a3.28,3.28,0,0,1-2.17.73,2.76,2.76,0,1,1-.41-5.5Zm-1.29,2.26h2.59a1.21,1.21,0,0,0-1.26-1.16h0a1.28,1.28,0,0,0-1.29,1.12Z"/><path d="M149.27,100.29a2,2,0,0,1-1.62.8c-1.33,0-2.33-1-2.33-2.75s1-2.76,2.33-2.76a2,2,0,0,1,1.62.8V93.71h1.39V101h-1.39Zm0-2.89a1.5,1.5,0,1,0,0,1.82Z"/><path d="M151.54,94.16l.87-.65a7.52,7.52,0,0,1,0,9.62l-.87-.68a7.7,7.7,0,0,0,1.11-4.13A7.92,7.92,0,0,0,151.54,94.16Z"/><g id="Icon-Resource_Managment-Governance_Res_Amazon-Cloudwatch_Event-Time-Based_48" data-name="Icon-Resource Managment-Governance Res Amazon-Cloudwatch Event-Time-Based 48"><path id="Amazon-Cloudwatch_Event-time-based_Resource-Icon_light-bg" data-name="Amazon-Cloudwatch Event-time-based Resource-Icon light-bg" d="M142.08,12h-6.51V9.62h4.09V4.42h2.42Zm-1.21-9.56a7.3,7.3,0,1,1-7.3,7.3A7.3,7.3,0,0,1,140.87,2.44Zm0,17a9.72,9.72,0,1,0-9.72-9.72A9.72,9.72,0,0,0,140.87,19.44ZM145,46.83h-8.22V23.18a14.38,14.38,0,0,0,8.22,0Zm.71-26.49a11.9,11.9,0,0,1-9.64,0,1.2,1.2,0,0,0-1.6.6,1.25,1.25,0,0,0-.11.5V48a1.21,1.21,0,0,0,1.21,1.21h10.64A1.21,1.21,0,0,0,147.37,48h0V21.44a1.22,1.22,0,0,0-1.24-1.2A1.1,1.1,0,0,0,145.66,20.34ZM97.26,53.5h53.18V51.08H97.26Zm22.48-6.67H128V31.16h-8.22Zm-1.21,2.42h10.64A1.21,1.21,0,0,0,130.38,48h0V30a1.21,1.21,0,0,0-1.21-1.21H118.53A1.21,1.21,0,0,0,117.32,30h0V48a1.21,1.21,0,0,0,1.21,1.21Zm-15.81-2.42H111v-21h-8.22Zm-1.21,2.42h10.64A1.21,1.21,0,0,0,113.36,48h0V24.62a1.21,1.21,0,0,0-1.21-1.21H101.51a1.21,1.21,0,0,0-1.21,1.21V48A1.21,1.21,0,0,0,101.51,49.25Z" style="fill:#b0084d;fill-rule:evenodd"/></g><g id="Icon-Architecture_64_Arch_AWS-Lambda_64" data-name="Icon-Architecture 64 Arch AWS-Lambda 64"><g id="Icon-Architecture-BG_64_Compute" data-name="Icon-Architecture-BG 64 Compute"><rect id="Rectangle" y="121.72" width="56.07" height="56.07" style="fill:url(#linear-gradient)"/></g><path id="AWS-Lambda_Icon_64_Squid" data-name="AWS-Lambda Icon 64 Squid" d="M19.63,168H11l9.62-20.12,4.36,9Zm1.55-22a.71.71,0,0,0-.63-.4h0a.72.72,0,0,0-.64.4L9.18,168.37a.71.71,0,0,0,.36.94.67.67,0,0,0,.28.06H20.08a.71.71,0,0,0,.63-.4l5.62-11.85a.7.7,0,0,0,0-.6Zm24.37,22H37L23.08,139a.72.72,0,0,0-.64-.4H16.75v-7H27.84l13.81,29a.71.71,0,0,0,.63.4h3.27Zm.7-8.41H42.72l-13.8-29a.72.72,0,0,0-.64-.4H16.05a.7.7,0,0,0-.7.7v8.41a.67.67,0,0,0,.21.5.7.7,0,0,0,.49.2H22l13.87,29a.71.71,0,0,0,.63.4h9.8a.71.71,0,0,0,.71-.7v-8.41a.7.7,0,0,0-.7-.7Z" style="fill:#fff;fill-rule:evenodd"/></g><path d="M21.64,194.4H18.39L18,195.62h-1.7l2.81-7.25H21l2.8,7.25H22.09Zm-2.83-1.33h2.4L20,189.74Z"/><path d="M28.25,190.67l-1.3,5h-1.6l-2.08-7.25H25l1.27,5.25,1.38-5.24h1.21l1.37,5.24,1.26-5.24h1.74l-2.06,7.24H29.52Z"/><path d="M34.31,193.46a3.25,3.25,0,0,0,2.31,1c.85,0,1.26-.41,1.26-.82s-.63-.73-1.47-.92c-1.18-.28-2.7-.6-2.7-2.22,0-1.21,1-2.19,2.75-2.19a4.07,4.07,0,0,1,2.83,1l-.86,1.13a3.14,3.14,0,0,0-2.08-.82c-.7,0-1.07.3-1.07.74s.61.64,1.45.84c1.2.27,2.72.63,2.72,2.24,0,1.32-1,2.33-2.9,2.33a4.14,4.14,0,0,1-3.08-1.15Z"/><path d="M9,201.46h1.55v5.89h3.07v1.36H9Z"/><path d="M17.76,208.17a2.2,2.2,0,0,1-1.66.67,1.75,1.75,0,0,1-1.83-1.67v-.07a1.66,1.66,0,0,1,1.64-1.68h.19a2.11,2.11,0,0,1,1.66.64v-.73c0-.53-.46-.88-1.15-.88a2.21,2.21,0,0,0-1.54.62l-.52-.93a3.51,3.51,0,0,1,2.3-.82c1.19,0,2.29.48,2.29,2v3.39H17.76Zm0-1.37a1.35,1.35,0,0,0-1.11-.46c-.54,0-1,.28-1,.8s.45.77,1,.77a1.35,1.35,0,0,0,1.11-.46Z"/><path d="M27,205.39a.72.72,0,0,0-.6-.82.55.55,0,0,0-.18,0,1.41,1.41,0,0,0-1.09.61v3.54H23.77v-3.32a.72.72,0,0,0-.6-.82.55.55,0,0,0-.18,0,1.38,1.38,0,0,0-1.09.62v3.53H20.52v-5.25H22v.68a2.33,2.33,0,0,1,1.72-.81,1.38,1.38,0,0,1,1.45,1,2.25,2.25,0,0,1,1.81-1,1.41,1.41,0,0,1,1.55,1.25,1,1,0,0,1,0,.34v3.79h-1.4Z"/><path d="M29.79,201.46h1.38v2.67a2,2,0,0,1,1.62-.8c1.34,0,2.33,1,2.33,2.76s-1,2.75-2.33,2.75a2,2,0,0,1-1.62-.8v.67H29.79Zm2.56,6.16a1.34,1.34,0,0,0,1.35-1.35,1,1,0,0,0,0-.17,1.36,1.36,0,0,0-1.18-1.52h-.16a1.52,1.52,0,0,0-1.18.61V207A1.55,1.55,0,0,0,32.35,207.62Z"/><path d="M39.78,208a2.07,2.07,0,0,1-1.62.8c-1.33,0-2.33-1-2.33-2.75s1-2.76,2.33-2.76a2,2,0,0,1,1.62.8v-2.67h1.39v7.25H39.78Zm0-2.88a1.49,1.49,0,0,0-1.2-.6,1.54,1.54,0,0,0,0,3.05,1.53,1.53,0,0,0,1.2-.59Z"/><path d="M45.7,208.17a2.17,2.17,0,0,1-1.67.67,1.75,1.75,0,0,1-1.83-1.67v-.07a1.66,1.66,0,0,1,1.64-1.68H44a2.13,2.13,0,0,1,1.67.64v-.73c0-.53-.46-.88-1.16-.88a2.23,2.23,0,0,0-1.53.62l-.52-.93a3.48,3.48,0,0,1,2.29-.82c1.2,0,2.3.48,2.3,2v3.39H45.7Zm0-1.37a1.41,1.41,0,0,0-1.11-.46c-.55,0-1,.28-1,.8s.44.77,1,.77a1.41,1.41,0,0,0,1.11-.46Z"/><path d="M24.41,302.12H21.17l-.46,1.25H19l2.8-7.25h1.94l2.8,7.25H24.87Zm-2.83-1.33H24l-1.2-3.33Z"/><path d="M31,298.39l-1.26,5H28.12l-2.07-7.27h1.73l1.27,5.24,1.38-5.24h1.21L33,301.36l1.26-5.24H36L34,303.37H32.3Z"/><path d="M37.09,301.18a3.21,3.21,0,0,0,2.31,1c.85,0,1.26-.41,1.26-.82s-.63-.73-1.47-.92c-1.18-.28-2.71-.6-2.71-2.22,0-1.21,1-2.19,2.75-2.19a4,4,0,0,1,2.83,1l-.86,1.13a3.11,3.11,0,0,0-2.07-.79c-.7,0-1.07.3-1.07.74s.61.64,1.45.84c1.19.27,2.72.63,2.72,2.24,0,1.32-1,2.33-2.91,2.33a4.19,4.19,0,0,1-3.08-1.16Z"/><path d="M20.3,313.78l-1.83,2.65H16.63l2.64-3.72-2.47-3.53h1.84l1.66,2.44L22,309.18h1.86l-2.47,3.52L24,316.43H22.12Z"/><path d="M23.75,313.21h2.61v1.18H23.75Z"/><path d="M30.08,313.83H29v2.6H27.41v-7.25H30.8a2.26,2.26,0,0,1,2.43,2.07,2.44,2.44,0,0,1,0,.27,2.08,2.08,0,0,1-1.59,2.15l1.63,2.76H31.51Zm.49-3.33H29v2h1.62a1,1,0,0,0,0-2Z"/><path d="M37.31,315.89a2.17,2.17,0,0,1-1.67.67,1.75,1.75,0,0,1-1.82-1.66v-.08a1.66,1.66,0,0,1,1.64-1.68h.18a2.13,2.13,0,0,1,1.67.64v-.73c0-.53-.46-.88-1.15-.88a2.21,2.21,0,0,0-1.54.62l-.52-.93a3.48,3.48,0,0,1,2.29-.82c1.2,0,2.3.48,2.3,2v3.39H37.31Zm0-1.37a1.41,1.41,0,0,0-1.11-.46c-.55,0-1,.28-1,.8s.44.77,1,.77a1.41,1.41,0,0,0,1.11-.46Z"/><path d="M40.52,317.34a.71.71,0,0,0,.73-.38l.19-.45-2.13-5.33h1.48l1.37,3.65,1.37-3.65H45l-2.47,6.11a1.91,1.91,0,0,1-2,1.28,3.83,3.83,0,0,1-.68-.08l.2-1.24A1.17,1.17,0,0,0,40.52,317.34Z"/><g id="Icon-Architecture_64_Arch_AWS-X-Ray_64" data-name="Icon-Architecture 64 Arch AWS-X-Ray 64"><g id="Icon-Architecture-BG_64_Developer-Tools" data-name="Icon-Architecture-BG 64 Developer-Tools"><rect id="Rectangle-2" x="2.84" y="226.54" width="56.62" height="56.62" style="fill:url(#linear-gradient-2)"/></g><path id="AWS-X-Ray_Icon_64_Squid" data-name="AWS-X-Ray Icon 64 Squid" d="M36.46,256.4H35v9.83H32.21v-7H30.79v7H28v-4.91h-1.4v4.91H25.13v1.39H37.87v-1.4H36.46Zm5.66,5.27a10.27,10.27,0,1,0-10.36,10.18h.1A10.23,10.23,0,0,0,42.12,261.67Zm1.41,0a11.68,11.68,0,1,1-11.78-11.58h.11A11.63,11.63,0,0,1,43.53,261.67ZM51,253.93c0,4-2.22,6.61-6.08,7.14l-.2-1.39c2.22-.31,4.86-1.55,4.86-5.75,0-3.94-3-5.37-5.53-5.87a.68.68,0,0,1-.56-.65c-.17-2.88-1.88-4.17-3.49-4.17a3.26,3.26,0,0,0-2.61,1.3.68.68,0,0,1-.66.27.7.7,0,0,1-.56-.45,10.32,10.32,0,0,0-2.46-3.87,8.82,8.82,0,0,0-15.12,5.9,6.73,6.73,0,0,0,.07,1,.71.71,0,0,1-.54.77,5.58,5.58,0,0,0-4.62,5.7v.43c.13,2.33,2.16,4.47,4.93,5.2L18,260.85c-3.35-.89-5.81-3.55-6-6.48v-.51a6.87,6.87,0,0,1,5.11-6.9v-.62a10.28,10.28,0,0,1,6.07-9.07,10.42,10.42,0,0,1,11.47,2.2A11.32,11.32,0,0,1,37,242.86a4.64,4.64,0,0,1,2.93-1c2.17,0,4.45,1.54,4.85,5,4,.95,6.15,3.47,6.15,7.13Z" style="fill:#fff;fill-rule:evenodd"/></g><path d="M107.75,204.26A4.4,4.4,0,0,1,112,199.7h.26a4,4,0,0,1,3.39,1.74l-.93.52a3,3,0,0,0-2.46-1.28,3.59,3.59,0,0,0,0,7.17,3,3,0,0,0,2.46-1.29l.94.52a4,4,0,0,1-3.4,1.75,4.41,4.41,0,0,1-4.5-4.32Z"/><path d="M121,207.94a2.76,2.76,0,0,1-2.11.89,2.13,2.13,0,0,1-2.24-2v-.1a2.1,2.1,0,0,1,2.07-2.11h.17a2.68,2.68,0,0,1,2.11.87v-1.15c0-.86-.69-1.35-1.61-1.35a2.55,2.55,0,0,0-2,.89l-.46-.69a3.33,3.33,0,0,1,2.55-1.06c1.35,0,2.47.61,2.47,2.16v4.39h-1Zm0-1.83a2.14,2.14,0,0,0-1.76-.79,1.4,1.4,0,0,0-.24,2.79h.24a2.14,2.14,0,0,0,1.76-.79Z"/><path d="M124,199.84h1v8.83h-1Z"/><path d="M127,199.84h1v8.83h-1Z"/><path d="M129.88,207.11A2.91,2.91,0,0,0,132,208c1,0,1.51-.44,1.51-1.06s-.78-.92-1.64-1.14c-1.09-.25-2.32-.54-2.32-1.86,0-1,.86-1.84,2.38-1.84a3.23,3.23,0,0,1,2.37.93l-.46.68a2.51,2.51,0,0,0-1.91-.8c-.87,0-1.41.39-1.41,1s.72.82,1.56,1c1.11.25,2.39.57,2.39,2,0,1.07-.86,1.93-2.51,1.93a3.37,3.37,0,0,1-2.58-1Z"/><path d="M76.59,215.56A4.19,4.19,0,0,1,80,217.22l-.88.54a3.28,3.28,0,0,0-2.55-1.22,3.6,3.6,0,0,0,0,7.19,3.5,3.5,0,0,0,2.37-1v-1.79H76v-1h4.13v3.18a4.53,4.53,0,1,1-3.47-7.62Z"/><path d="M84.58,218c1.93,0,3.06,1.5,3.06,3.42v.21H82.47a2.25,2.25,0,0,0,2.29,2.21h0a2.82,2.82,0,0,0,2-.8l.47.64a3.44,3.44,0,0,1-2.54,1,3.35,3.35,0,1,1-.1-6.7Zm-2.11,2.95h4.2a2.08,2.08,0,0,0-2-2.13h-.1a2.13,2.13,0,0,0-2.09,2.13Z"/><path d="M89.44,223.2V219H88.38v-.88h1.06V216.4h1v1.74h1.3V219h-1.3v4c0,.47.21.82.65.82a.9.9,0,0,0,.67-.27l.3.74a1.65,1.65,0,0,1-1.2.41,1.29,1.29,0,0,1-1.43-1.15A1.15,1.15,0,0,1,89.44,223.2Z"/><path d="M93.29,222.46a3.71,3.71,0,0,0,2.77,1.25c1.58,0,2.08-.84,2.08-1.52,0-1.06-1.07-1.35-2.23-1.66-1.42-.37-3-.77-3-2.5,0-1.46,1.29-2.45,3-2.45A4.16,4.16,0,0,1,99,216.81l-.66.81a3.37,3.37,0,0,0-2.55-1.06c-1.06,0-1.82.57-1.82,1.4s1,1.15,2.15,1.45c1.44.39,3.08.84,3.08,2.69,0,1.28-.87,2.59-3.25,2.59a4.39,4.39,0,0,1-3.39-1.4Z"/><path d="M103.65,218c1.94,0,3.07,1.5,3.07,3.42v.21h-5.17a2.25,2.25,0,0,0,2.29,2.21h0a2.8,2.8,0,0,0,2-.8l.48.64a3.44,3.44,0,0,1-2.54,1,3.35,3.35,0,1,1-.11-6.7Zm-2.1,2.95h4.19a2.06,2.06,0,0,0-2-2.13h-.11a2.13,2.13,0,0,0-2.09,2.13Z"/><path d="M108.32,218.14h1v1a2.73,2.73,0,0,1,2.13-1.17v1a1.28,1.28,0,0,0-.39,0,2.35,2.35,0,0,0-1.74,1v4.52h-1Z"/><path d="M111.73,218.14h1.07l2.13,5.24,2.12-5.24h1.08l-2.66,6.39h-1.08Z"/><path d="M119,216.4a.67.67,0,0,1,.66-.66h0a.67.67,0,0,1,.68.66h0a.69.69,0,0,1-.68.67A.67.67,0,0,1,119,216.4Zm.17,1.74h1v6.39h-1Z"/><path d="M125,218a2.74,2.74,0,0,1,2.35,1.11l-.66.61a1.9,1.9,0,0,0-1.63-.84,2.49,2.49,0,0,0,0,4.94,2,2,0,0,0,1.63-.84l.66.61a2.74,2.74,0,0,1-2.35,1.11,3.35,3.35,0,0,1,0-6.7Z"/><path d="M131.46,218c1.93,0,3.07,1.5,3.07,3.42v.21h-5.17a2.24,2.24,0,0,0,2.27,2.21h0a2.8,2.8,0,0,0,2-.8l.48.64a3.44,3.44,0,0,1-2.54,1,3.35,3.35,0,0,1-.11-6.7Zm-2.1,2.95h4.19a2.08,2.08,0,0,0-2-2.13h-.09a2.12,2.12,0,0,0-2.09,2.13Z"/><path d="M140.35,215.56a4.17,4.17,0,0,1,3.42,1.66l-.87.54a3.28,3.28,0,0,0-2.55-1.22,3.6,3.6,0,0,0,0,7.19,3.47,3.47,0,0,0,2.36-1v-1.79h-3v-1h4.13v3.18a4.52,4.52,0,1,1-3.46-7.62Z"/><path d="M145.55,218.14h1v1a2.67,2.67,0,0,1,2.13-1.17v1a1.34,1.34,0,0,0-.4,0,2.33,2.33,0,0,0-1.73,1v4.52h-1Z"/><path d="M154,223.81a2.79,2.79,0,0,1-2.11.88,2.12,2.12,0,0,1-2.24-2v-.11a2.09,2.09,0,0,1,2.09-2.11h.15a2.64,2.64,0,0,1,2.11.88V220.2c0-.86-.69-1.35-1.61-1.35a2.54,2.54,0,0,0-2,.88l-.46-.69a3.35,3.35,0,0,1,2.55-1c1.35,0,2.47.6,2.47,2.15v4.39h-1Zm0-1.83a2.14,2.14,0,0,0-1.76-.79A1.4,1.4,0,0,0,152,224a1,1,0,0,0,.24,0,2.15,2.15,0,0,0,1.76-.8Z"/><path d="M156.88,227v-8.83h1v1A2.67,2.67,0,0,1,160,218c1.68,0,2.85,1.27,2.85,3.34s-1.17,3.36-2.85,3.36a2.62,2.62,0,0,1-2.15-1.12V227Zm2.9-8.1a2.36,2.36,0,0,0-1.9,1v2.88a2.36,2.36,0,0,0,1.9,1c1.28,0,2-1.06,2-2.48s-.72-2.4-2-2.4Z"/><path d="M168.8,220.33c0-1.13-.58-1.46-1.44-1.46a2.49,2.49,0,0,0-1.89,1v4.67h-1v-8.82h1v3.36a3.19,3.19,0,0,1,2.29-1.08,1.79,1.79,0,0,1,2,1.55,1.69,1.69,0,0,1,0,.45v4.51h-1Z"/><path d="M119.56,238.44h-4.47l-.78,2h-1.22l3.55-8.82H118l3.56,8.82h-1.22Zm-4.15-1h3.82l-1.9-4.91Z"/><path d="M122.71,231.62h3.54a2.66,2.66,0,0,1,0,5.32H123.8v3.5h-1.09Zm3.41,1H123.8V236h2.32a1.68,1.68,0,0,0,0-3.36Z"/><path d="M130.47,231.62h1.09v8.82h-1.09Z"/><path d="M103,279.47h-1.76V283h-1.1v-8.82h3.55a2.56,2.56,0,0,1,2.75,2.37,2.81,2.81,0,0,1,0,.29,2.43,2.43,0,0,1-2.28,2.56l2.38,3.6h-1.3Zm.56-4.34h-2.32v3.37h2.32a1.69,1.69,0,0,0,.26-3.37Z"/><path d="M110.47,276.42c1.93,0,3.06,1.51,3.06,3.43v.25h-5.17a2.27,2.27,0,0,0,2.3,2.21,2.77,2.77,0,0,0,2-.81l.47.65a3.44,3.44,0,0,1-2.54,1,3.16,3.16,0,0,1-3.25-3.06,1.5,1.5,0,0,1,0-.3,3.21,3.21,0,0,1,3-3.37Zm-2.11,2.95h4.19a2.06,2.06,0,0,0-2-2.13h-.11A2.13,2.13,0,0,0,108.36,279.37Z"/><path d="M115.33,281.62v-4.19h-1.06v-.81h1.06v-1.74h1v1.74h1.3v.87h-1.3v4c0,.48.21.82.65.82a1,1,0,0,0,.67-.26l.29.74a1.61,1.61,0,0,1-1.19.41,1.31,1.31,0,0,1-1.42-1.58Z"/><path d="M123.33,282.07a3.11,3.11,0,0,1-2.28,1.06,1.8,1.8,0,0,1-2-1.57,1.55,1.55,0,0,1,0-.43v-4.51h1v4.21c0,1.12.57,1.45,1.43,1.45a2.44,2.44,0,0,0,1.89-1v-4.66h1V283h-1Z"/><path d="M126.3,276.62h1v1a2.72,2.72,0,0,1,2.13-1.16v1a1.34,1.34,0,0,0-.4,0,2.33,2.33,0,0,0-1.73,1V283h-1Z"/><path d="M135,278.79c0-1.12-.57-1.48-1.43-1.48a2.49,2.49,0,0,0-1.89,1V283h-1v-6.36h1v.93a3.16,3.16,0,0,1,2.32-1.13,1.82,1.82,0,0,1,2,1.61,2.36,2.36,0,0,1,0,.46V283h-1Z"/><path d="M138,281.41a2.88,2.88,0,0,0,2.1.91c1,0,1.51-.43,1.51-1.06s-.78-.92-1.64-1.13c-1.08-.25-2.31-.55-2.31-1.87,0-1,.86-1.84,2.38-1.84a3.23,3.23,0,0,1,2.37.93l-.47.69a2.45,2.45,0,0,0-1.9-.81c-.87,0-1.42.4-1.42,1s.73.82,1.57,1c1.11.26,2.39.57,2.39,2,0,1.07-.86,1.93-2.51,1.93a3.37,3.37,0,0,1-2.58-1Z"/><path d="M95.08,292.45h1v1a2.76,2.76,0,0,1,2.13-1.17v1h-.4a2.36,2.36,0,0,0-1.73,1v4.53h-1Z"/><path d="M102.22,292.29c1.93,0,3.07,1.51,3.07,3.43V296h-5.17a2.25,2.25,0,0,0,2.29,2.21h0a2.77,2.77,0,0,0,2-.81l.48.65a3.53,3.53,0,0,1-2.54,1,3.36,3.36,0,0,1-.11-6.71Zm-2.1,2.95h4.19a2.08,2.08,0,0,0-2-2.13h-.09a2.12,2.12,0,0,0-2.09,2.13Z"/><path d="M106.85,297.28a2.87,2.87,0,0,0,2.1.91c1,0,1.51-.44,1.51-1.06s-.78-.93-1.64-1.14c-1.09-.25-2.32-.54-2.32-1.86,0-1,.86-1.84,2.38-1.84a3.23,3.23,0,0,1,2.37.93l-.46.68a2.51,2.51,0,0,0-1.91-.8c-.87,0-1.41.39-1.41,1s.72.82,1.56,1c1.11.25,2.39.57,2.39,2,0,1.08-.86,1.94-2.51,1.94a3.37,3.37,0,0,1-2.58-1Z"/><path d="M113,301.27v-8.82h1v.95a2.67,2.67,0,0,1,2.15-1.11c1.68,0,2.85,1.27,2.85,3.35s-1.17,3.36-2.85,3.36a2.59,2.59,0,0,1-2.15-1.13v3.4Zm2.9-8.09a2.36,2.36,0,0,0-1.9,1v2.89a2.36,2.36,0,0,0,1.9,1c1.28,0,2-1.06,2-2.47s-.77-2.42-2-2.42Z"/><path d="M120.25,295.62a3.11,3.11,0,1,1,0,.27A2.44,2.44,0,0,1,120.25,295.62Zm5.28,0a2.15,2.15,0,1,0-2.12,2.47,2.21,2.21,0,0,0,2.13-2.3A1,1,0,0,0,125.53,295.62Z"/><path d="M132.5,294.62c0-1.13-.57-1.48-1.43-1.48a2.44,2.44,0,0,0-1.89,1v4.67h-1v-6.39h1v.92a3.15,3.15,0,0,1,2.27-1.08,1.82,1.82,0,0,1,2,1.59,1.85,1.85,0,0,1,0,.47v4.49h-1Z"/><path d="M135.43,297.28a2.91,2.91,0,0,0,2.11.91c1,0,1.5-.44,1.5-1.06s-.78-.93-1.64-1.14c-1.08-.25-2.31-.54-2.31-1.86,0-1,.86-1.84,2.38-1.84a3.23,3.23,0,0,1,2.37.93l-.47.68a2.49,2.49,0,0,0-1.9-.8c-.87,0-1.42.39-1.42,1s.73.82,1.57,1c1.11.25,2.39.57,2.39,2,0,1.08-.86,1.94-2.51,1.94a3.37,3.37,0,0,1-2.58-1Z"/><path d="M144.4,292.29c1.93,0,3.07,1.51,3.07,3.43V296h-5.18a2.26,2.26,0,0,0,2.31,2.21h0a2.77,2.77,0,0,0,2-.81l.47.65a3.45,3.45,0,0,1-2.54,1,3.36,3.36,0,0,1-.1-6.71Zm-2.11,2.95h4.2a2.08,2.08,0,0,0-2-2.13h-.08a2.14,2.14,0,0,0-2.09,2.13Z"/><path d="M55.85,335.62a4.41,4.41,0,0,1,4.25-4.57h.25a4,4,0,0,1,3.39,1.75l-.93.52A3,3,0,0,0,60.35,332a3.59,3.59,0,0,0,0,7.17,3,3,0,0,0,2.46-1.28l.94.52a4,4,0,0,1-3.4,1.74,4.4,4.4,0,0,1-4.5-4.3Z"/><path d="M65.11,331.17h1V340h-1Z"/><path d="M67.71,336.79a3.11,3.11,0,1,1,0,.25A2.09,2.09,0,0,1,67.71,336.79Zm5.28,0a2.15,2.15,0,1,0-2.12,2.48A2.22,2.22,0,0,0,73,336.93a.66.66,0,0,0,0-.14Z"/><path d="M80,339.09a3.13,3.13,0,0,1-2.28,1.06,1.8,1.8,0,0,1-2-1.57,1.55,1.55,0,0,1,0-.43v-4.53h1v4.21c0,1.12.57,1.46,1.42,1.46a2.43,2.43,0,0,0,1.9-1v-4.67h1V340H80Z"/><path d="M87.56,339a2.7,2.7,0,0,1-2.16,1.11c-1.66,0-2.84-1.27-2.84-3.34s1.16-3.37,2.84-3.37a2.69,2.69,0,0,1,2.16,1.13v-3.4h1V340h-1Zm0-3.68a2.41,2.41,0,0,0-1.92-1c-1.28,0-2,1.06-2,2.48s.77,2.46,2,2.46a2.37,2.37,0,0,0,1.92-1Z"/><path d="M95.37,332.88,93.43,340H92.24l-2.51-8.82H91l2,7.35,2-7.35h.91l2,7.35,2-7.35h1.21L98.56,340H97.37Z"/><path d="M105.67,339.27a2.72,2.72,0,0,1-2.11.88,2.13,2.13,0,0,1-2.24-2V338a2.09,2.09,0,0,1,2.09-2.11h.15a2.64,2.64,0,0,1,2.11.88v-1.19c0-.86-.68-1.34-1.61-1.34a2.54,2.54,0,0,0-2,.88l-.46-.69a3.37,3.37,0,0,1,2.55-1.06c1.35,0,2.48.61,2.48,2.16V340h-1Zm0-1.83a2.13,2.13,0,0,0-1.72-.82,1.4,1.4,0,0,0-.24,2.79H104a2.13,2.13,0,0,0,1.76-.8Z"/><path d="M108.85,338.62v-4.18h-1.06v-.82h1.06v-1.74h1v1.74h1.29v.88h-1.29v4c0,.47.21.82.65.82a.94.94,0,0,0,.67-.27l.29.74a1.61,1.61,0,0,1-1.19.41,1.31,1.31,0,0,1-1.42-1.58Z"/><path d="M115.35,333.44a2.7,2.7,0,0,1,2.34,1.12l-.66.6a1.89,1.89,0,0,0-1.63-.83,2.49,2.49,0,0,0,0,4.94,1.93,1.93,0,0,0,1.63-.84l.66.61a2.71,2.71,0,0,1-2.34,1.11,3.36,3.36,0,0,1,0-6.71Z"/><path d="M123.4,335.79c0-1.13-.58-1.46-1.44-1.46a2.52,2.52,0,0,0-1.89,1V340h-1v-8.82h1v3.36a3.17,3.17,0,0,1,2.29-1.09,1.8,1.8,0,0,1,2,1.57,1.55,1.55,0,0,1,0,.43V340h-1Z"/><path d="M132.69,336.49H131V340h-1.1v-8.82h3.54a2.57,2.57,0,0,1,2.76,2.36c0,.1,0,.2,0,.3a2.43,2.43,0,0,1-2.29,2.56l2.38,3.6H135Zm.55-4.34H131v3.37h2.31a1.69,1.69,0,0,0,.26-3.37h-.28Z"/><path d="M142.14,339.09a3.11,3.11,0,0,1-2.28,1.06,1.8,1.8,0,0,1-2-1.57,1.55,1.55,0,0,1,0-.43v-4.53h1v4.21c0,1.12.57,1.46,1.43,1.46a2.41,2.41,0,0,0,1.89-1v-4.67h1V340h-1Z"/><path d="M145.11,331.17h1V340h-1Z"/><path d="M150.87,333.44c1.93,0,3.07,1.51,3.07,3.43v.25h-5.18a2.25,2.25,0,0,0,2.29,2.21h0a2.77,2.77,0,0,0,2-.81l.47.65a3.44,3.44,0,0,1-2.54,1,3.16,3.16,0,0,1-3.25-3.06,1.5,1.5,0,0,1,0-.3,3.21,3.21,0,0,1,3-3.37Zm-2.11,2.95H153a2.07,2.07,0,0,0-2-2.12h-.09a2.14,2.14,0,0,0-2.08,2.12Z"/><path d="M158.77,331.86a.67.67,0,0,1,.66-.66h0a.67.67,0,0,1,.68.66h0a.69.69,0,0,1-.68.67A.67.67,0,0,1,158.77,331.86Zm.18,1.76h1V340h-1Z"/><path d="M166.23,335.81c0-1.12-.57-1.48-1.43-1.48a2.49,2.49,0,0,0-1.89,1V340h-1v-6.38h1v.93a3.18,3.18,0,0,1,2.28-1.09,1.82,1.82,0,0,1,2,1.61,2.36,2.36,0,0,1,0,.46V340h-1Z"/><path d="M168.25,333.62h1.07l2.13,5.24,2.12-5.24h1.08L172,340h-1Z"/><path d="M175.31,336.79a3.11,3.11,0,1,1,0,.25A2.09,2.09,0,0,1,175.31,336.79Zm5.28,0a2.15,2.15,0,1,0-2.12,2.48,2.21,2.21,0,0,0,2.13-2.3A1.09,1.09,0,0,0,180.59,336.79Z"/><path d="M185.3,337.12l-1.06,1.05V340h-1v-8.82h1V337l3.36-3.4h1.25L186,336.5l2.85,3.49H187.6Z"/><path d="M192.52,333.44c1.93,0,3.07,1.51,3.07,3.43v.25h-5.18a2.25,2.25,0,0,0,2.29,2.21h0a2.77,2.77,0,0,0,2-.81l.47.65a3.44,3.44,0,0,1-2.54,1,3.16,3.16,0,0,1-3.25-3.06,1.5,1.5,0,0,1,0-.3,3.21,3.21,0,0,1,3-3.37Zm-2.11,2.95h4.2a2.07,2.07,0,0,0-2-2.12h-.09a2.15,2.15,0,0,0-2.09,2.12Z"/><path d="M197.14,338.43a2.88,2.88,0,0,0,2.1.92c1,0,1.51-.44,1.51-1.06s-.78-.93-1.64-1.14c-1.08-.25-2.31-.54-2.31-1.87,0-1,.86-1.84,2.38-1.84a3.23,3.23,0,0,1,2.37.93l-.47.69a2.5,2.5,0,0,0-1.9-.81c-.88,0-1.42.4-1.42,1s.73.82,1.56,1c1.12.25,2.4.57,2.4,2,0,1.07-.86,1.93-2.51,1.93a3.41,3.41,0,0,1-2.58-1Z"/><path d="M70.3,353.78A3.76,3.76,0,0,0,73.08,355c1.57,0,2.08-.85,2.08-1.52,0-1.06-1.07-1.35-2.24-1.67-1.41-.37-3-.77-3-2.5,0-1.45,1.3-2.45,3-2.45a4.2,4.2,0,0,1,3.14,1.23l-.66.81a3.38,3.38,0,0,0-2.56-1.06c-1.06,0-1.81.57-1.81,1.4s1,1.16,2.14,1.46c1.44.38,3.09.83,3.09,2.69,0,1.28-.88,2.59-3.26,2.59a4.37,4.37,0,0,1-3.35-1.4Z"/><path d="M79,348.74v7.12H78V347h1.13l5.08,7v-7h1.09v8.82h-1Z"/><path d="M87.41,353.78A3.7,3.7,0,0,0,90.19,355c1.57,0,2.08-.85,2.08-1.52,0-1.06-1.07-1.35-2.24-1.67-1.41-.37-3-.77-3-2.5,0-1.45,1.3-2.45,3-2.45a4.2,4.2,0,0,1,3.14,1.23l-.66.81A3.38,3.38,0,0,0,90,347.88c-1.06,0-1.81.57-1.81,1.4s1,1.16,2.14,1.46c1.44.38,3.08.83,3.08,2.69,0,1.28-.87,2.59-3.25,2.59a4.39,4.39,0,0,1-3.39-1.4Z"/><path d="M98.61,354.52v-4.18H97.55v-.87h1.06v-1.75h1v1.75H101v.87h-1.3v4c0,.48.21.82.65.82a1,1,0,0,0,.68-.26l.29.74a1.61,1.61,0,0,1-1.19.41,1.31,1.31,0,0,1-1.48-1.12A1.42,1.42,0,0,1,98.61,354.52Z"/><path d="M102,352.62a3.11,3.11,0,1,1,0,.25A2.09,2.09,0,0,1,102,352.62Zm5.28,0a2.15,2.15,0,1,0-2.12,2.47,2.22,2.22,0,0,0,2.11-2.32.76.76,0,0,0,0-.15Z"/><path d="M109.86,358.29v-8.82h1v.95a2.67,2.67,0,0,1,2.16-1.11c1.68,0,2.85,1.27,2.85,3.35S114.7,356,113,356a2.62,2.62,0,0,1-2.16-1.13v3.4Zm2.9-8.09a2.38,2.38,0,0,0-1.91,1v2.88a2.38,2.38,0,0,0,1.91,1c1.28,0,2-1.06,2-2.47s-.77-2.41-2-2.41Z"/><path d="M117.28,347.72a.67.67,0,0,1,.66-.66h0a.67.67,0,0,1,.68.66h0a.7.7,0,0,1-.68.68A.68.68,0,0,1,117.28,347.72Zm.17,1.75h1v6.39h-1Z"/><path d="M123.24,349.31a2.74,2.74,0,0,1,2.35,1.11l-.66.61a1.9,1.9,0,0,0-1.63-.83,2.48,2.48,0,0,0,0,4.93,2,2,0,0,0,1.63-.83l.66.61a2.74,2.74,0,0,1-2.35,1.11,3.36,3.36,0,0,1,0-6.71Z"/><path d="M130.58,354.52v-4.18h-1.06v-.87h1.06v-1.75h1v1.75h1.3v.87h-1.3v4c0,.48.22.82.65.82a1,1,0,0,0,.68-.26l.29.74a1.61,1.61,0,0,1-1.19.41,1.3,1.3,0,0,1-1.44-1.16A1.14,1.14,0,0,1,130.58,354.52Z"/><path d="M134,352.62a3.11,3.11,0,1,1,0,.25A2.09,2.09,0,0,1,134,352.62Zm5.28,0a2.15,2.15,0,1,0-2.12,2.47,2.22,2.22,0,0,0,2.08-2.35s0-.08,0-.12Z"/><path d="M145.2,354.3a2.91,2.91,0,0,0,2.11.91c1,0,1.51-.44,1.51-1.06s-.78-.92-1.64-1.13c-1.09-.26-2.32-.55-2.32-1.87,0-1,.86-1.84,2.38-1.84a3.23,3.23,0,0,1,2.37.93l-.46.69a2.48,2.48,0,0,0-1.91-.81c-.87,0-1.41.4-1.41,1s.72.82,1.56,1c1.11.25,2.39.57,2.39,2,0,1.07-.86,1.93-2.51,1.93a3.37,3.37,0,0,1-2.58-1Z"/><path d="M154.17,349.31c1.93,0,3.07,1.51,3.07,3.43V353h-5.17a2.25,2.25,0,0,0,2.29,2.21h0a2.77,2.77,0,0,0,2-.81l.48.65a3.53,3.53,0,0,1-2.54,1,3.36,3.36,0,0,1-.11-6.71Zm-2.1,2.95h4.19a2.08,2.08,0,0,0-2-2.13h-.09A2.13,2.13,0,0,0,152.07,352.26Z"/><path d="M163.15,351.68c0-1.12-.57-1.48-1.43-1.48a2.44,2.44,0,0,0-1.89,1v4.67h-1v-6.39h1v.93a3.16,3.16,0,0,1,2.27-1.09,1.82,1.82,0,0,1,2,1.61,2.36,2.36,0,0,1,0,.46v4.48h-1Z"/><path d="M170.75,354.91A2.67,2.67,0,0,1,168.6,356c-1.67,0-2.85-1.27-2.85-3.35s1.17-3.36,2.85-3.36a2.63,2.63,0,0,1,2.15,1.13V347h1v8.82h-1Zm0-3.68a2.37,2.37,0,0,0-1.92-1c-1.28,0-2,1.06-2,2.47s.77,2.46,2,2.46a2.37,2.37,0,0,0,1.92-1Z"/><path d="M177.3,353.78a3.68,3.68,0,0,0,2.77,1.26c1.58,0,2.08-.85,2.08-1.52,0-1.06-1.07-1.35-2.23-1.67-1.42-.37-3-.77-3-2.5,0-1.45,1.29-2.45,3-2.45a4.16,4.16,0,0,1,3.13,1.23l-.66.81a3.37,3.37,0,0,0-2.55-1.06c-1.06,0-1.82.57-1.82,1.4s1,1.16,2.15,1.46c1.44.38,3.08.83,3.08,2.69,0,1.28-.87,2.59-3.26,2.59a4.36,4.36,0,0,1-3.38-1.4Z"/><path d="M192.47,348.52l-3,7.34H189l-3-7.34v7.34H185V347h1.57l2.74,6.72L192,347h1.57v8.82h-1.09Z"/><path d="M195.74,353.78a3.7,3.7,0,0,0,2.78,1.26c1.57,0,2.08-.85,2.08-1.52,0-1.06-1.08-1.35-2.24-1.67-1.42-.37-3-.77-3-2.5,0-1.45,1.3-2.45,3-2.45a4.16,4.16,0,0,1,3.13,1.23l-.66.81a3.37,3.37,0,0,0-2.55-1.06c-1.06,0-1.81.57-1.81,1.4s1,1.16,2.14,1.46c1.44.38,3.08.83,3.08,2.69,0,1.28-.87,2.59-3.25,2.59a4.39,4.39,0,0,1-3.39-1.4Z"/><g id="Icon-Resource_Compute_Res_Amazon-Lambda_Lambda-Function_48" data-name="Icon-Resource Compute Res Amazon-Lambda Lambda-Function 48"><path id="Amazon-Lambda-Lambda-Function_Resource-Icon_light-bg" data-name="Amazon-Lambda-Lambda-Function Resource-Icon light-bg" d="M235.67,173.22A24.18,24.18,0,1,1,259.85,149h0A24.21,24.21,0,0,1,235.67,173.22Zm0-50.78a26.6,26.6,0,1,0,26.6,26.6A26.6,26.6,0,0,0,235.67,122.44Zm-8.18,40.18H221l7.67-16,3.24,6.69Zm2.27-19.39a1.21,1.21,0,0,0-1.09-.68h0a1.2,1.2,0,0,0-1.09.69L218,163.31a1.21,1.21,0,0,0,.57,1.61,1.17,1.17,0,0,0,.52.12h9.16a1.22,1.22,0,0,0,1.1-.69l5-10.6a1.24,1.24,0,0,0,0-1Zm20.57,19.39h-6.59l-12-25.75a1.2,1.2,0,0,0-1.09-.7h-4.36v-5H235L247,157a1.21,1.21,0,0,0,1.1.7h2.27Zm1.21-7.4h-2.71L237,129.49a1.21,1.21,0,0,0-1.1-.7H225.1a1.22,1.22,0,0,0-1.21,1.2v7.41a1.21,1.21,0,0,0,1.21,1.21h4.8l12,25.75a1.21,1.21,0,0,0,1.1.7h8.57a1.21,1.21,0,0,0,1.21-1.21v-7.4a1.21,1.21,0,0,0-1.21-1.21Z" style="fill:#d45b07;fill-rule:evenodd"/></g><path d="M219.3,189.34h1.55v5.89H224v1.39h-4.62Z"/><path d="M228,196.05a2.2,2.2,0,0,1-1.66.67,1.75,1.75,0,0,1-1.83-1.67V195a1.66,1.66,0,0,1,1.64-1.68h.19A2.11,2.11,0,0,1,228,194v-.73c0-.53-.45-.88-1.15-.88a2.21,2.21,0,0,0-1.54.62l-.52-.93a3.51,3.51,0,0,1,2.3-.82c1.19,0,2.29.48,2.29,2v3.41H228Zm0-1.37a1.35,1.35,0,0,0-1.11-.46c-.54,0-1,.28-1,.8s.45.77,1,.77a1.35,1.35,0,0,0,1.11-.46Z"/><path d="M237.31,193.27c0-.48-.21-.83-.78-.83a1.41,1.41,0,0,0-1.09.61v3.57h-1.39V193.3a.72.72,0,0,0-.6-.82.55.55,0,0,0-.18,0,1.38,1.38,0,0,0-1.09.62v3.53H230.8v-5.25h1.38v.68a2.33,2.33,0,0,1,1.72-.81,1.38,1.38,0,0,1,1.45,1,2.25,2.25,0,0,1,1.81-1,1.41,1.41,0,0,1,1.55,1.25,1,1,0,0,1,0,.34v3.79h-1.4Z"/><path d="M240.07,189.34h1.38V192a2,2,0,0,1,1.62-.8c1.34,0,2.33,1,2.33,2.76s-1,2.75-2.33,2.75a2,2,0,0,1-1.62-.8v.7h-1.38Zm2.57,6.15a1.34,1.34,0,0,0,1.34-1.36.86.86,0,0,0,0-.16,1.36,1.36,0,0,0-1.18-1.52h-.15a1.51,1.51,0,0,0-1.19.61v1.86A1.57,1.57,0,0,0,242.64,195.49Z"/><path d="M250.06,195.92a2.07,2.07,0,0,1-1.62.8c-1.33,0-2.33-1-2.33-2.75s1-2.76,2.33-2.76a2,2,0,0,1,1.62.8v-2.67h1.39v7.28h-1.39Zm0-2.88a1.49,1.49,0,0,0-1.2-.6,1.54,1.54,0,0,0,0,3.05,1.53,1.53,0,0,0,1.2-.59Z"/><path d="M256,196.05a2.17,2.17,0,0,1-1.67.67,1.75,1.75,0,0,1-1.83-1.67V195a1.66,1.66,0,0,1,1.64-1.68h.19A2.13,2.13,0,0,1,256,194v-.73c0-.53-.46-.88-1.16-.88a2.23,2.23,0,0,0-1.53.62l-.52-.93a3.48,3.48,0,0,1,2.29-.82c1.2,0,2.3.48,2.3,2v3.41H256Zm0-1.37a1.41,1.41,0,0,0-1.11-.46c-.55,0-1,.28-1,.8s.44.77,1,.77a1.41,1.41,0,0,0,1.11-.46Z"/><path d="M219,205.62h-.87v-1.2H219v-.29a1.7,1.7,0,0,1,1.55-1.82h.23a2.14,2.14,0,0,1,1,.21l-.29,1a1,1,0,0,0-.44-.11c-.39,0-.66.27-.66.77v.26h1.07v1.18h-1.07v4H219Z"/><path d="M225.82,209a2.49,2.49,0,0,1-1.85.79,1.51,1.51,0,0,1-1.69-1.29,2.16,2.16,0,0,1,0-.36V204.4h1.38v3.22a.85.85,0,0,0,.67,1,.91.91,0,0,0,.33,0,1.53,1.53,0,0,0,1.19-.6v-3.55h1.38v5.15h-1.38Z"/><path d="M232.12,206.47a.85.85,0,0,0-.67-1,.92.92,0,0,0-.33,0,1.48,1.48,0,0,0-1.19.62v3.53h-1.38v-5.25H230v.68a2.44,2.44,0,0,1,1.84-.81,1.54,1.54,0,0,1,1.71,1.33,1.93,1.93,0,0,1,0,.34v3.71h-1.39Z"/><path d="M237.32,204.27a2.44,2.44,0,0,1,2.08.94l-.9.85a1.27,1.27,0,0,0-1.11-.56,1.53,1.53,0,0,0,0,3.05,1.32,1.32,0,0,0,1.11-.56l.9.83a2.43,2.43,0,0,1-2.08,1,2.76,2.76,0,1,1-.33-5.51h.33Z"/><path d="M240.58,208.35v-2.73h-.87v-1.2h.87V203H242v1.44H243v1.2H242V208a.52.52,0,0,0,.45.57h0a.76.76,0,0,0,.48-.15l.29,1a1.7,1.7,0,0,1-1.15.34,1.31,1.31,0,0,1-1.46-1.13A.89.89,0,0,1,240.58,208.35Z"/><path d="M243.84,202.8a.83.83,0,1,1,.83.83A.83.83,0,0,1,243.84,202.8Zm.15,1.6h1.38v5.22H244Z"/><path d="M246.4,207a2.78,2.78,0,1,1,2.8,2.76h0a2.66,2.66,0,0,1-2.78-2.54Zm4.12,0a1.35,1.35,0,1,0-1.34,1.53,1.38,1.38,0,0,0,1.35-1.41S250.52,207.06,250.52,207Z"/><path d="M256.53,206.47a.85.85,0,0,0-.67-1,.92.92,0,0,0-.33,0,1.48,1.48,0,0,0-1.19.62v3.53H253v-5.25h1.39v.68a2.4,2.4,0,0,1,1.83-.81,1.53,1.53,0,0,1,1.71,1.31,2.16,2.16,0,0,1,0,.36v3.71H256.5Z"/><path d="M223.47,402.62h-3.25l-.45,1.25h-1.7l2.81-7.25h1.93l2.8,7.25H224Zm-2.83-1.34H223L221.85,398Z"/><path d="M232.77,400.52c0-.49-.22-.84-.78-.84a1.41,1.41,0,0,0-1.09.61v3.54h-1.39v-3.31c0-.49-.22-.84-.79-.84a1.36,1.36,0,0,0-1.08.62v3.53h-1.39v-5.21h1.39v.68a2.31,2.31,0,0,1,1.71-.81,1.39,1.39,0,0,1,1.46,1,2.24,2.24,0,0,1,1.81-1,1.4,1.4,0,0,1,1.55,1.24,1.38,1.38,0,0,1,0,.35v3.79h-1.39Z"/><path d="M238.68,403.29A2.2,2.2,0,0,1,237,404a1.75,1.75,0,0,1-1.83-1.67v-.07a1.66,1.66,0,0,1,1.64-1.68H237a2.14,2.14,0,0,1,1.66.64v-.73c0-.53-.46-.88-1.15-.88a2.21,2.21,0,0,0-1.54.62l-.52-.93a3.51,3.51,0,0,1,2.3-.82c1.19,0,2.29.48,2.29,2v3.39h-1.38Zm0-1.37a1.35,1.35,0,0,0-1.11-.46c-.54,0-1,.28-1,.8s.45.77,1,.77a1.35,1.35,0,0,0,1.11-.46Z"/><path d="M241.21,402.8l2.37-3h-2.37v-1.18h4.24v1l-2.4,3h2.44v1.2h-4.28Z"/><path d="M246.31,401.2a2.78,2.78,0,1,1,2.8,2.76h0a2.66,2.66,0,0,1-2.77-2.55Zm4.12,0a1.37,1.37,0,0,0-1.23-1.51h-.12a1.54,1.54,0,0,0,0,3.05,1.4,1.4,0,0,0,1.36-1.42s0-.07,0-.11Z"/><path d="M256.44,400.62a.85.85,0,0,0-.67-1,.91.91,0,0,0-.33,0,1.45,1.45,0,0,0-1.19.62v3.53h-1.39v-5.15h1.39v.68a2.37,2.37,0,0,1,1.83-.81,1.53,1.53,0,0,1,1.71,1.31,2.16,2.16,0,0,1,0,.36v3.71h-1.38Z"/><path d="M208.67,413.27a3.66,3.66,0,0,1,3.59-3.75h.22a3.37,3.37,0,0,1,3.09,1.77l-1.33.65a2,2,0,0,0-1.76-1.05,2.39,2.39,0,0,0,0,4.76,2,2,0,0,0,1.76-1l1.33.64a3.4,3.4,0,0,1-3.09,1.78,3.67,3.67,0,0,1-3.81-3.52Z"/><path d="M216.46,409.62h1.38v7.25h-1.38Z"/><path d="M218.88,414.26a2.78,2.78,0,1,1,2.8,2.76h0a2.66,2.66,0,0,1-2.77-2.55Zm4.12,0a1.36,1.36,0,1,0-1.35,1.53,1.38,1.38,0,0,0,1.36-1.4s0-.09,0-.13Z"/><path d="M229,416.23a2.49,2.49,0,0,1-1.85.79,1.49,1.49,0,0,1-1.69-1.28,1.53,1.53,0,0,1,0-.37v-3.75h1.38v3.18a.85.85,0,0,0,.67,1,.92.92,0,0,0,.33,0,1.57,1.57,0,0,0,1.2-.6v-3.58h1.38v5.25H229Z"/><path d="M235.37,416.22a2,2,0,0,1-1.62.8c-1.33,0-2.33-1-2.33-2.75s1-2.76,2.33-2.76a2,2,0,0,1,1.62.8v-2.69h1.39v7.25h-1.39Zm0-2.89a1.51,1.51,0,0,0-1.19-.59,1.54,1.54,0,0,0,0,3.05,1.5,1.5,0,0,0,1.19-.6Z"/><path d="M242.45,411.91l-1.27,5h-1.64l-2.08-7.29h1.73l1.28,5.24,1.38-5.24h1.2l1.38,5.24,1.26-5.24h1.74l-2.07,7.25h-1.64Z"/><path d="M250.85,416.35a2.17,2.17,0,0,1-1.67.67,1.75,1.75,0,0,1-1.83-1.67v-.07A1.66,1.66,0,0,1,249,413.6h.19a2.13,2.13,0,0,1,1.67.64v-.73c0-.53-.46-.88-1.16-.88a2.23,2.23,0,0,0-1.53.62l-.52-.93a3.48,3.48,0,0,1,2.29-.82c1.2,0,2.3.48,2.3,2v3.39h-1.38Zm0-1.37a1.41,1.41,0,0,0-1.11-.46c-.55,0-1,.28-1,.79s.44.78,1,.78a1.41,1.41,0,0,0,1.11-.46Z"/><path d="M253.87,415.62v-2.74H253v-1.26h.87v-1.44h1.39v1.44h1.07v1.21h-1.07v2.37a.52.52,0,0,0,.45.57h0a.71.71,0,0,0,.48-.15l.3,1a1.71,1.71,0,0,1-1.16.34,1.31,1.31,0,0,1-1.48-1.12A1.62,1.62,0,0,1,253.87,415.62Z"/><path d="M259.73,411.51a2.42,2.42,0,0,1,2.07.94l-.9.85a1.27,1.27,0,0,0-1.11-.56,1.53,1.53,0,0,0,0,3.05,1.32,1.32,0,0,0,1.11-.56l.9.83a2.37,2.37,0,0,1-2.07,1,2.76,2.76,0,0,1-.33-5.51h.33Z"/><path d="M266.27,413.69c0-.73-.38-.95-1-.95a1.52,1.52,0,0,0-1.2.62v3.53h-1.38v-7.27h1.38v2.68a2.46,2.46,0,0,1,1.85-.81,1.5,1.5,0,0,1,1.7,1.29,1.45,1.45,0,0,1,0,.36v3.73h-1.38Z"/><path d="M229.51,424.7h1.38v.71a2.26,2.26,0,0,1,1.67-.83v1.35a1.2,1.2,0,0,0-.38-.05,1.77,1.77,0,0,0-1.29.6V430h-1.38Z"/><path d="M237,429.29a2.49,2.49,0,0,1-1.85.79,1.5,1.5,0,0,1-1.69-1.3,1.37,1.37,0,0,1,0-.35V424.7h1.39v3.18a.88.88,0,0,0,1,1,1.54,1.54,0,0,0,1.2-.6v-3.55h1.38V430H237Z"/><path d="M239.73,422.69h1.38V430h-1.38Z"/><path d="M244.86,424.56a2.64,2.64,0,0,1,2.64,2.64,2.35,2.35,0,0,1,0,.26v.3h-3.9A1.41,1.41,0,0,0,245.1,429a2.13,2.13,0,0,0,1.4-.52l.61.89a3.27,3.27,0,0,1-2.16.73,2.76,2.76,0,0,1-.09-5.52Zm-1.29,2.27h2.59a1.23,1.23,0,0,0-1.29-1.17h0A1.26,1.26,0,0,0,243.57,426.83Z"/><path d="M63.82,492.44H61.69v-1.36h5.79v1.36H65.37v5.9H63.82Z"/><path d="M67,495.71a2.78,2.78,0,1,1,2.8,2.76h0A2.66,2.66,0,0,1,67,495.92Zm4.12,0a1.36,1.36,0,1,0-1.35,1.53,1.39,1.39,0,0,0,1.36-1.42S71.16,495.75,71.16,495.71Z"/><path d="M73.62,500.34v-7.26H75v.67a2.07,2.07,0,0,1,1.62-.8C78,493,79,494,79,495.71s-1,2.76-2.33,2.76a2,2,0,0,1-1.62-.81v2.68Zm2.57-6.16a1.55,1.55,0,0,0-1.19.6v1.84a1.45,1.45,0,1,0,1.19-2.46Z"/><path d="M79.85,491.48a.83.83,0,1,1,.83.83h0A.84.84,0,0,1,79.85,491.48Zm.14,1.6h1.38v5.26H80Z"/><path d="M85.19,493a2.47,2.47,0,0,1,2.08.95l-.91.85a1.28,1.28,0,0,0-1.11-.57,1.53,1.53,0,0,0,0,3.06,1.33,1.33,0,0,0,1.11-.57l.91.84a2.43,2.43,0,0,1-2.08,1,2.76,2.76,0,1,1,0-5.52h0Z"/><path d="M167.73,720.12H165.6v-1.36h5.79v1.36h-2.11V726h-1.55Z"/><path d="M171,723.38a2.78,2.78,0,1,1,2.79,2.77h0A2.66,2.66,0,0,1,171,723.6Zm4.12,0a1.36,1.36,0,1,0-1.35,1.54,1.39,1.39,0,0,0,1.36-1.42S175.07,723.42,175.07,723.38Z"/><path d="M177.53,728v-7.26H179v.66a2,2,0,0,1,1.62-.79c1.35,0,2.33,1,2.33,2.75s-1,2.77-2.33,2.77a2,2,0,0,1-1.62-.81V728Zm2.57-6.16a1.55,1.55,0,0,0-1.19.6v1.86a1.63,1.63,0,0,0,1.19.6,1.55,1.55,0,0,0,0-3.06Z"/><path d="M183.76,719.16a.83.83,0,1,1,.83.83h0A.84.84,0,0,1,183.76,719.16Zm.14,1.6h1.38V726H184Z"/><path d="M189.1,720.62a2.45,2.45,0,0,1,2.08,1l-.91.85a1.28,1.28,0,0,0-1.11-.57,1.53,1.53,0,1,0,0,3.06,1.33,1.33,0,0,0,1.11-.57l.91.84a2.43,2.43,0,0,1-2.08,1,2.76,2.76,0,0,1,0-5.52Z"/><path d="M172.41,825.54a2.63,2.63,0,0,1,2.65,2.63,2.44,2.44,0,0,1,0,.27v.3h-3.91a1.42,1.42,0,0,0,1.51,1.22,2.18,2.18,0,0,0,1.4-.52l.61.89a3.27,3.27,0,0,1-2.16.73,2.76,2.76,0,1,1-.09-5.52Zm-1.29,2.27h2.59a1.23,1.23,0,0,0-1.29-1.17h0a1.25,1.25,0,0,0-1.29,1.17Z"/><path d="M182.56,827.62c0-.49-.21-.84-.78-.84a1.41,1.41,0,0,0-1.09.61v3.55H179.3v-3.32c0-.49-.22-.84-.78-.84a1.45,1.45,0,0,0-1.09.62v3.54h-1.38v-5.26h1.38v.69a2.29,2.29,0,0,1,1.72-.82,1.4,1.4,0,0,1,1.46,1,2.22,2.22,0,0,1,1.8-1A1.41,1.41,0,0,1,184,826.8a1,1,0,0,1,0,.34v3.8h-1.4Z"/><path d="M188.47,830.38a2.16,2.16,0,0,1-1.66.68,1.76,1.76,0,0,1-1.86-1.64v-.1a1.67,1.67,0,0,1,1.65-1.69h.18a2.11,2.11,0,0,1,1.66.64v-.72c0-.54-.45-.89-1.15-.89a2.19,2.19,0,0,0-1.53.62l-.53-.92a3.46,3.46,0,0,1,2.3-.83c1.2,0,2.3.48,2.3,2v3.4h-1.39Zm0-1.37a1.37,1.37,0,0,0-1.11-.45c-.54,0-1,.28-1,.79s.45.77,1,.77a1.37,1.37,0,0,0,1.11-.45Z"/><path d="M191.09,824.07a.83.83,0,1,1,.83.83h0A.84.84,0,0,1,191.09,824.07Zm.14,1.6h1.38v5.26h-1.38Z"/><path d="M194,823.67h1.38v7.26H194Z"/><g id="Icon-Resource_Business-Applications_Res_Amazon-Simple-Email-Service_Email_48" data-name="Icon-Resource Business-Applications Res Amazon-Simple-Email-Service Email 48"><path id="Amazon-Amazon-Simple-Email-Service-Email_Resource-Icon_light-bg" data-name="Amazon-Amazon-Simple-Email-Service-Email Resource-Icon light-bg" d="M165.44,778.72a7.16,7.16,0,0,0-.05.8v.39a1.51,1.51,0,0,1-1.15.56c-.74,0-1.11-.76-1.11-2.27a8,8,0,0,1,.54-3.15c.36-.83.81-1.24,1.35-1.24a1.84,1.84,0,0,1,1,.4Zm-6.09,7.08a8.16,8.16,0,0,0,7.33.25v-2a9,9,0,0,1-3.11.6,4.62,4.62,0,0,1-3.77-1.59,7,7,0,0,1-1.32-4.61,11.3,11.3,0,0,1,.87-4.52,7.73,7.73,0,0,1,2.47-3.21,5.81,5.81,0,0,1,3.59-1.19,5.07,5.07,0,0,1,3.92,1.45,6,6,0,0,1,1.35,4.25,9.86,9.86,0,0,1-.3,2.54,5.8,5.8,0,0,1-.85,1.94,1.47,1.47,0,0,1-1.14.77.56.56,0,0,1-.49-.24,1,1,0,0,1-.18-.63,3.21,3.21,0,0,1,0-.62l1-6.91h-2.06l-.27.78a2.45,2.45,0,0,0-2-1.11,2.74,2.74,0,0,0-1.88.85A6.21,6.21,0,0,0,161,775a9.45,9.45,0,0,0-.58,3.41,5.26,5.26,0,0,0,.71,3,2.4,2.4,0,0,0,2.09,1,3.12,3.12,0,0,0,1.34-.33,3.94,3.94,0,0,0,1.23-.91,2.53,2.53,0,0,0,1,.89,3,3,0,0,0,1.37.31,3.76,3.76,0,0,0,2.42-.89,6,6,0,0,0,1.74-2.53,10.37,10.37,0,0,0,.64-3.78,9.33,9.33,0,0,0-.86-4.16,6.08,6.08,0,0,0-2.55-2.69,8.08,8.08,0,0,0-4-.94,8.63,8.63,0,0,0-4.76,1.37,9.72,9.72,0,0,0-3.46,3.9,12.59,12.59,0,0,0-1.29,5.81,10.32,10.32,0,0,0,.86,4.42,6.32,6.32,0,0,0,2.5,2.84Zm21.87,14.28a1.22,1.22,0,0,0,.77.28,1.24,1.24,0,0,0,.78-.28l3.66-3.06L204,811.69H160L177.55,797Zm7.1-4.63,17.85-14.83v29.7Zm19.06-18.66h-32v2.41H204L182,797.62,169.1,786.9l-1.55,1.86,8.07,6.73-17.81,14.83V788.1H155.4v24.8a1.21,1.21,0,0,0,1.21,1.21h50.77a1.21,1.21,0,0,0,1.21-1.21h0V778a1.22,1.22,0,0,0-1.21-1.2Z" style="fill:#bf0816;fill-rule:evenodd"/></g><path d="M57.67,628.8l-2,5.22H55l-2-5.22V634H51.36v-7.26h2.16l1.77,4.53,1.76-4.53h2.17V634H57.67Z"/><path d="M63,628.62a2.63,2.63,0,0,1,2.65,2.63,2.44,2.44,0,0,1,0,.27v.3H61.74A1.41,1.41,0,0,0,63.25,633a2.14,2.14,0,0,0,1.41-.52l.61.89a3.28,3.28,0,0,1-2.17.73,2.76,2.76,0,0,1-.09-5.52Zm-1.29,2.27h2.59A1.22,1.22,0,0,0,63,629.72h0a1.25,1.25,0,0,0-1.29,1.18Z"/><path d="M66.79,632.37a3,3,0,0,0,1.82.71c.6,0,.88-.2.88-.53s-.46-.5-1.06-.62c-.9-.17-2.06-.39-2.06-1.64,0-.88.77-1.66,2.15-1.66a3.38,3.38,0,0,1,2.12.72l-.55.95a2.21,2.21,0,0,0-1.56-.61c-.5,0-.83.18-.83.49s.42.45,1,.57c.91.17,2.12.41,2.12,1.71,0,1-.82,1.69-2.28,1.69a3.53,3.53,0,0,1-2.35-.82Z"/><path d="M72,632.37a3,3,0,0,0,1.82.71c.6,0,.88-.2.88-.53s-.46-.5-1.06-.62c-.9-.17-2.06-.39-2.06-1.64,0-.88.77-1.66,2.15-1.66a3.38,3.38,0,0,1,2.12.72l-.55.95a2.21,2.21,0,0,0-1.56-.61c-.5,0-.83.18-.83.49s.42.45,1,.57c.91.17,2.12.41,2.12,1.71,0,1-.82,1.69-2.28,1.69a3.53,3.53,0,0,1-2.35-.82Z"/><path d="M80.19,633.48a2.17,2.17,0,0,1-1.67.67,1.75,1.75,0,0,1-1.83-1.67v-.07a1.67,1.67,0,0,1,1.65-1.69h.18a2.12,2.12,0,0,1,1.67.65v-.76c0-.54-.46-.88-1.16-.88a2.19,2.19,0,0,0-1.53.62l-.52-.93a3.44,3.44,0,0,1,2.29-.83c1.2,0,2.3.48,2.3,2V634H80.19Zm0-1.38a1.4,1.4,0,0,0-1.11-.45c-.55,0-1,.28-1,.79s.44.78,1,.78a1.41,1.41,0,0,0,1.11-.46Z"/><path d="M83.45,634.37a2.06,2.06,0,0,0,1.64.65,1.28,1.28,0,0,0,1.44-1.1,1.69,1.69,0,0,0,0-.23v-.53a2.07,2.07,0,0,1-1.62.83c-1.32,0-2.32-.93-2.32-2.68s1-2.68,2.32-2.68a2,2,0,0,1,1.62.81v-.67H88v4.85c0,2-1.54,2.49-2.84,2.49a3.12,3.12,0,0,1-2.26-.78Zm3.09-3.91a1.5,1.5,0,0,0-1.19-.6,1.46,1.46,0,0,0,0,2.9,1.53,1.53,0,0,0,1.19-.6Z"/><path d="M91.69,628.62a2.64,2.64,0,0,1,2.64,2.64,2.35,2.35,0,0,1,0,.26v.3H90.41A1.41,1.41,0,0,0,91.93,633a2.13,2.13,0,0,0,1.4-.52l.61.89a3.23,3.23,0,0,1-2.17.73,2.76,2.76,0,0,1-.08-5.52Zm-1.3,2.27H93a1.22,1.22,0,0,0-1.27-1.17h0a1.28,1.28,0,0,0-1.27,1.18Z"/><g id="Icon-Architecture_64_Arch_AWS-Tools-and-SDK_64" data-name="Icon-Architecture 64 Arch AWS-Tools-and-SDK 64"><g id="Icon-Architecture-BG_64_Developer-Tools-2" data-name="Icon-Architecture-BG 64 Developer-Tools-2"><rect id="Rectangle-3" x="292.54" y="122.44" width="55.95" height="55.95" style="fill:url(#linear-gradient-3)"/></g><path id="AWS-Tools-and-SDK_Icon_64_Squid" data-name="AWS-Tools-and-SDK Icon 64 Squid" d="M336,159.8l-14.69,8.3v-5.8h-1.4v5.8l-14.69-8.3V141.88l4.53,2.83.74-1.18-4.63-2.91,15.05-8.33,14.33,8.33-5.22,2.9.68,1.22,5.26-2.92ZM337,140l-15.75-9.1a.71.71,0,0,0-.69,0L304.09,140a.68.68,0,0,0-.37.61v19.59a.69.69,0,0,0,.36.6l16.09,9.1a.69.69,0,0,0,.68,0l16.09-9.1a.69.69,0,0,0,.36-.6V140.62a.7.7,0,0,0-.35-.6Zm-8.75,15-7,4v-8.25l7-3.5Zm-7.48-5.53L314,145.62l6.57-3.48,6.94,4.05Zm-.91,9.57-7-4v-8.44l7,4Zm9.46-13.44-8.4-4.89a.69.69,0,0,0-.68,0l-8.39,4.45a.7.7,0,0,0-.37.62v9.69a.71.71,0,0,0,.35.61l8.39,4.84a.68.68,0,0,0,.7,0l8.39-4.84a.71.71,0,0,0,.35-.61v-9.27a.72.72,0,0,0-.34-.61Z" style="fill:#fff;fill-rule:evenodd"/></g><path d="M287.89,189.34h3.39a2.33,2.33,0,1,1,.31,4.65h-2.16v2.63h-1.54Zm3.18,1.32h-1.64v2h1.64a1,1,0,0,0,0-2Z"/><path d="M295.1,197.5a.71.71,0,0,0,.73-.38l.19-.45-2.13-5.33h1.48l1.37,3.65,1.37-3.65h1.49l-2.47,6.11a1.91,1.91,0,0,1-2,1.28,3.83,3.83,0,0,1-.68-.08l.2-1.24A1.17,1.17,0,0,0,295.1,197.5Z"/><path d="M300.5,195.29v-2.74h-.87v-1.21h.87V189.9h1.39v1.44H303v1.21h-1.07v2.37c0,.32.17.57.48.57a.76.76,0,0,0,.48-.15l.29,1a1.75,1.75,0,0,1-1.15.33,1.29,1.29,0,0,1-1.47-1.12A1.08,1.08,0,0,1,300.5,195.29Z"/><path d="M307.46,193.39a.88.88,0,0,0-1-1,1.52,1.52,0,0,0-1.19.62v3.61H304v-7.25h1.39v2.68a2.43,2.43,0,0,1,1.85-.81,1.5,1.5,0,0,1,1.69,1.3,1.37,1.37,0,0,1,0,.35v3.73h-1.38Z"/><path d="M309.88,194a2.78,2.78,0,1,1,2.8,2.76h0a2.66,2.66,0,0,1-2.77-2.55Zm4.12,0a1.36,1.36,0,1,0-1.35,1.53,1.38,1.38,0,0,0,1.36-1.4S314,194,314,194Z"/><path d="M320,193.42a.85.85,0,0,0-.67-1,.91.91,0,0,0-.33,0,1.47,1.47,0,0,0-1.2.62v3.58h-1.38v-5.25h1.38v.68a2.44,2.44,0,0,1,1.84-.81,1.53,1.53,0,0,1,1.71,1.31,2.16,2.16,0,0,1,0,.36v3.71H320Z"/><path d="M325.31,194a7.61,7.61,0,0,1,1.72-4.81l.87.65a8,8,0,0,0-1.1,4.16,7.9,7.9,0,0,0,1.1,4.13l-.87.68A7.59,7.59,0,0,1,325.31,194Z"/><path d="M328.78,189.34h1.38V192a2,2,0,0,1,1.62-.8c1.34,0,2.33,1,2.33,2.76s-1,2.75-2.33,2.75a2.07,2.07,0,0,1-1.62-.8v.7h-1.38Zm2.57,6.15a1.36,1.36,0,0,0,1.35-1.37.76.76,0,0,0,0-.15,1.37,1.37,0,0,0-1.2-1.52h-.14a1.51,1.51,0,0,0-1.19.61v1.86A1.57,1.57,0,0,0,331.35,195.49Z"/><path d="M334.82,194a2.78,2.78,0,1,1,2.8,2.76h0a2.66,2.66,0,0,1-2.77-2.55Zm4.12,0a1.37,1.37,0,0,0-1.23-1.51h-.12a1.54,1.54,0,0,0,0,3.05,1.39,1.39,0,0,0,1.37-1.41s0-.08,0-.12Z"/><path d="M341.68,195.29v-2.74h-.88v-1.21h.88V189.9h1.39v1.44h1.06v1.21h-1.06v2.37c0,.32.17.57.48.57a.76.76,0,0,0,.48-.15l.29,1a1.75,1.75,0,0,1-1.15.33,1.3,1.3,0,0,1-1.48-1.11A1.15,1.15,0,0,1,341.68,195.29Z"/><path d="M344.74,194a2.78,2.78,0,1,1,2.8,2.76h0a2.66,2.66,0,0,1-2.78-2.54Zm4.13,0a1.36,1.36,0,1,0-1.35,1.53,1.38,1.38,0,0,0,1.36-1.4S348.87,194,348.87,194Z"/><path d="M350.83,189.79l.87-.65a7.52,7.52,0,0,1,0,9.62l-.87-.68a7.7,7.7,0,0,0,1.11-4.13A7.92,7.92,0,0,0,350.83,189.79Z"/><line x1="60.54" y1="250.87" x2="182.7" y2="250.87" style="fill:none;stroke:#000;stroke-miterlimit:10"/><polygon points="63.86 254.96 64.54 254.23 60.93 250.87 64.54 247.52 63.86 246.79 59.46 250.87 63.86 254.96"/><line x1="59.46" y1="263.66" x2="181.61" y2="263.66" style="fill:none;stroke:#000;stroke-miterlimit:10"/><polygon points="178.3 267.75 177.62 267.02 181.23 263.66 177.62 260.31 178.3 259.57 182.7 263.66 178.3 267.75"/><line x1="55.87" y1="149.75" x2="207.99" y2="149.75" style="fill:none;stroke:#000;stroke-miterlimit:10"/><polygon points="204.67 153.84 203.99 153.11 207.6 149.76 203.99 146.4 204.67 145.67 209.07 149.76 204.67 153.84"/><polyline points="78.68 398.06 78.68 370.45 202.34 370.45" style="fill:none;stroke:#000;stroke-miterlimit:10"/><polygon points="82.78 394.75 82.04 394.07 78.69 397.68 75.33 394.07 74.6 394.75 78.69 399.15 82.78 394.75"/><polyline points="28.04 120.55 28.04 38.99 78.08 38.99" style="fill:none;stroke:#000;stroke-miterlimit:10"/><polygon points="32.12 117.24 31.39 116.56 28.04 120.17 24.68 116.56 23.95 117.24 28.04 121.64 32.12 117.24"/><line x1="182.7" y1="766.06" x2="182.7" y2="740.51" style="fill:none;stroke:#000;stroke-miterlimit:10"/><polygon points="186.79 762.75 186.05 762.07 182.7 765.68 179.34 762.07 178.61 762.75 182.7 767.15 186.79 762.75"/><line x1="238.34" y1="329.01" x2="238.34" y2="224.17" style="fill:none;stroke:#000;stroke-miterlimit:10"/><polygon points="242.43 325.7 241.7 325.01 238.34 328.63 234.99 325.01 234.25 325.7 238.34 330.1 242.43 325.7"/><polyline points="332.4 420.44 332.4 370.45 274.71 370.45" style="fill:none;stroke:#000;stroke-miterlimit:10"/><polygon points="336.49 417.13 335.76 416.45 332.4 420.06 329.05 416.45 328.32 417.13 332.4 421.53 336.49 417.13"/><polyline points="182.7 639.13 182.7 509.31 292.54 509.31" style="fill:none;stroke:#000;stroke-miterlimit:10"/><polygon points="186.79 635.82 186.05 635.14 182.7 638.75 179.34 635.14 178.61 635.82 182.7 640.22 186.79 635.82"/><line x1="74.45" y1="509.31" x2="74.45" y2="549.79" style="fill:none;stroke:#000;stroke-miterlimit:10"/><polygon points="70.36 546.48 71.1 545.79 74.45 549.4 77.81 545.79 78.54 546.48 74.45 550.87 70.36 546.48"/><g id="Icon-Resource_Managment-Governance_Res_Amazon-Cloudwatch_Rule_48" data-name="Icon-Resource Managment-Governance Res Amazon-Cloudwatch Rule 48"><path id="Amazon-Cloudwatch_rule_Resource-Icon_light-bg" data-name="Amazon-Cloudwatch rule Resource-Icon light-bg" d="M211.79,333.36v15.08h13.32l3.22,3.18H265V336.54H229.31l-3.2-3.15Zm14.31,12.69H214.21V335.78h10.91l3.2,3.15h34.14v10.25l-33.16.05Zm29.09-3.68L253,340.08l-1.71,1.7,2.29,2.3-2.3,2.3,1.71,1.71,2.3-2.3,2.3,2.31,1.71-1.71-2.3-2.31,2.3-2.3-1.71-1.71Zm-43.45,7.88v15.11h13.37l3.2,3.17h36.58V353.47H229.3l-3.12-3.19Zm2.41,2.37h11l3.12,3.2h34.18v10.23H229.31l-3.21-3.17h-12Zm38,8.84-1.35-1.35-1.71,1.71,2.92,2.92,7.17-6-1.55-1.86Zm-40.4,5.65v15.12h13.4l3.21,3.13,36.53.06v-15.1H229.31L226,367.13Zm2.4,2.51H225l3.28,3.19h34.15V383L229.34,383l-3.21-3.13h-12Zm37.7,8.78-1.35-1.35-1.71,1.71,2.92,2.92,7.17-6-1.55-1.86Z" style="fill:#b0084d;fill-rule:evenodd"/></g><path d="M188,464.62H184.8l-.46,1.25h-1.7l2.81-7.25h1.94l2.79,7.26H188.5Zm-2.83-1.34h2.4L186.42,460Z"/><path d="M197.34,462.62c0-.49-.22-.84-.78-.84a1.41,1.41,0,0,0-1.09.61v3.55h-1.39v-3.32c0-.49-.22-.84-.78-.84a1.39,1.39,0,0,0-1.09.62v3.54h-1.38v-5.32h1.38v.69a2.29,2.29,0,0,1,1.72-.82,1.38,1.38,0,0,1,1.45,1,2.25,2.25,0,0,1,1.81-1,1.4,1.4,0,0,1,1.55,1.24,1.38,1.38,0,0,1,0,.35v3.8h-1.39Z"/><path d="M203.25,465.37a2.2,2.2,0,0,1-1.66.67,1.75,1.75,0,0,1-1.83-1.67v-.07a1.67,1.67,0,0,1,1.65-1.69h.18a2.11,2.11,0,0,1,1.66.65v-.73c0-.54-.45-.88-1.15-.88a2.21,2.21,0,0,0-1.54.62l-.52-.93a3.46,3.46,0,0,1,2.3-.83c1.19,0,2.29.48,2.29,2v3.39h-1.38Zm0-1.38a1.37,1.37,0,0,0-1.11-.45c-.54,0-1,.28-1,.79s.45.77,1,.77a1.37,1.37,0,0,0,1.11-.45Z"/><path d="M205.78,464.88l2.37-3h-2.37v-1.26H210v1l-2.4,3h2.44v1.21h-4.28Z"/><path d="M210.88,463.28a2.78,2.78,0,1,1,2.8,2.76h0a2.67,2.67,0,0,1-2.78-2.56Zm4.13,0a1.36,1.36,0,1,0-1.35,1.53,1.4,1.4,0,0,0,1.36-1.44A.28.28,0,0,1,215,463.28Z"/><path d="M221,462.73a.85.85,0,0,0-.67-1,.92.92,0,0,0-.33,0,1.52,1.52,0,0,0-1.19.62v3.54h-1.38v-5.27h1.38v.69a2.38,2.38,0,0,1,1.83-.82,1.54,1.54,0,0,1,1.71,1.33,2,2,0,0,1,0,.35v3.71H221Z"/><path d="M183.76,476.77a3.21,3.21,0,0,0,2.31,1c.85,0,1.26-.4,1.26-.82s-.63-.73-1.47-.92c-1.18-.27-2.71-.6-2.71-2.22,0-1.21,1-2.19,2.76-2.19a4,4,0,0,1,2.82,1l-.85,1.14a3.08,3.08,0,0,0-2.08-.8c-.7,0-1.07.31-1.07.74s.61.64,1.45.84c1.19.27,2.72.63,2.72,2.24,0,1.33-1,2.33-2.91,2.33a4.23,4.23,0,0,1-3.08-1.15Z"/><path d="M191.49,474.09V479H190v-7.26h1.59l3.36,4.7v-4.7h1.55V479H195Z"/><path d="M198.22,476.77a3.25,3.25,0,0,0,2.31,1c.85,0,1.26-.4,1.26-.82s-.63-.73-1.47-.92c-1.18-.27-2.7-.6-2.7-2.22,0-1.21,1-2.19,2.75-2.19a4.07,4.07,0,0,1,2.83,1l-.86,1.14a3.08,3.08,0,0,0-2.08-.8c-.7,0-1.07.31-1.07.74s.61.64,1.45.84c1.2.27,2.72.63,2.72,2.24,0,1.33-1,2.33-2.9,2.33a4.19,4.19,0,0,1-3.08-1.15Z"/><g id="Icon-Architecture_64_Arch_AWS-Simple-Notification-Service_64" data-name="Icon-Architecture 64 Arch AWS-Simple-Notification-Service 64"><g id="Icon-Architecture-BG_64_Application-Integration" data-name="Icon-Architecture-BG 64 Application-Integration"><rect id="Rectangle-4" x="118.43" y="427.02" width="55.95" height="55.95" style="fill:url(#linear-gradient-4)"/></g><path id="AWS-Simple-Notification-Service_Icon_64_Squid" data-name="AWS-Simple-Notification-Service Icon 64 Squid" d="M130.32,453.62a1.4,1.4,0,1,1-1.4,1.4h0A1.4,1.4,0,0,1,130.32,453.62ZM147.1,471.8a17,17,0,0,1-16.65-14,2.8,2.8,0,0,0,2.57-2.08h4.29v-1.4H133a2.81,2.81,0,0,0-2.56-2.09,17.27,17.27,0,0,1,16.64-14,16.7,16.7,0,0,1,9.4,3.37l.8-1.15a18,18,0,0,0-10.2-3.62A18.69,18.69,0,0,0,129,452.56a2.79,2.79,0,0,0-1.09,3.78,2.72,2.72,0,0,0,1.09,1.09,18.47,18.47,0,0,0,18.14,15.75,18.78,18.78,0,0,0,10.9-3.63l-.81-1.13a17.45,17.45,0,0,1-10.09,3.36Zm-7.62-19.27a22.15,22.15,0,0,0,8.06,0l-3.16,6.33a.67.67,0,0,0-.07.31v3.12a8.66,8.66,0,0,1-2.1,1.07v-4.19a.63.63,0,0,0-.06-.27Zm4.13-2.41c2.81,0,4.32.42,4.78.7-.46.28-2,.7-4.78.7a11.38,11.38,0,0,1-4.79-.7A11.34,11.34,0,0,1,143.61,450.12Zm-2.1,14.69h.79a8.43,8.43,0,0,0,2.9-1.38l.18-.12a.71.71,0,0,0,.33-.59v-3.33l3.88-7.78a1.13,1.13,0,0,0,.31-.78c0-1.82-3.94-2.1-6.29-2.1s-6.3.28-6.3,2.1a1.12,1.12,0,0,0,.23.68l3.27,7.85v4.76a.7.7,0,0,0,.7.7h0Zm20.28-.7a1.4,1.4,0,1,1-1.4,1.4h0A1.4,1.4,0,0,1,161.79,464.11Zm0-21a1.4,1.4,0,1,1-1.4,1.4h0A1.4,1.4,0,0,1,161.79,443.11Zm1.4,10.49a1.4,1.4,0,1,1-1.4,1.4h0A1.4,1.4,0,0,1,163.19,453.6Zm-7,2.1h4.29a2.8,2.8,0,1,0,0-1.4h-4.29v-9.09h2.89a2.8,2.8,0,1,0,0-1.4h-3.59a.7.7,0,0,0-.7.7h0v9.79H150v1.4h4.9v9.79a.7.7,0,0,0,.7.7h3.59a2.8,2.8,0,1,0,0-1.4h-2.89Z" style="fill:#fff;fill-rule:evenodd"/></g><path d="M296.36,697h-3.25l-.45,1.25H291l2.81-7.26h1.93l2.8,7.26H296.8Zm-2.83-1.34H296l-1.2-3.33Z"/><path d="M305.66,695c0-.49-.22-.84-.78-.84a1.41,1.41,0,0,0-1.09.61v3.55H302.4V695c0-.49-.22-.84-.79-.84a1.45,1.45,0,0,0-1.09.62v3.54h-1.38V693h1.38v.69a2.3,2.3,0,0,1,1.72-.82,1.39,1.39,0,0,1,1.46,1,2.24,2.24,0,0,1,1.81-1,1.4,1.4,0,0,1,1.55,1.24,1.38,1.38,0,0,1,0,.35v3.8h-1.39Z"/><path d="M311.57,697.73a2.15,2.15,0,0,1-1.67.68,1.75,1.75,0,0,1-1.82-1.68v-.06a1.66,1.66,0,0,1,1.63-1.69h.19a2.14,2.14,0,0,1,1.67.64v-.73c0-.53-.46-.88-1.15-.88a2.21,2.21,0,0,0-1.54.62l-.52-.92a3.41,3.41,0,0,1,2.3-.83c1.19,0,2.29.48,2.29,2v3.4h-1.38Zm0-1.37a1.41,1.41,0,0,0-1.11-.46c-.54,0-1,.29-1,.8s.45.77,1,.77a1.37,1.37,0,0,0,1.11-.45Z"/><path d="M314.1,697.24l2.37-3H314.1V693h4.24v1L316,697.07h2.45v1.21h-4.28Z"/><path d="M319.2,695.62a2.78,2.78,0,1,1,2.79,2.77h0a2.66,2.66,0,0,1-2.77-2.55Zm4.12,0a1.4,1.4,0,0,0-1.28-1.5H322a1.55,1.55,0,0,0,0,3.06,1.39,1.39,0,0,0,1.38-1.4A.86.86,0,0,0,323.32,695.62Z"/><path d="M329.33,695.1a.85.85,0,0,0-.67-1,.91.91,0,0,0-.33,0,1.54,1.54,0,0,0-1.2.62v3.54h-1.38V693h1.38v.69a2.41,2.41,0,0,1,1.84-.82,1.54,1.54,0,0,1,1.71,1.33,2,2,0,0,1,0,.35v3.71H329.3Z"/><path d="M292.08,709.14a3.21,3.21,0,0,0,2.31,1c.85,0,1.26-.41,1.26-.82s-.63-.73-1.47-.92c-1.19-.28-2.71-.6-2.71-2.22,0-1.21,1-2.19,2.75-2.19a4,4,0,0,1,2.83,1l-.86,1.13a3.12,3.12,0,0,0-2.08-.79c-.69,0-1.06.3-1.06.74s.61.64,1.45.84c1.19.27,2.72.63,2.72,2.24,0,1.33-1,2.33-2.91,2.33a4.19,4.19,0,0,1-3.08-1.16Z"/><path d="M299.81,706.46v4.88h-1.55v-7.26h1.59l3.36,4.7v-4.7h1.55v7.26h-1.49Z"/><path d="M306.54,709.14a3.21,3.21,0,0,0,2.31,1c.85,0,1.26-.41,1.26-.82s-.63-.73-1.47-.92c-1.18-.28-2.71-.6-2.71-2.22,0-1.21,1-2.19,2.75-2.19a4,4,0,0,1,2.83,1l-.86,1.13a3.11,3.11,0,0,0-2.07-.79c-.7,0-1.07.3-1.07.74s.61.64,1.45.84c1.19.27,2.72.63,2.72,2.24,0,1.33-1,2.33-2.91,2.33a4.19,4.19,0,0,1-3.08-1.16Z"/><g id="Icon-Architecture_64_Arch_AWS-Simple-Notification-Service_64-2" data-name="Icon-Architecture 64 Arch AWS-Simple-Notification-Service 64-2"><g id="Icon-Architecture-BG_64_Application-Integration-2" data-name="Icon-Architecture-BG 64 Application-Integration-2"><rect id="Rectangle-5" x="226.75" y="659.39" width="55.95" height="55.95" style="fill:url(#linear-gradient-5)"/></g><path id="AWS-Simple-Notification-Service_Icon_64_Squid-2" data-name="AWS-Simple-Notification-Service Icon 64 Squid-2" d="M238.64,686a1.4,1.4,0,1,1-1.4,1.4,1.4,1.4,0,0,1,1.4-1.4Zm16.78,18.19a17,17,0,0,1-16.65-14,2.78,2.78,0,0,0,2.56-2.09h4.3v-1.44h-4.3a2.78,2.78,0,0,0-2.56-2.08,17.28,17.28,0,0,1,16.65-14,16.57,16.57,0,0,1,9.39,3.37l.8-1.15a18,18,0,0,0-10.19-3.62,18.68,18.68,0,0,0-18.14,15.75,2.79,2.79,0,0,0-1.09,3.78,2.72,2.72,0,0,0,1.09,1.09,18.47,18.47,0,0,0,18.14,15.75,18.92,18.92,0,0,0,10.9-3.63l-.82-1.14a17.5,17.5,0,0,1-10.08,3.37Zm-7.62-19.28a19,19,0,0,0,4.12.39,19.31,19.31,0,0,0,3.94-.34l-3.16,6.33a.68.68,0,0,0-.08.31v3.11a8.63,8.63,0,0,1-2.09,1.08v-4.19a.63.63,0,0,0-.06-.27Zm4.12-2.4c2.82,0,4.32.42,4.79.7a16.76,16.76,0,0,1-9.57,0A11.32,11.32,0,0,1,251.92,682.47Zm-2.09,14.68h.79a8.47,8.47,0,0,0,2.89-1.38l.19-.12a.7.7,0,0,0,.32-.59v-3.34l3.89-7.77a1.13,1.13,0,0,0,.31-.78c0-1.83-3.94-2.1-6.3-2.1s-6.29.27-6.29,2.1a1.14,1.14,0,0,0,.22.67l3.28,7.86v4.76a.69.69,0,0,0,.69.69Zm20.28-.69a1.4,1.4,0,1,1-1.4,1.4h0A1.4,1.4,0,0,1,270.11,696.46Zm0-21a1.4,1.4,0,1,1-1.4,1.4,1.4,1.4,0,0,1,1.4-1.4Zm1.4,10.49a1.4,1.4,0,1,1-1.4,1.4,1.4,1.4,0,0,1,1.4-1.4Zm-7,2.1h4.3a2.79,2.79,0,1,0,0-1.4h-4.3v-9h2.9a2.8,2.8,0,1,0,0-1.4h-3.6a.71.71,0,0,0-.69.7v9.7h-4.9V688h4.9v9.79a.69.69,0,0,0,.68.7h3.61a2.79,2.79,0,1,0,0-1.4h-2.9Z" style="fill:#fff;fill-rule:evenodd"/></g><g id="Icon-Resource_Application-Integration_Res_Amazon-Simple-Notification-Service_Topic_48" data-name="Icon-Resource Application-Integration Res Amazon-Simple-Notification-Service Topic 48"><path id="Amazon-Simple-Notification-Service_Topic_Resource-Icon_light-bg" data-name="Amazon-Simple-Notification-Service Topic Resource-Icon light-bg" d="M98.64,472.53h2.41v-2.42H98.64Zm2.41-6.65v1.81H98.64v-.6H98v-2.42h1.82a1.22,1.22,0,0,1,1.2,1.21Zm-39.29,1.21h3.62v-2.42H61.76Zm29,0h3.62v-2.42H90.76Zm-21.77,0h3.63v-2.42H69Zm-14.51,0h3.63v-2.42H54.5Zm29,0h3.63v-2.42H83.48Zm-7.25,0h3.62v-2.42H76.23ZM49,464.67h1.81v2.42h-.6v.6H47.85v-1.81a1.21,1.21,0,0,1,1.21-1.21Zm-1.21,7.86h2.42v-2.42H47.85Zm2.42,3h.6V478H49.06a1.21,1.21,0,0,1-1.21-1.21v-1.81h2.42ZM69,478H72.6v-2.42H69Zm14.51,0h3.63v-2.42H83.48Zm7.26,0h3.62v-2.42H90.74Zm-36.28,0h3.63v-2.42H54.5Zm21.77,0h3.62v-2.42H76.23Zm-14.51,0h3.62v-2.42H61.76Zm36.88-3H101v1.81a1.22,1.22,0,0,1-1.2,1.21H98v-2.42h.61Zm0-18.14H101v-2.42H98.6Zm2.41-6.65V452H98.6v-.6H98V449h1.82a1.22,1.22,0,0,1,1.2,1.21Zm-17.53,1.21h3.63V449H83.48Zm-29,0h3.63V449H54.5Zm36.28,0h3.62V449H90.76Zm-29,0h3.62V449H61.76Zm7.25,0h3.63V449H69Zm7.26,0h3.62V449H76.27ZM49.06,449h1.81v2.42h-.6v.6H47.85v-1.81A1.21,1.21,0,0,1,49.06,449Zm-1.21,7.86h2.42v-2.42H47.85Zm2.42,3h.6v2.42H49.06A1.21,1.21,0,0,1,47.85,461v-1.81h2.42ZM69,462.23h3.63v-2.42H69Zm14.51,0h3.63v-2.42H83.52Zm-29,0h3.63v-2.42H54.5Zm7.26,0H65.4v-2.42H61.76Zm29,0H94.4v-2.42H90.78Zm-14.51,0h3.62v-2.42H76.27Zm22.37-3h2.41V461a1.22,1.22,0,0,1-1.2,1.21H98v-2.42h.61ZM50.27,444.11H98.64v-9.67H50.27ZM99.85,432H49.06a1.21,1.21,0,0,0-1.21,1.21v12.09a1.21,1.21,0,0,0,1.21,1.21H99.85a1.22,1.22,0,0,0,1.2-1.21V433.23A1.22,1.22,0,0,0,99.85,432Z" style="fill:#b0084d;fill-rule:evenodd"/></g><g id="Icon-Resource_Application-Integration_Res_Amazon-Simple-Notification-Service_Topic_48-2" data-name="Icon-Resource Application-Integration Res Amazon-Simple-Notification-Service Topic 48-2"><path id="Amazon-Simple-Notification-Service_Topic_Resource-Icon_light-bg-2" data-name="Amazon-Simple-Notification-Service Topic Resource-Icon light-bg-2" d="M202.55,699.89H205v-2.41h-2.4Zm2.41-6.65v1.82h-2.41v-.61H202V692h1.82a1.22,1.22,0,0,1,1.2,1.21Zm-39.29,1.21h3.62V692h-3.62Zm29,0h3.62V692h-3.62Zm-21.77,0h3.63V692H173Zm-14.51,0H162V692h-3.63Zm29,0H191V692h-3.63Zm-7.25,0h3.62V692h-3.62ZM153,692h1.81v2.42h-.6v.61h-2.42v-1.82A1.21,1.21,0,0,1,153,692Zm-1.21,7.86h2.42v-2.41h-2.42Zm2.42,3h.6v2.41H153a1.22,1.22,0,0,1-1.21-1.2v-1.82h2.42ZM173,705.33h3.63v-2.41H173Zm14.51,0h3.63v-2.41h-3.63Zm7.26,0h3.62v-2.41h-3.62Zm-36.28,0h3.63v-2.41h-3.63Zm21.77,0h3.62v-2.41h-3.62Zm-14.51,0h3.62v-2.41H165.7Zm36.88-3H205v1.82a1.2,1.2,0,0,1-1.2,1.2H202v-2.43h.61Zm0-18.14H205v-2.41h-2.4Zm2.37-6.67v1.82h-2.4v-.61H202v-2.42h1.82a1.22,1.22,0,0,1,1.2,1.21Zm-17.53,1.21h3.63v-2.42h-3.63Zm-29,0h3.63v-2.42h-3.63Zm36.28,0h3.62v-2.42H194.7Zm-29,0h3.62v-2.42H165.7Zm7.25,0h3.63v-2.42H173Zm7.26,0h3.62v-2.42h-3.62ZM153,676.31h1.81v2.42h-.6v.61h-2.42v-1.82a1.21,1.21,0,0,1,1.21-1.21Zm-1.21,7.86h2.42v-2.41h-2.42Zm2.42,3h.6v2.45H153a1.21,1.21,0,0,1-1.21-1.21h0v-1.79h2.42ZM173,689.62h3.63V687.2H173Zm14.51,0h3.63V687.2h-3.63Zm-29,0h3.63V687.2h-3.63Zm7.26,0h3.62V687.2h-3.62Zm29,0h3.62V687.2h-3.62Zm-14.51,0h3.62V687.2h-3.62Zm22.37-3H205v1.82a1.22,1.22,0,0,1-1.2,1.21H202v-2.42h.61Zm-48.37-15.11h48.34v-9.67H154.18Zm49.58-12.09H153a1.21,1.21,0,0,0-1.21,1.21h0v12.09a1.21,1.21,0,0,0,1.21,1.21h50.79a1.22,1.22,0,0,0,1.2-1.21v-12.1a1.22,1.22,0,0,0-1.2-1.21Z" style="fill:#b0084d;fill-rule:evenodd"/></g><g id="Icon-Resource_Application-Integration_Res_Amazon-Simple-Notification-Service_Message_48" data-name="Icon-Resource Application-Integration Res Amazon-Simple-Notification-Service Message 48"><path id="Amazon-Simple-Notification-Service_Message_48" data-name="Amazon-Simple-Notification-Service Message 48" d="M87.75,562h2.42v-2.42H87.75Zm-4.23-2.42h1.82V562h-.61v.6H82.31v-1.81a1.21,1.21,0,0,1,1.21-1.21Zm-1.21,39.3h2.42V595.2H82.31Zm0,7.25h2.42v-3.62H82.31Zm0-14.51h2.42V588H82.31Zm0-21.76h2.42v-3.63H82.31Zm0,7.25h2.42v-3.62H82.31Zm0,7.26h2.42v-3.63H82.31Zm2.42,26h.61v2.41H83.52a1.22,1.22,0,0,1-1.21-1.2v-1.82h2.42Zm3,2.41h2.42v-2.41h-2.4Zm5.44-3h2.42v1.82a1.22,1.22,0,0,1-1.21,1.2H92.57v-2.43h.6Zm0-3.63h2.42v-3.62H93.17Zm0-7.25h2.42v-3.63H93.17Zm0-21.77h2.42v-3.62H93.17Zm0-7.25h2.42V566.2H93.17Zm0,21.76h2.42V588H93.17Zm0-7.25h2.42v-3.63H93.17Zm2.42-23.58v1.81H93.17V562h-.6v-2.42h1.81a1.21,1.21,0,0,1,1.21,1.21ZM72,562h2.44v-2.42H72Zm-4.23-2.42H69.6V562H69v.6h-2.4v-1.81a1.21,1.21,0,0,1,1.21-1.21h0Zm-1.21,10.28H69V566.2h-2.4Zm0,29H69V595.2h-2.4Zm0-7.26H69V588h-2.4Zm0-7.25H69v-3.63h-2.4Zm0,21.76H69v-3.62h-2.4Zm0-29H69v-3.62h-2.4ZM69,610.34h.61v2.41H67.8a1.22,1.22,0,0,1-1.21-1.2v-1.82H69Zm3,2.41h2.46v-2.43H72Zm5.45-3h2.41v1.82a1.2,1.2,0,0,1-1.2,1.2H76.83v-2.45h.61Zm0-39.9h2.41v-3.63H77.44Zm0,7.25h2.41v-3.62H77.44Zm0,7.26h2.41v-3.63H77.44Zm0,21.76h2.41V602.5H77.44Zm0-14.51h2.41V588H77.44Zm0,7.26h2.41v-3.63H77.44Zm2.41-38.09v1.81H77.44V562h-.61v-2.42h1.82a1.22,1.22,0,0,1,1.2,1.21ZM52.08,610.32h9.68V562H52.08ZM63,559.53H50.87a1.22,1.22,0,0,0-1.2,1.21v50.79a1.2,1.2,0,0,0,1.2,1.2H63a1.22,1.22,0,0,0,1.21-1.2V560.74A1.21,1.21,0,0,0,63,559.53Z" style="fill:#b0084d;fill-rule:evenodd"/></g><path d="M317.56,500.07h-3.25l-.45,1.25h-1.7l2.81-7.26h2l2.8,7.26h-1.69Zm-2.83-1.34h2.4l-1.2-3.33Z"/><path d="M326.86,498c0-.49-.22-.84-.78-.84a1.41,1.41,0,0,0-1.09.61v3.55H323.6V498c0-.49-.22-.84-.79-.84a1.45,1.45,0,0,0-1.09.62v3.54h-1.38v-5.26h1.38v.69a2.3,2.3,0,0,1,1.72-.82,1.39,1.39,0,0,1,1.46,1,2.24,2.24,0,0,1,1.81-1,1.4,1.4,0,0,1,1.55,1.24,1.38,1.38,0,0,1,0,.35v3.8h-1.39Z"/><path d="M332.77,500.77a2.15,2.15,0,0,1-1.67.68,1.75,1.75,0,0,1-1.82-1.68v-.06a1.66,1.66,0,0,1,1.63-1.69h.19a2.14,2.14,0,0,1,1.67.64v-.73c0-.53-.46-.88-1.15-.88a2.21,2.21,0,0,0-1.54.62l-.52-.92a3.41,3.41,0,0,1,2.3-.83c1.19,0,2.29.48,2.29,2v3.4h-1.38Zm0-1.37a1.37,1.37,0,0,0-1.11-.45c-.54,0-1,.28-1,.79s.45.77,1,.77a1.37,1.37,0,0,0,1.11-.45Z"/><path d="M335.3,500.28l2.37-3H335.3v-1.21h4.24v1l-2.41,3h2.45v1.21H335.3Z"/><path d="M340.4,498.68a2.78,2.78,0,1,1,2.79,2.77h0a2.66,2.66,0,0,1-2.77-2.55Zm4.12,0a1.39,1.39,0,0,0-1.25-1.51h-.1a1.55,1.55,0,0,0,0,3.06,1.39,1.39,0,0,0,1.36-1.42S344.52,498.72,344.52,498.68Z"/><path d="M350.53,498.14a.85.85,0,0,0-.67-1,.92.92,0,0,0-.33,0,1.54,1.54,0,0,0-1.2.62v3.54H347V496h1.38v.69a2.41,2.41,0,0,1,1.84-.82,1.52,1.52,0,0,1,1.77,1.24,1.48,1.48,0,0,1,0,.47v3.71h-1.38Z"/><path d="M302.76,510.75a3.66,3.66,0,0,1,3.59-3.75h.21a3.34,3.34,0,0,1,3.09,1.77l-1.32.66a2,2,0,0,0-1.77-1.06,2.39,2.39,0,0,0,0,4.77,2,2,0,0,0,1.77-1.06l1.32.64a3.35,3.35,0,0,1-3.09,1.79,3.67,3.67,0,0,1-3.8-3.54Z"/><path d="M310.55,507.12H312v7.26h-1.4Z"/><path d="M313,511.74a2.78,2.78,0,1,1,2.79,2.77h0A2.66,2.66,0,0,1,313,512Zm4.13,0a1.36,1.36,0,1,0-1.35,1.54,1.39,1.39,0,0,0,1.37-1.41s0-.09,0-.13Z"/><path d="M323.1,513.71a2.45,2.45,0,0,1-1.85.8,1.51,1.51,0,0,1-1.7-1.3,2.16,2.16,0,0,1,0-.36v-3.73H321v3.19a.85.85,0,0,0,.67,1,.91.91,0,0,0,.33,0,1.57,1.57,0,0,0,1.2-.6v-3.59h1.38v5.26h-1.38Z"/><path d="M329.46,513.7a2,2,0,0,1-1.62.81c-1.33,0-2.33-1-2.33-2.76s1-2.76,2.33-2.76a2,2,0,0,1,1.62.81v-2.68h1.39v7.26h-1.39Zm0-2.88a1.49,1.49,0,0,0-1.2-.6,1.55,1.55,0,0,0,0,3.06,1.49,1.49,0,0,0,1.2-.6Z"/><path d="M336.53,509.39l-1.26,5h-1.64l-2.08-7.26h1.73l1.27,5.24,1.4-5.25h1.2l1.37,5.24,1.27-5.24h1.74l-2.07,7.26h-1.64Z"/><path d="M345,513.83a2.15,2.15,0,0,1-1.67.68,1.75,1.75,0,0,1-1.83-1.67v-.07a1.67,1.67,0,0,1,1.65-1.69h.18a2.14,2.14,0,0,1,1.67.64V511c0-.53-.46-.88-1.16-.88a2.19,2.19,0,0,0-1.53.62l-.52-.92A3.44,3.44,0,0,1,344,509c1.2,0,2.3.48,2.3,2v3.4H345Zm0-1.37a1.41,1.41,0,0,0-1.11-.46c-.55,0-1,.29-1,.8s.44.77,1,.77a1.41,1.41,0,0,0,1.11-.46Z"/><path d="M348,513.07v-2.74h-.87v-1.21H348v-1.43h1.39v1.43h1.07v1.21h-1.06v2.37c0,.33.18.58.48.58a.83.83,0,0,0,.48-.15l.3,1a1.73,1.73,0,0,1-1.16.34,1.31,1.31,0,0,1-1.49-1.1A1.51,1.51,0,0,1,348,513.07Z"/><path d="M353.82,509a2.45,2.45,0,0,1,2.07,1l-.9.85a1.28,1.28,0,0,0-1.11-.57,1.53,1.53,0,1,0,0,3.06,1.33,1.33,0,0,0,1.11-.57l.9.84a2.41,2.41,0,0,1-2.07,1,2.76,2.76,0,1,1,0-5.52Z"/><path d="M360.36,511.18a.88.88,0,0,0-1-1,1.52,1.52,0,0,0-1.2.62v3.54h-1.38v-7.22h1.38v2.69A2.42,2.42,0,0,1,360,509a1.5,1.5,0,0,1,1.7,1.29,1.45,1.45,0,0,1,0,.36v3.74h-1.38Z"/><path d="M322.37,526.89a2.22,2.22,0,0,1-1.67.68,1.76,1.76,0,0,1-1.83-1.69v-.06a1.68,1.68,0,0,1,1.66-1.68h.17a2.14,2.14,0,0,1,1.67.64v-.73c0-.53-.46-.88-1.16-.88a2.23,2.23,0,0,0-1.53.62l-.52-.92a3.44,3.44,0,0,1,2.29-.83c1.2,0,2.3.48,2.3,2v3.39h-1.38Zm0-1.37a1.41,1.41,0,0,0-1.11-.46c-.55,0-1,.29-1,.8s.44.77,1,.77a1.41,1.41,0,0,0,1.11-.46Z"/><path d="M325.12,520.18h1.38v7.25h-1.38Z"/><path d="M331,526.89a2.22,2.22,0,0,1-1.67.68,1.75,1.75,0,0,1-1.82-1.68v-.07a1.66,1.66,0,0,1,1.64-1.68h.18a2.14,2.14,0,0,1,1.67.64v-.73c0-.53-.46-.88-1.15-.88a2.21,2.21,0,0,0-1.54.62l-.52-.92a3.44,3.44,0,0,1,2.29-.83c1.2,0,2.3.48,2.3,2v3.39H331Zm0-1.37a1.41,1.41,0,0,0-1.11-.46c-.55,0-1,.29-1,.8s.44.77,1,.77a1.41,1.41,0,0,0,1.11-.46Z"/><path d="M333.78,522.18h1.38v.72a2.24,2.24,0,0,1,1.68-.84v1.35h-.38a1.78,1.78,0,0,0-1.3.59v3.47h-1.38Z"/><path d="M344.22,524.12c0-.49-.22-.84-.79-.84a1.35,1.35,0,0,0-1.08.61v3.54H341v-3.31c0-.49-.21-.84-.78-.84a1.39,1.39,0,0,0-1.09.62v3.53H337.7v-5.25h1.38v.69a2.3,2.3,0,0,1,1.72-.82,1.4,1.4,0,0,1,1.46,1,2.22,2.22,0,0,1,1.8-1,1.41,1.41,0,0,1,1.55,1.25,1,1,0,0,1,0,.34v3.79h-1.39Z"/><g id="Icon-Resource_Managment-Governance_Res_Amazon-Cloudwatch_Alarm_48" data-name="Icon-Resource Managment-Governance Res Amazon-Cloudwatch Alarm 48"><path id="Amazon-Cloudwatch_alarm_Resource-Icon_light-bg" data-name="Amazon-Cloudwatch alarm Resource-Icon light-bg" d="M353.51,473.77H345.3V448.62a13.69,13.69,0,0,0,8.21,0Zm.69-28.06a11.18,11.18,0,0,1-9.59,0,1.21,1.21,0,0,0-1.61.57,1.17,1.17,0,0,0-.12.52V475a1.21,1.21,0,0,0,1.21,1.21h10.63a1.21,1.21,0,0,0,1.21-1.21V446.8a1.21,1.21,0,0,0-1.73-1.07Zm-4.79-16.27a6.23,6.23,0,1,1-6.23,6.23A6.23,6.23,0,0,1,349.41,429.44Zm0,14.88a8.65,8.65,0,1,0-8.65-8.65h0A8.67,8.67,0,0,0,349.41,444.32Zm-43.57,36.12H359V478H305.84Zm22.46-6.67h8.21V458.13H328.3Zm-1.21,2.42h10.63a1.21,1.21,0,0,0,1.21-1.21V456.92a1.21,1.21,0,0,0-1.21-1.21H327.09a1.21,1.21,0,0,0-1.21,1.21V475a1.21,1.21,0,0,0,1.21,1.21Zm-15.79-2.42h8.21V452.82H311.3Zm-1.21,2.42h10.63a1.21,1.21,0,0,0,1.21-1.21V451.62a1.21,1.21,0,0,0-1.21-1.21H310.09a1.21,1.21,0,0,0-1.21,1.21V475a1.21,1.21,0,0,0,1.21,1.21Z" style="fill:#b0084d;fill-rule:evenodd"/></g><path d="M197.18,546.88a4.4,4.4,0,0,1,4.24-4.56h.25a4,4,0,0,1,3.39,1.75l-.93.51a3,3,0,0,0-2.46-1.28,3.59,3.59,0,0,0,0,7.17,3,3,0,0,0,2.46-1.28l.94.51a4,4,0,0,1-3.4,1.75,4.4,4.4,0,0,1-4.49-4.31Z"/><path d="M206.43,542.47h1v8.82h-1Z"/><path d="M209,548.09a3.11,3.11,0,1,1,0,.27A2.44,2.44,0,0,1,209,548.09Zm5.27,0a2.14,2.14,0,1,0-2.11,2.47,2.21,2.21,0,0,0,2.12-2.31A.81.81,0,0,0,214.31,548.09Z"/><path d="M221.28,550.39a3.09,3.09,0,0,1-2.27,1.06,1.8,1.8,0,0,1-2-1.57,1.55,1.55,0,0,1,0-.43v-4.51h1v4.21c0,1.12.57,1.45,1.43,1.45a2.44,2.44,0,0,0,1.89-1v-4.7h1v6.39h-1Z"/><path d="M228.88,550.34a2.7,2.7,0,0,1-2.15,1.11c-1.67,0-2.85-1.27-2.85-3.35s1.17-3.36,2.85-3.36a2.63,2.63,0,0,1,2.15,1.13v-3.4h1v8.82h-1Zm0-3.68a2.38,2.38,0,0,0-1.91-1c-1.29,0-2.06,1.06-2.06,2.47s.77,2.46,2.06,2.46a2.38,2.38,0,0,0,1.91-1Z"/><path d="M236.7,544.17l-1.95,7.12h-1.19l-2.51-8.82h1.22l1.95,7.35,2-7.35h.91l2,7.35,2-7.35h1.22l-2.52,8.82h-1.19Z"/><path d="M247,550.56a2.8,2.8,0,0,1-2.12.89,2.14,2.14,0,0,1-2.24-2v-.08a2.1,2.1,0,0,1,2.1-2.1h.14a2.7,2.7,0,0,1,2.12.87V547c0-.86-.69-1.35-1.62-1.35a2.53,2.53,0,0,0-1.95.89l-.47-.69a3.38,3.38,0,0,1,2.56-1.06c1.35,0,2.47.61,2.47,2.16v4.39h-1Zm0-1.82a2.15,2.15,0,0,0-1.76-.8,1.41,1.41,0,1,0,0,2.79,2.14,2.14,0,0,0,1.76-.79Z"/><path d="M250.17,550v-4.18h-1.06v-.87h1.06v-1.75h1v1.75h1.3v.87h-1.3v4c0,.48.21.82.65.82a1,1,0,0,0,.67-.26l.29.74a1.61,1.61,0,0,1-1.19.41A1.34,1.34,0,0,1,250.17,550Z"/><path d="M256.68,544.74a2.75,2.75,0,0,1,2.34,1.11l-.66.61a1.9,1.9,0,0,0-1.63-.83,2.48,2.48,0,0,0,0,4.93,2,2,0,0,0,1.63-.83l.66.61a2.75,2.75,0,0,1-2.34,1.11,3.36,3.36,0,0,1,0-6.71Z"/><path d="M264.73,547.08c0-1.12-.58-1.45-1.44-1.45a2.51,2.51,0,0,0-1.9,1v4.67h-1v-8.82h1v3.36a3.2,3.2,0,0,1,2.29-1.09,1.8,1.8,0,0,1,2,1.57,1.55,1.55,0,0,1,0,.43v4.51h-1Z"/><path d="M275.11,550.56a2.8,2.8,0,0,1-2.12.89,2.13,2.13,0,0,1-2.23-2v-.09a2.08,2.08,0,0,1,2.08-2.1H273a2.7,2.7,0,0,1,2.12.87V547c0-.86-.69-1.35-1.62-1.35a2.52,2.52,0,0,0-2,.89l-.47-.69a3.38,3.38,0,0,1,2.56-1.06c1.35,0,2.47.61,2.47,2.16v4.39h-1Zm0-1.82a2.15,2.15,0,0,0-1.76-.8,1.41,1.41,0,1,0,0,2.79,2.14,2.14,0,0,0,1.76-.79Z"/><path d="M278.08,542.47h1v8.82h-1Z"/><path d="M285.05,550.56a2.8,2.8,0,0,1-2.12.89,2.13,2.13,0,0,1-2.23-2v-.09a2.08,2.08,0,0,1,2.08-2.1h.15a2.7,2.7,0,0,1,2.12.87V547c0-.86-.69-1.35-1.61-1.35a2.55,2.55,0,0,0-2,.89l-.47-.69a3.38,3.38,0,0,1,2.56-1.06c1.35,0,2.47.61,2.47,2.16v4.39h-1Zm0-1.82a2.15,2.15,0,0,0-1.76-.8,1.4,1.4,0,0,0-.24,2.79h.24a2.14,2.14,0,0,0,1.76-.79Z"/><path d="M288,544.9h1v1a2.72,2.72,0,0,1,2.13-1.16v1a1.28,1.28,0,0,0-.39,0,2.35,2.35,0,0,0-1.74,1v4.52h-1Z"/><path d="M300.1,547c0-.81-.36-1.32-1.18-1.32a2.21,2.21,0,0,0-1.69,1v4.68h-1V547c0-.81-.35-1.32-1.18-1.32a2.19,2.19,0,0,0-1.68,1v4.67h-1v-6.39h1v.93a2.76,2.76,0,0,1,2.06-1.09,1.64,1.64,0,0,1,1.72,1.19,2.68,2.68,0,0,1,2.14-1.19c1.17,0,1.79.65,1.79,1.93v4.62h-1Z"/><path d="M307,552.19a2.44,2.44,0,0,0,2.08.87,1.82,1.82,0,0,0,2-1.65,2.44,2.44,0,0,0,0-.27v-.91a2.67,2.67,0,0,1-2.15,1.14c-1.66,0-2.84-1.24-2.84-3.31s1.16-3.32,2.84-3.32a2.66,2.66,0,0,1,2.15,1.13v-1h1v6.2c0,2.12-1.48,2.78-3,2.78a3.24,3.24,0,0,1-2.58-1Zm4.13-5.53a2.35,2.35,0,0,0-1.91-1c-1.28,0-2.05,1-2.05,2.43s.77,2.44,2.05,2.44a2.38,2.38,0,0,0,1.91-1Z"/><path d="M313.7,548.09a3.11,3.11,0,1,1,0,.25A2.09,2.09,0,0,1,313.7,548.09Zm5.28,0a2.15,2.15,0,1,0-2.12,2.47,2.22,2.22,0,0,0,2.1-2.33.66.66,0,0,0,0-.14Z"/><path d="M324.41,544.74c1.93,0,3.07,1.51,3.07,3.43v.25h-5.17a2.25,2.25,0,0,0,2.29,2.21h0a2.77,2.77,0,0,0,2-.81l.48.65a3.53,3.53,0,0,1-2.54,1,3.36,3.36,0,0,1-.11-6.71Zm-2.1,3h4.19a2.08,2.08,0,0,0-2-2.13h-.09a2.13,2.13,0,0,0-2.09,2.08Z"/><path d="M329,549.73a2.87,2.87,0,0,0,2.1.91c1,0,1.51-.44,1.51-1.06s-.78-.92-1.64-1.14c-1.09-.25-2.32-.54-2.32-1.86,0-1,.86-1.84,2.39-1.84a3.2,3.2,0,0,1,2.36.93l-.46.68a2.49,2.49,0,0,0-1.9-.8c-.88,0-1.42.39-1.42,1s.73.82,1.56,1c1.11.25,2.4.57,2.4,2,0,1.07-.86,1.93-2.52,1.93a3.41,3.41,0,0,1-2.58-1Z"/><path d="M197.69,565.82v-4.2h-1.06v-.87h1.06V559h1v1.75H200v.85h-1.3v4c0,.47.21.82.65.82a1,1,0,0,0,.68-.27l.29.74a1.61,1.61,0,0,1-1.19.41,1.31,1.31,0,0,1-1.4-1.21A1.41,1.41,0,0,1,197.69,565.82Z"/><path d="M201,564a3.11,3.11,0,1,1,0,.27A2.44,2.44,0,0,1,201,564Zm5.28,0a2.15,2.15,0,1,0-2.12,2.48,2.22,2.22,0,0,0,2.13-2.32A.81.81,0,0,0,206.29,564Z"/><path d="M218,565.2h-4.47l-.78,2h-1.22l3.55-8.83h1.36L220,567.2h-1.22Zm-4.15-1h3.82l-1.91-4.91Z"/><path d="M221.09,558.33h1.1v7.85h4.1v1h-5.2Z"/><path d="M233.39,565.2H229l-.78,2H227l3.55-8.83h1.36l3.56,8.83H234.2Zm-4.15-1h3.82l-1.9-4.91Z"/><path d="M239.39,563.62h-1.75v3.51h-1.1V558.3h3.54a2.57,2.57,0,0,1,2.76,2.36c0,.1,0,.2,0,.3a2.45,2.45,0,0,1-2.29,2.57l2.38,3.6h-1.3Zm.56-4.34h-2.31v3.37H240a1.69,1.69,0,0,0,.26-3.37Z"/><path d="M252.12,559.81l-3,7.35h-.45l-3-7.35v7.35h-1.09v-8.83h1.57l2.74,6.72,2.75-6.72h1.58v8.83h-1.1Z"/><path d="M258.6,565.62a2.91,2.91,0,0,0,2.11.92c1,0,1.51-.44,1.51-1.06s-.79-.93-1.64-1.14c-1.09-.25-2.32-.54-2.32-1.86,0-1,.86-1.84,2.38-1.84a3.26,3.26,0,0,1,2.37.92l-.46.69a2.52,2.52,0,0,0-1.91-.81c-.87,0-1.41.4-1.41,1s.72.82,1.56,1c1.11.25,2.39.57,2.39,2,0,1.07-.86,1.93-2.51,1.93a3.37,3.37,0,0,1-2.58-1Z"/><path d="M265,565.82v-4.2h-1v-.87h1V559h1v1.75h1.3v.85H266v4c0,.47.21.82.65.82a1,1,0,0,0,.68-.27l.29.74a1.61,1.61,0,0,1-1.19.41,1.32,1.32,0,0,1-1.44-1.17A1.22,1.22,0,0,1,265,565.82Z"/><path d="M272.67,566.43a2.72,2.72,0,0,1-2.11.88,2.12,2.12,0,0,1-2.24-2v-.11a2.09,2.09,0,0,1,2.09-2.11h.15a2.64,2.64,0,0,1,2.11.88v-1.15c0-.86-.68-1.35-1.61-1.35a2.54,2.54,0,0,0-2,.88l-.46-.68a3.33,3.33,0,0,1,2.55-1.06c1.35,0,2.48.61,2.48,2.15v4.4h-1Zm0-1.83a2.14,2.14,0,0,0-1.76-.79,1.4,1.4,0,0,0-.24,2.79h.24a2.14,2.14,0,0,0,1.76-.79Z"/><path d="M275.85,565.82v-4.2h-1.06v-.87h1.06V559h1v1.75h1.29v.85h-1.29v4c0,.47.21.82.65.82a.94.94,0,0,0,.67-.27l.29.74a1.61,1.61,0,0,1-1.19.41,1.3,1.3,0,0,1-1.42-1.5Z"/><path d="M282.31,560.62c1.93,0,3.07,1.51,3.07,3.42v.25h-5.17a2.25,2.25,0,0,0,2.29,2.21h0a2.8,2.8,0,0,0,2-.8l.48.65a3.53,3.53,0,0,1-2.54,1,3.35,3.35,0,1,1-.11-6.7Zm-2.1,3h4.19a2.08,2.08,0,0,0-2-2.13h-.09a2.12,2.12,0,0,0-2.09,2.07Z"/><path d="M294.25,562l-1.66,5.14h-1l-2-6.39h1l1.56,5.09,1.68-5.09h.85l1.68,5.09,1.56-5.09h1l-2,6.39h-1Z"/><path d="M304.42,563c0-1.13-.58-1.46-1.44-1.46a2.49,2.49,0,0,0-1.89,1v4.67h-1v-8.83h1v3.36a3.19,3.19,0,0,1,2.29-1.08,1.79,1.79,0,0,1,2,1.55,1.7,1.7,0,0,1,0,.45v4.52h-1Z"/><path d="M310.17,560.62c1.93,0,3.07,1.51,3.07,3.42v.25h-5.17a2.24,2.24,0,0,0,2.27,2.21h0a2.8,2.8,0,0,0,2-.8l.48.65a3.53,3.53,0,0,1-2.54,1,3.35,3.35,0,1,1-.11-6.7Zm-2.1,3h4.19a2.08,2.08,0,0,0-2-2.13h-.09a2.12,2.12,0,0,0-2.09,2.07Z"/><path d="M319.15,563c0-1.12-.57-1.48-1.43-1.48a2.47,2.47,0,0,0-1.89,1v4.67h-1v-6.39h1v.92a3.17,3.17,0,0,1,2.28-1.08,1.82,1.82,0,0,1,2,1.59,1.85,1.85,0,0,1,0,.47v4.49h-1Z"/><path d="M197.69,581.69v-4.18h-1.06v-.89h1.06v-1.74h1v1.74H200v.88h-1.3v4c0,.48.21.83.65.83a1,1,0,0,0,.68-.27l.29.74a1.61,1.61,0,0,1-1.19.41,1.31,1.31,0,0,1-1.4-1.21A1.08,1.08,0,0,1,197.69,581.69Z"/><path d="M205.71,578.82c0-1.13-.59-1.46-1.45-1.46a2.55,2.55,0,0,0-1.89,1V583h-1v-8.82h1v3.36a3.2,3.2,0,0,1,2.29-1.09,1.8,1.8,0,0,1,2,1.57,1.55,1.55,0,0,1,0,.43V583h-1Z"/><path d="M211.46,576.47c1.93,0,3.07,1.51,3.07,3.43v.25h-5.18a2.25,2.25,0,0,0,2.29,2.21h0a2.77,2.77,0,0,0,2-.81l.47.65a3.44,3.44,0,0,1-2.54,1,3.16,3.16,0,0,1-3.25-3.06,1.5,1.5,0,0,1,0-.3,3.21,3.21,0,0,1,3-3.37Zm-2.11,2.95h4.2a2.08,2.08,0,0,0-2-2.13h-.08A2.14,2.14,0,0,0,209.35,579.42Z"/><path d="M223.85,578.84c0-1.12-.57-1.48-1.43-1.48a2.49,2.49,0,0,0-1.89,1V583h-1v-6.41h1v.93a3.14,3.14,0,0,1,2.27-1.09,1.82,1.82,0,0,1,2,1.61,2.36,2.36,0,0,1,0,.46V583h-1Z"/><path d="M231.13,582.12a3.09,3.09,0,0,1-2.27,1.06,1.8,1.8,0,0,1-2-1.57,1.55,1.55,0,0,1,0-.43v-4.56h1v4.21c0,1.12.57,1.46,1.43,1.46a2.41,2.41,0,0,0,1.89-1v-4.67h1V583h-1Z"/><path d="M241.82,578.68c0-.8-.36-1.32-1.18-1.32a2.24,2.24,0,0,0-1.69,1V583h-1V578.7c0-.8-.34-1.32-1.17-1.32a2.26,2.26,0,0,0-1.68,1v4.67h-1v-6.43h1v.93a2.76,2.76,0,0,1,2.06-1.09,1.64,1.64,0,0,1,1.72,1.2,2.68,2.68,0,0,1,2.14-1.2c1.17,0,1.79.65,1.79,1.94V583h-1Z"/><path d="M244.79,574.2h1v3.42a2.68,2.68,0,0,1,2.16-1.13c1.66,0,2.84,1.33,2.84,3.36s-1.18,3.35-2.84,3.35a2.7,2.7,0,0,1-2.16-1.11V583h-1Zm2.9,8.1c1.29,0,2.06-1,2.06-2.47s-.77-2.47-2.06-2.47a2.38,2.38,0,0,0-1.91,1v2.9A2.34,2.34,0,0,0,247.69,582.3Z"/><path d="M255.17,576.47c1.93,0,3.07,1.51,3.07,3.43v.25h-5.17a2.24,2.24,0,0,0,2.27,2.21h0a2.77,2.77,0,0,0,2-.81l.47.65a3.44,3.44,0,0,1-2.54,1,3.16,3.16,0,0,1-3.25-3.06,1.5,1.5,0,0,1,0-.3,3.21,3.21,0,0,1,3-3.37Zm-2.1,2.95h4.19a2.08,2.08,0,0,0-2-2.13h-.09A2.13,2.13,0,0,0,253.07,579.42Z"/><path d="M259.84,576.62h1v1a2.67,2.67,0,0,1,2.13-1.17v1a1.34,1.34,0,0,0-.4,0,2.33,2.33,0,0,0-1.73,1V583h-1Z"/><path d="M267.24,579.82a3.11,3.11,0,1,1,0,.25A2.09,2.09,0,0,1,267.24,579.82Zm5.28,0a2.15,2.15,0,1,0-2.12,2.48,2.21,2.21,0,0,0,2.13-2.3A1.09,1.09,0,0,0,272.52,579.82Z"/><path d="M275.45,577.51h-1.06v-.89h1.06v-.49a1.92,1.92,0,0,1,1.78-2.06,1.88,1.88,0,0,1,1,.21L278,575a1.12,1.12,0,0,0-.57-.14c-.65,0-1,.45-1,1.25v.49h1.3v.88h-1.3V583h-1Z"/><path d="M282.52,581.69v-4.18h-1v-.89h1v-1.74h1v1.74h1.29v.88h-1.29v4c0,.48.21.83.65.83a.94.94,0,0,0,.67-.27l.29.74a1.61,1.61,0,0,1-1.19.41,1.31,1.31,0,0,1-1.43-1.18A1.29,1.29,0,0,1,282.52,581.69Z"/><path d="M286,574.89a.67.67,0,1,1,.67.67h0A.67.67,0,0,1,286,574.89Zm.17,1.74h1V583h-1Z"/><path d="M297,578.68c0-.8-.36-1.32-1.18-1.32a2.24,2.24,0,0,0-1.69,1V583h-1V578.7c0-.8-.35-1.32-1.18-1.32a2.26,2.26,0,0,0-1.68,1v4.67h-1v-6.43h1v.93a2.76,2.76,0,0,1,2.06-1.09,1.64,1.64,0,0,1,1.72,1.2,2.7,2.7,0,0,1,2.15-1.2c1.16,0,1.78.65,1.78,1.94V583h-1Z"/><path d="M302.65,576.47c1.93,0,3.07,1.51,3.07,3.43v.25h-5.17a2.24,2.24,0,0,0,2.27,2.21h0a2.77,2.77,0,0,0,2-.81l.48.65a3.44,3.44,0,0,1-2.54,1,3.36,3.36,0,0,1-.11-6.71Zm-2.1,2.95h4.19a2.08,2.08,0,0,0-2-2.13h-.09A2.13,2.13,0,0,0,300.55,579.42Z"/><path d="M307.28,581.46a2.87,2.87,0,0,0,2.1.91c1,0,1.51-.43,1.51-1s-.78-.93-1.64-1.14c-1.09-.25-2.32-.54-2.32-1.87,0-1,.86-1.84,2.38-1.84a3.23,3.23,0,0,1,2.37.93l-.46.69a2.52,2.52,0,0,0-1.91-.81c-.87,0-1.41.4-1.41,1s.73.82,1.56,1c1.11.25,2.39.56,2.39,2,0,1.07-.86,1.93-2.51,1.93a3.45,3.45,0,0,1-2.58-1Z"/><path d="M317.07,581.69v-4.18H316v-.89h1.05v-1.74h1v1.74h1.29v.88h-1.29v4c0,.48.21.83.65.83a.94.94,0,0,0,.67-.27l.29.74a1.61,1.61,0,0,1-1.19.41,1.31,1.31,0,0,1-1.43-1.18A1.29,1.29,0,0,1,317.07,581.69Z"/><path d="M325.09,578.82c0-1.13-.58-1.46-1.44-1.46a2.49,2.49,0,0,0-1.89,1V583h-1v-8.82h1v3.36a3.18,3.18,0,0,1,2.28-1.09,1.8,1.8,0,0,1,2,1.57,1.55,1.55,0,0,1,0,.43V583h-1Z"/><path d="M330.84,576.47c1.93,0,3.07,1.51,3.07,3.43v.25h-5.17a2.24,2.24,0,0,0,2.27,2.21h0a2.77,2.77,0,0,0,2-.81l.48.65a3.44,3.44,0,0,1-2.54,1,3.36,3.36,0,0,1-.11-6.71Zm-2.1,2.95H333a2.08,2.08,0,0,0-2-2.13h-.09A2.13,2.13,0,0,0,328.74,579.42Z"/><path d="M197.49,592.5h1v1a2.72,2.72,0,0,1,2.13-1.16v1a1.27,1.27,0,0,0-.39,0,2.38,2.38,0,0,0-1.74,1v4.53h-1Z"/><path d="M206.17,598a3.11,3.11,0,0,1-2.28,1.06,1.8,1.8,0,0,1-2-1.57,1.55,1.55,0,0,1,0-.43v-4.51h1v4.21c0,1.12.57,1.45,1.43,1.45a2.44,2.44,0,0,0,1.89-1v-4.7h1v6.39h-1Z"/><path d="M209.14,590.06h1v8.83h-1Z"/><path d="M214.89,592.34c1.94,0,3.07,1.51,3.07,3.43V596h-5.17a2.27,2.27,0,0,0,2.3,2.21,2.77,2.77,0,0,0,2-.81l.48.65a3.53,3.53,0,0,1-2.54,1,3.36,3.36,0,0,1-.11-6.71Zm-2.1,2.95H217a2.06,2.06,0,0,0-2-2.13h-.11A2.13,2.13,0,0,0,212.79,595.29Z"/><path d="M222.8,590.75a.67.67,0,0,1,1.34,0h0a.7.7,0,0,1-.68.68A.68.68,0,0,1,222.8,590.75Zm.17,1.75h1v6.39h-1Z"/><path d="M226,597.33a2.87,2.87,0,0,0,2.1.91c1,0,1.51-.44,1.51-1.06s-.78-.92-1.64-1.14c-1.09-.25-2.32-.54-2.32-1.86,0-1,.86-1.84,2.38-1.84a3.23,3.23,0,0,1,2.37.93l-.46.68a2.51,2.51,0,0,0-1.91-.8c-.87,0-1.41.39-1.41,1s.73.82,1.56,1c1.11.25,2.39.57,2.39,2,0,1.07-.86,1.93-2.51,1.93a3.37,3.37,0,0,1-2.58-1Z"/><path d="M235.7,597.55v-4.18h-1.06v-.87h1.06v-1.75h1v1.75H238v.87h-1.29v4c0,.48.21.82.64.82a1,1,0,0,0,.68-.26l.29.74a1.61,1.61,0,0,1-1.19.41,1.32,1.32,0,0,1-1.4-1.22A1.62,1.62,0,0,1,235.7,597.55Z"/><path d="M239.39,592.5h1v1a2.72,2.72,0,0,1,2.13-1.16v1a1.28,1.28,0,0,0-.39,0,2.38,2.38,0,0,0-1.74,1v4.53h-1Z"/><path d="M243.58,590.75a.67.67,0,1,1,.67.67.67.67,0,0,1-.67-.67Zm.18,1.75h1v6.39h-1Z"/><path d="M247.22,599.79a2.44,2.44,0,0,0,2.08.87,1.82,1.82,0,0,0,2-1.65,2.44,2.44,0,0,0,0-.27v-.91a2.7,2.7,0,0,1-2.15,1.14c-1.66,0-2.84-1.25-2.84-3.31s1.16-3.32,2.84-3.32a2.66,2.66,0,0,1,2.15,1.13v-1h1v6.2c0,2.12-1.48,2.78-3,2.78a3.24,3.24,0,0,1-2.58-1Zm4.13-5.53a2.35,2.35,0,0,0-1.91-1c-1.28,0-2.05,1-2.05,2.43s.77,2.44,2.05,2.44a2.37,2.37,0,0,0,1.91-1Z"/><path d="M254.81,599.79a2.44,2.44,0,0,0,2.08.87,1.82,1.82,0,0,0,2.05-1.92v-.91a2.7,2.7,0,0,1-2.15,1.14c-1.66,0-2.84-1.25-2.84-3.31s1.16-3.32,2.84-3.32a2.66,2.66,0,0,1,2.15,1.13v-1h1v6.2c0,2.12-1.48,2.78-3,2.78a3.24,3.24,0,0,1-2.58-1Zm4.13-5.53a2.35,2.35,0,0,0-1.91-1c-1.28,0-2,1-2,2.43s.77,2.44,2,2.44a2.37,2.37,0,0,0,1.91-1Z"/><path d="M264.69,592.34c1.93,0,3.07,1.51,3.07,3.43V596h-5.18a2.26,2.26,0,0,0,2.31,2.21h0a2.77,2.77,0,0,0,2-.81l.47.65a3.45,3.45,0,0,1-2.54,1,3.36,3.36,0,0,1-.1-6.71Zm-2.11,2.95h4.2a2.08,2.08,0,0,0-2-2.13h-.08A2.14,2.14,0,0,0,262.58,595.29Z"/><path d="M269.35,592.5h1v1a2.72,2.72,0,0,1,2.13-1.16v1a1.34,1.34,0,0,0-.4,0,2.33,2.33,0,0,0-1.73,1v4.53h-1Z"/><path d="M276.5,592.34c1.93,0,3.06,1.51,3.06,3.43V596h-5.17a2.27,2.27,0,0,0,2.3,2.21,2.77,2.77,0,0,0,2-.81l.47.65a3.45,3.45,0,0,1-2.54,1,3.36,3.36,0,0,1-.1-6.71Zm-2.11,2.95h4.2a2.08,2.08,0,0,0-2-2.13h-.08A2.13,2.13,0,0,0,274.39,595.29Z"/><path d="M285.79,597.94a2.7,2.7,0,0,1-2.15,1.11c-1.67,0-2.85-1.27-2.85-3.35s1.17-3.36,2.85-3.36a2.63,2.63,0,0,1,2.15,1.13v-3.41h1v8.83h-1Zm0-3.68a2.4,2.4,0,0,0-1.92-1c-1.28,0-2.05,1.06-2.05,2.47s.77,2.46,2.05,2.46a2.4,2.4,0,0,0,1.92-1Z"/><path d="M291.57,596.88l5-2.41-5-2.42v-.83l5.83,2.89v.7l-5.83,2.89Z"/><path d="M305.24,589.93c2.41,0,3.37,2.4,3.37,4.55s-1,4.57-3.37,4.57-3.37-2.42-3.37-4.57S302.82,589.93,305.24,589.93Zm0,1c-1.68,0-2.25,1.81-2.25,3.57s.57,3.59,2.25,3.59,2.25-1.83,2.25-3.59-.54-3.59-2.25-3.59Z"/><path d="M313.51,590.75a.67.67,0,1,1,.67.67.67.67,0,0,1-.67-.67Zm.18,1.75h1v6.39h-1Z"/><path d="M321,594.71c0-1.13-.56-1.48-1.42-1.48a2.45,2.45,0,0,0-1.9,1v4.67h-1v-6.39h1v.93a3.18,3.18,0,0,1,2.28-1.09,1.82,1.82,0,0,1,2,1.61,2.26,2.26,0,0,1,0,.45v4.49h-1Z"/><path d="M331.35,598.16a2.76,2.76,0,0,1-2.11.89,2.13,2.13,0,0,1-2.24-2v-.1a2.1,2.1,0,0,1,2.07-2.11h.17a2.68,2.68,0,0,1,2.11.87v-1.15c0-.86-.68-1.35-1.61-1.35a2.55,2.55,0,0,0-2,.89l-.46-.69a3.33,3.33,0,0,1,2.55-1.06c1.35,0,2.48.61,2.48,2.16v4.39h-1Zm0-1.82a2.15,2.15,0,0,0-1.76-.8,1.4,1.4,0,0,0-.24,2.79h.24a2.14,2.14,0,0,0,1.76-.79Z"/><path d="M197.49,617.19v-8.82h1v1a2.67,2.67,0,0,1,2.16-1.11c1.68,0,2.85,1.27,2.85,3.35s-1.17,3.36-2.85,3.36a2.62,2.62,0,0,1-2.16-1.13v3.4Zm2.9-8.1a2.38,2.38,0,0,0-1.91,1V613a2.38,2.38,0,0,0,1.91,1c1.28,0,2.05-1.06,2.05-2.47s-.77-2.42-2.05-2.42Z"/><path d="M209.08,614a2.8,2.8,0,0,1-2.12.89,2.14,2.14,0,0,1-2.24-2v-.08a2.09,2.09,0,0,1,2.09-2.11H207a2.67,2.67,0,0,1,2.12.88v-1.15c0-.86-.69-1.35-1.62-1.35a2.52,2.52,0,0,0-2,.88l-.47-.68a3.34,3.34,0,0,1,2.56-1.06c1.35,0,2.47.61,2.47,2.15v4.4h-1Zm0-1.83a2.14,2.14,0,0,0-1.76-.79,1.41,1.41,0,1,0,0,2.79,2.14,2.14,0,0,0,1.76-.79Z"/><path d="M212.05,608.37h1v1a2.73,2.73,0,0,1,2.13-1.17v1h-.39a2.38,2.38,0,0,0-1.74,1v4.53h-1Z"/><path d="M216.61,613.42v-4.18h-1.06v-.87h1.06v-1.75h1v1.75H219v.87h-1.3v4c0,.47.22.82.65.82a1,1,0,0,0,.68-.27l.29.75a1.67,1.67,0,0,1-1.19.41,1.31,1.31,0,0,1-1.48-1.12A1.42,1.42,0,0,1,216.61,613.42Z"/><path d="M220.13,606.62a.67.67,0,0,1,.75-.58.66.66,0,0,1,.58.58.67.67,0,0,1-.58.75.68.68,0,0,1-.75-.59A.43.43,0,0,1,220.13,606.62Zm.17,1.75h1v6.39h-1Z"/><path d="M226.09,608.21a2.71,2.71,0,0,1,2.34,1.11l-.66.61a1.88,1.88,0,0,0-1.62-.84,2.49,2.49,0,0,0,0,4.94,1.9,1.9,0,0,0,1.62-.84l.66.61a2.7,2.7,0,0,1-2.34,1.12,3.36,3.36,0,0,1,0-6.71Z"/><path d="M234.13,613.86a3.15,3.15,0,0,1-2.27,1.06,1.8,1.8,0,0,1-2-1.57,1.55,1.55,0,0,1,0-.43v-4.51h1v4.21c0,1.13.57,1.46,1.43,1.46a2.41,2.41,0,0,0,1.89-1v-4.69h1v6.39h-1Z"/><path d="M237.1,605.93h1v8.83h-1Z"/><path d="M244.07,614a2.76,2.76,0,0,1-2.11.89,2.13,2.13,0,0,1-2.24-2v-.1a2.09,2.09,0,0,1,2.09-2.11H242a2.64,2.64,0,0,1,2.11.88v-1.15c0-.86-.68-1.35-1.61-1.35a2.56,2.56,0,0,0-2,.88l-.46-.68a3.33,3.33,0,0,1,2.55-1.06c1.35,0,2.48.61,2.48,2.15v4.4h-1Zm0-1.83a2.14,2.14,0,0,0-1.76-.79,1.4,1.4,0,0,0-.24,2.79h.24a2.14,2.14,0,0,0,1.76-.79Z"/><path d="M247.05,608.37h1v1a2.67,2.67,0,0,1,2.13-1.17v1h-.4a2.36,2.36,0,0,0-1.73,1v4.53h-1Z"/><path d="M254.82,617.19v-8.82h1v1a2.67,2.67,0,0,1,2.16-1.11c1.68,0,2.84,1.27,2.84,3.35S259.66,615,258,615a2.62,2.62,0,0,1-2.16-1.13v3.4Zm2.9-8.1a2.38,2.38,0,0,0-1.91,1V613a2.38,2.38,0,0,0,1.91,1c1.28,0,2-1.06,2-2.47s-.77-2.42-2-2.42Z"/><path d="M265.19,608.21c1.93,0,3.07,1.51,3.07,3.42v.26h-5.17a2.25,2.25,0,0,0,2.29,2.21h0a2.77,2.77,0,0,0,2-.81l.48.65a3.53,3.53,0,0,1-2.54,1,3.36,3.36,0,0,1-.11-6.71Zm-2.1,2.95h4.19a2.08,2.08,0,0,0-2-2.13h-.09a2.12,2.12,0,0,0-2.09,2.13Z"/><path d="M269.86,608.37h1v1A2.67,2.67,0,0,1,273,608.2v1h-.4a2.36,2.36,0,0,0-1.73,1v4.53h-1Z"/><path d="M274.05,606.62a.67.67,0,0,1,.75-.58.66.66,0,0,1,.58.58.67.67,0,0,1-.58.75.68.68,0,0,1-.75-.59A.43.43,0,0,1,274.05,606.62Zm.17,1.75h1v6.39h-1Z"/><path d="M276.82,611.56a3.11,3.11,0,1,1,0,.24A1.93,1.93,0,0,1,276.82,611.56Zm5.28,0A2.15,2.15,0,1,0,280,614a2.23,2.23,0,0,0,2.13-2.32A.76.76,0,0,0,282.1,611.56Z"/><path d="M289.39,613.8a2.71,2.71,0,0,1-2.16,1.12c-1.67,0-2.84-1.28-2.84-3.35s1.16-3.36,2.84-3.36a2.68,2.68,0,0,1,2.16,1.12v-3.4h1v8.83h-1Zm0-3.67a2.41,2.41,0,0,0-1.92-1c-1.28,0-2,1.06-2,2.48s.77,2.46,2,2.46a2.4,2.4,0,0,0,1.92-1Z"/><path d="M252,229.73h-2.8v-1H256v1h-2.81v7.89h-1.09Z"/><path d="M256.2,231.18h1v1a2.72,2.72,0,0,1,2.13-1.16v1a1.34,1.34,0,0,0-.4,0,2.33,2.33,0,0,0-1.73,1v4.6h-1Z"/><path d="M260.39,229.43a.67.67,0,0,1,.75-.58.66.66,0,0,1,.58.58.67.67,0,0,1-.58.75.68.68,0,0,1-.75-.59A.43.43,0,0,1,260.39,229.43Zm.17,1.75h1v6.44h-1Z"/><path d="M264,238.47a2.47,2.47,0,0,0,2.08.87,1.82,1.82,0,0,0,2-1.57,1.93,1.93,0,0,0,0-.34v-.92a2.65,2.65,0,0,1-2.14,1.14c-1.67,0-2.85-1.24-2.85-3.31S264.33,231,266,231a2.65,2.65,0,0,1,2.14,1.13v-1h1v6.21c0,2.11-1.48,2.77-3,2.77a3.24,3.24,0,0,1-2.58-1Zm4.13-5.53a2.36,2.36,0,0,0-1.9-1c-1.29,0-2.06,1-2.06,2.43s.77,2.44,2.06,2.44a2.36,2.36,0,0,0,1.9-1Z"/><path d="M271.61,238.47a2.47,2.47,0,0,0,2.08.87,1.82,1.82,0,0,0,2-1.57,1.93,1.93,0,0,0,0-.34v-.92a2.65,2.65,0,0,1-2.14,1.14c-1.67,0-2.85-1.24-2.85-3.31s1.17-3.32,2.85-3.32a2.65,2.65,0,0,1,2.14,1.13v-1h1v6.21c0,2.11-1.48,2.77-3,2.77a3.24,3.24,0,0,1-2.58-1Zm4.13-5.53a2.38,2.38,0,0,0-1.91-1c-1.28,0-2.05,1-2.05,2.43s.77,2.44,2.05,2.44a2.35,2.35,0,0,0,1.91-1Z"/><path d="M281.49,231c1.93,0,3.07,1.51,3.07,3.43v.25h-5.17a2.25,2.25,0,0,0,2.29,2.21h0a2.77,2.77,0,0,0,2-.81l.48.65a3.44,3.44,0,0,1-2.54,1,3.36,3.36,0,0,1-.11-6.71Zm-2.1,2.95h4.19a2.08,2.08,0,0,0-2-2.13h-.09a2.12,2.12,0,0,0-2.09,2.13Z"/><path d="M286.16,231.18h1v1a2.72,2.72,0,0,1,2.13-1.16v1a1.34,1.34,0,0,0-.4,0,2.33,2.33,0,0,0-1.73,1v4.6h-1Z"/><path d="M290.48,236a2.87,2.87,0,0,0,2.1.91c1,0,1.51-.43,1.51-1.06s-.78-.92-1.64-1.13c-1.08-.26-2.31-.55-2.31-1.87,0-1,.86-1.84,2.38-1.84a3.2,3.2,0,0,1,2.36.93l-.46.69a2.45,2.45,0,0,0-1.9-.81c-.88,0-1.42.4-1.42,1s.73.81,1.56,1c1.11.25,2.4.57,2.4,2,0,1.07-.86,1.93-2.52,1.93a3.41,3.41,0,0,1-2.58-1Z"/><path d="M249.47,249a4.4,4.4,0,0,1,4.24-4.56H254a4,4,0,0,1,3.39,1.74l-.93.52a3,3,0,0,0-2.46-1.28,3.59,3.59,0,0,0,0,7.17,3,3,0,0,0,2.46-1.29l.94.52a4,4,0,0,1-3.41,1.77,4.39,4.39,0,0,1-4.48-4.32A2.43,2.43,0,0,1,249.47,249Z"/><path d="M258.72,244.62h1v8.83h-1Z"/><path d="M261.33,250.24a3.11,3.11,0,1,1,0,.27A2.44,2.44,0,0,1,261.33,250.24Zm5.27,0a2.14,2.14,0,1,0-2.11,2.47,2.21,2.21,0,0,0,2.12-2.31A.81.81,0,0,0,266.6,250.24Z"/><path d="M273.57,252.54a3.15,3.15,0,0,1-2.27,1.06,1.8,1.8,0,0,1-2-1.57,1.55,1.55,0,0,1,0-.43v-4.51h1v4.2c0,1.13.57,1.46,1.43,1.46a2.41,2.41,0,0,0,1.89-1v-4.69h1v6.39h-1Z"/><path d="M281.17,252.48A2.68,2.68,0,0,1,279,253.6c-1.67,0-2.85-1.27-2.85-3.35s1.17-3.36,2.85-3.36a2.62,2.62,0,0,1,2.15,1.12v-3.39h1v8.83h-1Zm0-3.67a2.38,2.38,0,0,0-1.91-1c-1.29,0-2.05,1.06-2.05,2.48s.76,2.46,2.05,2.46a2.35,2.35,0,0,0,1.91-1Z"/><path d="M289,246.32l-2,7.12h-1.1l-2.51-8.82h1.22l1.95,7.36,2-7.36h.91l2,7.36,1.94-7.36h1.22l-2.52,8.83H291Z"/><path d="M299.29,252.71a2.8,2.8,0,0,1-2.12.89,2.13,2.13,0,0,1-2.23-2v-.09a2.08,2.08,0,0,1,2.08-2.1h.15a2.66,2.66,0,0,1,2.12.87V249.1c0-.86-.69-1.35-1.62-1.35a2.56,2.56,0,0,0-2,.88l-.47-.68a3.34,3.34,0,0,1,2.56-1.06c1.35,0,2.47.61,2.47,2.15v4.4h-1Zm0-1.83a2.14,2.14,0,0,0-1.76-.79,1.41,1.41,0,1,0,0,2.79,2.14,2.14,0,0,0,1.76-.79Z"/><path d="M302.46,252.1v-4.18H301.4v-.87h1.06V245.3h1v1.75h1.3v.87h-1.3v4c0,.48.21.82.65.82a.9.9,0,0,0,.67-.27l.3.75a1.68,1.68,0,0,1-1.19.41,1.3,1.3,0,0,1-1.44-1.16A1.14,1.14,0,0,1,302.46,252.1Z"/><path d="M309,246.89a2.71,2.71,0,0,1,2.34,1.11l-.66.61a1.93,1.93,0,0,0-1.63-.84,2.49,2.49,0,0,0,0,4.94,2,2,0,0,0,1.63-.83l.66.6a2.74,2.74,0,0,1-2.34,1.14,3.36,3.36,0,0,1,0-6.71Z"/><path d="M317,249.23c0-1.12-.58-1.46-1.44-1.46a2.49,2.49,0,0,0-1.89,1v4.67h-1v-8.82h1V248A3.17,3.17,0,0,1,316,246.9a1.8,1.8,0,0,1,2,1.57,1.55,1.55,0,0,1,0,.43v4.51h-1Z"/><path d="M249.82,260.48h5.78v1H251v2.84h4.59v1H251v3h4.68v1h-5.78Z"/><path d="M256.35,262.91h1.08l2.12,5.24,2.12-5.24h1.09l-2.66,6.39H259Z"/><path d="M266.56,262.76c1.93,0,3.07,1.5,3.07,3.42v.25h-5.17a2.25,2.25,0,0,0,2.29,2.21h0a2.8,2.8,0,0,0,2-.8l.48.64a3.44,3.44,0,0,1-2.54,1,3.35,3.35,0,1,1-.11-6.7h0Zm-2.1,2.95h4.19a2.08,2.08,0,0,0-2-2.13h-.09a2.13,2.13,0,0,0-2.09,2.13Z"/><path d="M275.54,265.12c0-1.12-.57-1.48-1.43-1.48a2.49,2.49,0,0,0-1.89,1v4.67h-1v-6.39h1v.93a3.17,3.17,0,0,1,2.28-1.08,1.82,1.82,0,0,1,2,1.59,1.85,1.85,0,0,1,0,.47v4.48h-1Z"/><path d="M278.71,268v-4.18h-1.06v-.88h1.06v-1.74h1v1.74H281v.88h-1.3v4c0,.47.22.82.65.82a1,1,0,0,0,.68-.27l.29.74a1.61,1.61,0,0,1-1.19.41,1.31,1.31,0,0,1-1.44-1.16A1.45,1.45,0,0,1,278.71,268Z"/></g></g></svg>