<?xml version="1.0" encoding="utf-8"?>
<!-- Generator: Adobe Illustrator 25.3.1, SVG Export Plug-In . SVG Version: 6.00 Build 0)  -->
<svg version="1.1" id="Layer_1" xmlns="http://www.w3.org/2000/svg" xmlns:xlink="http://www.w3.org/1999/xlink" x="0px" y="0px"
	 viewBox="0 0 60 60" style="enable-background:new 0 0 60 60;" xml:space="preserve">
<style type="text/css">
	.st0{fill:none;}
	.st1{fill:#28C8E5;}
</style>
<g id="Component_137_120">
	<path id="Path_3585" class="st0" d="M48.8,21.9v17.9c0,5-4,9-9,9h-25V51c0,3,2.4,5.4,5.4,5.4H51c3,0,5.4-2.4,5.4-5.4V20.2
		c0-3-2.4-5.4-5.4-5.4h-2.2V21.9L48.8,21.9z"/>
	<path id="Path_3586" class="st1" d="M11.2,20.2c0-5,4-9,9-9h28.6V9c0-5-4-9-9-9H9C4,0,0,4,0,9v30.8c0,5,4,9,9,9h2.2L11.2,20.2z"/>
	<path id="Path_3587" class="st1" d="M60,20.2c0-5-4-9-9-9h-2.2v3.6H51c3,0,5.4,2.4,5.4,5.4V51c0,3-2.4,5.4-5.4,5.4H20.2
		c-3,0-5.4-2.4-5.4-5.4v-2.2h-3.6V51c0,5,4,9,9,9H51c5,0,9-4,9-9V20.2z"/>
	<path id="Path_3588" class="st1" d="M14.8,45.2V19.3c-0.2-2.3,1.4-4.3,3.7-4.5c0,0,0,0,0,0h0.4h30v-3.6H20.2c-5,0-9,4-9,9l0,0v28.6
		h3.6L14.8,45.2z"/>
	<path id="Path_3596" class="st1" d="M23.6,14.8l-8.8,8.9v5.1l13.9-13.9H23.6z"/>
	<path id="Path_3597" class="st1" d="M34.4,14.8L14.8,34.4v5.1l24.7-24.7H34.4z"/>
	<path id="Path_3598" class="st1" d="M14.8,45.2v3.7h1.4l32.6-32.6v-1.4h-3.7L14.8,45.2z"/>
	<path id="Path_3599" class="st1" d="M27,48.8L48.8,27v-5.1L21.9,48.8H27z"/>
	<path id="Path_3600" class="st1" d="M37.7,48.8l11.1-11.1v-5.1L32.7,48.8H37.7z"/>
</g>
</svg>
