<?xml version="1.0" encoding="utf-8"?>
<!-- Generator: Adobe Illustrator 25.3.1, SVG Export Plug-In . SVG Version: 6.00 Build 0)  -->
<svg version="1.1" id="Layer_1" xmlns="http://www.w3.org/2000/svg" xmlns:xlink="http://www.w3.org/1999/xlink" x="0px" y="0px"
	 viewBox="0 0 60 60" style="enable-background:new 0 0 60 60;" xml:space="preserve">
<style type="text/css">
	.st0{fill:#28C8E5;}
</style>
<path class="st0" d="M23.3,4.7c-0.3-0.3-0.6-0.7-0.9-0.9c-0.9-0.6-2-0.9-3.1-0.7c-1.1,0.2-2.1,0.8-2.7,1.7c-2.2,3-6.5,9.1-10,15.2
	C2.2,27.5,0,33.2,0,36.9c-0.2,11,8.5,20.1,19.5,20.4s20.1-8.5,20.4-19.5c0-0.3,0-0.6,0-0.9c0-3.8-2.2-9.4-6.5-16.9
	C29.8,13.8,25.5,7.8,23.3,4.7z M20,53.8c-9.3,0-16.9-7.5-16.9-16.9c0,0,0,0,0,0c0-3.2,2.1-8.4,6.1-15.4c3.5-6.1,7.7-12,9.9-15
	c0.2-0.3,0.5-0.4,0.9-0.4l0,0c0.3,0,0.7,0.2,0.9,0.4c2.2,3,6.4,9,9.9,15c4.1,7,6.1,12.2,6.1,15.4C36.8,46.2,29.3,53.7,20,53.8z"/>
<path class="st0" d="M56.7,11.7C55,8.8,53,6,51.7,4.2c-0.2-0.2-0.4-0.4-0.6-0.6C50.5,3.1,49.7,2.9,49,3c-0.7,0.1-1.4,0.5-1.8,1.1
	c-1.3,1.8-3.3,4.6-5,7.6c-2.2,3.9-3.3,6.7-3.3,8.7c0,5.8,4.7,10.6,10.6,10.6l0,0C55.2,31,60,26.3,60,20.4
	C60,18.4,58.9,15.6,56.7,11.7z M49.4,28c-4.2,0-7.5-3.4-7.5-7.5l0,0c0-0.8,0.4-2.8,2.9-7.2c1.6-2.8,3.5-5.5,4.6-7
	c1.1,1.5,3,4.2,4.6,7c2.5,4.4,2.9,6.4,2.9,7.2C56.9,24.6,53.6,28,49.4,28z"/>
<path class="st0" d="M23.6,33.8c-0.6-0.4-1.2-0.8-1.9-1.1l-1.9-0.8c-0.5-0.2-1-0.4-1.5-0.7c-0.3-0.2-0.6-0.5-0.6-0.9
	c0-0.4,0.2-0.8,0.6-1c0.4-0.2,0.8-0.3,1.2-0.3c0.5,0,1,0.1,1.5,0.2c0.4,0.1,0.8,0.3,1.2,0.5c0.3,0.2,0.7,0.3,1,0.2
	c0.3-0.1,0.6-0.4,0.8-0.7l0.6-1.1c0.2-0.3,0.2-0.7,0.2-1c-0.1-0.3-0.3-0.6-0.6-0.8c-0.4-0.3-0.9-0.5-1.4-0.7c-0.6-0.2-1.3-0.4-2-0.5
	V24c0-0.7-0.4-1.1-1.2-1.1h-0.1c-0.8,0-1.3,0.4-1.3,1.3v0.9c-0.6,0.1-1.3,0.3-1.9,0.6c-0.6,0.3-1.1,0.7-1.5,1.1
	c-0.4,0.4-0.7,1-0.9,1.5c-0.2,0.6-0.3,1.2-0.3,1.9c0,0.8,0.2,1.6,0.6,2.2c0.4,0.6,0.9,1.1,1.4,1.6c0.6,0.4,1.2,0.8,1.9,1.1l1.9,0.8
	c0.5,0.2,1,0.5,1.5,0.8c0.3,0.2,0.6,0.5,0.6,0.8c0,0.2,0,0.5-0.2,0.7c-0.1,0.2-0.2,0.3-0.4,0.4c-0.2,0.1-0.4,0.2-0.6,0.2
	c-0.2,0-0.4,0.1-0.6,0.1c-0.6,0-1.1-0.1-1.7-0.3c-0.5-0.2-0.9-0.4-1.4-0.7c-0.3-0.2-0.6-0.3-1-0.3c-0.4,0.1-0.7,0.3-0.9,0.6
	l-0.7,1.1c-0.2,0.3-0.3,0.6-0.3,1c0,0.3,0.3,0.7,0.6,0.8c0.5,0.3,1.1,0.6,1.6,0.9c0.7,0.3,1.5,0.6,2.4,0.7V44c0,0.7,0.4,1.1,1.3,1.1
	h0.1c0.8,0,1.2-0.5,1.2-1.3v-0.9c0.7-0.1,1.4-0.3,2-0.7c0.6-0.3,1.1-0.7,1.5-1.2c0.4-0.5,0.7-1,1-1.6c0.2-0.6,0.3-1.2,0.3-1.8
	c0-0.8-0.2-1.6-0.6-2.2C24.6,34.7,24.1,34.2,23.6,33.8z"/>
<path class="st0" d="M50.8,19.8c-0.2-0.2-0.5-0.3-0.8-0.4L49.3,19c-0.2-0.1-0.4-0.2-0.6-0.3c-0.1-0.1-0.2-0.2-0.2-0.4
	c0-0.2,0.1-0.3,0.2-0.4c0.2-0.1,0.3-0.1,0.5-0.1c0.2,0,0.4,0,0.6,0.1l0.5,0.2c0.1,0.1,0.3,0.1,0.4,0.1c0.1,0,0.2-0.1,0.3-0.2
	l0.2-0.5c0.1-0.1,0.1-0.3,0.1-0.4c0-0.1-0.1-0.2-0.2-0.3c-0.2-0.1-0.4-0.2-0.6-0.3c-0.3-0.1-0.5-0.2-0.8-0.2v-0.4
	c0-0.3-0.2-0.4-0.5-0.4l0,0c-0.3,0-0.5,0.2-0.5,0.5v0.4c-0.3,0.1-0.5,0.1-0.7,0.3c-0.2,0.1-0.4,0.3-0.6,0.4
	c-0.2,0.2-0.3,0.4-0.4,0.6c-0.1,0.2-0.1,0.5-0.1,0.8c0,0.3,0.1,0.6,0.2,0.9c0.1,0.2,0.3,0.5,0.6,0.6c0.2,0.2,0.5,0.3,0.8,0.4
	l0.8,0.3c0.2,0.1,0.4,0.2,0.6,0.3c0.1,0.1,0.2,0.2,0.2,0.3c0,0.1,0,0.2-0.1,0.3c0,0.1-0.1,0.1-0.2,0.2c-0.1,0-0.2,0.1-0.2,0.1
	c-0.1,0-0.2,0-0.3,0c-0.2,0-0.5,0-0.7-0.1c-0.2-0.1-0.4-0.2-0.6-0.3c-0.1-0.1-0.3-0.1-0.4-0.1c-0.1,0-0.3,0.1-0.3,0.2L47,22
	c-0.1,0.1-0.1,0.3-0.1,0.4c0,0.1,0.1,0.3,0.2,0.3c0.2,0.1,0.4,0.3,0.7,0.4c0.3,0.1,0.6,0.2,0.9,0.3v0.4c0,0.3,0.2,0.4,0.5,0.4l0,0
	c0.3,0,0.5-0.2,0.5-0.5v-0.3c0.3,0,0.6-0.1,0.8-0.3c0.2-0.1,0.4-0.3,0.6-0.5c0.2-0.2,0.3-0.4,0.4-0.6c0.1-0.2,0.1-0.5,0.1-0.7
	c0-0.3-0.1-0.6-0.2-0.9C51.2,20.2,51.1,19.9,50.8,19.8z"/>
</svg>
