<?xml version="1.0" encoding="utf-8"?>
<!-- Generator: Adobe Illustrator 25.3.1, SVG Export Plug-In . SVG Version: 6.00 Build 0)  -->
<svg version="1.1" id="Layer_1" xmlns="http://www.w3.org/2000/svg" xmlns:xlink="http://www.w3.org/1999/xlink" x="0px" y="0px"
	 viewBox="0 0 60 60" style="enable-background:new 0 0 60 60;" xml:space="preserve">
<style type="text/css">
	.st0{fill:#28C8E5;}
</style>
<path class="st0" d="M22.2,18.5h13.5c0.8,0.1,1.5-0.5,1.6-1.3c0-0.4-0.1-0.8-0.3-1.1c-0.2-0.3-0.6-0.5-1-0.5H22.5
	c-0.8-0.1-1.5,0.4-1.7,1.2c-0.1,0.8,0.4,1.5,1.2,1.7C22.1,18.5,22.1,18.5,22.2,18.5z"/>
<path class="st0" d="M10.3,19.6c0.3,0.3,0.6,0.4,1,0.4l0,0c0.4,0,0.7-0.1,0.9-0.4l5.4-5.3c0.3-0.3,0.4-0.6,0.4-1
	c0-0.7-0.7-1.3-1.4-1.3c-0.3,0-0.6,0.1-0.9,0.4l-4.5,4.4L8.6,14c-0.5-0.5-1.4-0.5-1.9,0c0,0,0,0,0,0c-0.5,0.5-0.6,1.3-0.1,1.9
	c0,0,0,0,0,0L10.3,19.6z"/>
<path class="st0" d="M15.8,23.3l-4.5,4.4L8.6,25c-0.5-0.5-1.4-0.6-1.9-0.1c-0.5,0.5-0.6,1.4,0,1.9c0,0,0,0,0,0l3.6,3.7
	c0.3,0.3,0.6,0.4,1,0.4l0,0c0.4,0,0.7-0.1,0.9-0.4l5.4-5.3c0.3-0.3,0.4-0.6,0.4-1c0-0.4-0.1-0.7-0.4-1
	C17.1,22.8,16.3,22.8,15.8,23.3z"/>
<path class="st0" d="M15.8,34.2l-4.5,4.4l-2.7-2.7c-0.5-0.5-1.4-0.6-1.9-0.1c-0.3,0.2-0.4,0.6-0.4,0.9c0,0.4,0.1,0.7,0.4,1l3.6,3.7
	c0.3,0.3,0.6,0.4,1,0.4l0,0c0.4,0,0.7-0.1,0.9-0.4l5.4-5.3c0.3-0.2,0.4-0.6,0.4-1c0-0.7-0.6-1.3-1.4-1.3
	C16.4,33.8,16.1,34,15.8,34.2L15.8,34.2z"/>
<path class="st0" d="M15.8,45.1l-4.5,4.4l-2.7-2.7c-0.5-0.5-1.4-0.6-1.9-0.1c-0.3,0.2-0.4,0.6-0.4,0.9c0,0.4,0.1,0.7,0.4,1l3.6,3.7
	c0.3,0.3,0.6,0.4,1,0.4l0,0c0.4,0,0.7-0.1,0.9-0.4l5.4-5.3c0.3-0.3,0.4-0.6,0.4-1c0-0.4-0.1-0.7-0.4-1
	C17.1,44.6,16.3,44.6,15.8,45.1z"/>
<path class="st0" d="M59.3,37.5c-0.5-0.5-1.1-0.8-1.8-0.8h-0.6c-0.2-0.7-0.5-1.5-0.9-2.1l0.5-0.5c0.5-0.5,0.7-1.1,0.8-1.8
	c0-0.7-0.3-1.3-0.8-1.8l-1.4-1.3c-0.5-0.5-1.2-0.7-1.8-0.7c-0.7,0-1.4,0.3-1.8,0.8l-0.5,0.5c-0.7-0.4-1.4-0.7-2.2-0.9v-0.5
	c0-1.2-0.9-2.3-2.2-2.5L46.4,5.6V5.1l0,0c-0.3-1.8-1.8-3.1-3.7-3.2H31.3C31,0.8,30,0,28.8,0H17.6c-1.2,0-2.2,0.8-2.5,1.9H3.7
	C1.7,1.9,0,3.6,0,5.6v50.7c0,2,1.7,3.7,3.7,3.7c0,0,0,0,0,0h39.1h0.1c2,0,3.7-1.7,3.7-3.7v-1.5c1.2-0.3,2-1.3,2-2.5v-0.6
	c0.7-0.2,1.5-0.6,2.2-0.9l0.5,0.5c1,1,2.7,1,3.7,0l1.4-1.3c0.5-0.5,0.7-1.1,0.8-1.8c0-0.7-0.3-1.3-0.8-1.8l-0.5-0.5
	c0.4-0.7,0.7-1.4,0.9-2.1h0.6c1.4,0,2.5-1.1,2.6-2.5v-1.9C60,38.7,59.8,38,59.3,37.5z M54.5,42.1c-0.2,1.2-0.7,2.3-1.3,3.3
	c-0.4,0.6-0.4,1.4,0.2,1.8l1,1l-1,1l-1-1c-0.5-0.5-1.2-0.6-1.8-0.2c-1,0.7-2.2,1.1-3.4,1.4c-0.7,0.2-1.1,0.7-1.2,1.4v1.5h-1.4v-1.5
	c0-0.7-0.5-1.3-1.2-1.4c-1.2-0.2-2.3-0.7-3.3-1.3c-0.2-0.2-0.5-0.3-0.8-0.3l0,0c-0.4,0-0.7,0.2-1,0.4l-1,1l-1-0.9l1-1
	c0.5-0.5,0.6-1.3,0.2-1.8c-0.7-1-1.1-2.1-1.4-3.3c-0.2-0.6-0.8-1.1-1.5-1.1H33v-1.3h1.5c0.7,0,1.3-0.5,1.4-1.2
	c0.2-1.2,0.7-2.3,1.3-3.2c0.4-0.6,0.4-1.4-0.2-1.8l-1-1l0.9-0.9l1,1c0.5,0.5,1.3,0.6,1.8,0.2c1-0.7,2.1-1.1,3.3-1.4
	c0.7-0.2,1.1-0.7,1.2-1.4v-1.4h1.4v1.5c0,0.7,0.6,1.3,1.2,1.4c1.2,0.2,2.3,0.7,3.3,1.3c0.6,0.4,1.4,0.4,1.9-0.2l1-1.1l1,1l-1,1
	c-0.5,0.5-0.6,1.3-0.2,1.8c0.7,1,1.1,2.1,1.4,3.3c0.2,0.7,0.7,1.1,1.4,1.1h1.5v0.1l0.2,0.1V41h-1.6C55.2,41,54.6,41.5,54.5,42.1z
	 M3.1,56.3V5.6C3.1,5.3,3.4,5,3.7,5c0,0,0,0,0,0h3.6c0.2,1.7,0.9,3.2,4.3,3.2h23.1c3.4,0,4.2-1.5,4.3-3.2h3.6c0.3,0,0.6,0.3,0.6,0.6
	c0,0,0,0,0,0l0.2,2.3v17.9c-1.1,0.3-1.8,1.3-1.8,2.4v0.6c-0.8,0.2-1.5,0.5-2.2,0.9L39,29.3c-0.5-0.5-1.2-0.7-1.8-0.7
	c-0.2,0-0.3,0-0.5,0c0.3-0.2,0.6-0.6,0.6-1c0-0.4-0.1-0.8-0.3-1.1c-0.2-0.3-0.6-0.5-0.9-0.6c-0.1,0-0.2,0-0.3,0H22.5
	c-0.4,0-0.8,0.1-1.1,0.3c-0.3,0.2-0.5,0.6-0.5,1c0,0.4,0.1,0.8,0.3,1.1c0.3,0.3,0.6,0.5,1,0.5h13.5c0.1,0,0.2,0,0.3,0
	c-0.2,0.1-0.4,0.3-0.6,0.4L34,30.6l-0.1,0.1c-0.4,0.5-0.7,1.1-0.7,1.8c0,0.7,0.3,1.3,0.8,1.7l0.5,0.5c-0.4,0.7-0.7,1.4-0.9,2.1h-0.6
	c-0.5,0-1,0.2-1.5,0.4h-9c-0.8-0.1-1.5,0.5-1.6,1.3c-0.1,0.4,0.1,0.8,0.3,1.1c0.2,0.3,0.6,0.5,1,0.5c0.1,0,0.2,0,0.3,0h7.9v1.1
	c0,1.4,1.2,2.5,2.6,2.5h0.6c0.2,0.8,0.6,1.5,0.9,2.2l-0.6,0.6c-0.3,0.3-0.5,0.7-0.6,1.2H22.5c-0.8-0.1-1.5,0.5-1.6,1.3c0,0,0,0,0,0
	c0,0.4,0.1,0.8,0.3,1.1c0.2,0.3,0.6,0.5,1,0.5h12.4l0.7,0.7c0.5,0.5,1.1,0.7,1.8,0.7c0.7,0,1.4-0.3,1.8-0.8l0.4-0.4
	c0.7,0.4,1.4,0.7,2.2,0.9v0.6c0,1.2,0.8,2.2,2,2.5v1.5c0,0.3-0.3,0.6-0.6,0.6c0,0,0,0,0,0h-0.5H3.7C3.4,56.8,3.1,56.6,3.1,56.3z"/>
<path class="st0" d="M45.2,34L45.2,34c-1.7,0-3.3,0.7-4.5,1.9c-2.4,2.5-2.4,6.4,0.1,8.8c0,0,0,0,0,0c1.2,1.1,2.8,1.8,4.4,1.8h0.1
	c1.7,0,3.3-0.7,4.4-1.9c1.2-1.2,1.8-2.8,1.8-4.5C51.4,36.8,48.6,34.1,45.2,34z M45.2,44.1v-0.5c-0.9,0-1.8-0.4-2.4-1
	c-0.6-0.6-1-1.5-1-2.4c0-1.9,1.6-3.4,3.4-3.4l0,0c1.9,0,3.4,1.5,3.4,3.4c0,1.9-1.5,3.4-3.4,3.4c0,0,0,0,0,0L45.2,44.1L45.2,44.1z"/>
</svg>
