<svg xmlns="http://www.w3.org/2000/svg" xmlns:xlink="http://www.w3.org/1999/xlink" viewBox="0 0 474.31 398.89"><defs><style>.cls-1{fill:#027e93;}.cls-2{fill:#66cadc;}.cls-3{fill:url(#linear-gradient);}.cls-4{fill:none;stroke:#000;stroke-miterlimit:10;}</style><linearGradient id="linear-gradient" x1="419.61" y1="6.99" x2="419.61" y2="368.43" gradientUnits="userSpaceOnUse"><stop offset="0" stop-color="#66cadc"/><stop offset="1" stop-color="#083b6e"/></linearGradient></defs><g id="Layer_2" data-name="Layer 2"><g id="Layer_1-2" data-name="Layer 1"><rect class="cls-1" x="28.47" y="187.71" width="180.71" height="180.72"/><rect class="cls-2" x="209.18" y="187.71" width="180.72" height="180.72"/><rect class="cls-1" x="209.18" y="6.99" width="180.72" height="180.72"/><rect class="cls-2" x="28.47" y="6.99" width="180.71" height="180.72"/><rect class="cls-3" x="414.72" y="6.99" width="9.77" height="361.44"/><path d="M425,6.43h3.85V7.49H425Z"/><path d="M436.27,1.92l-1.71,1.81-.8-.82L436.43.16h1.17V10.84h-1.33Z"/><path d="M440.69,9.24a.88.88,0,1,1-.88.88A.89.89,0,0,1,440.69,9.24Z"/><path d="M447.42,0c2.92,0,4.08,2.9,4.08,5.51S450.34,11,447.42,11s-4.08-2.93-4.08-5.52S444.49,0,447.42,0Zm0,1.18c-2,0-2.72,2.2-2.72,4.33s.69,4.33,2.72,4.33,2.72-2.2,2.72-4.33S449.46,1.18,447.42,1.18Z"/><path d="M457.22,0c2.91,0,4.08,2.9,4.08,5.51S460.13,11,457.22,11s-4.09-2.93-4.09-5.52S454.29,0,457.22,0Zm0,1.18c-2,0-2.73,2.2-2.73,4.33s.69,4.33,2.73,4.33,2.72-2.2,2.72-4.33S459.25,1.18,457.22,1.18Z"/><path d="M425,51.51h3.85v1.06H425Z"/><path d="M438.32,45.07c2.91,0,4.08,2.9,4.08,5.51s-1.17,5.52-4.08,5.52-4.08-2.93-4.08-5.52S435.39,45.07,438.32,45.07Zm0,1.19c-2,0-2.72,2.19-2.72,4.32s.69,4.34,2.72,4.34S441,52.71,441,50.58,440.35,46.26,438.32,46.26Z"/><path d="M444.56,54.31a.88.88,0,1,1-.88.88A.89.89,0,0,1,444.56,54.31Z"/><path d="M451.58,46.42h-5.74V45.23h7.28v.92l-4.37,9.76h-1.47Z"/><path d="M455.46,53.51a3.49,3.49,0,0,0,2.94,1.41,2.31,2.31,0,0,0,2.47-2.29,2.25,2.25,0,0,0-2.45-2.31,3.37,3.37,0,0,0-2.47,1L455,51V45.23h6.54v1.19H456.3v3.71a3.65,3.65,0,0,1,2.5-1,3.27,3.27,0,0,1,3.39,3.41,3.49,3.49,0,0,1-3.79,3.52,4.34,4.34,0,0,1-3.76-1.71Z"/><path d="M425,96.58h3.85v1.06H425Z"/><path d="M438.32,90.15c2.91,0,4.08,2.89,4.08,5.5s-1.17,5.53-4.08,5.53-4.08-2.93-4.08-5.53S435.39,90.15,438.32,90.15Zm0,1.18c-2,0-2.72,2.2-2.72,4.32s.69,4.34,2.72,4.34S441,97.78,441,95.65,440.35,91.33,438.32,91.33Z"/><path d="M444.56,99.38a.88.88,0,1,1-.88.88A.89.89,0,0,1,444.56,99.38Z"/><path d="M448.27,98.58a3.51,3.51,0,0,0,3,1.41,2.3,2.3,0,0,0,2.46-2.29,2.25,2.25,0,0,0-2.45-2.3,3.32,3.32,0,0,0-2.46,1l-1-.34V90.31h6.53v1.18h-5.2v3.72a3.56,3.56,0,0,1,2.5-1A3.27,3.27,0,0,1,455,97.66a3.5,3.5,0,0,1-3.79,3.52,4.34,4.34,0,0,1-3.76-1.72Z"/><path d="M460.74,90.15c2.91,0,4.08,2.89,4.08,5.5s-1.17,5.53-4.08,5.53-4.09-2.93-4.09-5.53S457.81,90.15,460.74,90.15Zm0,1.18c-2,0-2.73,2.2-2.73,4.32s.69,4.34,2.73,4.34,2.72-2.21,2.72-4.34S462.77,91.33,460.74,91.33Z"/><path d="M425,141.66h3.85v1.05H425Z"/><path d="M438.32,135.22c2.91,0,4.08,2.9,4.08,5.51s-1.17,5.52-4.08,5.52-4.08-2.93-4.08-5.52S435.39,135.22,438.32,135.22Zm0,1.19c-2,0-2.72,2.19-2.72,4.32s.69,4.34,2.72,4.34,2.72-2.21,2.72-4.34S440.35,136.41,438.32,136.41Z"/><path d="M444.56,144.46a.88.88,0,1,1-.88.88A.89.89,0,0,1,444.56,144.46Z"/><path d="M447.26,145c3.84-3,5.92-4.8,5.92-6.64a2,2,0,0,0-2.22-2,3.58,3.58,0,0,0-2.9,1.34l-.81-.85a4.62,4.62,0,0,1,3.71-1.68c1.78,0,3.59,1,3.59,3.14s-2.21,4.16-5.19,6.51h5.23v1.19h-7.33Z"/><path d="M457.68,143.66a3.52,3.52,0,0,0,2.94,1.41,2.31,2.31,0,0,0,2.47-2.29,2.25,2.25,0,0,0-2.45-2.31,3.4,3.4,0,0,0-2.47,1l-1-.34v-5.76h6.53v1.19h-5.2v3.71a3.6,3.6,0,0,1,2.49-1,3.28,3.28,0,0,1,3.4,3.41,3.5,3.5,0,0,1-3.8,3.52,4.38,4.38,0,0,1-3.76-1.71Z"/><path d="M425,186.73h3.85v1.06H425Z"/><path d="M438.32,180.3c2.91,0,4.08,2.89,4.08,5.5s-1.17,5.52-4.08,5.52-4.08-2.92-4.08-5.52S435.39,180.3,438.32,180.3Zm0,1.18c-2,0-2.72,2.19-2.72,4.32s.69,4.34,2.72,4.34,2.72-2.21,2.72-4.34S440.35,181.48,438.32,181.48Z"/><path d="M444.56,189.53a.88.88,0,1,1-.88.88A.89.89,0,0,1,444.56,189.53Z"/><path d="M451.3,180.3c2.91,0,4.08,2.89,4.08,5.5s-1.17,5.52-4.08,5.52-4.09-2.92-4.09-5.52S448.37,180.3,451.3,180.3Zm0,1.18c-2,0-2.72,2.19-2.72,4.32s.68,4.34,2.72,4.34,2.72-2.21,2.72-4.34S453.33,181.48,451.3,181.48Z"/><path d="M461.09,180.3c2.91,0,4.08,2.89,4.08,5.5s-1.17,5.52-4.08,5.52S457,188.4,457,185.8,458.16,180.3,461.09,180.3Zm0,1.18c-2,0-2.72,2.19-2.72,4.32s.69,4.34,2.72,4.34,2.72-2.21,2.72-4.34S463.12,181.48,461.09,181.48Z"/><path d="M425,231.8h3.85v1.06H425Z"/><path d="M433.9,231.8h8.53v1.06H433.9Z"/><path d="M447.81,225.37c2.91,0,4.08,2.9,4.08,5.51s-1.17,5.52-4.08,5.52-4.08-2.93-4.08-5.52S444.88,225.37,447.81,225.37Zm0,1.18c-2,0-2.72,2.2-2.72,4.33s.69,4.33,2.72,4.33,2.72-2.21,2.72-4.33S449.84,226.55,447.81,226.55Z"/><path d="M454.05,234.61a.88.88,0,1,1-.88.88A.89.89,0,0,1,454.05,234.61Z"/><path d="M456.75,235.15c3.84-3,5.92-4.8,5.92-6.64a2,2,0,0,0-2.22-2,3.57,3.57,0,0,0-2.9,1.35l-.82-.85a4.64,4.64,0,0,1,3.72-1.68c1.77,0,3.58,1,3.58,3.14s-2.21,4.16-5.18,6.51h5.23v1.19h-7.33Z"/><path d="M467.17,233.81a3.51,3.51,0,0,0,2.94,1.4,2.31,2.31,0,0,0,2.47-2.29,2.25,2.25,0,0,0-2.45-2.3,3.33,3.33,0,0,0-2.47,1l-1-.34v-5.76h6.53v1.18H468v3.72a3.6,3.6,0,0,1,2.49-1,3.27,3.27,0,0,1,3.4,3.41,3.5,3.5,0,0,1-3.8,3.52,4.37,4.37,0,0,1-3.76-1.71Z"/><path d="M425,276.88h3.85v1.06H425Z"/><path d="M433.9,276.88h8.53v1.06H433.9Z"/><path d="M447.81,270.44c2.91,0,4.08,2.9,4.08,5.51s-1.17,5.52-4.08,5.52-4.08-2.93-4.08-5.52S444.88,270.44,447.81,270.44Zm0,1.19c-2,0-2.72,2.19-2.72,4.32s.69,4.34,2.72,4.34,2.72-2.21,2.72-4.34S449.84,271.63,447.81,271.63Z"/><path d="M454.05,279.68a.88.88,0,1,1-.88.88A.89.89,0,0,1,454.05,279.68Z"/><path d="M457.76,278.88a3.49,3.49,0,0,0,2.94,1.41,2.31,2.31,0,0,0,2.47-2.29,2.25,2.25,0,0,0-2.45-2.31,3.4,3.4,0,0,0-2.47,1l-1-.33V270.6h6.53v1.19h-5.2v3.71a3.6,3.6,0,0,1,2.49-1,3.28,3.28,0,0,1,3.4,3.41,3.5,3.5,0,0,1-3.8,3.52,4.36,4.36,0,0,1-3.76-1.71Z"/><path d="M470.22,270.44c2.92,0,4.09,2.9,4.09,5.51s-1.17,5.52-4.09,5.52-4.08-2.93-4.08-5.52S467.29,270.44,470.22,270.44Zm0,1.19c-2,0-2.72,2.19-2.72,4.32s.69,4.34,2.72,4.34S473,278.08,473,276,472.26,271.63,470.22,271.63Z"/><path d="M425,322h3.85V323H425Z"/><path d="M433.9,322h8.53V323H433.9Z"/><path d="M447.81,315.52c2.91,0,4.08,2.9,4.08,5.5s-1.17,5.53-4.08,5.53-4.08-2.93-4.08-5.53S444.88,315.52,447.81,315.52Zm0,1.18c-2,0-2.72,2.2-2.72,4.32s.69,4.34,2.72,4.34,2.72-2.21,2.72-4.34S449.84,316.7,447.81,316.7Z"/><path d="M454.05,324.75a.88.88,0,1,1-.88.88A.89.89,0,0,1,454.05,324.75Z"/><path d="M461.07,316.86h-5.74v-1.18h7.28v.91l-4.37,9.76h-1.47Z"/><path d="M464.94,324a3.53,3.53,0,0,0,2.95,1.41,2.3,2.3,0,0,0,2.46-2.29,2.25,2.25,0,0,0-2.45-2.3,3.32,3.32,0,0,0-2.46,1l-1-.34v-5.76H471v1.18h-5.2v3.72a3.58,3.58,0,0,1,2.5-1,3.27,3.27,0,0,1,3.39,3.41,3.5,3.5,0,0,1-3.79,3.52,4.35,4.35,0,0,1-3.76-1.72Z"/><path d="M425,367h3.85v1.05H425Z"/><path d="M433.9,367h8.53v1.05H433.9Z"/><path d="M445.76,362.51l-1.71,1.81-.8-.81,2.67-2.76h1.17v10.68h-1.33Z"/><path d="M450.17,369.83a.88.88,0,1,1-.88.88A.89.89,0,0,1,450.17,369.83Z"/><path d="M456.91,360.59c2.92,0,4.08,2.9,4.08,5.51s-1.16,5.52-4.08,5.52-4.08-2.93-4.08-5.52S454,360.59,456.91,360.59Zm0,1.19c-2,0-2.72,2.19-2.72,4.32s.69,4.34,2.72,4.34,2.72-2.21,2.72-4.34S458.94,361.78,456.91,361.78Z"/><path d="M466.7,360.59c2.92,0,4.09,2.9,4.09,5.51s-1.17,5.52-4.09,5.52-4.08-2.93-4.08-5.52S463.77,360.59,466.7,360.59Zm0,1.19c-2,0-2.72,2.19-2.72,4.32s.69,4.34,2.72,4.34,2.72-2.21,2.72-4.34S468.74,361.78,466.7,361.78Z"/><path d="M259.79,395.07a3.36,3.36,0,0,1-2.56,1.07,2.58,2.58,0,0,1-2.71-2.56,2.54,2.54,0,0,1,2.71-2.55,3.22,3.22,0,0,1,2.56,1.06V390.7c0-1-.83-1.63-2-1.63a3.06,3.06,0,0,0-2.37,1.07l-.56-.83A4,4,0,0,1,258,388c1.63,0,3,.74,3,2.61V396h-1.2Zm0-2.21a2.58,2.58,0,0,0-2.13-1,1.7,1.7,0,1,0,0,3.38,2.58,2.58,0,0,0,2.13-1Z"/><path d="M268.61,390.89c0-1.36-.69-1.79-1.73-1.79a3,3,0,0,0-2.29,1.2V396h-1.2v-7.73h1.2v1.12a3.83,3.83,0,0,1,2.75-1.32,2.2,2.2,0,0,1,2.47,2.5V396h-1.2Z"/><path d="M272.44,394.33v-5.06h-1.28v-1h1.28V386.1h1.2v2.12h1.57v1h-1.57v4.81c0,.57.26,1,.79,1a1.21,1.21,0,0,0,.82-.32l.35.89a2,2,0,0,1-1.44.5A1.59,1.59,0,0,1,272.44,394.33Z"/><path d="M281.74,395.07a3.36,3.36,0,0,1-2.56,1.07,2.57,2.57,0,0,1-2.7-2.56,2.53,2.53,0,0,1,2.7-2.55,3.22,3.22,0,0,1,2.56,1.06V390.7c0-1-.83-1.63-1.95-1.63a3.06,3.06,0,0,0-2.37,1.07l-.56-.83A4,4,0,0,1,280,388c1.63,0,3,.74,3,2.61V396h-1.2Zm0-2.21a2.58,2.58,0,0,0-2.13-1,1.7,1.7,0,1,0,0,3.38,2.58,2.58,0,0,0,2.13-1Z"/><path d="M285.34,388.22h1.2v1.25a3.29,3.29,0,0,1,2.58-1.41v1.23a2.28,2.28,0,0,0-.48-.05,2.83,2.83,0,0,0-2.1,1.23V396h-1.2Z"/><path d="M294,388a3.3,3.3,0,0,1,2.83,1.35l-.8.74a2.28,2.28,0,0,0-2-1,3,3,0,0,0,0,6,2.33,2.33,0,0,0,2-1l.8.74a3.32,3.32,0,0,1-2.83,1.34,4.07,4.07,0,0,1,0-8.12Z"/><path d="M298.78,394.33v-5.06H297.5v-1h1.28V386.1H300v2.12h1.57v1H300v4.81c0,.57.26,1,.78,1a1.19,1.19,0,0,0,.82-.32l.35.89a1.94,1.94,0,0,1-1.44.5A1.58,1.58,0,0,1,298.78,394.33Z"/><path d="M303,386.1a.8.8,0,0,1,.8-.8.81.81,0,0,1,.81.8.82.82,0,0,1-.81.82A.81.81,0,0,1,303,386.1Zm.2,2.12h1.2V396h-1.2Z"/><path d="M310.25,388a3.3,3.3,0,0,1,2.83,1.35l-.79.74a2.29,2.29,0,0,0-2-1,3,3,0,0,0,0,6,2.34,2.34,0,0,0,2-1l.79.74a3.32,3.32,0,0,1-2.83,1.34,4.07,4.07,0,0,1,0-8.12Z"/><path d="M313.51,396.59h9.13v.88h-9.13Z"/><path d="M324.12,389.27h-1.28v-1h1.28v-.6a2.33,2.33,0,0,1,3.41-2.24l-.3.9a1.36,1.36,0,0,0-.69-.18c-.78,0-1.22.55-1.22,1.52v.6h1.57v1h-1.57V396h-1.2Z"/><path d="M331.68,388c2.33,0,3.71,1.83,3.71,4.15v.3h-6.26a2.73,2.73,0,0,0,2.79,2.68,3.35,3.35,0,0,0,2.38-1l.58.79a4.24,4.24,0,0,1-3.08,1.18,3.83,3.83,0,0,1-3.93-4.06A3.87,3.87,0,0,1,331.68,388Zm-2.55,3.57h5.08a2.51,2.51,0,0,0-2.55-2.57A2.58,2.58,0,0,0,329.13,391.59Z"/><path d="M337.32,385.27h1.2v4.12a3.23,3.23,0,0,1,2.61-1.37c2,0,3.44,1.61,3.44,4.07s-1.42,4.05-3.44,4.05a3.27,3.27,0,0,1-2.61-1.34V396h-1.2Zm3.51,9.8c1.57,0,2.5-1.27,2.5-3s-.93-3-2.5-3a2.86,2.86,0,0,0-2.31,1.25v3.5A2.86,2.86,0,0,0,340.83,395.07Z"/><path d="M10,317.82A3.36,3.36,0,0,1,11,320.38a2.57,2.57,0,0,1-2.56,2.7,2.53,2.53,0,0,1-2.55-2.7A3.22,3.22,0,0,1,7,317.82H5.59c-1,0-1.64.83-1.64,1.95A3.07,3.07,0,0,0,5,322.14l-.84.56a4.05,4.05,0,0,1-1.28-3.09c0-1.63.74-3,2.61-3h5.32v1.2Zm-2.21,0a2.58,2.58,0,0,0-1,2.13,1.7,1.7,0,1,0,3.37,0,2.58,2.58,0,0,0-1-2.13Z"/><path d="M5.78,309c-1.36,0-1.79.69-1.79,1.73A3,3,0,0,0,5.19,313h5.65v1.2H3.11V313H4.23a3.83,3.83,0,0,1-1.32-2.75,2.2,2.2,0,0,1,2.5-2.47h5.43V309Z"/><path d="M9.22,305.16H4.16v1.28H3.11v-1.28H1V304H3.11V302.4H4.16V304H9c.58,0,1-.25,1-.78a1.19,1.19,0,0,0-.32-.82l.89-.35a2,2,0,0,1,.5,1.44A1.58,1.58,0,0,1,9.22,305.16Z"/><path d="M10,295.87A3.36,3.36,0,0,1,11,298.43a2.57,2.57,0,0,1-2.56,2.7,2.53,2.53,0,0,1-2.55-2.7A3.22,3.22,0,0,1,7,295.87H5.59c-1,0-1.64.83-1.64,1.95A3.07,3.07,0,0,0,5,300.19l-.84.56a4.07,4.07,0,0,1-1.28-3.09c0-1.63.74-3,2.61-3h5.32v1.2Zm-2.21,0a2.58,2.58,0,0,0-1,2.13,1.7,1.7,0,1,0,3.37,0,2.58,2.58,0,0,0-1-2.13Z"/><path d="M3.11,292.27v-1.2H4.35A3.3,3.3,0,0,1,3,288.49H4.18a2.21,2.21,0,0,0,0,.48,2.83,2.83,0,0,0,1.23,2.1h5.48v1.2Z"/><path d="M2.91,283.58a3.3,3.3,0,0,1,1.35-2.83l.73.8a2.29,2.29,0,0,0-1,2,2.69,2.69,0,0,0,3,2.67,2.71,2.71,0,0,0,3-2.67,2.33,2.33,0,0,0-1-2l.73-.8A3.3,3.3,0,0,1,11,283.58,3.83,3.83,0,0,1,7,287.44,3.82,3.82,0,0,1,2.91,283.58Z"/><path d="M9.22,278.83H4.16v1.28H3.11v-1.28H1v-1.2H3.11v-1.57H4.16v1.57H9c.58,0,1-.26,1-.79a1.18,1.18,0,0,0-.32-.81l.89-.35a1.94,1.94,0,0,1,.5,1.44A1.58,1.58,0,0,1,9.22,278.83Z"/><path d="M1,274.57a.8.8,0,0,1-.8-.8A.8.8,0,0,1,1,273a.82.82,0,0,1,.82.81A.81.81,0,0,1,1,274.57Zm2.12-.21v-1.19h7.73v1.19Z"/><path d="M2.91,267.36a3.33,3.33,0,0,1,1.35-2.84l.73.8a2.29,2.29,0,0,0-1,2A2.69,2.69,0,0,0,7,270a2.71,2.71,0,0,0,3-2.67,2.33,2.33,0,0,0-1-2l.73-.8A3.33,3.33,0,0,1,11,267.36,3.82,3.82,0,0,1,7,271.21,3.82,3.82,0,0,1,2.91,267.36Z"/><path d="M11.48,264.09V255h.88v9.12Z"/><path d="M4.16,253.49v1.28H3.11v-1.28h-.6a2.33,2.33,0,0,1-2.24-3.41l.9.3a1.36,1.36,0,0,0-.18.69c0,.78.55,1.21,1.52,1.21h.6v-1.56H4.16v1.56h6.68v1.21Z"/><path d="M2.91,245.93c0-2.34,1.83-3.71,4.15-3.71h.3v6.26A2.73,2.73,0,0,0,10,245.69a3.39,3.39,0,0,0-1-2.38l.78-.58A4.2,4.2,0,0,1,11,245.8,3.84,3.84,0,0,1,7,249.74,3.87,3.87,0,0,1,2.91,245.93Zm3.57,2.55V243.4A2.51,2.51,0,0,0,3.91,246,2.58,2.58,0,0,0,6.48,248.48Z"/><path d="M.16,240.29v-1.21H4.27a3.22,3.22,0,0,1-1.36-2.6c0-2,1.6-3.44,4.07-3.44s4,1.42,4,3.44a3.22,3.22,0,0,1-1.35,2.6h1.16v1.21Zm9.8-3.51c0-1.57-1.27-2.5-3-2.5s-3,.93-3,2.5a2.86,2.86,0,0,0,1.24,2.3H8.74A2.84,2.84,0,0,0,10,236.78Z"/><path d="M77.09,394.33v-5.06H75.81v-1h1.28V386.1h1.2v2.12h1.57v1H78.29v4.81c0,.57.25,1,.78,1a1.19,1.19,0,0,0,.82-.32l.35.89a1.94,1.94,0,0,1-1.44.5A1.58,1.58,0,0,1,77.09,394.33Z"/><path d="M84.91,388c2.34,0,3.72,1.83,3.72,4.15v.3H82.37a2.72,2.72,0,0,0,2.78,2.68,3.37,3.37,0,0,0,2.39-1l.58.79A4.24,4.24,0,0,1,85,396.14a3.83,3.83,0,0,1-3.94-4.06A3.88,3.88,0,0,1,84.91,388Zm-2.54,3.57h5.07A2.49,2.49,0,0,0,84.9,389,2.57,2.57,0,0,0,82.37,391.59Z"/><path d="M99.89,390.7c0-1-.43-1.6-1.42-1.6a2.7,2.7,0,0,0-2,1.18V396h-1.2V390.7c0-1-.42-1.6-1.43-1.6a2.69,2.69,0,0,0-2,1.2V396h-1.2v-7.73h1.2v1.12a3.33,3.33,0,0,1,2.5-1.32,2,2,0,0,1,2.08,1.45A3.24,3.24,0,0,1,98.93,388c1.41,0,2.16.79,2.16,2.34V396h-1.2Z"/><path d="M103.49,398.89V388.22h1.2v1.15A3.22,3.22,0,0,1,107.3,388c2,0,3.44,1.54,3.44,4.06s-1.41,4.06-3.44,4.06a3.17,3.17,0,0,1-2.61-1.36v4.11Zm3.5-9.79a2.87,2.87,0,0,0-2.3,1.23v3.49a2.88,2.88,0,0,0,2.3,1.25c1.56,0,2.48-1.28,2.48-3S108.55,389.1,107,389.1Z"/><path d="M116,388c2.34,0,3.72,1.83,3.72,4.15v.3h-6.26a2.72,2.72,0,0,0,2.78,2.68,3.37,3.37,0,0,0,2.39-1l.57.79a4.2,4.2,0,0,1-3.07,1.18A4.06,4.06,0,0,1,116,388Zm-2.54,3.57h5.07A2.49,2.49,0,0,0,116,389,2.57,2.57,0,0,0,113.49,391.59Z"/><path d="M121.68,388.22h1.2v1.25a3.27,3.27,0,0,1,2.58-1.41v1.23a2.28,2.28,0,0,0-.48-.05,2.83,2.83,0,0,0-2.1,1.23V396h-1.2Z"/><path d="M131.79,395.07a3.36,3.36,0,0,1-2.56,1.07,2.57,2.57,0,0,1-2.7-2.56,2.53,2.53,0,0,1,2.7-2.55,3.22,3.22,0,0,1,2.56,1.06V390.7c0-1-.83-1.63-1.95-1.63a3.06,3.06,0,0,0-2.37,1.07l-.56-.83A4,4,0,0,1,130,388c1.63,0,3,.74,3,2.61V396h-1.2Zm0-2.21a2.58,2.58,0,0,0-2.12-1,1.7,1.7,0,1,0,0,3.38,2.58,2.58,0,0,0,2.12-1Z"/><path d="M135.63,394.33v-5.06h-1.28v-1h1.28V386.1h1.2v2.12h1.57v1h-1.57v4.81c0,.57.26,1,.79,1a1.18,1.18,0,0,0,.81-.32l.36.89a2,2,0,0,1-1.45.5A1.58,1.58,0,0,1,135.63,394.33Z"/><path d="M145.31,394.86a3.78,3.78,0,0,1-2.75,1.28,2.17,2.17,0,0,1-2.46-2.47v-5.45h1.2v5.09c0,1.36.68,1.76,1.73,1.76a3,3,0,0,0,2.28-1.17v-5.68h1.2V396h-1.2Z"/><path d="M148.91,388.22h1.2v1.25a3.29,3.29,0,0,1,2.58-1.41v1.23a2.28,2.28,0,0,0-.48-.05,2.83,2.83,0,0,0-2.1,1.23V396h-1.2Z"/><path d="M157.55,388c2.34,0,3.72,1.83,3.72,4.15v.3H155a2.72,2.72,0,0,0,2.78,2.68,3.37,3.37,0,0,0,2.39-1l.57.79a4.2,4.2,0,0,1-3.07,1.18,4.06,4.06,0,0,1-.13-8.12ZM155,391.59h5.07a2.49,2.49,0,0,0-2.54-2.57A2.57,2.57,0,0,0,155,391.59Z"/><path d="M9.22,139.08H4.16v1.28H3.11v-1.28H1v-1.2H3.11v-1.56H4.16v1.56H9c.58,0,1-.25,1-.78a1.19,1.19,0,0,0-.32-.82l.89-.35a2,2,0,0,1,.5,1.44A1.58,1.58,0,0,1,9.22,139.08Z"/><path d="M2.91,131.26c0-2.34,1.83-3.72,4.15-3.72h.3v6.26A2.72,2.72,0,0,0,10,131a3.42,3.42,0,0,0-1-2.39l.78-.57A4.2,4.2,0,0,1,11,131.13,3.84,3.84,0,0,1,7,135.07,3.87,3.87,0,0,1,2.91,131.26Zm3.57,2.54v-5.07a2.5,2.5,0,0,0-2.57,2.54A2.57,2.57,0,0,0,6.48,133.8Z"/><path d="M5.59,116.28c-1,0-1.6.43-1.6,1.42a2.7,2.7,0,0,0,1.18,2h5.67V121H5.59c-1,0-1.6.42-1.6,1.43a2.67,2.67,0,0,0,1.2,2h5.65v1.2H3.11v-1.2H4.23a3.33,3.33,0,0,1-1.32-2.49,2,2,0,0,1,1.44-2.09,3.26,3.26,0,0,1-1.44-2.59c0-1.41.79-2.16,2.34-2.16h5.59v1.2Z"/><path d="M13.78,112.68H3.11v-1.2H4.26a3.22,3.22,0,0,1-1.35-2.61c0-2,1.54-3.44,4.05-3.44S11,106.84,11,108.87a3.17,3.17,0,0,1-1.36,2.61h4.11ZM4,109.18a2.85,2.85,0,0,0,1.23,2.3H8.71a2.87,2.87,0,0,0,1.25-2.3c0-1.55-1.28-2.48-3-2.48S4,107.63,4,109.18Z"/><path d="M2.91,100.14c0-2.34,1.83-3.71,4.15-3.71h.3v6.25A2.72,2.72,0,0,0,10,99.9a3.42,3.42,0,0,0-1-2.39l.78-.57A4.2,4.2,0,0,1,11,100,3.84,3.84,0,0,1,7,104,3.87,3.87,0,0,1,2.91,100.14Zm3.57,2.54V97.61a2.5,2.5,0,0,0-2.57,2.55A2.57,2.57,0,0,0,6.48,102.68Z"/><path d="M3.11,94.49v-1.2H4.35A3.29,3.29,0,0,1,3,90.72H4.18a2.14,2.14,0,0,0,0,.48,2.83,2.83,0,0,0,1.23,2.09h5.48v1.2Z"/><path d="M10,84.38A3.36,3.36,0,0,1,11,86.94a2.57,2.57,0,0,1-2.56,2.7,2.53,2.53,0,0,1-2.55-2.7A3.22,3.22,0,0,1,7,84.38H5.59c-1,0-1.64.83-1.64,2A3.07,3.07,0,0,0,5,88.7l-.84.56a4.05,4.05,0,0,1-1.28-3.09c0-1.63.74-3,2.61-3h5.32v1.2Zm-2.21,0a2.58,2.58,0,0,0-1,2.13,1.7,1.7,0,1,0,3.37,0,2.58,2.58,0,0,0-1-2.13Z"/><path d="M9.22,80.54H4.16v1.28H3.11V80.54H1v-1.2H3.11V77.77H4.16v1.57H9c.58,0,1-.26,1-.78a1.19,1.19,0,0,0-.32-.82l.89-.35a1.94,1.94,0,0,1,.5,1.44A1.58,1.58,0,0,1,9.22,80.54Z"/><path d="M9.75,70.86A3.78,3.78,0,0,1,11,73.61a2.18,2.18,0,0,1-2.47,2.47H3.11v-1.2H8.2c1.36,0,1.76-.69,1.76-1.73a3,3,0,0,0-1.17-2.29H3.11v-1.2h7.73v1.2Z"/><path d="M3.11,67.26v-1.2H4.35A3.29,3.29,0,0,1,3,63.48H4.18a2.28,2.28,0,0,0,0,.48,2.83,2.83,0,0,0,1.23,2.1h5.48v1.2Z"/><path d="M2.91,58.62c0-2.34,1.83-3.71,4.15-3.71h.3v6.26A2.74,2.74,0,0,0,10,58.38a3.38,3.38,0,0,0-1-2.38l.78-.58A4.2,4.2,0,0,1,11,58.49,3.84,3.84,0,0,1,7,62.43,3.87,3.87,0,0,1,2.91,58.62Zm3.57,2.55V56.09a2.51,2.51,0,0,0-2.57,2.55A2.59,2.59,0,0,0,6.48,61.17Z"/><line class="cls-4" x1="118.82" y1="368.43" x2="118.82" y2="376.29"/><line class="cls-4" x1="28.47" y1="278.07" x2="20.61" y2="278.07"/><line class="cls-4" x1="28.47" y1="100.98" x2="20.61" y2="100.98"/><line class="cls-4" x1="299.54" y1="368.43" x2="299.54" y2="376.29"/></g></g></svg>