<?xml version="1.0" encoding="utf-8"?>
<!-- Generator: Adobe Illustrator 25.2.3, SVG Export Plug-In . SVG Version: 6.00 Build 0)  -->
<svg version="1.1" id="Layer_1" xmlns="http://www.w3.org/2000/svg" xmlns:xlink="http://www.w3.org/1999/xlink" x="0px" y="0px"
	 viewBox="0 0 474.3 398.9" style="enable-background:new 0 0 474.3 398.9;" xml:space="preserve">
<style type="text/css">
	.st0{fill:#39C4E2;}
	.st1{fill:#66CADC;}
	.st2{fill:url(#SVGID_1_);}
	.st3{fill:none;stroke:#000000;stroke-miterlimit:10;}
</style>
<g>
	<rect x="28.3" y="187.7" class="st0" width="180.7" height="180.7"/>
	<rect x="209" y="187.7" class="st1" width="180.7" height="180.7"/>
	<rect x="209" y="7" class="st0" width="180.7" height="180.7"/>
	<rect x="28.3" y="7" class="st1" width="180.7" height="180.7"/>
	<linearGradient id="SVGID_1_" gradientUnits="userSpaceOnUse" x1="419.4468" y1="6.9888" x2="419.4468" y2="368.4288">
		<stop  offset="2.546460e-07" style="stop-color:#66CADC"/>
		<stop  offset="1" style="stop-color:#083B6E"/>
	</linearGradient>
	<rect x="414.6" y="7" class="st2" width="9.8" height="361.4"/>
	<g>
		<path d="M424.8,6.4h3.8v1.1h-3.8V6.4z"/>
		<path d="M436.1,1.9l-1.7,1.8l-0.8-0.8l2.7-2.8h1.2v10.7h-1.3V1.9z"/>
		<path d="M440.5,9.2c0.5,0,0.9,0.4,0.9,0.9c0,0.5-0.4,0.9-0.9,0.9s-0.9-0.4-0.9-0.9C439.6,9.6,440,9.2,440.5,9.2z"/>
		<path d="M447.3,0c2.9,0,4.1,2.9,4.1,5.5c0,2.6-1.2,5.5-4.1,5.5c-2.9,0-4.1-2.9-4.1-5.5C443.2,2.9,444.3,0,447.3,0z M447.3,1.2
			c-2,0-2.7,2.2-2.7,4.3s0.7,4.3,2.7,4.3c2,0,2.7-2.2,2.7-4.3S449.3,1.2,447.3,1.2z"/>
		<path d="M457.1,0c2.9,0,4.1,2.9,4.1,5.5c0,2.6-1.2,5.5-4.1,5.5c-2.9,0-4.1-2.9-4.1-5.5C453,2.9,454.1,0,457.1,0z M457.1,1.2
			c-2,0-2.7,2.2-2.7,4.3s0.7,4.3,2.7,4.3c2,0,2.7-2.2,2.7-4.3S459.1,1.2,457.1,1.2z"/>
	</g>
	<g>
		<path d="M424.8,51.5h3.8v1.1h-3.8V51.5z"/>
		<path d="M438.2,45.1c2.9,0,4.1,2.9,4.1,5.5c0,2.6-1.2,5.5-4.1,5.5c-2.9,0-4.1-2.9-4.1-5.5C434.1,48,435.2,45.1,438.2,45.1z
			 M438.2,46.3c-2,0-2.7,2.2-2.7,4.3s0.7,4.3,2.7,4.3c2,0,2.7-2.2,2.7-4.3S440.2,46.3,438.2,46.3z"/>
		<path d="M444.4,54.3c0.5,0,0.9,0.4,0.9,0.9c0,0.5-0.4,0.9-0.9,0.9s-0.9-0.4-0.9-0.9C443.5,54.7,443.9,54.3,444.4,54.3z"/>
		<path d="M451.4,46.4h-5.7v-1.2h7.3v0.9l-4.4,9.8h-1.5L451.4,46.4z"/>
		<path d="M455.3,53.5c0.7,0.9,1.6,1.4,2.9,1.4c1.5,0,2.5-1,2.5-2.3c0-1.4-1-2.3-2.4-2.3c-0.9,0-1.7,0.3-2.5,1l-1-0.3v-5.8h6.5v1.2
			h-5.2v3.7c0.5-0.5,1.4-1,2.5-1c1.8,0,3.4,1.2,3.4,3.4c0,2.2-1.6,3.5-3.8,3.5c-1.8,0-3-0.7-3.8-1.7L455.3,53.5z"/>
	</g>
	<g>
		<path d="M424.8,96.6h3.8v1.1h-3.8V96.6z"/>
		<path d="M438.2,90.1c2.9,0,4.1,2.9,4.1,5.5c0,2.6-1.2,5.5-4.1,5.5c-2.9,0-4.1-2.9-4.1-5.5C434.1,93,435.2,90.1,438.2,90.1z
			 M438.2,91.3c-2,0-2.7,2.2-2.7,4.3s0.7,4.3,2.7,4.3c2,0,2.7-2.2,2.7-4.3S440.2,91.3,438.2,91.3z"/>
		<path d="M444.4,99.4c0.5,0,0.9,0.4,0.9,0.9c0,0.5-0.4,0.9-0.9,0.9s-0.9-0.4-0.9-0.9C443.5,99.8,443.9,99.4,444.4,99.4z"/>
		<path d="M448.1,98.6c0.7,0.9,1.6,1.4,2.9,1.4c1.5,0,2.5-1,2.5-2.3c0-1.4-1-2.3-2.4-2.3c-0.9,0-1.7,0.3-2.5,1l-1-0.3v-5.8h6.5v1.2
			H449v3.7c0.5-0.5,1.4-1,2.5-1c1.8,0,3.4,1.2,3.4,3.4c0,2.2-1.6,3.5-3.8,3.5c-1.8,0-3-0.7-3.8-1.7L448.1,98.6z"/>
		<path d="M460.6,90.1c2.9,0,4.1,2.9,4.1,5.5c0,2.6-1.2,5.5-4.1,5.5c-2.9,0-4.1-2.9-4.1-5.5C456.5,93,457.6,90.1,460.6,90.1z
			 M460.6,91.3c-2,0-2.7,2.2-2.7,4.3s0.7,4.3,2.7,4.3c2,0,2.7-2.2,2.7-4.3S462.6,91.3,460.6,91.3z"/>
	</g>
	<g>
		<path d="M424.8,141.7h3.8v1.1h-3.8V141.7z"/>
		<path d="M438.2,135.2c2.9,0,4.1,2.9,4.1,5.5c0,2.6-1.2,5.5-4.1,5.5c-2.9,0-4.1-2.9-4.1-5.5C434.1,138.1,435.2,135.2,438.2,135.2z
			 M438.2,136.4c-2,0-2.7,2.2-2.7,4.3s0.7,4.3,2.7,4.3c2,0,2.7-2.2,2.7-4.3S440.2,136.4,438.2,136.4z"/>
		<path d="M444.4,144.5c0.5,0,0.9,0.4,0.9,0.9c0,0.5-0.4,0.9-0.9,0.9s-0.9-0.4-0.9-0.9C443.5,144.9,443.9,144.5,444.4,144.5z"/>
		<path d="M447.1,145c3.8-3,5.9-4.8,5.9-6.6c0-1.4-1.1-2-2.2-2c-1.3,0-2.3,0.5-2.9,1.3l-0.8-0.8c0.8-1.1,2.2-1.7,3.7-1.7
			c1.8,0,3.6,1,3.6,3.1c0,2.2-2.2,4.2-5.2,6.5h5.2v1.2h-7.3V145z"/>
		<path d="M457.5,143.7c0.7,0.9,1.6,1.4,2.9,1.4c1.5,0,2.5-1,2.5-2.3c0-1.4-1-2.3-2.4-2.3c-0.9,0-1.7,0.3-2.5,1l-1-0.3v-5.8h6.5v1.2
			h-5.2v3.7c0.5-0.5,1.4-1,2.5-1c1.8,0,3.4,1.2,3.4,3.4c0,2.2-1.6,3.5-3.8,3.5c-1.8,0-3-0.7-3.8-1.7L457.5,143.7z"/>
	</g>
	<g>
		<path d="M424.8,186.7h3.8v1.1h-3.8V186.7z"/>
		<path d="M438.2,180.3c2.9,0,4.1,2.9,4.1,5.5c0,2.6-1.2,5.5-4.1,5.5c-2.9,0-4.1-2.9-4.1-5.5C434.1,183.2,435.2,180.3,438.2,180.3z
			 M438.2,181.5c-2,0-2.7,2.2-2.7,4.3s0.7,4.3,2.7,4.3c2,0,2.7-2.2,2.7-4.3S440.2,181.5,438.2,181.5z"/>
		<path d="M444.4,189.5c0.5,0,0.9,0.4,0.9,0.9c0,0.5-0.4,0.9-0.9,0.9s-0.9-0.4-0.9-0.9C443.5,189.9,443.9,189.5,444.4,189.5z"/>
		<path d="M451.1,180.3c2.9,0,4.1,2.9,4.1,5.5c0,2.6-1.2,5.5-4.1,5.5c-2.9,0-4.1-2.9-4.1-5.5C447.1,183.2,448.2,180.3,451.1,180.3z
			 M451.1,181.5c-2,0-2.7,2.2-2.7,4.3s0.7,4.3,2.7,4.3c2,0,2.7-2.2,2.7-4.3S453.2,181.5,451.1,181.5z"/>
		<path d="M460.9,180.3c2.9,0,4.1,2.9,4.1,5.5c0,2.6-1.2,5.5-4.1,5.5c-2.9,0-4.1-2.9-4.1-5.5C456.8,183.2,458,180.3,460.9,180.3z
			 M460.9,181.5c-2,0-2.7,2.2-2.7,4.3s0.7,4.3,2.7,4.3c2,0,2.7-2.2,2.7-4.3S463,181.5,460.9,181.5z"/>
	</g>
	<g>
		<path d="M424.8,231.8h3.8v1.1h-3.8V231.8z"/>
		<path d="M433.7,231.8h8.5v1.1h-8.5V231.8z"/>
		<path d="M447.6,225.4c2.9,0,4.1,2.9,4.1,5.5c0,2.6-1.2,5.5-4.1,5.5c-2.9,0-4.1-2.9-4.1-5.5C443.6,228.3,444.7,225.4,447.6,225.4z
			 M447.6,226.6c-2,0-2.7,2.2-2.7,4.3s0.7,4.3,2.7,4.3c2,0,2.7-2.2,2.7-4.3S449.7,226.6,447.6,226.6z"/>
		<path d="M453.9,234.6c0.5,0,0.9,0.4,0.9,0.9s-0.4,0.9-0.9,0.9s-0.9-0.4-0.9-0.9S453.4,234.6,453.9,234.6z"/>
		<path d="M456.6,235.1c3.8-3,5.9-4.8,5.9-6.6c0-1.4-1.1-2-2.2-2c-1.3,0-2.3,0.5-2.9,1.3l-0.8-0.8c0.8-1.1,2.2-1.7,3.7-1.7
			c1.8,0,3.6,1,3.6,3.1c0,2.2-2.2,4.2-5.2,6.5h5.2v1.2h-7.3V235.1z"/>
		<path d="M467,233.8c0.7,0.9,1.6,1.4,2.9,1.4c1.5,0,2.5-1,2.5-2.3c0-1.4-1-2.3-2.4-2.3c-0.9,0-1.7,0.3-2.5,1l-1-0.3v-5.8h6.5v1.2
			h-5.2v3.7c0.5-0.5,1.4-1,2.5-1c1.8,0,3.4,1.2,3.4,3.4c0,2.2-1.6,3.5-3.8,3.5c-1.8,0-3-0.7-3.8-1.7L467,233.8z"/>
	</g>
	<g>
		<path d="M424.8,276.9h3.8v1.1h-3.8V276.9z"/>
		<path d="M433.7,276.9h8.5v1.1h-8.5V276.9z"/>
		<path d="M447.6,270.4c2.9,0,4.1,2.9,4.1,5.5c0,2.6-1.2,5.5-4.1,5.5c-2.9,0-4.1-2.9-4.1-5.5C443.6,273.3,444.7,270.4,447.6,270.4z
			 M447.6,271.6c-2,0-2.7,2.2-2.7,4.3s0.7,4.3,2.7,4.3c2,0,2.7-2.2,2.7-4.3S449.7,271.6,447.6,271.6z"/>
		<path d="M453.9,279.7c0.5,0,0.9,0.4,0.9,0.9s-0.4,0.9-0.9,0.9s-0.9-0.4-0.9-0.9S453.4,279.7,453.9,279.7z"/>
		<path d="M457.6,278.9c0.7,0.9,1.6,1.4,2.9,1.4c1.5,0,2.5-1,2.5-2.3c0-1.4-1-2.3-2.4-2.3c-0.9,0-1.7,0.3-2.5,1l-1-0.3v-5.8h6.5v1.2
			h-5.2v3.7c0.5-0.5,1.4-1,2.5-1c1.8,0,3.4,1.2,3.4,3.4c0,2.2-1.6,3.5-3.8,3.5c-1.8,0-3-0.7-3.8-1.7L457.6,278.9z"/>
		<path d="M470.1,270.4c2.9,0,4.1,2.9,4.1,5.5c0,2.6-1.2,5.5-4.1,5.5c-2.9,0-4.1-2.9-4.1-5.5C466,273.3,467.1,270.4,470.1,270.4z
			 M470.1,271.6c-2,0-2.7,2.2-2.7,4.3s0.7,4.3,2.7,4.3c2,0,2.7-2.2,2.7-4.3S472.1,271.6,470.1,271.6z"/>
	</g>
	<g>
		<path d="M424.8,322h3.8v1.1h-3.8V322z"/>
		<path d="M433.7,322h8.5v1.1h-8.5V322z"/>
		<path d="M447.6,315.5c2.9,0,4.1,2.9,4.1,5.5c0,2.6-1.2,5.5-4.1,5.5c-2.9,0-4.1-2.9-4.1-5.5C443.6,318.4,444.7,315.5,447.6,315.5z
			 M447.6,316.7c-2,0-2.7,2.2-2.7,4.3s0.7,4.3,2.7,4.3c2,0,2.7-2.2,2.7-4.3S449.7,316.7,447.6,316.7z"/>
		<path d="M453.9,324.8c0.5,0,0.9,0.4,0.9,0.9s-0.4,0.9-0.9,0.9s-0.9-0.4-0.9-0.9S453.4,324.8,453.9,324.8z"/>
		<path d="M460.9,316.9h-5.7v-1.2h7.3v0.9l-4.4,9.8h-1.5L460.9,316.9z"/>
		<path d="M464.8,324c0.7,0.9,1.6,1.4,2.9,1.4c1.5,0,2.5-1,2.5-2.3c0-1.4-1-2.3-2.4-2.3c-0.9,0-1.7,0.3-2.5,1l-1-0.3v-5.8h6.5v1.2
			h-5.2v3.7c0.5-0.5,1.4-1,2.5-1c1.8,0,3.4,1.2,3.4,3.4c0,2.2-1.6,3.5-3.8,3.5c-1.8,0-3-0.7-3.8-1.7L464.8,324z"/>
	</g>
	<g>
		<path d="M424.8,367h3.8v1.1h-3.8V367z"/>
		<path d="M433.7,367h8.5v1.1h-8.5V367z"/>
		<path d="M445.6,362.5l-1.7,1.8l-0.8-0.8l2.7-2.8h1.2v10.7h-1.3V362.5z"/>
		<path d="M450,369.8c0.5,0,0.9,0.4,0.9,0.9s-0.4,0.9-0.9,0.9c-0.5,0-0.9-0.4-0.9-0.9S449.5,369.8,450,369.8z"/>
		<path d="M456.8,360.6c2.9,0,4.1,2.9,4.1,5.5c0,2.6-1.2,5.5-4.1,5.5c-2.9,0-4.1-2.9-4.1-5.5C452.7,363.5,453.8,360.6,456.8,360.6z
			 M456.8,361.8c-2,0-2.7,2.2-2.7,4.3s0.7,4.3,2.7,4.3c2,0,2.7-2.2,2.7-4.3S458.8,361.8,456.8,361.8z"/>
		<path d="M466.5,360.6c2.9,0,4.1,2.9,4.1,5.5c0,2.6-1.2,5.5-4.1,5.5c-2.9,0-4.1-2.9-4.1-5.5C462.5,363.5,463.6,360.6,466.5,360.6z
			 M466.5,361.8c-2,0-2.7,2.2-2.7,4.3s0.7,4.3,2.7,4.3c2,0,2.7-2.2,2.7-4.3S468.6,361.8,466.5,361.8z"/>
	</g>
	<g>
		<path d="M254.3,392.1c0-2.2,1.5-4,3.8-4c2.4,0,3.8,1.8,3.8,4c0,2.2-1.5,4.1-3.8,4.1C255.7,396.1,254.3,394.3,254.3,392.1z
			 M260.7,392.1c0-1.6-0.9-3-2.6-3c-1.6,0-2.6,1.4-2.6,3c0,1.6,0.9,3,2.6,3C259.7,395.1,260.7,393.7,260.7,392.1z"/>
		<path d="M263.7,386.1c0-0.4,0.4-0.8,0.8-0.8c0.4,0,0.8,0.4,0.8,0.8s-0.4,0.8-0.8,0.8C264,386.9,263.7,386.6,263.7,386.1z
			 M263.9,388.2h1.2v7.7h-1.2V388.2z"/>
		<path d="M267.5,385.3h1.2v10.7h-1.2V385.3z"/>
		<path d="M269.8,396.6h9.1v0.9h-9.1V396.6z"/>
		<path d="M280.1,398.9v-10.7h1.2v1.2c0.6-0.8,1.5-1.3,2.6-1.3c2,0,3.4,1.5,3.4,4c0,2.5-1.4,4.1-3.4,4.1c-1.1,0-2-0.5-2.6-1.4v4.1
			H280.1z M283.6,389.1c-0.9,0-1.9,0.6-2.3,1.2v3.5c0.4,0.7,1.4,1.2,2.3,1.2c1.6,0,2.5-1.3,2.5-3S285.1,389.1,283.6,389.1z"/>
		<path d="M289.3,388.2h1.2v1.2c0.6-0.8,1.5-1.4,2.6-1.4v1.2c-0.1,0-0.3,0-0.5,0c-0.7,0-1.7,0.6-2.1,1.2v5.5h-1.2V388.2z"/>
		<path d="M294.1,392.1c0-2.2,1.5-4,3.8-4c2.4,0,3.8,1.8,3.8,4c0,2.2-1.5,4.1-3.8,4.1C295.6,396.1,294.1,394.3,294.1,392.1z
			 M300.5,392.1c0-1.6-0.9-3-2.6-3c-1.6,0-2.6,1.4-2.6,3c0,1.6,0.9,3,2.6,3C299.6,395.1,300.5,393.7,300.5,392.1z"/>
		<path d="M309.3,394.8c-0.6,0.8-1.5,1.3-2.6,1.3c-2,0-3.4-1.5-3.4-4c0-2.5,1.4-4.1,3.4-4.1c1,0,2,0.5,2.6,1.4v-4.1h1.2v10.7h-1.2
			V394.8z M309.3,390.3c-0.4-0.7-1.4-1.2-2.3-1.2c-1.6,0-2.5,1.3-2.5,3s0.9,3,2.5,3c1,0,1.9-0.5,2.3-1.2V390.3z"/>
		<path d="M318.1,394.9c-0.6,0.7-1.6,1.3-2.8,1.3c-1.6,0-2.5-0.8-2.5-2.5v-5.5h1.2v5.1c0,1.4,0.7,1.8,1.7,1.8c0.9,0,1.8-0.5,2.3-1.2
			v-5.7h1.2v7.7h-1.2V394.9z"/>
		<path d="M325.1,388c1.4,0,2.2,0.6,2.8,1.3l-0.8,0.7c-0.5-0.7-1.2-1-2-1c-1.6,0-2.7,1.3-2.7,3s1,3,2.7,3c0.8,0,1.5-0.3,2-1l0.8,0.7
			c-0.6,0.8-1.4,1.3-2.8,1.3c-2.3,0-3.9-1.8-3.9-4.1C321.3,389.8,322.8,388,325.1,388z"/>
		<path d="M329.9,394.3v-5.1h-1.3v-1.1h1.3v-2.1h1.2v2.1h1.6v1.1h-1.6v4.8c0,0.6,0.3,1,0.8,1c0.3,0,0.7-0.1,0.8-0.3l0.4,0.9
			c-0.3,0.3-0.7,0.5-1.4,0.5C330.5,396.1,329.9,395.5,329.9,394.3z"/>
		<path d="M334.1,386.1c0-0.4,0.4-0.8,0.8-0.8c0.4,0,0.8,0.4,0.8,0.8s-0.4,0.8-0.8,0.8C334.5,386.9,334.1,386.6,334.1,386.1z
			 M334.3,388.2h1.2v7.7h-1.2V388.2z"/>
		<path d="M337.5,392.1c0-2.2,1.5-4,3.8-4c2.4,0,3.8,1.8,3.8,4c0,2.2-1.5,4.1-3.8,4.1C339,396.1,337.5,394.3,337.5,392.1z
			 M343.9,392.1c0-1.6-0.9-3-2.6-3c-1.6,0-2.6,1.4-2.6,3c0,1.6,0.9,3,2.6,3C343,395.1,343.9,393.7,343.9,392.1z"/>
		<path d="M352.3,390.9c0-1.4-0.7-1.8-1.7-1.8c-0.9,0-1.8,0.6-2.3,1.2v5.7h-1.2v-7.7h1.2v1.1c0.5-0.6,1.6-1.3,2.8-1.3
			c1.6,0,2.5,0.8,2.5,2.5v5.4h-1.2V390.9z"/>
	</g>
	<g>
		<path d="M6.8,327.9c-2.2,0-4-1.5-4-3.8c0-2.4,1.8-3.8,4-3.8s4.1,1.5,4.1,3.8C10.9,326.4,9,327.9,6.8,327.9z M6.8,321.5
			c-1.6,0-3,0.9-3,2.6s1.4,2.6,3,2.6c1.6,0,3-0.9,3-2.6S8.4,321.5,6.8,321.5z"/>
		<path d="M0.8,318.5c-0.4,0-0.8-0.4-0.8-0.8c0-0.4,0.4-0.8,0.8-0.8c0.4,0,0.8,0.4,0.8,0.8C1.6,318.2,1.3,318.5,0.8,318.5z
			 M2.9,318.3v-1.2h7.7v1.2H2.9z"/>
		<path d="M0,314.7v-1.2h10.7v1.2H0z"/>
		<path d="M11.3,312.4v-9.1h0.9v9.1H11.3z"/>
		<path d="M13.6,302.1H2.9v-1.2h1.2c-0.8-0.6-1.3-1.5-1.3-2.6c0-2,1.5-3.4,4-3.4c2.5,0,4.1,1.4,4.1,3.4c0,1.1-0.5,2-1.4,2.6h4.1
			V302.1z M3.8,298.6c0,0.9,0.6,1.9,1.2,2.3h3.5c0.7-0.4,1.2-1.4,1.2-2.3c0-1.6-1.3-2.5-3-2.5S3.8,297,3.8,298.6z"/>
		<path d="M2.9,292.9v-1.2h1.2c-0.8-0.6-1.4-1.5-1.4-2.6H4c0,0.1,0,0.3,0,0.5c0,0.7,0.6,1.7,1.2,2.1h5.5v1.2H2.9z"/>
		<path d="M6.8,288.1c-2.2,0-4-1.5-4-3.8c0-2.4,1.8-3.8,4-3.8s4.1,1.5,4.1,3.8C10.9,286.6,9,288.1,6.8,288.1z M6.8,281.7
			c-1.6,0-3,0.9-3,2.6c0,1.6,1.4,2.6,3,2.6c1.6,0,3-0.9,3-2.6C9.8,282.6,8.4,281.7,6.8,281.7z"/>
		<path d="M9.5,272.9c0.8,0.6,1.3,1.5,1.3,2.6c0,2-1.5,3.4-4,3.4c-2.5,0-4.1-1.4-4.1-3.4c0-1,0.5-2,1.4-2.6H0v-1.2h10.7v1.2H9.5z
			 M5.1,272.9c-0.7,0.4-1.2,1.4-1.2,2.3c0,1.6,1.3,2.5,3,2.5c1.7,0,3-0.9,3-2.5c0-1-0.5-1.9-1.2-2.3H5.1z"/>
		<path d="M9.6,264.1c0.7,0.6,1.3,1.6,1.3,2.8c0,1.6-0.8,2.5-2.5,2.5H2.9v-1.2H8c1.4,0,1.8-0.7,1.8-1.7c0-0.9-0.5-1.8-1.2-2.3H2.9
			v-1.2h7.7v1.2H9.6z"/>
		<path d="M2.8,257.1c0-1.4,0.6-2.2,1.3-2.8l0.7,0.8c-0.7,0.5-1,1.2-1,2c0,1.6,1.3,2.7,3,2.7s3-1,3-2.7c0-0.8-0.3-1.5-1-2l0.7-0.8
			c0.8,0.6,1.3,1.4,1.3,2.8c0,2.3-1.8,3.9-4.1,3.9C4.5,260.9,2.8,259.4,2.8,257.1z"/>
		<path d="M9.1,252.3H4v1.3H2.9v-1.3H0.8v-1.2h2.1v-1.6H4v1.6h4.8c0.6,0,1-0.3,1-0.8c0-0.3-0.1-0.7-0.3-0.8l0.9-0.4
			c0.3,0.3,0.5,0.7,0.5,1.4C10.9,251.7,10.2,252.3,9.1,252.3z"/>
		<path d="M0.8,248c-0.4,0-0.8-0.4-0.8-0.8c0-0.4,0.4-0.8,0.8-0.8c0.4,0,0.8,0.4,0.8,0.8C1.6,247.7,1.3,248,0.8,248z M2.9,247.8
			v-1.2h7.7v1.2H2.9z"/>
		<path d="M6.8,244.7c-2.2,0-4-1.5-4-3.8c0-2.4,1.8-3.8,4-3.8s4.1,1.5,4.1,3.8C10.9,243.2,9,244.7,6.8,244.7z M6.8,238.3
			c-1.6,0-3,0.9-3,2.6s1.4,2.6,3,2.6c1.6,0,3-0.9,3-2.6S8.4,238.3,6.8,238.3z"/>
		<path d="M5.6,229.9c-1.4,0-1.8,0.7-1.8,1.7c0,0.9,0.6,1.8,1.2,2.3h5.7v1.2H2.9v-1.2h1.1c-0.6-0.5-1.3-1.6-1.3-2.8
			c0-1.6,0.8-2.5,2.5-2.5h5.4v1.2H5.6z"/>
	</g>
	<g>
		<path d="M76.9,394.3v-5.1h-1.3v-1.1h1.3v-2.1h1.2v2.1h1.6v1.1h-1.6v4.8c0,0.6,0.3,1,0.8,1c0.3,0,0.7-0.1,0.8-0.3l0.4,0.9
			c-0.3,0.3-0.7,0.5-1.4,0.5C77.5,396.1,76.9,395.5,76.9,394.3z"/>
		<path d="M84.8,388c2.3,0,3.7,1.8,3.7,4.1v0.3h-6.3c0.1,1.5,1.1,2.7,2.8,2.7c0.9,0,1.8-0.4,2.4-1L88,395c-0.8,0.8-1.8,1.2-3.1,1.2
			c-2.3,0-3.9-1.6-3.9-4.1C80.9,389.8,82.5,388,84.8,388z M82.2,391.6h5.1c0-1.2-0.8-2.6-2.5-2.6C83.1,389,82.3,390.4,82.2,391.6z"
			/>
		<path d="M99.7,390.7c0-1-0.4-1.6-1.4-1.6c-0.8,0-1.6,0.6-2,1.2v5.7h-1.2v-5.2c0-1-0.4-1.6-1.4-1.6c-0.8,0-1.6,0.6-2,1.2v5.7h-1.2
			v-7.7h1.2v1.1c0.3-0.5,1.4-1.3,2.5-1.3c1.2,0,1.9,0.6,2.1,1.4c0.4-0.7,1.5-1.4,2.6-1.4c1.4,0,2.2,0.8,2.2,2.3v5.6h-1.2V390.7z"/>
		<path d="M103.3,398.9v-10.7h1.2v1.2c0.6-0.8,1.5-1.3,2.6-1.3c2,0,3.4,1.5,3.4,4c0,2.5-1.4,4.1-3.4,4.1c-1.1,0-2-0.5-2.6-1.4v4.1
			H103.3z M106.8,389.1c-0.9,0-1.9,0.6-2.3,1.2v3.5c0.4,0.7,1.4,1.2,2.3,1.2c1.6,0,2.5-1.3,2.5-3S108.4,389.1,106.8,389.1z"/>
		<path d="M115.9,388c2.3,0,3.7,1.8,3.7,4.1v0.3h-6.3c0.1,1.5,1.1,2.7,2.8,2.7c0.9,0,1.8-0.4,2.4-1l0.6,0.8
			c-0.8,0.8-1.8,1.2-3.1,1.2c-2.3,0-3.9-1.6-3.9-4.1C112.1,389.8,113.7,388,115.9,388z M113.3,391.6h5.1c0-1.2-0.8-2.6-2.5-2.6
			C114.2,389,113.4,390.4,113.3,391.6z"/>
		<path d="M121.5,388.2h1.2v1.2c0.6-0.8,1.5-1.4,2.6-1.4v1.2c-0.1,0-0.3,0-0.5,0c-0.7,0-1.7,0.6-2.1,1.2v5.5h-1.2V388.2z"/>
		<path d="M131.6,395.1c-0.6,0.7-1.5,1.1-2.6,1.1c-1.3,0-2.7-0.9-2.7-2.6c0-1.7,1.4-2.5,2.7-2.5c1.1,0,1.9,0.3,2.6,1.1v-1.4
			c0-1-0.8-1.6-2-1.6c-0.9,0-1.7,0.3-2.4,1.1l-0.6-0.8c0.8-0.9,1.8-1.3,3.1-1.3c1.6,0,3,0.7,3,2.6v5.3h-1.2V395.1z M131.6,392.9
			c-0.5-0.6-1.3-1-2.1-1c-1.1,0-1.9,0.7-1.9,1.7c0,1,0.8,1.7,1.9,1.7c0.8,0,1.7-0.3,2.1-1V392.9z"/>
		<path d="M135.5,394.3v-5.1h-1.3v-1.1h1.3v-2.1h1.2v2.1h1.6v1.1h-1.6v4.8c0,0.6,0.3,1,0.8,1c0.3,0,0.7-0.1,0.8-0.3l0.4,0.9
			c-0.3,0.3-0.7,0.5-1.4,0.5C136,396.1,135.5,395.5,135.5,394.3z"/>
		<path d="M145.2,394.9c-0.6,0.7-1.6,1.3-2.8,1.3c-1.6,0-2.5-0.8-2.5-2.5v-5.5h1.2v5.1c0,1.4,0.7,1.8,1.7,1.8c0.9,0,1.8-0.5,2.3-1.2
			v-5.7h1.2v7.7h-1.2V394.9z"/>
		<path d="M148.8,388.2h1.2v1.2c0.6-0.8,1.5-1.4,2.6-1.4v1.2c-0.1,0-0.3,0-0.5,0c-0.7,0-1.7,0.6-2.1,1.2v5.5h-1.2V388.2z"/>
		<path d="M157.4,388c2.3,0,3.7,1.8,3.7,4.1v0.3h-6.3c0.1,1.5,1.1,2.7,2.8,2.7c0.9,0,1.8-0.4,2.4-1l0.6,0.8
			c-0.8,0.8-1.8,1.2-3.1,1.2c-2.3,0-3.9-1.6-3.9-4.1C153.6,389.8,155.2,388,157.4,388z M154.8,391.6h5.1c0-1.2-0.8-2.6-2.5-2.6
			C155.7,389,154.9,390.4,154.8,391.6z"/>
	</g>
	<g>
		<path d="M9.1,139.1H4v1.3H2.9v-1.3H0.8v-1.2h2.1v-1.6H4v1.6h4.8c0.6,0,1-0.3,1-0.8c0-0.3-0.1-0.7-0.3-0.8l0.9-0.4
			c0.3,0.3,0.5,0.7,0.5,1.4C10.9,138.5,10.2,139.1,9.1,139.1z"/>
		<path d="M2.8,131.3c0-2.3,1.8-3.7,4.1-3.7h0.3v6.3c1.5-0.1,2.7-1.1,2.7-2.8c0-0.9-0.4-1.8-1-2.4l0.8-0.6c0.8,0.8,1.2,1.8,1.2,3.1
			c0,2.3-1.6,3.9-4.1,3.9C4.6,135.1,2.8,133.5,2.8,131.3z M6.3,133.8v-5.1c-1.2,0-2.6,0.8-2.6,2.5C3.7,132.9,5.1,133.7,6.3,133.8z"
			/>
		<path d="M5.4,116.3c-1,0-1.6,0.4-1.6,1.4c0,0.8,0.6,1.6,1.2,2h5.7v1.2H5.4c-1,0-1.6,0.4-1.6,1.4c0,0.8,0.6,1.6,1.2,2h5.7v1.2H2.9
			v-1.2h1.1c-0.5-0.3-1.3-1.4-1.3-2.5c0-1.2,0.6-1.9,1.4-2.1c-0.7-0.4-1.4-1.5-1.4-2.6c0-1.4,0.8-2.2,2.3-2.2h5.6v1.2H5.4z"/>
		<path d="M13.6,112.7H2.9v-1.2h1.2c-0.8-0.6-1.3-1.5-1.3-2.6c0-2,1.5-3.4,4-3.4c2.5,0,4.1,1.4,4.1,3.4c0,1.1-0.5,2-1.4,2.6h4.1
			V112.7z M3.8,109.2c0,0.9,0.6,1.9,1.2,2.3h3.5c0.7-0.4,1.2-1.4,1.2-2.3c0-1.6-1.3-2.5-3-2.5S3.8,107.6,3.8,109.2z"/>
		<path d="M2.8,100.1c0-2.3,1.8-3.7,4.1-3.7h0.3v6.3c1.5-0.1,2.7-1.1,2.7-2.8c0-0.9-0.4-1.8-1-2.4l0.8-0.6c0.8,0.8,1.2,1.8,1.2,3.1
			c0,2.3-1.6,3.9-4.1,3.9C4.6,103.9,2.8,102.3,2.8,100.1z M6.3,102.7v-5.1c-1.2,0-2.6,0.8-2.6,2.5C3.7,101.8,5.1,102.6,6.3,102.7z"
			/>
		<path d="M2.9,94.5v-1.2h1.2c-0.8-0.6-1.4-1.5-1.4-2.6H4c0,0.1,0,0.3,0,0.5c0,0.7,0.6,1.7,1.2,2.1h5.5v1.2H2.9z"/>
		<path d="M9.8,84.4c0.7,0.6,1.1,1.5,1.1,2.6c0,1.3-0.9,2.7-2.6,2.7c-1.7,0-2.5-1.4-2.5-2.7c0-1.1,0.3-1.9,1.1-2.6H5.4
			c-1,0-1.6,0.8-1.6,2c0,0.9,0.3,1.7,1.1,2.4L4,89.3c-0.9-0.8-1.3-1.8-1.3-3.1c0-1.6,0.7-3,2.6-3h5.3v1.2H9.8z M7.6,84.4
			c-0.6,0.5-1,1.3-1,2.1c0,1.1,0.7,1.9,1.7,1.9c1,0,1.7-0.8,1.7-1.9c0-0.8-0.3-1.7-1-2.1H7.6z"/>
		<path d="M9.1,80.5H4v1.3H2.9v-1.3H0.8v-1.2h2.1v-1.6H4v1.6h4.8c0.6,0,1-0.3,1-0.8c0-0.3-0.1-0.7-0.3-0.8l0.9-0.4
			c0.3,0.3,0.5,0.7,0.5,1.4C10.9,80,10.2,80.5,9.1,80.5z"/>
		<path d="M9.6,70.9c0.7,0.6,1.3,1.6,1.3,2.8c0,1.6-0.8,2.5-2.5,2.5H2.9v-1.2H8c1.4,0,1.8-0.7,1.8-1.7c0-0.9-0.5-1.8-1.2-2.3H2.9
			v-1.2h7.7v1.2H9.6z"/>
		<path d="M2.9,67.3v-1.2h1.2c-0.8-0.6-1.4-1.5-1.4-2.6H4c0,0.1,0,0.3,0,0.5c0,0.7,0.6,1.7,1.2,2.1h5.5v1.2H2.9z"/>
		<path d="M2.8,58.6c0-2.3,1.8-3.7,4.1-3.7h0.3v6.3c1.5-0.1,2.7-1.1,2.7-2.8c0-0.9-0.4-1.8-1-2.4l0.8-0.6c0.8,0.8,1.2,1.8,1.2,3.1
			c0,2.3-1.6,3.9-4.1,3.9C4.6,62.4,2.8,60.8,2.8,58.6z M6.3,61.2v-5.1c-1.2,0-2.6,0.8-2.6,2.5C3.7,60.3,5.1,61.1,6.3,61.2z"/>
	</g>
	<line class="st3" x1="118.7" y1="368.4" x2="118.7" y2="376.3"/>
	<line class="st3" x1="28.3" y1="278.1" x2="20.4" y2="278.1"/>
	<line class="st3" x1="28.3" y1="101" x2="20.4" y2="101"/>
	<line class="st3" x1="299.4" y1="368.4" x2="299.4" y2="376.3"/>
</g>
</svg>
