<svg xmlns="http://www.w3.org/2000/svg" xmlns:xlink="http://www.w3.org/1999/xlink" viewBox="0 0 562.8 486.67"><defs><style>.cls-1{fill:url(#linear-gradient);}.cls-2{fill:none;stroke:#000;stroke-miterlimit:10;}.cls-3{fill:#edf7f8;}.cls-4{fill:#6b89a8;}.cls-5{fill:#027e93;}.cls-6{fill:#083b6e;}.cls-7{fill:#39628b;}.cls-8{fill:#66cadc;}.cls-9{fill:#a3dfea;}.cls-10{fill:#00aeef;}.cls-11{fill:#67b2be;}.cls-12{fill:#39c4e2;}.cls-13{fill:#0083b3;}.cls-14{fill:#2b4a68;}</style><linearGradient id="linear-gradient" x1="508.11" y1="6.99" x2="508.11" y2="368.43" gradientUnits="userSpaceOnUse"><stop offset="0" stop-color="#66cadc"/><stop offset="1" stop-color="#083b6e"/></linearGradient></defs><g id="Layer_2" data-name="Layer 2"><g id="Layer_1-2" data-name="Layer 1"><rect class="cls-1" x="503.22" y="6.99" width="9.77" height="361.44"/><path d="M513.47,6.43h3.84V7.49h-3.84Z"/><path d="M524.77,1.92l-1.71,1.81-.8-.82L524.93.16h1.17V10.84h-1.33Z"/><path d="M529.19,9.24a.88.88,0,1,1-.88.88A.89.89,0,0,1,529.19,9.24Z"/><path d="M535.92,0C538.84,0,540,2.9,540,5.51S538.84,11,535.92,11s-4.08-2.93-4.08-5.52S533,0,535.92,0Zm0,1.18c-2,0-2.72,2.2-2.72,4.33s.69,4.33,2.72,4.33,2.72-2.2,2.72-4.33S538,1.18,535.92,1.18Z"/><path d="M545.71,0c2.92,0,4.09,2.9,4.09,5.51S548.63,11,545.71,11s-4.08-2.93-4.08-5.52S542.78,0,545.71,0Zm0,1.18c-2,0-2.72,2.2-2.72,4.33s.69,4.33,2.72,4.33,2.73-2.2,2.73-4.33S547.75,1.18,545.71,1.18Z"/><path d="M513.47,51.51h3.84v1.05h-3.84Z"/><path d="M526.82,45.07c2.91,0,4.08,2.9,4.08,5.51s-1.17,5.52-4.08,5.52-4.08-2.93-4.08-5.52S523.89,45.07,526.82,45.07Zm0,1.19c-2,0-2.72,2.19-2.72,4.32s.69,4.34,2.72,4.34,2.72-2.21,2.72-4.34S528.85,46.26,526.82,46.26Z"/><path d="M533.06,54.31a.88.88,0,1,1-.88.88A.89.89,0,0,1,533.06,54.31Z"/><path d="M540.08,46.42h-5.74V45.23h7.28v.92l-4.37,9.76h-1.47Z"/><path d="M544,53.51a3.53,3.53,0,0,0,2.95,1.41,2.3,2.3,0,0,0,2.46-2.29,2.25,2.25,0,0,0-2.45-2.31,3.36,3.36,0,0,0-2.46,1l-1-.33V45.23H550v1.19h-5.2v3.71a3.63,3.63,0,0,1,2.5-1,3.27,3.27,0,0,1,3.39,3.41,3.49,3.49,0,0,1-3.79,3.52,4.34,4.34,0,0,1-3.76-1.71Z"/><path d="M513.47,96.58h3.84v1.06h-3.84Z"/><path d="M526.82,90.15c2.91,0,4.08,2.89,4.08,5.5s-1.17,5.53-4.08,5.53-4.08-2.93-4.08-5.53S523.89,90.15,526.82,90.15Zm0,1.18c-2,0-2.72,2.2-2.72,4.32s.69,4.34,2.72,4.34,2.72-2.21,2.72-4.34S528.85,91.33,526.82,91.33Z"/><path d="M533.06,99.38a.88.88,0,1,1-.88.88A.89.89,0,0,1,533.06,99.38Z"/><path d="M536.77,98.58a3.49,3.49,0,0,0,2.94,1.41,2.31,2.31,0,0,0,2.47-2.29,2.25,2.25,0,0,0-2.45-2.3,3.32,3.32,0,0,0-2.46,1l-1-.34V90.31h6.53v1.18h-5.2v3.72a3.56,3.56,0,0,1,2.49-1,3.27,3.27,0,0,1,3.4,3.41,3.5,3.5,0,0,1-3.8,3.52A4.36,4.36,0,0,1,536,99.46Z"/><path d="M549.23,90.15c2.92,0,4.09,2.89,4.09,5.5s-1.17,5.53-4.09,5.53-4.08-2.93-4.08-5.53S546.31,90.15,549.23,90.15Zm0,1.18c-2,0-2.72,2.2-2.72,4.32s.69,4.34,2.72,4.34S552,97.78,552,95.65,551.27,91.33,549.23,91.33Z"/><path d="M513.47,141.66h3.84v1.05h-3.84Z"/><path d="M526.82,135.22c2.91,0,4.08,2.9,4.08,5.51s-1.17,5.52-4.08,5.52-4.08-2.93-4.08-5.52S523.89,135.22,526.82,135.22Zm0,1.19c-2,0-2.72,2.19-2.72,4.32s.69,4.34,2.72,4.34,2.72-2.21,2.72-4.34S528.85,136.41,526.82,136.41Z"/><path d="M533.06,144.46a.88.88,0,1,1-.88.88A.89.89,0,0,1,533.06,144.46Z"/><path d="M535.76,145c3.84-3,5.92-4.8,5.92-6.64a2,2,0,0,0-2.22-2,3.58,3.58,0,0,0-2.9,1.34l-.82-.85a4.64,4.64,0,0,1,3.72-1.68c1.77,0,3.58,1,3.58,3.14s-2.2,4.16-5.18,6.51h5.23v1.19h-7.33Z"/><path d="M546.18,143.66a3.52,3.52,0,0,0,2.94,1.41,2.31,2.31,0,0,0,2.47-2.29,2.25,2.25,0,0,0-2.45-2.31,3.37,3.37,0,0,0-2.47,1l-1-.34v-5.76h6.53v1.19H547v3.71a3.6,3.6,0,0,1,2.49-1,3.28,3.28,0,0,1,3.4,3.41,3.5,3.5,0,0,1-3.8,3.52,4.37,4.37,0,0,1-3.76-1.71Z"/><path d="M513.47,186.73h3.84v1.06h-3.84Z"/><path d="M526.82,180.3c2.91,0,4.08,2.89,4.08,5.5s-1.17,5.52-4.08,5.52-4.08-2.92-4.08-5.52S523.89,180.3,526.82,180.3Zm0,1.18c-2,0-2.72,2.19-2.72,4.32s.69,4.34,2.72,4.34,2.72-2.21,2.72-4.34S528.85,181.48,526.82,181.48Z"/><path d="M533.06,189.53a.88.88,0,1,1-.88.88A.89.89,0,0,1,533.06,189.53Z"/><path d="M539.79,180.3c2.92,0,4.09,2.89,4.09,5.5s-1.17,5.52-4.09,5.52-4.08-2.92-4.08-5.52S536.87,180.3,539.79,180.3Zm0,1.18c-2,0-2.72,2.19-2.72,4.32s.69,4.34,2.72,4.34,2.73-2.21,2.73-4.34S541.83,181.48,539.79,181.48Z"/><path d="M549.59,180.3c2.91,0,4.08,2.89,4.08,5.5s-1.17,5.52-4.08,5.52-4.08-2.92-4.08-5.52S546.66,180.3,549.59,180.3Zm0,1.18c-2,0-2.72,2.19-2.72,4.32s.68,4.34,2.72,4.34,2.72-2.21,2.72-4.34S551.62,181.48,549.59,181.48Z"/><path d="M513.47,231.8h3.84v1.06h-3.84Z"/><path d="M522.4,231.8h8.53v1.06H522.4Z"/><path d="M536.31,225.37c2.91,0,4.08,2.9,4.08,5.51s-1.17,5.52-4.08,5.52-4.08-2.93-4.08-5.52S533.38,225.37,536.31,225.37Zm0,1.18c-2,0-2.72,2.2-2.72,4.33s.68,4.33,2.72,4.33S539,233,539,230.88,538.34,226.55,536.31,226.55Z"/><path d="M542.55,234.61a.88.88,0,1,1-.88.88A.89.89,0,0,1,542.55,234.61Z"/><path d="M545.25,235.15c3.84-3,5.92-4.8,5.92-6.64a2,2,0,0,0-2.22-2,3.57,3.57,0,0,0-2.9,1.35l-.82-.85a4.64,4.64,0,0,1,3.72-1.68c1.77,0,3.58,1,3.58,3.14s-2.21,4.16-5.18,6.51h5.23v1.19h-7.33Z"/><path d="M555.67,233.81a3.51,3.51,0,0,0,2.94,1.4,2.3,2.3,0,0,0,2.47-2.28,2.25,2.25,0,0,0-2.45-2.31,3.33,3.33,0,0,0-2.47,1l-1-.34v-5.76h6.53v1.18h-5.21v3.72a3.65,3.65,0,0,1,2.5-1,3.26,3.26,0,0,1,3.39,3.41,3.49,3.49,0,0,1-3.79,3.52,4.37,4.37,0,0,1-3.76-1.71Z"/><path d="M513.47,276.88h3.84v1.06h-3.84Z"/><path d="M522.4,276.88h8.53v1.06H522.4Z"/><path d="M536.31,270.44c2.91,0,4.08,2.9,4.08,5.51s-1.17,5.52-4.08,5.52-4.08-2.93-4.08-5.52S533.38,270.44,536.31,270.44Zm0,1.19c-2,0-2.72,2.19-2.72,4.32s.68,4.34,2.72,4.34S539,278.08,539,276,538.34,271.63,536.31,271.63Z"/><path d="M542.55,279.68a.88.88,0,1,1-.88.88A.89.89,0,0,1,542.55,279.68Z"/><path d="M546.26,278.88a3.49,3.49,0,0,0,2.94,1.41,2.31,2.31,0,0,0,2.47-2.29,2.25,2.25,0,0,0-2.45-2.31,3.37,3.37,0,0,0-2.47,1l-1-.33V270.6h6.53v1.19h-5.2v3.71a3.6,3.6,0,0,1,2.49-1A3.28,3.28,0,0,1,553,278a3.5,3.5,0,0,1-3.8,3.52,4.34,4.34,0,0,1-3.76-1.71Z"/><path d="M558.72,270.44c2.92,0,4.08,2.9,4.08,5.51s-1.16,5.52-4.08,5.52-4.08-2.93-4.08-5.52S555.79,270.44,558.72,270.44Zm0,1.19c-2,0-2.72,2.19-2.72,4.32s.69,4.34,2.72,4.34,2.72-2.21,2.72-4.34S560.76,271.63,558.72,271.63Z"/><path d="M513.47,322h3.84V323h-3.84Z"/><path d="M522.4,322h8.53V323H522.4Z"/><path d="M536.31,315.52c2.91,0,4.08,2.9,4.08,5.5s-1.17,5.53-4.08,5.53-4.08-2.93-4.08-5.53S533.38,315.52,536.31,315.52Zm0,1.18c-2,0-2.72,2.2-2.72,4.32s.68,4.34,2.72,4.34S539,323.15,539,321,538.34,316.7,536.31,316.7Z"/><path d="M542.55,324.75a.89.89,0,1,1-.88.88A.89.89,0,0,1,542.55,324.75Z"/><path d="M549.57,316.86h-5.75v-1.18h7.29v.91l-4.37,9.76h-1.47Z"/><path d="M553.44,324a3.51,3.51,0,0,0,2.95,1.41,2.3,2.3,0,0,0,2.46-2.29,2.25,2.25,0,0,0-2.45-2.3,3.32,3.32,0,0,0-2.46,1l-1-.34v-5.76h6.53v1.18h-5.2v3.72a3.56,3.56,0,0,1,2.5-1,3.27,3.27,0,0,1,3.39,3.41,3.5,3.5,0,0,1-3.79,3.52,4.35,4.35,0,0,1-3.76-1.72Z"/><path d="M513.47,367h3.84v1.05h-3.84Z"/><path d="M522.4,367h8.53v1.05H522.4Z"/><path d="M534.26,362.51l-1.72,1.81-.8-.81,2.68-2.76h1.17v10.68h-1.33Z"/><path d="M538.67,369.83a.88.88,0,1,1-.88.88A.89.89,0,0,1,538.67,369.83Z"/><path d="M545.41,360.59c2.91,0,4.08,2.9,4.08,5.51s-1.17,5.52-4.08,5.52-4.08-2.93-4.08-5.52S542.48,360.59,545.41,360.59Zm0,1.19c-2,0-2.72,2.19-2.72,4.32s.69,4.34,2.72,4.34,2.72-2.21,2.72-4.34S547.44,361.78,545.41,361.78Z"/><path d="M555.2,360.59c2.92,0,4.08,2.9,4.08,5.51s-1.16,5.52-4.08,5.52-4.08-2.93-4.08-5.52S552.27,360.59,555.2,360.59Zm0,1.19c-2,0-2.72,2.19-2.72,4.32s.69,4.34,2.72,4.34,2.72-2.21,2.72-4.34S557.23,361.78,555.2,361.78Z"/><path d="M455.76,474.65a3.33,3.33,0,0,1,1.08,2.56,2.58,2.58,0,0,1-2.56,2.71,2.54,2.54,0,0,1-2.55-2.71,3.22,3.22,0,0,1,1.06-2.56H451.4c-1,0-1.64.83-1.64,2a3.09,3.09,0,0,0,1.07,2.37l-.83.56a4.05,4.05,0,0,1-1.28-3.09c0-1.63.74-3,2.61-3h5.32v1.2Zm-2.2,0a2.56,2.56,0,0,0-1,2.13,1.7,1.7,0,1,0,3.38,0,2.58,2.58,0,0,0-1-2.13Z"/><path d="M451.59,465.83c-1.36,0-1.8.69-1.8,1.73a3,3,0,0,0,1.2,2.29h5.66v1.2h-7.74v-1.2H450a3.82,3.82,0,0,1-1.31-2.75,2.2,2.2,0,0,1,2.5-2.47h5.43v1.2Z"/><path d="M455,462H450v1.28h-1.06V462H446.8v-1.2h2.11v-1.57H450v1.57h4.8c.58,0,1-.26,1-.79a1.14,1.14,0,0,0-.32-.81l.9-.36a2,2,0,0,1,.5,1.44A1.59,1.59,0,0,1,455,462Z"/><path d="M455.76,452.7a3.33,3.33,0,0,1,1.08,2.56,2.57,2.57,0,0,1-2.56,2.7,2.53,2.53,0,0,1-2.55-2.7,3.22,3.22,0,0,1,1.06-2.56H451.4c-1,0-1.64.83-1.64,1.95a3.09,3.09,0,0,0,1.07,2.37l-.83.56a4.05,4.05,0,0,1-1.28-3.09c0-1.63.74-3,2.61-3h5.32v1.2Zm-2.2,0a2.56,2.56,0,0,0-1,2.13,1.7,1.7,0,1,0,3.38,0,2.58,2.58,0,0,0-1-2.13Z"/><path d="M448.91,449.1v-1.2h1.25a3.3,3.3,0,0,1-1.41-2.58H450a1.77,1.77,0,0,0-.05.48,2.83,2.83,0,0,0,1.23,2.1h5.48v1.2Z"/><path d="M448.72,440.41a3.3,3.3,0,0,1,1.35-2.83l.73.8a2.3,2.3,0,0,0-1,2,3,3,0,0,0,6,0,2.34,2.34,0,0,0-1-2l.73-.8a3.3,3.3,0,0,1,1.35,2.83,4.07,4.07,0,0,1-8.12,0Z"/><path d="M455,435.66H450v1.28h-1.06v-1.28H446.8v-1.2h2.11v-1.57H450v1.57h4.8c.58,0,1-.26,1-.78a1.14,1.14,0,0,0-.32-.82l.9-.35a1.94,1.94,0,0,1,.5,1.44A1.58,1.58,0,0,1,455,435.66Z"/><path d="M446.8,431.4a.8.8,0,0,1-.8-.8.8.8,0,0,1,.8-.81.82.82,0,0,1,.82.81A.81.81,0,0,1,446.8,431.4Zm2.11-.2V430h7.74v1.2Z"/><path d="M448.72,424.19a3.33,3.33,0,0,1,1.35-2.84l.73.8a2.32,2.32,0,0,0-1,2,3,3,0,0,0,6,0,2.36,2.36,0,0,0-1-2l.73-.8a3.33,3.33,0,0,1,1.35,2.84,4.07,4.07,0,0,1-8.12,0Z"/><path d="M457.28,420.93V411.8h.88v9.13Z"/><path d="M454.76,410.7a3.5,3.5,0,0,0,1.1-2.54c0-1.19-.53-1.83-1.28-1.83s-1.12.95-1.38,2c-.3,1.31-.65,2.8-2.25,2.8-1.2,0-2.23-1-2.23-2.88a3.94,3.94,0,0,1,1.12-2.87l.83.56a3,3,0,0,0-1,2.31c0,1.05.48,1.71,1.17,1.71s1-.88,1.23-1.89c.3-1.34.69-2.9,2.4-2.9,1.3,0,2.34,1,2.34,3a4.14,4.14,0,0,1-1.22,3.13Z"/><path d="M448.72,399.85c0-2.34,1.83-3.71,4.15-3.71h.3v6.26a2.72,2.72,0,0,0,2.67-2.79,3.37,3.37,0,0,0-1-2.38l.78-.58a4.2,4.2,0,0,1,1.19,3.07,4.06,4.06,0,0,1-8.12.13Zm3.57,2.55v-5.08a2.52,2.52,0,0,0-2.58,2.55A2.59,2.59,0,0,0,452.29,402.4Z"/><path d="M459.59,394.21H448.91V393h1.16a3.22,3.22,0,0,1-1.35-2.6c0-2,1.54-3.45,4-3.45s4.07,1.41,4.07,3.45a3.17,3.17,0,0,1-1.36,2.6h4.11Zm-9.8-3.51A2.83,2.83,0,0,0,451,393h3.49a2.86,2.86,0,0,0,1.24-2.3c0-1.55-1.28-2.48-3-2.48S449.79,389.15,449.79,390.7Z"/><path d="M404.13,471.75a3.34,3.34,0,0,1,1.07,2.56,2.57,2.57,0,0,1-2.56,2.71,2.53,2.53,0,0,1-2.54-2.71,3.28,3.28,0,0,1,1-2.56h-1.39c-1,0-1.63.84-1.63,2a3.09,3.09,0,0,0,1.07,2.37l-.83.56a4.08,4.08,0,0,1-1.28-3.09c0-1.64.74-3,2.61-3H405v1.2Zm-2.21,0a2.6,2.6,0,0,0-1,2.13,1.7,1.7,0,1,0,3.38,0,2.6,2.6,0,0,0-1-2.13Z"/><path d="M400,462.94c-1.36,0-1.79.69-1.79,1.73a3,3,0,0,0,1.2,2.29H405v1.2h-7.73V467h1.12a3.85,3.85,0,0,1-1.31-2.76,2.2,2.2,0,0,1,2.5-2.46H405v1.2Z"/><path d="M403.4,459.1h-5.06v1.28h-1.06V459.1h-2.11v-1.2h2.11v-1.57h1.06v1.57h4.8c.58,0,1-.26,1-.78a1.14,1.14,0,0,0-.32-.82l.9-.35a1.94,1.94,0,0,1,.49,1.44A1.58,1.58,0,0,1,403.4,459.1Z"/><path d="M404.13,449.8a3.32,3.32,0,0,1,1.07,2.56,2.57,2.57,0,0,1-2.56,2.71,2.53,2.53,0,0,1-2.54-2.71,3.28,3.28,0,0,1,1-2.56h-1.39c-1,0-1.63.84-1.63,2a3.07,3.07,0,0,0,1.07,2.36l-.83.56a4,4,0,0,1-1.28-3.08c0-1.64.74-3,2.61-3H405v1.2Zm-2.21,0a2.6,2.6,0,0,0-1,2.13,1.7,1.7,0,1,0,3.38,0,2.6,2.6,0,0,0-1-2.13Z"/><path d="M397.28,446.2V445h1.25a3.27,3.27,0,0,1-1.41-2.57h1.23a2.27,2.27,0,0,0,0,.48,2.8,2.8,0,0,0,1.23,2.09H405v1.2Z"/><path d="M397.09,437.52a3.34,3.34,0,0,1,1.34-2.84l.74.8a2.3,2.3,0,0,0-1,2,3,3,0,0,0,6,0,2.33,2.33,0,0,0-1-2l.74-.8a3.31,3.31,0,0,1,1.34,2.84,4.06,4.06,0,0,1-8.11,0Z"/><path d="M403.4,432.77h-5.06v1.28h-1.06v-1.28h-2.11v-1.21h2.11V430h1.06v1.56h4.8c.58,0,1-.25,1-.78a1.14,1.14,0,0,0-.32-.82l.9-.35a2,2,0,0,1,.49,1.44A1.58,1.58,0,0,1,403.4,432.77Z"/><path d="M395.17,428.51a.81.81,0,0,1,0-1.62.81.81,0,1,1,0,1.62Zm2.11-.21v-1.2H405v1.2Z"/><path d="M397.09,421.29a3.32,3.32,0,0,1,1.34-2.83l.74.8a2.3,2.3,0,0,0-1,2,3,3,0,0,0,6,0,2.33,2.33,0,0,0-1-2l.74-.8a3.29,3.29,0,0,1,1.34,2.83,4.06,4.06,0,0,1-8.11,0Z"/><path d="M405.65,418v-9.12h.88V418Z"/><path d="M398.34,407.42v1.28h-1.06v-1.28h-.59a2.33,2.33,0,0,1-2.24-3.41l.89.3a1.38,1.38,0,0,0-.17.69c0,.79.54,1.22,1.52,1.22h.59v-1.57h1.06v1.57H405v1.2Z"/><path d="M397.09,399.87c0-2.34,1.82-3.72,4.14-3.72h.31v6.26a2.71,2.71,0,0,0,2.67-2.78,3.41,3.41,0,0,0-1-2.39l.78-.57a4.19,4.19,0,0,1,1.18,3.07,4.06,4.06,0,0,1-8.11.13Zm3.57,2.54v-5.07a2.51,2.51,0,0,0-2.58,2.54A2.58,2.58,0,0,0,400.66,402.41Z"/><path d="M394.34,394.22V393h4.11a3.2,3.2,0,0,1-1.36-2.61c0-2,1.6-3.44,4.06-3.44s4.05,1.43,4.05,3.44a3.25,3.25,0,0,1-1.34,2.61H405v1.2Zm9.79-3.5c0-1.57-1.26-2.5-3-2.5s-3,.93-3,2.5a2.88,2.88,0,0,0,1.25,2.3h3.51A2.85,2.85,0,0,0,404.13,390.72Z"/><path d="M352.5,444.78a3.36,3.36,0,0,1,1.07,2.56A2.57,2.57,0,0,1,351,450a2.52,2.52,0,0,1-2.54-2.7,3.22,3.22,0,0,1,1-2.56h-1.39c-1,0-1.63.83-1.63,2a3.06,3.06,0,0,0,1.07,2.37l-.83.56a4,4,0,0,1-1.28-3.09c0-1.63.73-3,2.61-3h5.31v1.2Zm-2.21,0a2.58,2.58,0,0,0-1,2.13,1.7,1.7,0,1,0,3.38,0,2.58,2.58,0,0,0-1-2.13Z"/><path d="M345.65,441.18V440h1.25a3.27,3.27,0,0,1-1.41-2.58h1.23a2.28,2.28,0,0,0-.05.48,2.82,2.82,0,0,0,1.24,2.1h5.47v1.2Z"/><path d="M351.76,435.66H346.7v1.28h-1.05v-1.28h-2.11v-1.2h2.11v-1.57h1.05v1.57h4.81c.57,0,1-.26,1-.78a1.19,1.19,0,0,0-.32-.82l.9-.35a2,2,0,0,1,.49,1.44A1.58,1.58,0,0,1,351.76,435.66Z"/><path d="M343.54,431.4a.8.8,0,0,1-.81-.8.81.81,0,1,1,.81.8Zm2.11-.2V430h7.73v1.2Z"/><path d="M345.46,424.19a3.32,3.32,0,0,1,1.34-2.84l.74.8a2.29,2.29,0,0,0-1,2,3,3,0,0,0,6,0,2.34,2.34,0,0,0-1-2l.74-.8a3.32,3.32,0,0,1,1.34,2.84,4.06,4.06,0,0,1-8.11,0Z"/><path d="M354,420.93V411.8h.88v9.13Z"/><path d="M351.49,410.7a3.51,3.51,0,0,0,1.11-2.54c0-1.19-.53-1.83-1.29-1.83s-1.12.95-1.37,2c-.31,1.31-.66,2.8-2.26,2.8-1.2,0-2.22-1-2.22-2.88a3.9,3.9,0,0,1,1.12-2.87l.83.56a3,3,0,0,0-1,2.31c0,1.05.48,1.71,1.17,1.71s1-.88,1.23-1.89c.31-1.34.69-2.9,2.4-2.9,1.3,0,2.34,1,2.34,3a4.11,4.11,0,0,1-1.22,3.13Z"/><path d="M345.46,399.85c0-2.34,1.82-3.71,4.14-3.71h.31v6.26a2.73,2.73,0,0,0,2.67-2.79,3.33,3.33,0,0,0-1-2.38l.79-.58a4.19,4.19,0,0,1,1.18,3.07,4.06,4.06,0,0,1-8.11.13ZM349,402.4v-5.08a2.51,2.51,0,0,0-2.58,2.55A2.58,2.58,0,0,0,349,402.4Z"/><path d="M356.32,394.21H345.65V393h1.15a3.23,3.23,0,0,1-1.34-2.6c0-2,1.53-3.45,4.05-3.45s4.06,1.41,4.06,3.45a3.14,3.14,0,0,1-1.36,2.6h4.11Zm-9.79-3.51a2.85,2.85,0,0,0,1.23,2.3h3.49a2.87,2.87,0,0,0,1.25-2.3c0-1.55-1.28-2.48-3-2.48S346.53,389.15,346.53,390.7Z"/><path d="M300.87,445.79a3.36,3.36,0,0,1,1.07,2.56,2.57,2.57,0,0,1-2.56,2.7,2.53,2.53,0,0,1-2.55-2.7,3.22,3.22,0,0,1,1.06-2.56H296.5c-1,0-1.64.83-1.64,1.95a3.07,3.07,0,0,0,1.08,2.37l-.84.56a4.07,4.07,0,0,1-1.28-3.09c0-1.63.74-3,2.61-3h5.32v1.2Zm-2.21,0a2.58,2.58,0,0,0-1,2.12,1.7,1.7,0,1,0,3.37,0,2.55,2.55,0,0,0-1-2.12Z"/><path d="M294,442.19V441h1.25a3.29,3.29,0,0,1-1.41-2.58h1.23a2.28,2.28,0,0,0,0,.48,2.83,2.83,0,0,0,1.23,2.1h5.48v1.2Z"/><path d="M300.13,436.67h-5.06V438H294v-1.28H291.9v-1.2H294V433.9h1.05v1.57h4.8c.58,0,1-.26,1-.79a1.18,1.18,0,0,0-.32-.81l.89-.35a1.94,1.94,0,0,1,.5,1.44A1.58,1.58,0,0,1,300.13,436.67Z"/><path d="M291.9,432.41a.81.81,0,0,1,0-1.61.81.81,0,1,1,0,1.61Zm2.12-.21V431h7.73v1.2Z"/><path d="M293.82,425.2a3.32,3.32,0,0,1,1.35-2.84l.73.8a2.29,2.29,0,0,0-1,2,3,3,0,0,0,6,0,2.33,2.33,0,0,0-1-2l.74-.8a3.34,3.34,0,0,1,1.34,2.84,4.07,4.07,0,0,1-8.12,0Z"/><path d="M302.39,421.93v-9.12h.88v9.12Z"/><path d="M296.5,402.33c-1,0-1.6.43-1.6,1.42a2.68,2.68,0,0,0,1.18,2.05h5.67V407H296.5c-1,0-1.6.42-1.6,1.43a2.69,2.69,0,0,0,1.2,2h5.65v1.2H294v-1.2h1.12a3.33,3.33,0,0,1-1.32-2.5,2,2,0,0,1,1.45-2.08,3.24,3.24,0,0,1-1.45-2.59c0-1.41.79-2.16,2.34-2.16h5.59v1.2Z"/><path d="M300.87,393.9a3.36,3.36,0,0,1,1.07,2.56,2.58,2.58,0,0,1-2.56,2.71,2.54,2.54,0,0,1-2.55-2.71,3.22,3.22,0,0,1,1.06-2.56H296.5c-1,0-1.64.83-1.64,2a3.07,3.07,0,0,0,1.08,2.37l-.84.56a4.05,4.05,0,0,1-1.28-3.09c0-1.63.74-3,2.61-3h5.32v1.2Zm-2.21,0a2.58,2.58,0,0,0-1,2.13,1.7,1.7,0,1,0,3.37,0,2.56,2.56,0,0,0-1-2.13Z"/><path d="M294,390.3v-1.2h1.25a3.27,3.27,0,0,1-1.41-2.58h1.23a2.28,2.28,0,0,0,0,.48,2.83,2.83,0,0,0,1.23,2.1h5.48v1.2Z"/><path d="M243.9,460.35l6.21,2v1.2L242.38,466v-1.25l6.17-1.89-6.17-2v-1l6.17-2-6.17-1.89v-1.25l7.73,2.47v1.2Z"/><path d="M246.24,453.73a3.84,3.84,0,1,1,4.07-3.83A3.8,3.8,0,0,1,246.24,453.73Zm0-6.39c-1.57,0-3,.91-3,2.56a3,3,0,0,0,6,0C249.23,448.25,247.83,447.34,246.24,447.34Z"/><path d="M242.38,444.13v-1.21h1.25a3.3,3.3,0,0,1-1.41-2.57h1.24a1.73,1.73,0,0,0-.05.48,2.83,2.83,0,0,0,1.23,2.09h5.47v1.21Z"/><path d="M239.44,438.84v-1.19h10.67v1.19Z"/><path d="M249,429.64a3.25,3.25,0,0,1,1.35,2.61c0,2-1.54,3.44-4.05,3.44s-4.07-1.4-4.07-3.44a3.24,3.24,0,0,1,1.36-2.61h-4.11v-1.2h10.67v1.2Zm-4.45,0a2.91,2.91,0,0,0-1.25,2.32c0,1.56,1.28,2.48,3,2.48s3-.92,3-2.48a2.87,2.87,0,0,0-1.21-2.32Z"/><path d="M250.75,427.29v-9.12h.89v9.12Z"/><path d="M239.26,411.92a5.09,5.09,0,0,1,2-4.15l.66,1.06a4,4,0,0,0-1.47,3.09,4.35,4.35,0,0,0,8.69,0,4.27,4.27,0,0,0-1.15-2.87h-2.18v3.67h-1.19v-5h3.86a5.54,5.54,0,0,1,1.84,4.2,5.53,5.53,0,0,1-11.06,0Z"/><path d="M239.44,405.56v-3.64a5.34,5.34,0,1,1,10.67,0v3.64Zm9.49-3.64a4.16,4.16,0,0,0-8.31,0v2.32h8.31Z"/><path d="M239.44,394.37v-4.29a3.22,3.22,0,1,1,6.43,0v3h4.24v1.33Zm1.18-4.13V393h4.07v-2.8a2,2,0,1,0-4.07,0Z"/><path d="M194.61,486.67a3.83,3.83,0,1,1,4.06-3.83A3.79,3.79,0,0,1,194.61,486.67Zm0-6.39c-1.57,0-3,.91-3,2.56a3,3,0,0,0,6,0C197.6,481.19,196.19,480.28,194.61,480.28Z"/><path d="M188.64,477.28a.81.81,0,0,1,0-1.62.81.81,0,1,1,0,1.62Zm2.11-.21v-1.2h7.73v1.2Z"/><path d="M187.81,473.47v-1.2h10.67v1.2Z"/><path d="M199.12,471.12V462H200v9.13Z"/><path d="M201.43,460.84H190.75v-1.2h1.15a3.24,3.24,0,0,1-1.34-2.61c0-2,1.54-3.44,4.05-3.44s4.06,1.41,4.06,3.44a3.14,3.14,0,0,1-1.36,2.61h4.12Zm-9.8-3.5a2.85,2.85,0,0,0,1.23,2.3h3.49a2.84,2.84,0,0,0,1.25-2.3c0-1.55-1.28-2.48-3-2.48S191.63,455.79,191.63,457.34Z"/><path d="M190.75,451.66v-1.2H192a3.27,3.27,0,0,1-1.41-2.58h1.23a2.33,2.33,0,0,0,0,.48,2.8,2.8,0,0,0,1.23,2.1h5.47v1.2Z"/><path d="M194.61,446.83a3.83,3.83,0,1,1,4.06-3.83A3.79,3.79,0,0,1,194.61,446.83Zm0-6.39c-1.57,0-3,.91-3,2.56a3,3,0,0,0,6,0C197.6,441.35,196.19,440.44,194.61,440.44Z"/><path d="M197.33,431.63a3.25,3.25,0,0,1,1.34,2.6c0,2-1.53,3.45-4,3.45s-4.06-1.41-4.06-3.45a3.22,3.22,0,0,1,1.36-2.6h-4.11v-1.2h10.67v1.2Zm-4.45,0a2.91,2.91,0,0,0-1.25,2.32c0,1.55,1.28,2.48,3,2.48s3-.93,3-2.48a2.87,2.87,0,0,0-1.21-2.32Z"/><path d="M197.39,422.81a3.75,3.75,0,0,1,1.28,2.75,2.17,2.17,0,0,1-2.46,2.47h-5.46v-1.2h5.09c1.36,0,1.76-.69,1.76-1.73a2.94,2.94,0,0,0-1.17-2.29h-5.68v-1.2h7.73v1.2Z"/><path d="M190.56,415.8A3.33,3.33,0,0,1,191.9,413l.74.8a2.3,2.3,0,0,0-1,2,3,3,0,0,0,6,0,2.33,2.33,0,0,0-1-2l.74-.8a3.3,3.3,0,0,1,1.34,2.83,4.06,4.06,0,0,1-8.11,0Z"/><path d="M196.87,411.05h-5.06v1.28h-1.06v-1.28h-2.11v-1.2h2.11v-1.57h1.06v1.57h4.8c.58,0,1-.25,1-.78a1.14,1.14,0,0,0-.32-.82l.9-.35a2,2,0,0,1,.49,1.44A1.57,1.57,0,0,1,196.87,411.05Z"/><path d="M188.64,406.8a.81.81,0,0,1,0-1.62.81.81,0,1,1,0,1.62Zm2.11-.21v-1.2h7.73v1.2Z"/><path d="M194.61,403.44a3.83,3.83,0,1,1,4.06-3.83A3.79,3.79,0,0,1,194.61,403.44Zm0-6.39c-1.57,0-3,.91-3,2.56a3,3,0,0,0,6,0C197.6,398,196.19,397.05,194.61,397.05Z"/><path d="M193.42,388.62c-1.36,0-1.79.69-1.79,1.73a3,3,0,0,0,1.2,2.29h5.65v1.2h-7.73v-1.2h1.12a3.85,3.85,0,0,1-1.31-2.76,2.2,2.2,0,0,1,2.5-2.46h5.42v1.2Z"/><path d="M145.23,471.13h-5.06v1.28h-1v-1.28H137v-1.2h2.11v-1.57h1v1.57H145c.57,0,1-.25,1-.78a1.19,1.19,0,0,0-.32-.82l.9-.35a2,2,0,0,1,.49,1.44A1.58,1.58,0,0,1,145.23,471.13Z"/><path d="M138.93,463.31c0-2.34,1.82-3.72,4.14-3.72h.31v6.26a2.72,2.72,0,0,0,2.67-2.78,3.37,3.37,0,0,0-1-2.39l.79-.57a4.16,4.16,0,0,1,1.18,3.07,4.06,4.06,0,0,1-8.11.13Zm3.57,2.54v-5.07a2.5,2.5,0,0,0-2.58,2.54A2.58,2.58,0,0,0,142.5,465.85Z"/><path d="M141.6,448.33c-1,0-1.6.43-1.6,1.42a2.7,2.7,0,0,0,1.18,2.05h5.67V453H141.6c-1,0-1.6.42-1.6,1.43a2.69,2.69,0,0,0,1.2,2h5.65v1.2h-7.73v-1.2h1.12a3.33,3.33,0,0,1-1.31-2.5,2,2,0,0,1,1.44-2.08,3.23,3.23,0,0,1-1.44-2.59c0-1.41.78-2.16,2.33-2.16h5.59v1.2Z"/><path d="M149.79,444.73H139.12v-1.2h1.15a3.24,3.24,0,0,1-1.34-2.61c0-2,1.53-3.44,4-3.44s4.06,1.41,4.06,3.44a3.14,3.14,0,0,1-1.36,2.61h4.11Zm-9.79-3.5a2.85,2.85,0,0,0,1.23,2.3h3.49a2.87,2.87,0,0,0,1.25-2.3c0-1.56-1.28-2.48-3-2.48S140,439.67,140,441.23Z"/><path d="M138.93,432.19c0-2.34,1.82-3.72,4.14-3.72h.31v6.26a2.72,2.72,0,0,0,2.67-2.78,3.37,3.37,0,0,0-1-2.39l.79-.57a4.18,4.18,0,0,1,1.18,3.07,4.06,4.06,0,0,1-8.11.13Zm3.57,2.54v-5.07a2.5,2.5,0,0,0-2.58,2.54A2.58,2.58,0,0,0,142.5,434.73Z"/><path d="M139.12,426.54v-1.2h1.25a3.27,3.27,0,0,1-1.41-2.58h1.23a2.28,2.28,0,0,0-.05.48,2.82,2.82,0,0,0,1.24,2.1h5.47v1.2Z"/><path d="M146,416.43A3.36,3.36,0,0,1,147,419a2.57,2.57,0,0,1-2.56,2.7,2.52,2.52,0,0,1-2.54-2.7,3.22,3.22,0,0,1,1.05-2.56H141.6c-1,0-1.63.83-1.63,1.95a3.06,3.06,0,0,0,1.07,2.37l-.83.56a4,4,0,0,1-1.28-3.09c0-1.63.73-3,2.61-3h5.31v1.2Zm-2.21,0a2.58,2.58,0,0,0-1,2.13,1.7,1.7,0,1,0,3.38,0,2.58,2.58,0,0,0-1-2.13Z"/><path d="M145.23,412.59h-5.06v1.28h-1v-1.28H137v-1.2h2.11v-1.57h1v1.57H145c.57,0,1-.26,1-.79a1.18,1.18,0,0,0-.32-.81l.9-.35a2,2,0,0,1,.49,1.44A1.58,1.58,0,0,1,145.23,412.59Z"/><path d="M145.76,402.91a3.78,3.78,0,0,1,1.28,2.75,2.17,2.17,0,0,1-2.46,2.47h-5.46v-1.21h5.09c1.36,0,1.76-.68,1.76-1.72a3,3,0,0,0-1.17-2.29h-5.68v-1.2h7.73v1.2Z"/><path d="M139.12,399.31v-1.2h1.25a3.29,3.29,0,0,1-1.41-2.58h1.23a2.28,2.28,0,0,0-.05.48,2.82,2.82,0,0,0,1.24,2.1h5.47v1.2Z"/><path d="M138.93,390.67c0-2.34,1.82-3.72,4.14-3.72h.31v6.26a2.72,2.72,0,0,0,2.67-2.78,3.37,3.37,0,0,0-1-2.39l.79-.57a4.18,4.18,0,0,1,1.18,3.07,4.06,4.06,0,0,1-8.11.13Zm3.57,2.54v-5.07a2.5,2.5,0,0,0-2.58,2.54A2.58,2.58,0,0,0,142.5,393.21Z"/><path d="M12,345.15a3.36,3.36,0,0,1-2.56,1.07,2.57,2.57,0,0,1-2.71-2.56,2.53,2.53,0,0,1,2.71-2.54A3.24,3.24,0,0,1,12,342.17v-1.39c0-1-.83-1.63-2-1.63a3,3,0,0,0-2.36,1.07l-.56-.83a4,4,0,0,1,3.09-1.28c1.63,0,3,.73,3,2.61V346H12Zm0-2.21a2.6,2.6,0,0,0-2.13-1,1.7,1.7,0,1,0,0,3.38,2.6,2.6,0,0,0,2.13-1Z"/><path d="M20.83,341c0-1.36-.68-1.79-1.72-1.79a3,3,0,0,0-2.29,1.2V346h-1.2V338.3h1.2v1.12a3.82,3.82,0,0,1,2.75-1.31A2.19,2.19,0,0,1,22,340.6V346h-1.2Z"/><path d="M24.67,344.41v-5.06H23.39V338.3h1.28v-2.11h1.2v2.11h1.57v1.05H25.87v4.81c0,.57.26,1,.79,1a1.14,1.14,0,0,0,.81-.32l.35.9a2,2,0,0,1-1.44.49A1.58,1.58,0,0,1,24.67,344.41Z"/><path d="M34,345.15a3.36,3.36,0,0,1-2.56,1.07,2.58,2.58,0,0,1-2.71-2.56,2.53,2.53,0,0,1,2.71-2.54A3.22,3.22,0,0,1,34,342.17v-1.39c0-1-.83-1.63-1.95-1.63a3.06,3.06,0,0,0-2.37,1.07l-.56-.83a4,4,0,0,1,3.09-1.28c1.63,0,3,.73,3,2.61V346H34Zm0-2.21a2.58,2.58,0,0,0-2.13-1,1.7,1.7,0,1,0,0,3.38,2.58,2.58,0,0,0,2.13-1Z"/><path d="M37.57,338.3h1.2v1.25a3.27,3.27,0,0,1,2.58-1.41v1.23a2.31,2.31,0,0,0-.49-.05,2.81,2.81,0,0,0-2.09,1.24V346h-1.2Z"/><path d="M46.26,338.11a3.29,3.29,0,0,1,2.83,1.34l-.8.74a2.28,2.28,0,0,0-2-1,3,3,0,0,0,0,6,2.33,2.33,0,0,0,2-1l.8.74a3.29,3.29,0,0,1-2.83,1.34,4.06,4.06,0,0,1,0-8.11Z"/><path d="M51,344.41v-5.06H49.73V338.3H51v-2.11h1.2v2.11h1.57v1.05H52.21v4.81c0,.57.25,1,.78,1a1.14,1.14,0,0,0,.82-.32l.35.9a2,2,0,0,1-1.44.49A1.58,1.58,0,0,1,51,344.41Z"/><path d="M55.26,336.19a.81.81,0,0,1,1.62,0,.81.81,0,1,1-1.62,0Zm.21,2.11h1.2V346h-1.2Z"/><path d="M62.48,338.11a3.29,3.29,0,0,1,2.83,1.34l-.8.74a2.27,2.27,0,0,0-2-1,3,3,0,0,0,0,6,2.32,2.32,0,0,0,2-1l.8.74a3.29,3.29,0,0,1-2.83,1.34,4.06,4.06,0,0,1,0-8.11Z"/><path d="M65.74,346.67h9.13v.88H65.74Z"/><path d="M76,344.14a3.51,3.51,0,0,0,2.54,1.11c1.19,0,1.83-.53,1.83-1.28s-1-1.12-2-1.38c-1.31-.31-2.8-.66-2.8-2.26,0-1.2,1-2.22,2.88-2.22a3.92,3.92,0,0,1,2.87,1.12l-.56.83a3,3,0,0,0-2.31-1c-1.05,0-1.71.48-1.71,1.17s.88,1,1.89,1.23c1.34.31,2.9.69,2.9,2.41,0,1.29-1.05,2.33-3.05,2.33A4.13,4.13,0,0,1,75.34,345Z"/><path d="M86.82,338.11c2.33,0,3.71,1.82,3.71,4.14v.31H84.27a2.73,2.73,0,0,0,2.79,2.67,3.35,3.35,0,0,0,2.38-1L90,345a4.2,4.2,0,0,1-3.08,1.18,4.06,4.06,0,0,1-.12-8.11Zm-2.55,3.57h5.08a2.51,2.51,0,0,0-2.55-2.58A2.58,2.58,0,0,0,84.27,341.68Z"/><path d="M92.46,349V338.3h1.2v1.15a3.24,3.24,0,0,1,2.61-1.34c2,0,3.44,1.53,3.44,4.05s-1.4,4.06-3.44,4.06a3.17,3.17,0,0,1-2.61-1.36V349Zm3.51-9.8a2.87,2.87,0,0,0-2.31,1.23v3.49A2.89,2.89,0,0,0,96,345.15c1.55,0,2.48-1.28,2.48-3S97.52,339.18,96,339.18Z"/><path d="M14.91,293.52a3.36,3.36,0,0,1-2.56,1.07A2.57,2.57,0,0,1,9.65,292a2.53,2.53,0,0,1,2.7-2.55,3.22,3.22,0,0,1,2.56,1.06v-1.39c0-1-.83-1.63-1.95-1.63a3.06,3.06,0,0,0-2.37,1.07l-.56-.83a4,4,0,0,1,3.09-1.29c1.63,0,3,.74,3,2.61v5.32h-1.2Zm0-2.21a2.58,2.58,0,0,0-2.12-1,1.7,1.7,0,1,0,0,3.38,2.58,2.58,0,0,0,2.12-1Z"/><path d="M23.73,289.34c0-1.36-.69-1.79-1.73-1.79a3,3,0,0,0-2.29,1.2v5.65h-1.2v-7.73h1.2v1.12a3.85,3.85,0,0,1,2.76-1.32,2.2,2.2,0,0,1,2.46,2.5v5.43h-1.2Z"/><path d="M27.57,292.78v-5.06H26.29v-1.05h1.28v-2.12h1.2v2.12h1.57v1.05H28.77v4.81c0,.57.25,1,.78,1a1.19,1.19,0,0,0,.82-.32l.35.89a2,2,0,0,1-1.44.5A1.58,1.58,0,0,1,27.57,292.78Z"/><path d="M36.87,293.52a3.36,3.36,0,0,1-2.56,1.07A2.57,2.57,0,0,1,31.6,292a2.54,2.54,0,0,1,2.71-2.55,3.25,3.25,0,0,1,2.56,1.06v-1.39c0-1-.84-1.63-2-1.63a3.06,3.06,0,0,0-2.37,1.07l-.56-.83a4.05,4.05,0,0,1,3.09-1.29c1.64,0,3,.74,3,2.61v5.32h-1.2Zm0-2.21a2.6,2.6,0,0,0-2.13-1,1.7,1.7,0,1,0,0,3.38,2.6,2.6,0,0,0,2.13-1Z"/><path d="M40.46,286.67h1.2v1.25a3.3,3.3,0,0,1,2.58-1.41v1.23a2.21,2.21,0,0,0-.48-.05,2.85,2.85,0,0,0-2.1,1.23v5.48h-1.2Z"/><path d="M49.15,286.47A3.33,3.33,0,0,1,52,287.82l-.8.74a2.29,2.29,0,0,0-2-1,3,3,0,0,0,0,6,2.34,2.34,0,0,0,2-1l.8.74a3.35,3.35,0,0,1-2.84,1.34,4.07,4.07,0,0,1,0-8.12Z"/><path d="M53.9,292.78v-5.06H52.62v-1.05H53.9v-2.12h1.2v2.12h1.57v1.05H55.1v4.81c0,.57.26,1,.79,1a1.18,1.18,0,0,0,.81-.32l.36.89a2,2,0,0,1-1.44.5A1.59,1.59,0,0,1,53.9,292.78Z"/><path d="M58.16,284.55a.81.81,0,0,1,1.62,0,.81.81,0,1,1-1.62,0Zm.21,2.12h1.2v7.73h-1.2Z"/><path d="M65.38,286.47a3.31,3.31,0,0,1,2.83,1.35l-.8.74a2.28,2.28,0,0,0-2-1,3,3,0,0,0,0,6,2.33,2.33,0,0,0,2-1l.8.74a3.33,3.33,0,0,1-2.83,1.34,4.07,4.07,0,0,1,0-8.12Z"/><path d="M68.64,295h9.12v.88H68.64Z"/><path d="M79.25,287.72H78v-1.05h1.28v-.6a2.2,2.2,0,0,1,2.24-2.51,2.25,2.25,0,0,1,1.17.27l-.31.9a1.33,1.33,0,0,0-.69-.18c-.78,0-1.21.55-1.21,1.52v.6H82v1.05H80.45v6.68h-1.2Z"/><path d="M86.8,286.47c2.34,0,3.71,1.83,3.71,4.15v.3H84.25A2.74,2.74,0,0,0,87,293.6a3.37,3.37,0,0,0,2.39-1l.57.79a4.23,4.23,0,0,1-3.07,1.18,4.06,4.06,0,0,1-.13-8.12ZM84.25,290h5.08a2.51,2.51,0,0,0-2.55-2.57A2.59,2.59,0,0,0,84.25,290Z"/><path d="M92.45,283.72h1.2v4.12a3.21,3.21,0,0,1,2.61-1.37c2,0,3.44,1.61,3.44,4.07s-1.43,4-3.44,4a3.25,3.25,0,0,1-2.61-1.34v1.15h-1.2Zm3.5,9.8c1.57,0,2.5-1.27,2.5-3s-.93-3-2.5-3a2.84,2.84,0,0,0-2.3,1.25v3.5A2.84,2.84,0,0,0,96,293.52Z"/><path d="M41.89,241.88A3.33,3.33,0,0,1,39.33,243a2.58,2.58,0,0,1-2.71-2.56,2.54,2.54,0,0,1,2.71-2.55,3.22,3.22,0,0,1,2.56,1.06v-1.39c0-1.05-.83-1.64-2-1.64A3.09,3.09,0,0,0,37.57,237l-.56-.83a4.05,4.05,0,0,1,3.09-1.28c1.63,0,3,.74,3,2.61v5.32h-1.2Zm0-2.2a2.58,2.58,0,0,0-2.13-1,1.7,1.7,0,1,0,0,3.37,2.58,2.58,0,0,0,2.13-1Z"/><path d="M45.49,235h1.2v1.25a3.3,3.3,0,0,1,2.58-1.41v1.24a1.8,1.8,0,0,0-.49-.05,2.83,2.83,0,0,0-2.09,1.23v5.48h-1.2Z"/><path d="M51,241.15v-5.06H49.73V235H51v-2.11h1.2V235h1.57v1.06H52.21v4.8c0,.58.25,1,.78,1a1.14,1.14,0,0,0,.82-.32l.35.9a2,2,0,0,1-1.44.5A1.58,1.58,0,0,1,51,241.15Z"/><path d="M55.26,232.92a.81.81,0,0,1,1.62,0,.81.81,0,1,1-1.62,0Zm.21,2.11h1.2v7.74h-1.2Z"/><path d="M62.48,234.84a3.3,3.3,0,0,1,2.83,1.35l-.8.73a2.29,2.29,0,0,0-2-1,3,3,0,0,0,0,6,2.33,2.33,0,0,0,2-1l.8.73A3.3,3.3,0,0,1,62.48,243a4.07,4.07,0,0,1,0-8.12Z"/><path d="M65.74,243.41h9.13v.88H65.74Z"/><path d="M76,240.88a3.5,3.5,0,0,0,2.54,1.1c1.19,0,1.83-.53,1.83-1.28s-1-1.12-2-1.38c-1.31-.3-2.8-.65-2.8-2.25,0-1.2,1-2.23,2.88-2.23A4,4,0,0,1,81.3,236l-.56.83a3,3,0,0,0-2.31-1c-1.05,0-1.71.48-1.71,1.17s.88,1,1.89,1.23c1.34.3,2.9.69,2.9,2.4,0,1.3-1.05,2.34-3.05,2.34a4.14,4.14,0,0,1-3.12-1.22Z"/><path d="M86.82,234.84c2.33,0,3.71,1.83,3.71,4.15v.3H84.27A2.72,2.72,0,0,0,87.06,242a3.38,3.38,0,0,0,2.38-1l.58.78A4.21,4.21,0,0,1,86.94,243a4.07,4.07,0,0,1-.12-8.12Zm-2.55,3.57h5.08a2.52,2.52,0,0,0-2.55-2.58A2.59,2.59,0,0,0,84.27,238.41Z"/><path d="M92.46,245.71V235h1.2v1.16a3.22,3.22,0,0,1,2.61-1.35c2,0,3.44,1.54,3.44,4S98.31,243,96.27,243a3.2,3.2,0,0,1-2.61-1.36v4.11Zm3.51-9.8a2.85,2.85,0,0,0-2.31,1.24v3.49A2.88,2.88,0,0,0,96,241.88c1.55,0,2.48-1.28,2.48-3S97.52,235.91,96,235.91Z"/><path d="M40.88,190.25a3.32,3.32,0,0,1-2.56,1.07,2.57,2.57,0,0,1-2.7-2.56,2.53,2.53,0,0,1,2.7-2.54,3.22,3.22,0,0,1,2.56,1.06v-1.4c0-1-.83-1.63-2-1.63a3.09,3.09,0,0,0-2.37,1.07l-.56-.83a4.05,4.05,0,0,1,3.09-1.28c1.63,0,3,.74,3,2.61v5.31h-1.2Zm0-2.21a2.58,2.58,0,0,0-2.13-1,1.7,1.7,0,1,0,0,3.38,2.58,2.58,0,0,0,2.13-1Z"/><path d="M44.48,183.4h1.2v1.25a3.27,3.27,0,0,1,2.58-1.41v1.23a2.33,2.33,0,0,0-.48,0,2.8,2.8,0,0,0-2.1,1.23v5.47h-1.2Z"/><path d="M50,189.52v-5.06H48.72V183.4H50v-2.11h1.2v2.11h1.57v1.06H51.2v4.8c0,.58.26,1,.78,1a1.14,1.14,0,0,0,.82-.32l.35.9a1.94,1.94,0,0,1-1.44.49A1.58,1.58,0,0,1,50,189.52Z"/><path d="M54.26,181.29a.8.8,0,0,1,.8-.8.8.8,0,0,1,.81.8.81.81,0,0,1-.81.81A.8.8,0,0,1,54.26,181.29Zm.2,2.11h1.2v7.73h-1.2Z"/><path d="M61.47,183.21a3.35,3.35,0,0,1,2.84,1.34l-.8.74a2.32,2.32,0,0,0-2-1,3,3,0,0,0,0,6,2.34,2.34,0,0,0,2-1l.8.74a3.32,3.32,0,0,1-2.84,1.34,4.06,4.06,0,0,1,0-8.11Z"/><path d="M64.73,191.77h9.13v.88H64.73Z"/><path d="M84.34,185.88c0-1-.43-1.6-1.43-1.6a2.69,2.69,0,0,0-2,1.19v5.66H79.66v-5.25c0-1-.41-1.6-1.42-1.6a2.7,2.7,0,0,0-2,1.2v5.65H75V183.4h1.2v1.12a3.36,3.36,0,0,1,2.49-1.31,2,2,0,0,1,2.09,1.44,3.26,3.26,0,0,1,2.59-1.44c1.41,0,2.16.78,2.16,2.34v5.58h-1.2Z"/><path d="M92.77,190.25a3.32,3.32,0,0,1-2.56,1.07,2.58,2.58,0,0,1-2.71-2.56,2.54,2.54,0,0,1,2.71-2.54,3.24,3.24,0,0,1,2.56,1.06v-1.4c0-1-.83-1.63-2-1.63a3.09,3.09,0,0,0-2.37,1.07l-.56-.83A4.05,4.05,0,0,1,91,183.21c1.63,0,3,.74,3,2.61v5.31h-1.2Zm0-2.21a2.58,2.58,0,0,0-2.13-1,1.7,1.7,0,1,0,0,3.38,2.58,2.58,0,0,0,2.13-1Z"/><path d="M96.37,183.4h1.2v1.25a3.27,3.27,0,0,1,2.58-1.41v1.23a2.37,2.37,0,0,0-.49,0,2.8,2.8,0,0,0-2.09,1.23v5.47h-1.2Z"/><path d="M26.32,133.29l-2,6.21H23.1l-2.46-7.73h1.25l1.89,6.16,2-6.16h1l2,6.16,1.89-6.16H32l-2.46,7.73h-1.2Z"/><path d="M32.94,135.63a3.83,3.83,0,1,1,3.83,4.06A3.8,3.8,0,0,1,32.94,135.63Zm6.39,0c0-1.57-.91-3-2.56-3a3,3,0,0,0,0,6C38.42,138.62,39.33,137.21,39.33,135.63Z"/><path d="M42.54,131.77h1.2V133a3.29,3.29,0,0,1,2.58-1.41v1.23a2.21,2.21,0,0,0-.48-.05,2.83,2.83,0,0,0-2.1,1.24v5.47h-1.2Z"/><path d="M47.82,128.82H49V139.5h-1.2Z"/><path d="M57,138.35a3.25,3.25,0,0,1-2.6,1.34c-2,0-3.44-1.53-3.44-4.05s1.4-4.06,3.44-4.06a3.21,3.21,0,0,1,2.6,1.36v-4.12h1.21V139.5H57Zm0-4.45a2.91,2.91,0,0,0-2.32-1.25c-1.55,0-2.48,1.28-2.48,3s.93,3,2.48,3A2.85,2.85,0,0,0,57,137.4Z"/><path d="M59.37,140.14H68.5V141H59.37Z"/><path d="M74.75,128.65a5.1,5.1,0,0,1,4.15,2l-1.06.65a4,4,0,0,0-3.09-1.47,4.35,4.35,0,0,0,0,8.69,4.22,4.22,0,0,0,2.87-1.15v-2.18H74V134h5v3.86a5.59,5.59,0,0,1-4.2,1.84,5.53,5.53,0,0,1,0-11.06Z"/><path d="M81.1,128.82h3.65a5.34,5.34,0,1,1,0,10.68H81.1Zm3.65,9.5a4.16,4.16,0,0,0,0-8.31H82.43v8.31Z"/><path d="M92.3,128.82h4.29a3.22,3.22,0,1,1,0,6.44h-3v4.24H92.3ZM96.43,130h-2.8v4.06h2.8a2,2,0,1,0,0-4.06Z"/><path d="M0,84a3.79,3.79,0,0,1,3.83-4,4.07,4.07,0,0,1,0,8.12A3.81,3.81,0,0,1,0,84Zm6.39,0a2.69,2.69,0,0,0-2.56-3,2.7,2.7,0,0,0-2.58,3c0,1.59.93,3,2.58,3S6.39,85.58,6.39,84Z"/><path d="M9.39,78A.81.81,0,0,1,11,78a.81.81,0,1,1-1.62,0Zm.21,2.12h1.2v7.73H9.6Z"/><path d="M13.2,77.19h1.2V87.87H13.2Z"/><path d="M15.55,88.51h9.13v.88H15.55Z"/><path d="M25.82,90.81V80.14H27v1.15a3.22,3.22,0,0,1,2.61-1.35c2,0,3.44,1.54,3.44,4s-1.4,4.07-3.44,4.07A3.2,3.2,0,0,1,27,86.7v4.11ZM29.33,81A2.88,2.88,0,0,0,27,82.25v3.49A2.9,2.9,0,0,0,29.33,87c1.55,0,2.48-1.28,2.48-3S30.88,81,29.33,81Z"/><path d="M35,80.14h1.2v1.25A3.27,3.27,0,0,1,38.79,80v1.23a2.28,2.28,0,0,0-.48,0,2.83,2.83,0,0,0-2.1,1.23v5.48H35Z"/><path d="M39.84,84a3.83,3.83,0,1,1,3.82,4.07A3.79,3.79,0,0,1,39.84,84Zm6.39,0a2.6,2.6,0,1,0-5.14,0c0,1.59.93,3,2.57,3S46.23,85.58,46.23,84Z"/><path d="M55,86.72a3.25,3.25,0,0,1-2.61,1.34c-2,0-3.44-1.54-3.44-4s1.41-4.07,3.44-4.07A3.23,3.23,0,0,1,55,81.31V77.19h1.2V87.87H55Zm0-4.45A2.88,2.88,0,0,0,52.72,81c-1.55,0-2.48,1.28-2.48,3s.93,3,2.48,3A2.88,2.88,0,0,0,55,85.77Z"/><path d="M63.86,86.78a3.79,3.79,0,0,1-2.76,1.28,2.17,2.17,0,0,1-2.46-2.47V80.14h1.2v5.09c0,1.36.69,1.76,1.73,1.76a3,3,0,0,0,2.29-1.17V80.14h1.2v7.73h-1.2Z"/><path d="M70.86,79.94a3.33,3.33,0,0,1,2.84,1.35l-.8.74a2.28,2.28,0,0,0-2-1,3,3,0,0,0,0,6,2.33,2.33,0,0,0,2-1l.8.74a3.35,3.35,0,0,1-2.84,1.34,4.07,4.07,0,0,1,0-8.12Z"/><path d="M75.61,86.25V81.19H74.33v-1h1.28V78h1.21v2.12h1.56v1H76.82V86c0,.57.25,1,.78,1a1.19,1.19,0,0,0,.82-.32l.35.89a2,2,0,0,1-1.44.5A1.59,1.59,0,0,1,75.61,86.25Z"/><path d="M79.87,78a.81.81,0,0,1,1.62,0,.81.81,0,1,1-1.62,0Zm.21,2.12h1.2v7.73h-1.2Z"/><path d="M83.23,84a3.83,3.83,0,1,1,3.83,4.07A3.79,3.79,0,0,1,83.23,84Zm6.39,0a2.6,2.6,0,1,0-5.14,0c0,1.59.93,3,2.58,3S89.62,85.58,89.62,84Z"/><path d="M98.05,82.81c0-1.36-.69-1.79-1.73-1.79A3,3,0,0,0,94,82.22v5.65h-1.2V80.14H94v1.12a3.85,3.85,0,0,1,2.75-1.32,2.2,2.2,0,0,1,2.47,2.5v5.43h-1.2Z"/><path d="M15.54,34.62V29.56H14.26V28.5h1.28V26.39h1.2V28.5h1.57v1.06H16.74v4.8c0,.58.25,1,.78,1a1.14,1.14,0,0,0,.82-.32l.35.9a2,2,0,0,1-1.44.5A1.58,1.58,0,0,1,15.54,34.62Z"/><path d="M23.36,28.31c2.34,0,3.71,1.83,3.71,4.15v.3H20.82a2.71,2.71,0,0,0,2.78,2.67,3.41,3.41,0,0,0,2.39-1l.57.78a4.2,4.2,0,0,1-3.07,1.19,3.84,3.84,0,0,1-3.94-4.07A3.87,3.87,0,0,1,23.36,28.31Zm-2.54,3.57h5.07a2.51,2.51,0,0,0-2.54-2.58A2.58,2.58,0,0,0,20.82,31.88Z"/><path d="M38.34,31c0-1-.43-1.6-1.42-1.6a2.69,2.69,0,0,0-2.05,1.19v5.66h-1.2V31c0-1-.42-1.6-1.43-1.6a2.7,2.7,0,0,0-2,1.2v5.65H29V28.5h1.2v1.12a3.36,3.36,0,0,1,2.5-1.31,2,2,0,0,1,2.08,1.44,3.26,3.26,0,0,1,2.59-1.44c1.41,0,2.16.79,2.16,2.34v5.58h-1.2Z"/><path d="M41.94,39.18V28.5h1.2v1.16a3.22,3.22,0,0,1,2.61-1.35c2,0,3.44,1.54,3.44,4.05s-1.41,4.07-3.44,4.07a3.17,3.17,0,0,1-2.61-1.36v4.11Zm3.5-9.8a2.83,2.83,0,0,0-2.3,1.24v3.49a2.86,2.86,0,0,0,2.3,1.24c1.55,0,2.48-1.28,2.48-3S47,29.38,45.44,29.38Z"/><path d="M54.48,28.31c2.34,0,3.71,1.83,3.71,4.15v.3H51.94a2.71,2.71,0,0,0,2.78,2.67,3.41,3.41,0,0,0,2.39-1l.57.78a4.2,4.2,0,0,1-3.07,1.19,3.84,3.84,0,0,1-3.94-4.07A3.87,3.87,0,0,1,54.48,28.31Zm-2.54,3.57H57a2.51,2.51,0,0,0-2.55-2.58A2.58,2.58,0,0,0,51.94,31.88Z"/><path d="M60.13,28.5h1.2v1.25a3.3,3.3,0,0,1,2.57-1.41v1.24a1.68,1.68,0,0,0-.48,0,2.83,2.83,0,0,0-2.09,1.23v5.47h-1.2Z"/><path d="M70.24,35.35a3.33,3.33,0,0,1-2.56,1.08A2.57,2.57,0,0,1,65,33.87a2.53,2.53,0,0,1,2.7-2.55,3.22,3.22,0,0,1,2.56,1.06V31c0-1-.83-1.63-1.95-1.63a3.09,3.09,0,0,0-2.37,1.07l-.56-.83a4.05,4.05,0,0,1,3.09-1.28c1.63,0,3,.74,3,2.61v5.31h-1.2Zm0-2.2a2.58,2.58,0,0,0-2.13-1,1.7,1.7,0,1,0,0,3.37,2.58,2.58,0,0,0,2.13-1Z"/><path d="M74.08,34.62V29.56H72.8V28.5h1.28V26.39h1.2V28.5h1.57v1.06H75.28v4.8c0,.58.26,1,.78,1a1.14,1.14,0,0,0,.82-.32l.35.9a1.94,1.94,0,0,1-1.44.5A1.58,1.58,0,0,1,74.08,34.62Z"/><path d="M83.76,35.15A3.78,3.78,0,0,1,81,36.43,2.18,2.18,0,0,1,78.54,34V28.5h1.2v5.09c0,1.36.69,1.76,1.73,1.76a3,3,0,0,0,2.29-1.16V28.5H85v7.73h-1.2Z"/><path d="M87.36,28.5h1.2v1.25a3.3,3.3,0,0,1,2.58-1.41v1.24a1.77,1.77,0,0,0-.48,0,2.83,2.83,0,0,0-2.1,1.23v5.47h-1.2Z"/><path d="M96,28.31c2.34,0,3.71,1.83,3.71,4.15v.3H93.45a2.73,2.73,0,0,0,2.79,2.67,3.41,3.41,0,0,0,2.39-1l.57.78a4.2,4.2,0,0,1-3.07,1.19,3.84,3.84,0,0,1-3.94-4.07A3.87,3.87,0,0,1,96,28.31Zm-2.55,3.57h5.08A2.52,2.52,0,0,0,96,29.3,2.6,2.6,0,0,0,93.45,31.88Z"/><line class="cls-2" x1="400.95" y1="368.43" x2="400.95" y2="376.29"/><line class="cls-2" x1="349.32" y1="368.43" x2="349.32" y2="376.29"/><line class="cls-2" x1="297.69" y1="368.43" x2="297.69" y2="376.29"/><line class="cls-2" x1="246.06" y1="368.43" x2="246.06" y2="376.29"/><line class="cls-2" x1="194.43" y1="368.43" x2="194.43" y2="376.29"/><line class="cls-2" x1="142.8" y1="368.43" x2="142.8" y2="376.29"/><line class="cls-2" x1="116.97" y1="342.6" x2="109.1" y2="342.6"/><line class="cls-2" x1="116.97" y1="290.97" x2="109.1" y2="290.97"/><line class="cls-2" x1="116.97" y1="239.33" x2="109.1" y2="239.33"/><line class="cls-2" x1="116.97" y1="187.7" x2="109.1" y2="187.7"/><line class="cls-2" x1="116.97" y1="136.06" x2="109.1" y2="136.06"/><line class="cls-2" x1="116.97" y1="84.43" x2="109.1" y2="84.43"/><line class="cls-2" x1="116.97" y1="32.79" x2="109.1" y2="32.79"/><line class="cls-2" x1="452.58" y1="368.43" x2="452.58" y2="376.29"/><rect class="cls-3" x="426.77" y="316.79" width="51.63" height="51.63"/><rect class="cls-4" x="426.77" y="213.52" width="51.63" height="51.63"/><rect class="cls-5" x="426.77" y="265.15" width="51.63" height="51.64"/><rect class="cls-6" x="323.5" y="265.15" width="51.64" height="51.64"/><rect class="cls-5" x="375.14" y="316.79" width="51.63" height="51.63"/><rect class="cls-3" x="375.14" y="265.15" width="51.63" height="51.64"/><rect class="cls-6" x="375.14" y="213.52" width="51.63" height="51.63"/><rect class="cls-4" x="323.5" y="316.79" width="51.64" height="51.63"/><rect class="cls-3" x="323.5" y="213.52" width="51.64" height="51.63"/><rect class="cls-5" x="271.87" y="265.15" width="51.63" height="51.64"/><rect class="cls-7" x="271.87" y="316.79" width="51.63" height="51.63"/><rect class="cls-8" x="271.87" y="213.52" width="51.63" height="51.63"/><rect class="cls-9" x="116.97" y="316.79" width="51.64" height="51.63"/><rect class="cls-8" x="116.97" y="265.15" width="51.64" height="51.64"/><rect class="cls-6" x="116.97" y="213.52" width="51.64" height="51.63"/><rect class="cls-5" x="168.61" y="213.52" width="51.63" height="51.63"/><rect class="cls-10" x="168.61" y="265.15" width="51.63" height="51.64"/><rect class="cls-11" x="168.61" y="316.79" width="51.63" height="51.63"/><rect class="cls-12" x="220.24" y="213.52" width="51.63" height="51.63"/><rect class="cls-5" x="220.24" y="265.15" width="51.63" height="51.64"/><rect class="cls-13" x="220.24" y="316.79" width="51.63" height="51.63"/><rect class="cls-7" x="426.77" y="161.89" width="51.63" height="51.63"/><rect class="cls-14" x="375.14" y="161.89" width="51.63" height="51.63"/><rect class="cls-5" x="375.14" y="110.26" width="51.63" height="51.63"/><rect class="cls-13" x="426.77" y="110.26" width="51.63" height="51.63"/><rect class="cls-12" x="323.5" y="110.26" width="51.64" height="51.63"/><rect class="cls-8" x="323.5" y="161.89" width="51.64" height="51.63"/><rect class="cls-10" x="271.87" y="110.26" width="51.63" height="51.63"/><rect class="cls-3" x="271.87" y="161.89" width="51.63" height="51.63"/><rect class="cls-6" x="116.97" y="161.89" width="51.64" height="51.63"/><rect class="cls-5" x="116.97" y="110.26" width="51.64" height="51.63"/><rect class="cls-5" x="168.61" y="161.89" width="51.63" height="51.63"/><rect class="cls-8" x="168.61" y="110.26" width="51.63" height="51.63"/><rect class="cls-3" x="220.24" y="110.26" width="51.63" height="51.63"/><rect class="cls-10" x="220.24" y="161.89" width="51.63" height="51.63"/><rect class="cls-8" x="375.14" y="58.62" width="51.63" height="51.64"/><rect class="cls-10" x="426.77" y="58.62" width="51.63" height="51.64"/><rect class="cls-5" x="323.5" y="58.62" width="51.64" height="51.64"/><rect class="cls-10" x="116.97" y="58.62" width="51.64" height="51.64"/><rect class="cls-3" x="168.61" y="58.62" width="51.63" height="51.64"/><rect class="cls-8" x="220.24" y="58.62" width="51.63" height="51.64"/><rect class="cls-5" x="271.87" y="58.62" width="51.63" height="51.64"/><rect class="cls-12" x="426.77" y="6.99" width="51.63" height="51.63"/><rect class="cls-12" x="375.14" y="6.99" width="51.63" height="51.63"/><rect class="cls-6" x="323.5" y="6.99" width="51.64" height="51.63"/><rect class="cls-6" x="271.87" y="6.99" width="51.63" height="51.63"/><rect class="cls-5" x="220.24" y="6.99" width="51.63" height="51.63"/><rect class="cls-10" x="168.61" y="6.99" width="51.63" height="51.63"/><rect class="cls-3" x="116.97" y="6.99" width="51.64" height="51.63"/></g></g></svg>