<svg xmlns="http://www.w3.org/2000/svg" xmlns:xlink="http://www.w3.org/1999/xlink" viewBox="0 0 474.11 398.89"><defs><style>.cls-1{fill:#083b6e;}.cls-2{fill:#39c4e2;}.cls-3{fill:url(#linear-gradient);}.cls-4{fill:none;stroke:#000;stroke-miterlimit:10;}</style><linearGradient id="linear-gradient" x1="419.41" y1="6.99" x2="419.41" y2="368.43" gradientUnits="userSpaceOnUse"><stop offset="0" stop-color="#66cadc"/><stop offset="1" stop-color="#083b6e"/></linearGradient></defs><g id="Layer_2" data-name="Layer 2"><g id="Layer_1-2" data-name="Layer 1"><rect class="cls-1" x="28.28" y="187.71" width="180.71" height="180.72"/><rect class="cls-2" x="208.99" y="187.71" width="180.72" height="180.72"/><rect class="cls-1" x="208.99" y="6.99" width="180.72" height="180.72"/><rect class="cls-2" x="28.28" y="6.99" width="180.71" height="180.72"/><rect class="cls-3" x="414.53" y="6.99" width="9.77" height="361.44"/><path d="M424.78,6.43h3.84V7.49h-3.84Z"/><path d="M436.08,1.92l-1.71,1.81-.8-.82L436.24.16h1.17V10.84h-1.33Z"/><path d="M440.49,9.24a.88.88,0,1,1-.88.88A.9.9,0,0,1,440.49,9.24Z"/><path d="M447.23,0c2.91,0,4.08,2.9,4.08,5.51S450.14,11,447.23,11s-4.08-2.93-4.08-5.52S444.3,0,447.23,0Zm0,1.18c-2,0-2.72,2.2-2.72,4.33s.69,4.33,2.72,4.33S450,7.64,450,5.51,449.26,1.18,447.23,1.18Z"/><path d="M457,0c2.92,0,4.08,2.9,4.08,5.51S459.94,11,457,11s-4.08-2.93-4.08-5.52S454.09,0,457,0Zm0,1.18c-2,0-2.72,2.2-2.72,4.33S455,9.84,457,9.84s2.72-2.2,2.72-4.33S459.06,1.18,457,1.18Z"/><path d="M424.78,51.51h3.84v1.06h-3.84Z"/><path d="M438.13,45.07c2.91,0,4.08,2.9,4.08,5.51S441,56.1,438.13,56.1s-4.08-2.93-4.08-5.52S435.2,45.07,438.13,45.07Zm0,1.19c-2,0-2.72,2.19-2.72,4.32s.69,4.34,2.72,4.34,2.72-2.21,2.72-4.34S440.16,46.26,438.13,46.26Z"/><path d="M444.37,54.31a.88.88,0,1,1-.88.88A.89.89,0,0,1,444.37,54.31Z"/><path d="M451.39,46.42h-5.74V45.23h7.28v.92l-4.37,9.76h-1.47Z"/><path d="M455.26,53.51a3.53,3.53,0,0,0,2.95,1.41,2.3,2.3,0,0,0,2.46-2.29,2.25,2.25,0,0,0-2.45-2.31,3.36,3.36,0,0,0-2.46,1l-1-.33V45.23h6.53v1.19h-5.2v3.71a3.63,3.63,0,0,1,2.5-1A3.27,3.27,0,0,1,462,52.58a3.49,3.49,0,0,1-3.79,3.52,4.34,4.34,0,0,1-3.76-1.71Z"/><path d="M424.78,96.58h3.84v1.06h-3.84Z"/><path d="M438.13,90.15c2.91,0,4.08,2.89,4.08,5.5s-1.17,5.53-4.08,5.53-4.08-2.93-4.08-5.53S435.2,90.15,438.13,90.15Zm0,1.18c-2,0-2.72,2.2-2.72,4.32s.69,4.34,2.72,4.34,2.72-2.21,2.72-4.34S440.16,91.33,438.13,91.33Z"/><path d="M444.37,99.38a.88.88,0,1,1-.88.88A.89.89,0,0,1,444.37,99.38Z"/><path d="M448.08,98.58A3.49,3.49,0,0,0,451,100a2.31,2.31,0,0,0,2.47-2.29A2.25,2.25,0,0,0,451,95.4a3.32,3.32,0,0,0-2.46,1l-1-.34V90.31h6.53v1.18h-5.2v3.72a3.56,3.56,0,0,1,2.49-1,3.27,3.27,0,0,1,3.4,3.41,3.5,3.5,0,0,1-3.8,3.52,4.36,4.36,0,0,1-3.76-1.72Z"/><path d="M460.54,90.15c2.92,0,4.09,2.89,4.09,5.5s-1.17,5.53-4.09,5.53-4.08-2.93-4.08-5.53S457.61,90.15,460.54,90.15Zm0,1.18c-2,0-2.72,2.2-2.72,4.32s.69,4.34,2.72,4.34,2.73-2.21,2.73-4.34S462.58,91.33,460.54,91.33Z"/><path d="M424.78,141.66h3.84v1.05h-3.84Z"/><path d="M438.13,135.22c2.91,0,4.08,2.9,4.08,5.51s-1.17,5.52-4.08,5.52-4.08-2.93-4.08-5.52S435.2,135.22,438.13,135.22Zm0,1.19c-2,0-2.72,2.19-2.72,4.32s.69,4.34,2.72,4.34,2.72-2.21,2.72-4.34S440.16,136.41,438.13,136.41Z"/><path d="M444.37,144.46a.88.88,0,1,1-.88.88A.89.89,0,0,1,444.37,144.46Z"/><path d="M447.07,145c3.84-3,5.92-4.8,5.92-6.64a2,2,0,0,0-2.22-2,3.58,3.58,0,0,0-2.9,1.34l-.82-.85a4.64,4.64,0,0,1,3.72-1.68c1.77,0,3.58,1,3.58,3.14s-2.21,4.16-5.18,6.51h5.23v1.19h-7.33Z"/><path d="M457.49,143.66a3.52,3.52,0,0,0,2.94,1.41,2.31,2.31,0,0,0,2.47-2.29,2.25,2.25,0,0,0-2.45-2.31,3.37,3.37,0,0,0-2.47,1l-1-.34v-5.76h6.53v1.19h-5.21v3.71a3.65,3.65,0,0,1,2.5-1,3.28,3.28,0,0,1,3.4,3.41,3.5,3.5,0,0,1-3.8,3.52,4.37,4.37,0,0,1-3.76-1.71Z"/><path d="M424.78,186.73h3.84v1.06h-3.84Z"/><path d="M438.13,180.3c2.91,0,4.08,2.89,4.08,5.5s-1.17,5.52-4.08,5.52-4.08-2.92-4.08-5.52S435.2,180.3,438.13,180.3Zm0,1.18c-2,0-2.72,2.19-2.72,4.32s.69,4.34,2.72,4.34,2.72-2.21,2.72-4.34S440.16,181.48,438.13,181.48Z"/><path d="M444.37,189.53a.88.88,0,1,1-.88.88A.89.89,0,0,1,444.37,189.53Z"/><path d="M451.1,180.3c2.92,0,4.09,2.89,4.09,5.5s-1.17,5.52-4.09,5.52S447,188.4,447,185.8,448.17,180.3,451.1,180.3Zm0,1.18c-2,0-2.72,2.19-2.72,4.32s.69,4.34,2.72,4.34,2.73-2.21,2.73-4.34S453.14,181.48,451.1,181.48Z"/><path d="M460.9,180.3c2.91,0,4.08,2.89,4.08,5.5s-1.17,5.52-4.08,5.52-4.09-2.92-4.09-5.52S458,180.3,460.9,180.3Zm0,1.18c-2,0-2.73,2.19-2.73,4.32s.69,4.34,2.73,4.34,2.72-2.21,2.72-4.34S462.93,181.48,460.9,181.48Z"/><path d="M424.78,231.8h3.84v1.06h-3.84Z"/><path d="M433.71,231.8h8.53v1.06h-8.53Z"/><path d="M447.62,225.37c2.91,0,4.08,2.9,4.08,5.51s-1.17,5.52-4.08,5.52-4.09-2.93-4.09-5.52S444.69,225.37,447.62,225.37Zm0,1.18c-2,0-2.73,2.2-2.73,4.33s.69,4.33,2.73,4.33,2.72-2.21,2.72-4.33S449.65,226.55,447.62,226.55Z"/><path d="M453.85,234.61a.88.88,0,1,1-.88.88A.9.9,0,0,1,453.85,234.61Z"/><path d="M456.56,235.15c3.84-3,5.92-4.8,5.92-6.64a2,2,0,0,0-2.22-2,3.57,3.57,0,0,0-2.9,1.35l-.82-.85a4.64,4.64,0,0,1,3.72-1.68c1.77,0,3.58,1,3.58,3.14s-2.21,4.16-5.18,6.51h5.23v1.19h-7.33Z"/><path d="M467,233.81a3.54,3.54,0,0,0,2.95,1.4,2.3,2.3,0,0,0,2.46-2.29,2.24,2.24,0,0,0-2.44-2.3,3.33,3.33,0,0,0-2.47,1l-1-.34v-5.76H473v1.18h-5.21v3.72a3.65,3.65,0,0,1,2.5-1,3.26,3.26,0,0,1,3.39,3.41,3.5,3.5,0,0,1-3.79,3.52,4.37,4.37,0,0,1-3.76-1.71Z"/><path d="M424.78,276.88h3.84v1.06h-3.84Z"/><path d="M433.71,276.88h8.53v1.06h-8.53Z"/><path d="M447.62,270.44c2.91,0,4.08,2.9,4.08,5.51s-1.17,5.52-4.08,5.52-4.09-2.93-4.09-5.52S444.69,270.44,447.62,270.44Zm0,1.19c-2,0-2.73,2.19-2.73,4.32s.69,4.34,2.73,4.34,2.72-2.21,2.72-4.34S449.65,271.63,447.62,271.63Z"/><path d="M453.85,279.68a.88.88,0,1,1-.88.88A.9.9,0,0,1,453.85,279.68Z"/><path d="M457.57,278.88a3.49,3.49,0,0,0,2.94,1.41A2.31,2.31,0,0,0,463,278a2.25,2.25,0,0,0-2.45-2.31,3.37,3.37,0,0,0-2.47,1l-1-.33V270.6h6.53v1.19h-5.2v3.71a3.6,3.6,0,0,1,2.49-1,3.28,3.28,0,0,1,3.4,3.41,3.5,3.5,0,0,1-3.8,3.52,4.34,4.34,0,0,1-3.76-1.71Z"/><path d="M470,270.44c2.91,0,4.08,2.9,4.08,5.51s-1.17,5.52-4.08,5.52S466,278.54,466,276,467.1,270.44,470,270.44Zm0,1.19c-2,0-2.72,2.19-2.72,4.32s.69,4.34,2.72,4.34,2.72-2.21,2.72-4.34S472.06,271.63,470,271.63Z"/><path d="M424.78,322h3.84V323h-3.84Z"/><path d="M433.71,322h8.53V323h-8.53Z"/><path d="M447.62,315.52c2.91,0,4.08,2.9,4.08,5.5s-1.17,5.53-4.08,5.53-4.09-2.93-4.09-5.53S444.69,315.52,447.62,315.52Zm0,1.18c-2,0-2.73,2.2-2.73,4.32s.69,4.34,2.73,4.34,2.72-2.21,2.72-4.34S449.65,316.7,447.62,316.7Z"/><path d="M453.85,324.75a.88.88,0,1,1-.88.88A.9.9,0,0,1,453.85,324.75Z"/><path d="M460.88,316.86h-5.75v-1.18h7.29v.91l-4.37,9.76h-1.47Z"/><path d="M464.75,324a3.51,3.51,0,0,0,2.95,1.41,2.3,2.3,0,0,0,2.46-2.29,2.25,2.25,0,0,0-2.45-2.3,3.32,3.32,0,0,0-2.46,1l-1-.34v-5.76h6.53v1.18h-5.2v3.72a3.56,3.56,0,0,1,2.5-1,3.27,3.27,0,0,1,3.39,3.41,3.5,3.5,0,0,1-3.79,3.52,4.37,4.37,0,0,1-3.77-1.72Z"/><path d="M424.78,367h3.84v1.05h-3.84Z"/><path d="M433.71,367h8.53v1.05h-8.53Z"/><path d="M445.57,362.51l-1.72,1.81-.8-.81,2.68-2.76h1.17v10.68h-1.33Z"/><path d="M450,369.83a.88.88,0,1,1-.88.88A.89.89,0,0,1,450,369.83Z"/><path d="M456.72,360.59c2.91,0,4.08,2.9,4.08,5.51s-1.17,5.52-4.08,5.52-4.08-2.93-4.08-5.52S453.79,360.59,456.72,360.59Zm0,1.19c-2,0-2.72,2.19-2.72,4.32s.69,4.34,2.72,4.34,2.72-2.21,2.72-4.34S458.75,361.78,456.72,361.78Z"/><path d="M466.51,360.59c2.91,0,4.08,2.9,4.08,5.51s-1.17,5.52-4.08,5.52-4.08-2.93-4.08-5.52S463.58,360.59,466.51,360.59Zm0,1.19c-2,0-2.72,2.19-2.72,4.32s.69,4.34,2.72,4.34,2.72-2.21,2.72-4.34S468.54,361.78,466.51,361.78Z"/><path d="M273.09,395.07a3.38,3.38,0,0,1-2.57,1.07,2.57,2.57,0,0,1-2.7-2.56,2.53,2.53,0,0,1,2.7-2.55,3.26,3.26,0,0,1,2.57,1.06V390.7c0-1-.84-1.63-2-1.63a3.06,3.06,0,0,0-2.37,1.07l-.56-.83a4.05,4.05,0,0,1,3.09-1.29c1.64,0,3,.74,3,2.61V396h-1.2Zm0-2.21a2.6,2.6,0,0,0-2.13-1,1.7,1.7,0,1,0,0,3.38,2.6,2.6,0,0,0,2.13-1Z"/><path d="M276.68,388.22h1.2v1.25a3.29,3.29,0,0,1,2.58-1.41v1.23a2.21,2.21,0,0,0-.48-.05,2.87,2.87,0,0,0-2.1,1.23V396h-1.2Z"/><path d="M282.2,394.33v-5.06h-1.28v-1h1.28V386.1h1.2v2.12H285v1H283.4v4.81c0,.57.26,1,.79,1a1.18,1.18,0,0,0,.81-.32l.36.89a2,2,0,0,1-1.44.5A1.59,1.59,0,0,1,282.2,394.33Z"/><path d="M286.46,386.1a.81.81,0,0,1,1.62,0,.81.81,0,1,1-1.62,0Zm.21,2.12h1.2V396h-1.2Z"/><path d="M293.68,388a3.31,3.31,0,0,1,2.83,1.35l-.8.74a2.28,2.28,0,0,0-2-1,3,3,0,0,0,0,6,2.33,2.33,0,0,0,2-1l.8.74a3.33,3.33,0,0,1-2.83,1.34,4.07,4.07,0,0,1,0-8.12Z"/><path d="M296.94,396.59h9.12v.88h-9.12Z"/><path d="M307.16,394.06a3.53,3.53,0,0,0,2.55,1.1c1.18,0,1.82-.52,1.82-1.28s-.94-1.12-2-1.37c-1.31-.31-2.8-.66-2.8-2.26,0-1.2,1-2.23,2.88-2.23a3.88,3.88,0,0,1,2.86,1.13l-.56.83a3,3,0,0,0-2.3-1c-1.06,0-1.71.48-1.71,1.17s.88,1,1.88,1.23c1.35.31,2.9.69,2.9,2.4,0,1.3-1,2.34-3,2.34a4.08,4.08,0,0,1-3.12-1.22Z"/><path d="M318,388c2.34,0,3.72,1.83,3.72,4.15v.3h-6.26a2.72,2.72,0,0,0,2.78,2.68,3.37,3.37,0,0,0,2.39-1l.57.79a4.23,4.23,0,0,1-3.07,1.18A4.06,4.06,0,0,1,318,388Zm-2.54,3.57h5.07A2.5,2.5,0,0,0,318,389,2.57,2.57,0,0,0,315.47,391.59Z"/><path d="M323.66,398.89V388.22h1.2v1.15a3.22,3.22,0,0,1,2.61-1.35c2,0,3.44,1.54,3.44,4.06s-1.41,4.06-3.44,4.06a3.17,3.17,0,0,1-2.61-1.36v4.11Zm3.5-9.79a2.87,2.87,0,0,0-2.3,1.23v3.49a2.88,2.88,0,0,0,2.3,1.25c1.56,0,2.49-1.28,2.49-3S328.72,389.1,327.16,389.1Z"/><path d="M9.76,304.33a3.33,3.33,0,0,1,1.08,2.56,2.58,2.58,0,0,1-2.56,2.71,2.54,2.54,0,0,1-2.55-2.71,3.22,3.22,0,0,1,1.06-2.56H5.39c-1,0-1.63.83-1.63,1.95a3.09,3.09,0,0,0,1.07,2.37l-.83.56a4.05,4.05,0,0,1-1.28-3.09c0-1.63.74-3,2.61-3h5.31v1.2Zm-2.2,0a2.59,2.59,0,0,0-1,2.13,1.7,1.7,0,1,0,3.38,0,2.58,2.58,0,0,0-1-2.13Z"/><path d="M2.91,300.73v-1.2H4.16A3.3,3.3,0,0,1,2.75,297H4a1.77,1.77,0,0,0-.05.48,2.83,2.83,0,0,0,1.23,2.1h5.47v1.2Z"/><path d="M9,295.21H4v1.28H2.91v-1.28H.8V294H2.91v-1.57H4V294h4.8c.58,0,1-.25,1-.78a1.14,1.14,0,0,0-.32-.82l.9-.35a2,2,0,0,1,.5,1.44A1.58,1.58,0,0,1,9,295.21Z"/><path d="M.8,291a.81.81,0,0,1,0-1.62A.81.81,0,1,1,.8,291Zm2.11-.21v-1.2h7.73v1.2Z"/><path d="M2.72,283.74a3.3,3.3,0,0,1,1.35-2.83l.73.8a2.3,2.3,0,0,0-1,2,2.7,2.7,0,0,0,3,2.67,2.71,2.71,0,0,0,3-2.67,2.34,2.34,0,0,0-1-2l.73-.8a3.3,3.3,0,0,1,1.35,2.83,3.83,3.83,0,0,1-4.07,3.86A3.82,3.82,0,0,1,2.72,283.74Z"/><path d="M11.28,280.48v-9.13h.89v9.13Z"/><path d="M8.76,270.25a3.5,3.5,0,0,0,1.1-2.54c0-1.19-.53-1.83-1.28-1.83s-1.12.95-1.38,2c-.3,1.31-.65,2.8-2.25,2.8-1.2,0-2.23-1-2.23-2.88a4,4,0,0,1,1.12-2.87l.83.56a3,3,0,0,0-1,2.31c0,1,.48,1.71,1.17,1.71s1-.88,1.23-1.89c.3-1.34.69-2.9,2.4-2.9,1.3,0,2.34,1,2.34,3.05a4.14,4.14,0,0,1-1.22,3.12Z"/><path d="M2.72,259.4c0-2.33,1.83-3.71,4.15-3.71h.3V262a2.72,2.72,0,0,0,2.67-2.79,3.38,3.38,0,0,0-1-2.38l.78-.58a4.21,4.21,0,0,1,1.19,3.08,3.83,3.83,0,0,1-4.07,3.93A3.87,3.87,0,0,1,2.72,259.4ZM6.29,262v-5.07a2.5,2.5,0,0,0-2.58,2.54A2.59,2.59,0,0,0,6.29,262Z"/><path d="M13.59,253.76H2.91v-1.2H4.07A3.22,3.22,0,0,1,2.72,250c0-2,1.54-3.44,4-3.44s4.07,1.41,4.07,3.44a3.2,3.2,0,0,1-1.36,2.61h4.11Zm-9.8-3.51A2.85,2.85,0,0,0,5,252.56H8.52a2.88,2.88,0,0,0,1.24-2.31c0-1.55-1.28-2.48-3-2.48S3.79,248.7,3.79,250.25Z"/><path d="M76.9,394.33v-5.06H75.62v-1H76.9V386.1h1.2v2.12h1.57v1H78.1v4.81c0,.57.25,1,.78,1a1.19,1.19,0,0,0,.82-.32l.35.89a2,2,0,0,1-1.44.5A1.58,1.58,0,0,1,76.9,394.33Z"/><path d="M84.72,388c2.34,0,3.72,1.83,3.72,4.15v.3H82.18A2.72,2.72,0,0,0,85,395.15a3.37,3.37,0,0,0,2.39-1l.57.79a4.2,4.2,0,0,1-3.07,1.18,4.06,4.06,0,0,1-.13-8.12Zm-2.54,3.57h5.07A2.49,2.49,0,0,0,84.71,389,2.57,2.57,0,0,0,82.18,391.59Z"/><path d="M99.7,390.7c0-1-.43-1.6-1.42-1.6a2.7,2.7,0,0,0-2,1.18V396H95V390.7c0-1-.42-1.6-1.43-1.6a2.69,2.69,0,0,0-2,1.2V396h-1.2v-7.73h1.2v1.12a3.33,3.33,0,0,1,2.5-1.32,2,2,0,0,1,2.08,1.45A3.24,3.24,0,0,1,98.74,388c1.41,0,2.16.79,2.16,2.34V396H99.7Z"/><path d="M103.3,398.89V388.22h1.2v1.15a3.22,3.22,0,0,1,2.61-1.35c2,0,3.44,1.54,3.44,4.06s-1.41,4.06-3.44,4.06a3.17,3.17,0,0,1-2.61-1.36v4.11Zm3.5-9.79a2.85,2.85,0,0,0-2.3,1.23v3.49a2.87,2.87,0,0,0,2.3,1.25c1.55,0,2.48-1.28,2.48-3S108.35,389.1,106.8,389.1Z"/><path d="M115.84,388c2.34,0,3.72,1.83,3.72,4.15v.3H113.3a2.72,2.72,0,0,0,2.78,2.68,3.37,3.37,0,0,0,2.39-1l.57.79a4.23,4.23,0,0,1-3.07,1.18,4.06,4.06,0,0,1-.13-8.12Zm-2.54,3.57h5.07a2.5,2.5,0,0,0-2.54-2.57A2.57,2.57,0,0,0,113.3,391.59Z"/><path d="M121.49,388.22h1.2v1.25a3.27,3.27,0,0,1,2.58-1.41v1.23a2.28,2.28,0,0,0-.48-.05,2.83,2.83,0,0,0-2.1,1.23V396h-1.2Z"/><path d="M131.6,395.07a3.36,3.36,0,0,1-2.56,1.07,2.57,2.57,0,0,1-2.7-2.56A2.53,2.53,0,0,1,129,391a3.22,3.22,0,0,1,2.56,1.06V390.7c0-1-.83-1.63-1.95-1.63a3.06,3.06,0,0,0-2.37,1.07l-.56-.83a4,4,0,0,1,3.09-1.29c1.63,0,3,.74,3,2.61V396h-1.2Zm0-2.21a2.58,2.58,0,0,0-2.13-1,1.7,1.7,0,1,0,0,3.38,2.58,2.58,0,0,0,2.13-1Z"/><path d="M135.44,394.33v-5.06h-1.28v-1h1.28V386.1h1.2v2.12h1.57v1h-1.57v4.81c0,.57.26,1,.78,1a1.19,1.19,0,0,0,.82-.32l.35.89a1.94,1.94,0,0,1-1.44.5A1.58,1.58,0,0,1,135.44,394.33Z"/><path d="M145.12,394.86a3.78,3.78,0,0,1-2.75,1.28,2.18,2.18,0,0,1-2.47-2.47v-5.45h1.2v5.09c0,1.36.69,1.76,1.73,1.76a3,3,0,0,0,2.29-1.17v-5.68h1.2V396h-1.2Z"/><path d="M148.72,388.22h1.2v1.25a3.27,3.27,0,0,1,2.58-1.41v1.23a2.28,2.28,0,0,0-.48-.05,2.83,2.83,0,0,0-2.1,1.23V396h-1.2Z"/><path d="M157.36,388c2.34,0,3.71,1.83,3.71,4.15v.3h-6.25a2.72,2.72,0,0,0,2.78,2.68,3.37,3.37,0,0,0,2.39-1l.57.79a4.23,4.23,0,0,1-3.07,1.18,4.06,4.06,0,0,1-.13-8.12Zm-2.54,3.57h5.07a2.5,2.5,0,0,0-2.54-2.57A2.57,2.57,0,0,0,154.82,391.59Z"/><path d="M9,139.08H4v1.28H2.91v-1.28H.8v-1.2H2.91v-1.56H4v1.56h4.8c.58,0,1-.25,1-.78a1.14,1.14,0,0,0-.32-.82l.9-.35a2,2,0,0,1,.5,1.44A1.58,1.58,0,0,1,9,139.08Z"/><path d="M2.72,131.26c0-2.34,1.83-3.72,4.15-3.72h.3v6.26A2.71,2.71,0,0,0,9.84,131a3.41,3.41,0,0,0-1-2.39l.78-.57a4.2,4.2,0,0,1,1.19,3.07,3.84,3.84,0,0,1-4.07,3.94A3.87,3.87,0,0,1,2.72,131.26Zm3.57,2.54v-5.07a2.51,2.51,0,0,0-2.58,2.54A2.58,2.58,0,0,0,6.29,133.8Z"/><path d="M5.39,116.28c-1,0-1.6.43-1.6,1.42a2.71,2.71,0,0,0,1.19,2h5.66V121H5.39c-1,0-1.6.42-1.6,1.43a2.7,2.7,0,0,0,1.2,2h5.65v1.2H2.91v-1.2H4a3.36,3.36,0,0,1-1.31-2.49,2,2,0,0,1,1.44-2.09,3.26,3.26,0,0,1-1.44-2.59c0-1.41.79-2.16,2.34-2.16h5.58v1.2Z"/><path d="M13.59,112.68H2.91v-1.2H4.07a3.22,3.22,0,0,1-1.35-2.61c0-2,1.54-3.44,4-3.44s4.07,1.41,4.07,3.44a3.17,3.17,0,0,1-1.36,2.61h4.11Zm-9.8-3.5A2.83,2.83,0,0,0,5,111.48H8.52a2.86,2.86,0,0,0,1.24-2.3c0-1.55-1.28-2.48-3-2.48S3.79,107.63,3.79,109.18Z"/><path d="M2.72,100.14c0-2.34,1.83-3.71,4.15-3.71h.3v6.25A2.71,2.71,0,0,0,9.84,99.9a3.41,3.41,0,0,0-1-2.39l.78-.57A4.2,4.2,0,0,1,10.84,100,3.84,3.84,0,0,1,6.77,104,3.87,3.87,0,0,1,2.72,100.14Zm3.57,2.54V97.61a2.51,2.51,0,0,0-2.58,2.55A2.58,2.58,0,0,0,6.29,102.68Z"/><path d="M2.91,94.49v-1.2H4.16a3.3,3.3,0,0,1-1.41-2.57H4a1.68,1.68,0,0,0-.05.48,2.83,2.83,0,0,0,1.23,2.09h5.47v1.2Z"/><path d="M9.76,84.38a3.33,3.33,0,0,1,1.08,2.56,2.57,2.57,0,0,1-2.56,2.7,2.53,2.53,0,0,1-2.55-2.7,3.22,3.22,0,0,1,1.06-2.56H5.39c-1,0-1.63.83-1.63,2A3.09,3.09,0,0,0,4.83,88.7L4,89.26a4.05,4.05,0,0,1-1.28-3.09c0-1.63.74-3,2.61-3h5.31v1.2Zm-2.2,0a2.59,2.59,0,0,0-1,2.13,1.7,1.7,0,1,0,3.38,0,2.58,2.58,0,0,0-1-2.13Z"/><path d="M9,80.54H4v1.28H2.91V80.54H.8v-1.2H2.91V77.77H4v1.57h4.8c.58,0,1-.26,1-.78a1.14,1.14,0,0,0-.32-.82l.9-.35a1.94,1.94,0,0,1,.5,1.44A1.58,1.58,0,0,1,9,80.54Z"/><path d="M9.56,70.86a3.78,3.78,0,0,1,1.28,2.75,2.18,2.18,0,0,1-2.47,2.47H2.91v-1.2H8c1.36,0,1.76-.69,1.76-1.73A3,3,0,0,0,8.6,70.86H2.91v-1.2h7.73v1.2Z"/><path d="M2.91,67.26v-1.2H4.16a3.3,3.3,0,0,1-1.41-2.58H4a1.77,1.77,0,0,0-.05.48,2.83,2.83,0,0,0,1.23,2.1h5.47v1.2Z"/><path d="M2.72,58.62c0-2.34,1.83-3.71,4.15-3.71h.3v6.26a2.73,2.73,0,0,0,2.67-2.79,3.37,3.37,0,0,0-1-2.38l.78-.58a4.2,4.2,0,0,1,1.19,3.07,3.84,3.84,0,0,1-4.07,3.94A3.87,3.87,0,0,1,2.72,58.62Zm3.57,2.55V56.09a2.52,2.52,0,0,0-2.58,2.55A2.6,2.6,0,0,0,6.29,61.17Z"/><line class="cls-4" x1="118.63" y1="368.43" x2="118.63" y2="376.29"/><line class="cls-4" x1="28.28" y1="278.07" x2="20.42" y2="278.07"/><line class="cls-4" x1="28.28" y1="100.98" x2="20.42" y2="100.98"/><line class="cls-4" x1="299.35" y1="368.43" x2="299.35" y2="376.29"/></g></g></svg>