<svg xmlns="http://www.w3.org/2000/svg" xmlns:xlink="http://www.w3.org/1999/xlink" viewBox="0 0 412 870"><defs><style>.cls-1,.cls-5{fill:#fff;}.cls-2{fill:#c2eaf1;}.cls-3{fill:#b0084d;}.cls-3,.cls-5,.cls-7,.cls-8{fill-rule:evenodd;}.cls-4{fill:url(#linear-gradient);}.cls-6{fill:url(#linear-gradient-2);}.cls-7{fill:#d45b07;}.cls-8{fill:#bf0816;}.cls-9{fill:url(#linear-gradient-3);}.cls-10{fill:none;stroke:#000;stroke-miterlimit:10;}.cls-11{fill:url(#linear-gradient-4);}.cls-12{fill:url(#linear-gradient-5);}</style><linearGradient id="linear-gradient" x1="-3604.19" y1="444.93" x2="-3603.49" y2="445.63" gradientTransform="matrix(80, 0, 0, -80, 288359.14, 35788.19)" gradientUnits="userSpaceOnUse"><stop offset="0" stop-color="#c8511b"/><stop offset="1" stop-color="#f90"/></linearGradient><linearGradient id="linear-gradient-2" x1="-3604.15" y1="443.61" x2="-3603.45" y2="444.32" gradientTransform="matrix(80, 0, 0, -80, 288359.14, 35788.19)" gradientUnits="userSpaceOnUse"><stop offset="0" stop-color="#2e27ad"/><stop offset="1" stop-color="#527fff"/></linearGradient><linearGradient id="linear-gradient-3" x1="-3600.53" y1="444.92" x2="-3599.83" y2="445.62" xlink:href="#linear-gradient-2"/><linearGradient id="linear-gradient-4" x1="-3602.71" y1="441.11" x2="-3602.01" y2="441.81" gradientTransform="matrix(80, 0, 0, -80, 288359.14, 35788.19)" gradientUnits="userSpaceOnUse"><stop offset="0" stop-color="#b0084d"/><stop offset="1" stop-color="#ff4f8b"/></linearGradient><linearGradient id="linear-gradient-5" x1="-3601.35" y1="438.21" x2="-3600.65" y2="438.91" xlink:href="#linear-gradient-4"/></defs><g id="Layer_2" data-name="Layer 2"><g id="Layer_1-2" data-name="Layer 1"><rect class="cls-1" x="-229" y="229" width="870" height="412" transform="translate(641 229) rotate(90)"/><rect class="cls-2" x="131.17" y="658.72" width="149.66" height="99.16" rx="10.89"/><rect class="cls-2" x="206.75" y="87.69" width="184.02" height="211.66" rx="17.64"/><rect class="cls-2" x="26.89" y="417.06" width="151.45" height="119.16" rx="12.01"/><path d="M133.12,90h-3.24l-.46,1.26h-1.69l2.8-7.26h1.94l2.8,7.26h-1.69Zm-2.83-1.33h2.41l-1.2-3.33Z"/><path d="M142.43,87.91c0-.49-.22-.84-.79-.84a1.41,1.41,0,0,0-1.09.61v3.55h-1.39V87.91c0-.49-.22-.84-.78-.84a1.43,1.43,0,0,0-1.09.62v3.54h-1.38V86h1.38v.69a2.28,2.28,0,0,1,1.72-.82,1.4,1.4,0,0,1,1.46,1,2.22,2.22,0,0,1,1.8-1,1.41,1.41,0,0,1,1.55,1.59v3.8h-1.39Z"/><path d="M148.34,90.68a2.19,2.19,0,0,1-1.67.67,1.75,1.75,0,0,1-1.83-1.74,1.67,1.67,0,0,1,1.83-1.67,2.15,2.15,0,0,1,1.67.64v-.73c0-.53-.46-.88-1.16-.88a2.22,2.22,0,0,0-1.53.62l-.52-.92a3.41,3.41,0,0,1,2.29-.83c1.2,0,2.3.48,2.3,2v3.4h-1.38Zm0-1.37a1.41,1.41,0,0,0-1.11-.46c-.55,0-1,.29-1,.8s.45.77,1,.77a1.38,1.38,0,0,0,1.11-.46Z"/><path d="M150.86,90.19l2.37-3h-2.37V86h4.24v1l-2.4,3h2.45v1.21h-4.29Z"/><path d="M156,88.59a2.78,2.78,0,1,1,2.77,2.76A2.66,2.66,0,0,1,156,88.59Zm4.12,0a1.36,1.36,0,1,0-1.35,1.54A1.39,1.39,0,0,0,160.09,88.59Z"/><path d="M166.1,88.05a.86.86,0,0,0-1-1,1.48,1.48,0,0,0-1.2.62v3.54h-1.38V86h1.38v.69a2.39,2.39,0,0,1,1.84-.82,1.53,1.53,0,0,1,1.71,1.68v3.71H166.1Z"/><path d="M103.13,100.66a3.67,3.67,0,0,1,3.81-3.75A3.35,3.35,0,0,1,110,98.68l-1.33.65a2,2,0,0,0-1.76-1,2.39,2.39,0,0,0,0,4.76A2,2,0,0,0,108.7,102l1.33.64a3.37,3.37,0,0,1-3.09,1.78A3.67,3.67,0,0,1,103.13,100.66Z"/><path d="M110.92,97h1.39v7.25h-1.39Z"/><path d="M113.34,101.65a2.78,2.78,0,1,1,2.77,2.76A2.66,2.66,0,0,1,113.34,101.65Zm4.12,0a1.38,1.38,0,0,0-1.35-1.52,1.55,1.55,0,0,0,0,3.06A1.39,1.39,0,0,0,117.46,101.65Z"/><path d="M123.47,103.62a2.47,2.47,0,0,1-1.85.79,1.51,1.51,0,0,1-1.7-1.65V99h1.39v3.19a.85.85,0,0,0,1,1,1.56,1.56,0,0,0,1.2-.6V99h1.38v5.25h-1.38Z"/><path d="M129.84,103.61a2.05,2.05,0,0,1-1.62.8c-1.33,0-2.33-1-2.33-2.75s1-2.76,2.33-2.76a2,2,0,0,1,1.62.8V97h1.39v7.25h-1.39Zm0-2.88a1.5,1.5,0,0,0-1.2-.6,1.55,1.55,0,0,0,0,3.06,1.53,1.53,0,0,0,1.2-.6Z"/><path d="M136.91,99.3l-1.26,5H134L131.93,97h1.73l1.27,5.24L136.31,97h1.21l1.37,5.24L140.15,97h1.74l-2.07,7.25h-1.64Z"/><path d="M145.31,103.74a2.19,2.19,0,0,1-1.66.67,1.75,1.75,0,0,1-1.83-1.74,1.66,1.66,0,0,1,1.83-1.67,2.14,2.14,0,0,1,1.66.64v-.73c0-.53-.46-.88-1.15-.88a2.24,2.24,0,0,0-1.54.62l-.52-.92a3.43,3.43,0,0,1,2.3-.83c1.19,0,2.29.48,2.29,2v3.39h-1.38Zm0-1.37a1.36,1.36,0,0,0-1.11-.46c-.54,0-1,.28-1,.8s.45.77,1,.77a1.36,1.36,0,0,0,1.11-.46Z"/><path d="M148.34,103v-2.74h-.87V99h.87V97.59h1.39V99h1.07v1.21h-1.07v2.37c0,.32.17.58.48.58a.76.76,0,0,0,.48-.16l.29,1a1.75,1.75,0,0,1-1.15.33A1.31,1.31,0,0,1,148.34,103Z"/><path d="M154.19,98.9a2.47,2.47,0,0,1,2.08.94l-.9.85a1.27,1.27,0,0,0-1.11-.56,1.41,1.41,0,0,0-1.43,1.52,1.42,1.42,0,0,0,1.43,1.54,1.32,1.32,0,0,0,1.11-.57l.9.84a2.42,2.42,0,0,1-2.08,1,2.76,2.76,0,1,1,0-5.51Z"/><path d="M160.73,101.08c0-.72-.38-1-1-1a1.49,1.49,0,0,0-1.19.62v3.53h-1.39V97h1.39v2.68a2.42,2.42,0,0,1,1.84-.81,1.51,1.51,0,0,1,1.71,1.65v3.73h-1.38Z"/><path d="M168.65,98.9a2.63,2.63,0,0,1,2.64,2.89v.31h-3.91a1.41,1.41,0,0,0,1.51,1.21,2.15,2.15,0,0,0,1.41-.52l.61.9a3.34,3.34,0,0,1-2.17.72,2.76,2.76,0,1,1-.09-5.51Zm-1.29,2.26H170a1.21,1.21,0,0,0-1.3-1.16A1.25,1.25,0,0,0,167.36,101.16Z"/><path d="M171.54,99H173l1.37,3.65L175.76,99h1.49l-2.11,5.25h-1.49Z"/><path d="M180.25,98.9a2.63,2.63,0,0,1,2.64,2.89v.31H179a1.41,1.41,0,0,0,1.51,1.21,2.15,2.15,0,0,0,1.41-.52l.61.9a3.34,3.34,0,0,1-2.17.72,2.76,2.76,0,1,1-.09-5.51ZM179,101.16h2.59a1.21,1.21,0,0,0-1.3-1.16A1.26,1.26,0,0,0,179,101.16Z"/><path d="M187.44,101.11a.85.85,0,0,0-1-1,1.48,1.48,0,0,0-1.2.62v3.53h-1.38V99h1.38v.68a2.42,2.42,0,0,1,1.84-.81,1.53,1.53,0,0,1,1.71,1.67v3.71h-1.38Z"/><path d="M190.46,103v-2.74h-.87V99h.87V97.59h1.39V99h1.07v1.21h-1.07v2.37a.51.51,0,0,0,.48.58.72.72,0,0,0,.48-.16l.3,1a1.76,1.76,0,0,1-1.16.33A1.31,1.31,0,0,1,190.46,103Z"/><path d="M117.76,114.7a7.57,7.57,0,0,1,1.72-4.81l.87.65a8,8,0,0,0-1.1,4.16,7.85,7.85,0,0,0,1.1,4.13l-.87.68A7.55,7.55,0,0,1,117.76,114.7Z"/><path d="M121.5,116V113.3h-.87v-1.21h.87v-1.44h1.39v1.44H124v1.21h-1.07v2.37a.51.51,0,0,0,.48.57.72.72,0,0,0,.48-.15l.3,1a1.76,1.76,0,0,1-1.16.33A1.31,1.31,0,0,1,121.5,116Z"/><path d="M124.77,110.49a.83.83,0,1,1,1.65,0,.83.83,0,0,1-1.65,0Zm.14,1.6h1.38v5.25h-1.38Z"/><path d="M134.18,114a.72.72,0,0,0-.79-.83,1.35,1.35,0,0,0-1.08.61v3.54h-1.4V114c0-.49-.21-.83-.78-.83a1.4,1.4,0,0,0-1.09.62v3.53h-1.38v-5.25H129v.68a2.33,2.33,0,0,1,1.72-.81,1.4,1.4,0,0,1,1.46,1,2.24,2.24,0,0,1,1.8-1,1.41,1.41,0,0,1,1.55,1.59v3.79h-1.39Z"/><path d="M139.31,112a2.63,2.63,0,0,1,2.64,2.89v.31H138a1.41,1.41,0,0,0,1.51,1.21,2.15,2.15,0,0,0,1.41-.52l.61.89a3.29,3.29,0,0,1-2.17.73,2.76,2.76,0,1,1-.09-5.51ZM138,114.22h2.59a1.21,1.21,0,0,0-1.3-1.16A1.27,1.27,0,0,0,138,114.22Z"/><path d="M142.59,114.12h2.61v1.18h-2.61Z"/><path d="M146.22,110.09h1.38v2.67a2,2,0,0,1,1.62-.8c1.34,0,2.33,1,2.33,2.76s-1,2.75-2.33,2.75a2,2,0,0,1-1.62-.8v.67h-1.38Zm2.56,6.15a1.54,1.54,0,0,0,0-3,1.52,1.52,0,0,0-1.18.61v1.86A1.55,1.55,0,0,0,148.78,116.24Z"/><path d="M155.75,116.8a2.19,2.19,0,0,1-1.67.67,1.75,1.75,0,0,1-1.83-1.74,1.66,1.66,0,0,1,1.83-1.67,2.11,2.11,0,0,1,1.67.64V114c0-.53-.46-.88-1.16-.88a2.23,2.23,0,0,0-1.53.62l-.52-.93a3.46,3.46,0,0,1,2.29-.82c1.2,0,2.3.48,2.3,2v3.39h-1.38Zm0-1.37a1.38,1.38,0,0,0-1.11-.46c-.55,0-1,.28-1,.8s.44.77,1,.77a1.38,1.38,0,0,0,1.11-.46Z"/><path d="M158.64,115.69a3,3,0,0,0,1.82.72c.6,0,.88-.21.88-.54s-.46-.5-1.05-.62c-.91-.17-2.07-.39-2.07-1.64,0-.88.77-1.65,2.15-1.65a3.29,3.29,0,0,1,2.12.72l-.55.94a2.23,2.23,0,0,0-1.56-.61c-.5,0-.82.19-.82.49s.41.45,1,.57c.9.17,2.11.41,2.11,1.72,0,.95-.82,1.68-2.28,1.68a3.56,3.56,0,0,1-2.35-.81Z"/><path d="M166.07,112a2.63,2.63,0,0,1,2.64,2.89v.31H164.8a1.41,1.41,0,0,0,1.51,1.21,2.15,2.15,0,0,0,1.41-.52l.61.89a3.29,3.29,0,0,1-2.17.73,2.76,2.76,0,1,1-.09-5.51Zm-1.29,2.26h2.59a1.21,1.21,0,0,0-1.3-1.16A1.27,1.27,0,0,0,164.78,114.22Z"/><path d="M173.32,116.67a2,2,0,0,1-1.62.8c-1.33,0-2.33-1-2.33-2.75s1-2.76,2.33-2.76a2,2,0,0,1,1.62.8v-2.67h1.39v7.25h-1.39Zm0-2.89a1.53,1.53,0,0,0-1.2-.59,1.54,1.54,0,0,0,0,3,1.53,1.53,0,0,0,1.2-.59Z"/><path d="M175.59,110.54l.87-.65a7.52,7.52,0,0,1,0,9.62l-.87-.68a7.68,7.68,0,0,0,1.11-4.13A7.85,7.85,0,0,0,175.59,110.54Z"/><g id="Icon-Resource_Managment-Governance_Res_Amazon-Cloudwatch_Event-Time-Based_48" data-name="Icon-Resource/Managment-Governance/Res_Amazon-Cloudwatch_Event-Time-Based_48"><path id="Amazon-Cloudwatch_Event-time-based_Resource-Icon_light-bg" data-name="Amazon-Cloudwatch Event-time-based Resource-Icon light-bg" class="cls-3" d="M166.13,28.38h-6.51V26h4.09V20.8h2.42Zm-1.21-9.56a7.3,7.3,0,1,1-7.3,7.3,7.32,7.32,0,0,1,7.3-7.3Zm0,17a9.72,9.72,0,1,0-9.72-9.72,9.73,9.73,0,0,0,9.72,9.72ZM169,63.21h-8.22V39.56a14.38,14.38,0,0,0,8.22,0Zm.71-26.49a11.9,11.9,0,0,1-9.64,0,1.21,1.21,0,0,0-1.71,1.1v26.6a1.21,1.21,0,0,0,1.21,1.21h10.64a1.21,1.21,0,0,0,1.21-1.21V37.82a1.22,1.22,0,0,0-1.71-1.1ZM121.31,69.88h53.18V67.46H121.31Zm22.48-6.67H152V47.54h-8.22Zm-1.21,2.42h10.64a1.21,1.21,0,0,0,1.21-1.21V46.33a1.21,1.21,0,0,0-1.21-1.21H142.58a1.21,1.21,0,0,0-1.21,1.21V64.42a1.21,1.21,0,0,0,1.21,1.21Zm-15.81-2.42H135v-21h-8.22Zm-1.21,2.42H136.2a1.21,1.21,0,0,0,1.21-1.21V41a1.21,1.21,0,0,0-1.21-1.21H125.56A1.21,1.21,0,0,0,124.35,41V64.42a1.21,1.21,0,0,0,1.21,1.21Z"/></g><g id="Icon-Architecture_64_Arch_AWS-Lambda_64" data-name="Icon-Architecture/64/Arch_AWS-Lambda_64"><g id="Icon-Architecture-BG_64_Compute" data-name="Icon-Architecture-BG/64/Compute"><rect id="Rectangle" class="cls-4" x="24.05" y="138.1" width="56.07" height="56.07"/></g><path id="AWS-Lambda_Icon_64_Squid" data-name="AWS-Lambda Icon 64 Squid" class="cls-5" d="M43.68,184.36H35l9.62-20.12,4.36,9Zm1.55-22a.71.71,0,0,0-.63-.4h0a.72.72,0,0,0-.64.4L33.23,184.75a.71.71,0,0,0,.64,1H44.13a.71.71,0,0,0,.63-.4l5.62-11.85a.67.67,0,0,0,0-.6Zm24.37,22H61l-13.87-29a.72.72,0,0,0-.64-.4H40.8v-7H51.89L65.7,177a.7.7,0,0,0,.63.4H69.6Zm.7-8.41H66.77l-13.8-29a.72.72,0,0,0-.64-.4H40.1a.7.7,0,0,0-.7.7v8.41a.67.67,0,0,0,.21.5.7.7,0,0,0,.49.2H46l13.87,29a.71.71,0,0,0,.63.4H70.3a.71.71,0,0,0,.71-.7v-8.41a.7.7,0,0,0-.71-.7Z"/></g><path d="M45.69,210.78H42.44L42,212h-1.7l2.81-7.25H45l2.8,7.25H46.14Zm-2.83-1.33h2.4l-1.2-3.33Z"/><path d="M52.3,207.05,51,212H49.4l-2.08-7.25h1.73L50.32,210l1.38-5.24h1.21L54.28,210l1.26-5.24h1.74L55.22,212H53.57Z"/><path d="M58.36,209.84a3.22,3.22,0,0,0,2.31,1c.85,0,1.26-.41,1.26-.82s-.63-.73-1.47-.92c-1.18-.28-2.7-.6-2.7-2.22,0-1.21,1-2.19,2.75-2.19a4.06,4.06,0,0,1,2.83,1l-.86,1.13A3.12,3.12,0,0,0,60.4,206c-.7,0-1.07.3-1.07.74s.61.64,1.45.84c1.2.27,2.72.63,2.72,2.24,0,1.32-1,2.33-2.9,2.33A4.15,4.15,0,0,1,57.52,211Z"/><path d="M33.07,217.84h1.55v5.89h3.07v1.36H33.07Z"/><path d="M41.81,224.55a2.19,2.19,0,0,1-1.66.67,1.75,1.75,0,0,1-1.83-1.74,1.66,1.66,0,0,1,1.83-1.67,2.1,2.1,0,0,1,1.66.64v-.73c0-.53-.46-.88-1.15-.88a2.24,2.24,0,0,0-1.54.62l-.52-.93a3.47,3.47,0,0,1,2.3-.82c1.19,0,2.29.48,2.29,2v3.39H41.81Zm0-1.37a1.36,1.36,0,0,0-1.11-.46c-.54,0-1,.28-1,.8s.45.77,1,.77a1.36,1.36,0,0,0,1.11-.46Z"/><path d="M51.08,221.77a.72.72,0,0,0-.78-.83,1.39,1.39,0,0,0-1.09.61v3.54H47.82v-3.32a.72.72,0,0,0-.78-.83,1.38,1.38,0,0,0-1.09.62v3.53H44.57v-5.25H46v.68a2.31,2.31,0,0,1,1.72-.81,1.38,1.38,0,0,1,1.45,1,2.25,2.25,0,0,1,1.81-1,1.41,1.41,0,0,1,1.55,1.59v3.79h-1.4Z"/><path d="M53.84,217.84h1.38v2.67a2,2,0,0,1,1.62-.8c1.34,0,2.33,1,2.33,2.76s-1,2.75-2.33,2.75a2,2,0,0,1-1.62-.8v.67H53.84ZM56.4,224a1.35,1.35,0,0,0,1.34-1.52,1.36,1.36,0,0,0-1.34-1.53,1.52,1.52,0,0,0-1.18.61v1.86A1.55,1.55,0,0,0,56.4,224Z"/><path d="M63.83,224.42a2.05,2.05,0,0,1-1.62.8c-1.33,0-2.33-1-2.33-2.75s1-2.76,2.33-2.76a2,2,0,0,1,1.62.8v-2.67h1.39v7.25H63.83Zm0-2.88a1.5,1.5,0,0,0-1.2-.6,1.54,1.54,0,0,0,0,3.05,1.53,1.53,0,0,0,1.2-.59Z"/><path d="M69.75,224.55a2.19,2.19,0,0,1-1.67.67,1.75,1.75,0,0,1-1.83-1.74,1.66,1.66,0,0,1,1.83-1.67,2.11,2.11,0,0,1,1.67.64v-.73c0-.53-.46-.88-1.16-.88a2.23,2.23,0,0,0-1.53.62l-.52-.93a3.46,3.46,0,0,1,2.29-.82c1.2,0,2.3.48,2.3,2v3.39H69.75Zm0-1.37a1.38,1.38,0,0,0-1.11-.46c-.55,0-1,.28-1,.8s.44.77,1,.77a1.38,1.38,0,0,0,1.11-.46Z"/><path d="M48.46,318.5H45.22l-.46,1.25H43.07l2.8-7.25h1.94l2.8,7.25H48.92Zm-2.83-1.33H48l-1.2-3.33Z"/><path d="M55.08,314.77l-1.26,5H52.17L50.1,312.5h1.73l1.27,5.24,1.38-5.24h1.21l1.37,5.24,1.26-5.24h1.74L58,319.75H56.35Z"/><path d="M61.14,317.56a3.2,3.2,0,0,0,2.31,1c.85,0,1.26-.41,1.26-.82s-.63-.73-1.47-.92c-1.18-.28-2.71-.6-2.71-2.22,0-1.21,1-2.19,2.75-2.19a4,4,0,0,1,2.83,1l-.86,1.13a3.09,3.09,0,0,0-2.07-.79c-.7,0-1.07.3-1.07.74s.61.64,1.45.84c1.19.27,2.72.63,2.72,2.24,0,1.32-1,2.33-2.91,2.33a4.18,4.18,0,0,1-3.08-1.16Z"/><path d="M44.35,330.16l-1.83,2.65H40.68l2.64-3.72-2.47-3.53h1.84L44.35,328,46,325.56h1.86l-2.47,3.52L48,332.81H46.17Z"/><path d="M47.8,329.59h2.61v1.18H47.8Z"/><path d="M54.13,330.21H53v2.6H51.46v-7.25h3.39a2.26,2.26,0,0,1,2.44,2.34,2.09,2.09,0,0,1-1.59,2.15l1.63,2.76H55.56Zm.49-3.33H53v2h1.62a1,1,0,1,0,0-2Z"/><path d="M61.36,332.27a2.19,2.19,0,0,1-1.67.67,1.74,1.74,0,0,1-1.82-1.74,1.66,1.66,0,0,1,1.82-1.67,2.11,2.11,0,0,1,1.67.64v-.73c0-.53-.46-.88-1.15-.88a2.24,2.24,0,0,0-1.54.62l-.52-.93a3.46,3.46,0,0,1,2.29-.82c1.2,0,2.3.48,2.3,2v3.39H61.36Zm0-1.37a1.38,1.38,0,0,0-1.11-.46c-.55,0-1,.28-1,.8s.44.77,1,.77a1.38,1.38,0,0,0,1.11-.46Z"/><path d="M64.57,333.72a.7.7,0,0,0,.73-.38l.19-.45-2.13-5.33h1.48l1.37,3.65,1.37-3.65h1.49l-2.47,6.11a1.92,1.92,0,0,1-2,1.28,4.06,4.06,0,0,1-.68-.08l.2-1.24A1.33,1.33,0,0,0,64.57,333.72Z"/><g id="Icon-Architecture_64_Arch_AWS-X-Ray_64" data-name="Icon-Architecture/64/Arch_AWS-X-Ray_64"><g id="Icon-Architecture-BG_64_Developer-Tools" data-name="Icon-Architecture-BG/64/Developer-Tools"><rect id="Rectangle-2" data-name="Rectangle" class="cls-6" x="26.89" y="242.92" width="56.62" height="56.62"/></g><path id="AWS-X-Ray_Icon_64_Squid" data-name="AWS-X-Ray Icon 64 Squid" class="cls-5" d="M60.51,272.78H59.09v9.83H56.26v-7H54.84v7H52V277.7H50.6v4.91H49.18V284H61.92v-1.4H60.51Zm5.66,5.27a10.27,10.27,0,1,0-10.26,10.18,10.23,10.23,0,0,0,10.26-10.18Zm1.41,0a11.68,11.68,0,1,1-11.67-11.58,11.64,11.64,0,0,1,11.67,11.58ZM75,270.31c0,4-2.22,6.61-6.08,7.14l-.2-1.39c2.22-.31,4.86-1.55,4.86-5.75,0-3.94-3-5.37-5.53-5.87a.69.69,0,0,1-.56-.65c-.17-2.88-1.88-4.17-3.49-4.17a3.28,3.28,0,0,0-2.61,1.3.68.68,0,0,1-.66.27.7.7,0,0,1-.56-.45,10.46,10.46,0,0,0-2.46-3.87A9,9,0,0,0,47.79,255a8.92,8.92,0,0,0-5.2,7.77,7.31,7.31,0,0,0,.07,1,.72.72,0,0,1-.54.77,5.58,5.58,0,0,0-4.62,5.7c0,.15,0,.29,0,.43.13,2.33,2.16,4.47,4.93,5.2l-.37,1.36c-3.35-.89-5.81-3.55-6-6.48,0-.17,0-.33,0-.51a6.88,6.88,0,0,1,5.11-6.9c0-.2,0-.41,0-.62a10.28,10.28,0,0,1,6.07-9.07,10.43,10.43,0,0,1,11.47,2.2,11.32,11.32,0,0,1,2.37,3.39,4.64,4.64,0,0,1,2.93-1c2.17,0,4.45,1.54,4.85,5,4,.95,6.15,3.47,6.15,7.13Z"/></g><path d="M131.8,220.64a4.4,4.4,0,0,1,4.5-4.56,4,4,0,0,1,3.39,1.74l-.93.52a3,3,0,0,0-2.46-1.28,3.59,3.59,0,0,0,0,7.17,3,3,0,0,0,2.46-1.29l.94.52a4,4,0,0,1-3.4,1.75A4.41,4.41,0,0,1,131.8,220.64Z"/><path d="M145.05,224.32a2.76,2.76,0,0,1-2.11.89,2.13,2.13,0,0,1-2.24-2.12,2.09,2.09,0,0,1,2.24-2.1,2.67,2.67,0,0,1,2.11.87v-1.15c0-.86-.69-1.35-1.61-1.35a2.54,2.54,0,0,0-2,.89l-.46-.69a3.33,3.33,0,0,1,2.55-1.06c1.35,0,2.47.61,2.47,2.16v4.39h-1Zm0-1.83a2.16,2.16,0,0,0-1.76-.79,1.4,1.4,0,1,0,0,2.79,2.13,2.13,0,0,0,1.76-.79Z"/><path d="M148,216.22h1v8.83h-1Z"/><path d="M151,216.22h1v8.83h-1Z"/><path d="M153.93,223.49a2.91,2.91,0,0,0,2.11.91c1,0,1.51-.44,1.51-1.06s-.78-.92-1.64-1.14c-1.09-.25-2.32-.54-2.32-1.86,0-1,.86-1.84,2.38-1.84a3.22,3.22,0,0,1,2.37.93l-.46.68a2.52,2.52,0,0,0-1.91-.8c-.87,0-1.41.39-1.41,1s.72.82,1.56,1c1.11.25,2.39.57,2.39,2,0,1.07-.86,1.93-2.51,1.93a3.39,3.39,0,0,1-2.58-1Z"/><path d="M100.64,231.94a4.21,4.21,0,0,1,3.43,1.66l-.88.54a3.25,3.25,0,0,0-2.55-1.22,3.6,3.6,0,0,0,0,7.19,3.48,3.48,0,0,0,2.37-1v-1.79h-3v-1h4.13v3.18a4.59,4.59,0,0,1-3.47,1.53,4.58,4.58,0,0,1,0-9.15Z"/><path d="M108.63,234.37c1.93,0,3.06,1.5,3.06,3.42V238h-5.17a2.25,2.25,0,0,0,2.3,2.21,2.84,2.84,0,0,0,2-.8l.47.64a3.44,3.44,0,0,1-2.54,1,3.35,3.35,0,0,1-.1-6.7Zm-2.11,2.95h4.2a2.07,2.07,0,0,0-2.11-2.13A2.13,2.13,0,0,0,106.52,237.32Z"/><path d="M113.49,239.58V235.4h-1.06v-.88h1.06v-1.74h1v1.74h1.3v.88h-1.3v4c0,.47.21.82.65.82a.92.92,0,0,0,.67-.27l.3.74a1.64,1.64,0,0,1-1.2.41A1.3,1.3,0,0,1,113.49,239.58Z"/><path d="M117.34,238.84a3.7,3.7,0,0,0,2.77,1.25c1.58,0,2.08-.84,2.08-1.52,0-1.06-1.07-1.35-2.23-1.66-1.42-.37-3-.77-3-2.5,0-1.46,1.29-2.45,3-2.45a4.14,4.14,0,0,1,3.13,1.23l-.66.81a3.37,3.37,0,0,0-2.55-1.06c-1.06,0-1.82.57-1.82,1.4s1,1.15,2.15,1.45c1.44.39,3.08.84,3.08,2.69,0,1.28-.87,2.59-3.25,2.59a4.37,4.37,0,0,1-3.39-1.4Z"/><path d="M127.7,234.37c1.94,0,3.07,1.5,3.07,3.42V238H125.6a2.25,2.25,0,0,0,2.3,2.21,2.8,2.8,0,0,0,2-.8l.48.64a3.45,3.45,0,0,1-2.54,1,3.35,3.35,0,0,1-.11-6.7Zm-2.1,2.95h4.19a2.06,2.06,0,0,0-2.1-2.13A2.13,2.13,0,0,0,125.6,237.32Z"/><path d="M132.37,234.52h1v1a2.72,2.72,0,0,1,2.13-1.17v1a1.56,1.56,0,0,0-.39,0,2.34,2.34,0,0,0-1.74,1v4.52h-1Z"/><path d="M135.78,234.52h1.07l2.13,5.24,2.12-5.24h1.08l-2.66,6.39h-1.08Z"/><path d="M143,232.78a.66.66,0,0,1,.66-.66.67.67,0,0,1,.68.66.68.68,0,0,1-.68.67A.67.67,0,0,1,143,232.78Zm.17,1.74h1v6.39h-1Z"/><path d="M149,234.37a2.73,2.73,0,0,1,2.35,1.11l-.66.61a1.9,1.9,0,0,0-1.63-.84,2.49,2.49,0,0,0,0,4.94,2,2,0,0,0,1.63-.84l.66.61a2.73,2.73,0,0,1-2.35,1.11,3.35,3.35,0,0,1,0-6.7Z"/><path d="M155.51,234.37c1.93,0,3.07,1.5,3.07,3.42V238h-5.17a2.24,2.24,0,0,0,2.3,2.21,2.8,2.8,0,0,0,2-.8l.48.64a3.47,3.47,0,0,1-2.54,1,3.35,3.35,0,0,1-.11-6.7Zm-2.1,2.95h4.19a2.07,2.07,0,0,0-2.1-2.13A2.12,2.12,0,0,0,153.41,237.32Z"/><path d="M164.4,231.94a4.19,4.19,0,0,1,3.42,1.66l-.87.54a3.28,3.28,0,0,0-2.55-1.22,3.6,3.6,0,0,0,0,7.19,3.45,3.45,0,0,0,2.36-1v-1.79h-3v-1h4.13v3.18a4.57,4.57,0,0,1-3.46,1.53,4.58,4.58,0,0,1,0-9.15Z"/><path d="M169.6,234.52h1v1a2.69,2.69,0,0,1,2.13-1.17v1a1.59,1.59,0,0,0-.4,0,2.32,2.32,0,0,0-1.73,1v4.52h-1Z"/><path d="M178,240.19a2.77,2.77,0,0,1-2.11.88,2.12,2.12,0,0,1-2.24-2.11,2.1,2.1,0,0,1,2.24-2.11,2.64,2.64,0,0,1,2.11.88v-1.15c0-.86-.69-1.35-1.61-1.35a2.53,2.53,0,0,0-2,.88l-.46-.69a3.34,3.34,0,0,1,2.55-1c1.35,0,2.47.6,2.47,2.15v4.39h-1Zm0-1.83a2.13,2.13,0,0,0-1.76-.79,1.4,1.4,0,1,0,0,2.79,2.14,2.14,0,0,0,1.76-.8Z"/><path d="M180.93,243.35v-8.83h1v1a2.65,2.65,0,0,1,2.15-1.11c1.68,0,2.85,1.27,2.85,3.34s-1.17,3.36-2.85,3.36a2.61,2.61,0,0,1-2.15-1.12v3.4Zm2.9-8.1a2.36,2.36,0,0,0-1.9,1v2.88a2.35,2.35,0,0,0,1.9,1c1.28,0,2-1.06,2-2.48S185.11,235.25,183.83,235.25Z"/><path d="M192.85,236.71c0-1.13-.58-1.46-1.44-1.46a2.51,2.51,0,0,0-1.89,1v4.67h-1v-8.82h1v3.36a3.16,3.16,0,0,1,2.29-1.08,1.79,1.79,0,0,1,2,2v4.51h-1Z"/><path d="M143.61,254.82h-4.47l-.78,2h-1.22l3.55-8.82h1.36l3.56,8.82h-1.22Zm-4.15-1h3.82l-1.9-4.91Z"/><path d="M146.76,248h3.54a2.66,2.66,0,1,1,0,5.32h-2.45v3.5h-1.09Zm3.41,1h-2.32v3.36h2.32a1.68,1.68,0,1,0,0-3.36Z"/><path d="M154.52,248h1.09v8.82h-1.09Z"/><path d="M127,295.85h-1.76v3.5h-1.1v-8.82h3.55a2.57,2.57,0,0,1,2.76,2.66,2.43,2.43,0,0,1-2.28,2.56l2.38,3.6h-1.3Zm.56-4.34h-2.32v3.37h2.32a1.69,1.69,0,1,0,0-3.37Z"/><path d="M134.52,292.8c1.93,0,3.06,1.51,3.06,3.43v.25h-5.17a2.26,2.26,0,0,0,2.3,2.21,2.81,2.81,0,0,0,2-.81l.47.65a3.44,3.44,0,0,1-2.54,1,3.16,3.16,0,0,1-3.25-3.36A3.2,3.2,0,0,1,134.52,292.8Zm-2.11,2.95h4.19a2.06,2.06,0,0,0-2.1-2.13A2.13,2.13,0,0,0,132.41,295.75Z"/><path d="M139.38,298v-4.19h-1.06V293h1.06v-1.74h1V293h1.3v.87h-1.3v4c0,.48.21.82.65.82a1,1,0,0,0,.67-.26l.29.74a1.6,1.6,0,0,1-1.19.41A1.3,1.3,0,0,1,139.38,298Z"/><path d="M147.38,298.45a3.11,3.11,0,0,1-2.28,1.06,1.8,1.8,0,0,1-2-2V293h1v4.21c0,1.12.57,1.45,1.43,1.45a2.45,2.45,0,0,0,1.89-1V293h1v6.39h-1Z"/><path d="M150.35,293h1v1a2.71,2.71,0,0,1,2.13-1.16v1a1.59,1.59,0,0,0-.4,0,2.32,2.32,0,0,0-1.73,1v4.52h-1Z"/><path d="M159,295.17c0-1.12-.57-1.48-1.43-1.48a2.48,2.48,0,0,0-1.89,1v4.67h-1V293h1v.93A3.16,3.16,0,0,1,158,292.8a1.82,1.82,0,0,1,2,2.07v4.48h-1Z"/><path d="M162,297.79a2.9,2.9,0,0,0,2.1.91c1,0,1.51-.43,1.51-1.06s-.78-.92-1.64-1.13c-1.08-.25-2.31-.55-2.31-1.87,0-1,.86-1.84,2.38-1.84a3.24,3.24,0,0,1,2.37.93l-.47.69a2.45,2.45,0,0,0-1.9-.81c-.87,0-1.42.4-1.42,1s.73.82,1.57,1c1.11.26,2.39.57,2.39,2,0,1.07-.86,1.93-2.51,1.93a3.38,3.38,0,0,1-2.58-1Z"/><path d="M119.13,308.83h1v1a2.75,2.75,0,0,1,2.13-1.17v1a2.25,2.25,0,0,0-.4,0,2.36,2.36,0,0,0-1.73,1v4.53h-1Z"/><path d="M126.27,308.67c1.93,0,3.07,1.51,3.07,3.43v.25h-5.17a2.25,2.25,0,0,0,2.3,2.21,2.77,2.77,0,0,0,2-.81l.48.65a3.51,3.51,0,0,1-2.54,1,3.36,3.36,0,0,1-.11-6.71Zm-2.1,2.95h4.19a2.07,2.07,0,0,0-2.1-2.13A2.12,2.12,0,0,0,124.17,311.62Z"/><path d="M130.9,313.66a2.88,2.88,0,0,0,2.1.91c1,0,1.51-.44,1.51-1.06s-.78-.93-1.64-1.14c-1.09-.25-2.32-.54-2.32-1.86,0-1,.86-1.84,2.38-1.84a3.22,3.22,0,0,1,2.37.93l-.46.68a2.52,2.52,0,0,0-1.91-.8c-.87,0-1.41.39-1.41,1s.72.82,1.56,1c1.11.25,2.39.57,2.39,2,0,1.08-.86,1.94-2.51,1.94a3.39,3.39,0,0,1-2.58-1Z"/><path d="M137.08,317.65v-8.82h1v.95a2.65,2.65,0,0,1,2.15-1.11c1.68,0,2.85,1.27,2.85,3.35s-1.17,3.36-2.85,3.36a2.59,2.59,0,0,1-2.15-1.13v3.4Zm2.9-8.09a2.36,2.36,0,0,0-1.9,1v2.89a2.37,2.37,0,0,0,1.9,1c1.28,0,2.05-1.06,2.05-2.47S141.26,309.56,140,309.56Z"/><path d="M144.3,312a3.17,3.17,0,1,1,3.16,3.36A3.13,3.13,0,0,1,144.3,312Zm5.28,0a2.15,2.15,0,1,0-2.12,2.47A2.22,2.22,0,0,0,149.58,312Z"/><path d="M156.55,311c0-1.13-.57-1.48-1.43-1.48a2.45,2.45,0,0,0-1.89,1v4.67h-1v-6.39h1v.92a3.16,3.16,0,0,1,2.27-1.08,1.81,1.81,0,0,1,2,2.06v4.49h-1Z"/><path d="M159.48,313.66a2.91,2.91,0,0,0,2.11.91c1,0,1.5-.44,1.5-1.06s-.78-.93-1.64-1.14c-1.08-.25-2.31-.54-2.31-1.86,0-1,.86-1.84,2.38-1.84a3.24,3.24,0,0,1,2.37.93l-.47.68a2.48,2.48,0,0,0-1.9-.8c-.87,0-1.42.39-1.42,1s.73.82,1.57,1c1.11.25,2.39.57,2.39,2,0,1.08-.86,1.94-2.51,1.94a3.38,3.38,0,0,1-2.58-1Z"/><path d="M168.45,308.67c1.93,0,3.07,1.51,3.07,3.43v.25h-5.18a2.26,2.26,0,0,0,2.31,2.21,2.8,2.8,0,0,0,2-.81l.47.65a3.48,3.48,0,0,1-2.54,1,3.36,3.36,0,0,1-.1-6.71Zm-2.11,2.95h4.2a2.08,2.08,0,0,0-2.11-2.13A2.14,2.14,0,0,0,166.34,311.62Z"/><path d="M79.9,352a4.41,4.41,0,0,1,4.5-4.57,4,4,0,0,1,3.39,1.75l-.93.52a3,3,0,0,0-2.46-1.29,3.59,3.59,0,0,0,0,7.17,3,3,0,0,0,2.46-1.28l.94.52a4,4,0,0,1-3.4,1.74A4.4,4.4,0,0,1,79.9,352Z"/><path d="M89.16,347.55h1v8.82h-1Z"/><path d="M91.76,353.17a3.17,3.17,0,1,1,3.16,3.36A3.14,3.14,0,0,1,91.76,353.17Zm5.28,0a2.15,2.15,0,1,0-2.12,2.48A2.22,2.22,0,0,0,97,353.17Z"/><path d="M104,355.47a3.13,3.13,0,0,1-2.28,1.06,1.8,1.8,0,0,1-2-2V350h1v4.21c0,1.12.57,1.46,1.42,1.46a2.44,2.44,0,0,0,1.9-1V350h1v6.39h-1Z"/><path d="M111.61,355.42a2.7,2.7,0,0,1-2.16,1.11c-1.66,0-2.84-1.27-2.84-3.34s1.16-3.37,2.84-3.37a2.69,2.69,0,0,1,2.16,1.13v-3.4h1v8.82h-1Zm0-3.68a2.41,2.41,0,0,0-1.92-1c-1.28,0-2,1.06-2,2.48s.77,2.46,2,2.46a2.37,2.37,0,0,0,1.92-1Z"/><path d="M119.42,349.26l-1.94,7.11h-1.19l-2.51-8.82H115l2,7.35,2-7.35h.91l2,7.35,2-7.35h1.21l-2.51,8.82h-1.19Z"/><path d="M129.72,355.65a2.75,2.75,0,0,1-2.11.88,2.13,2.13,0,0,1-2.24-2.11,2.1,2.1,0,0,1,2.24-2.11,2.64,2.64,0,0,1,2.11.88V352c0-.86-.68-1.34-1.61-1.34a2.53,2.53,0,0,0-2,.88l-.46-.69a3.37,3.37,0,0,1,2.55-1.06c1.35,0,2.48.61,2.48,2.16v4.39h-1Zm0-1.83A2.12,2.12,0,0,0,128,353a1.4,1.4,0,1,0,0,2.79,2.13,2.13,0,0,0,1.76-.8Z"/><path d="M132.9,355v-4.18h-1.06V350h1.06v-1.74h1V350h1.29v.88h-1.29v4c0,.47.21.82.65.82a.94.94,0,0,0,.67-.27l.29.74a1.61,1.61,0,0,1-1.19.41A1.3,1.3,0,0,1,132.9,355Z"/><path d="M139.4,349.82a2.72,2.72,0,0,1,2.34,1.12l-.66.6a1.89,1.89,0,0,0-1.63-.83,2.49,2.49,0,0,0,0,4.94,1.92,1.92,0,0,0,1.63-.84l.66.61a2.71,2.71,0,0,1-2.34,1.11,3.36,3.36,0,0,1,0-6.71Z"/><path d="M147.45,352.17c0-1.13-.58-1.46-1.44-1.46a2.53,2.53,0,0,0-1.89,1v4.67h-1v-8.82h1v3.36a3.17,3.17,0,0,1,2.29-1.09,1.8,1.8,0,0,1,2,2v4.51h-1Z"/><path d="M156.74,352.87H155v3.5h-1.1v-8.82h3.54a2.57,2.57,0,0,1,2.77,2.66,2.43,2.43,0,0,1-2.29,2.56l2.38,3.6H159Zm.55-4.34H155v3.37h2.31a1.69,1.69,0,1,0,0-3.37Z"/><path d="M166.19,355.47a3.11,3.11,0,0,1-2.28,1.06,1.8,1.8,0,0,1-2-2V350h1v4.21c0,1.12.57,1.46,1.43,1.46a2.43,2.43,0,0,0,1.89-1V350h1v6.39h-1Z"/><path d="M169.16,347.55h1v8.82h-1Z"/><path d="M174.92,349.82c1.93,0,3.07,1.51,3.07,3.43v.25h-5.18a2.25,2.25,0,0,0,2.3,2.21,2.81,2.81,0,0,0,2-.81l.47.65a3.44,3.44,0,0,1-2.54,1,3.16,3.16,0,0,1-3.25-3.36A3.2,3.2,0,0,1,174.92,349.82Zm-2.11,2.95H177a2.07,2.07,0,0,0-2.11-2.12A2.14,2.14,0,0,0,172.81,352.77Z"/><path d="M182.82,348.24a.66.66,0,0,1,.66-.66.67.67,0,0,1,.68.66.68.68,0,0,1-.68.67A.67.67,0,0,1,182.82,348.24ZM183,350h1v6.39h-1Z"/><path d="M190.28,352.19c0-1.12-.57-1.48-1.43-1.48a2.48,2.48,0,0,0-1.89,1v4.67h-1V350h1v.93a3.17,3.17,0,0,1,2.28-1.09,1.82,1.82,0,0,1,2,2.07v4.48h-1Z"/><path d="M192.3,350h1.07l2.13,5.24,2.12-5.24h1.08L196,356.37H195Z"/><path d="M199.36,353.17a3.17,3.17,0,1,1,3.16,3.36A3.14,3.14,0,0,1,199.36,353.17Zm5.28,0a2.15,2.15,0,1,0-2.12,2.48A2.22,2.22,0,0,0,204.64,353.17Z"/><path d="M209.35,353.5l-1.06,1.05v1.82h-1v-8.82h1v5.83l3.36-3.4h1.25l-2.83,2.9,2.85,3.49h-1.27Z"/><path d="M216.57,349.82c1.93,0,3.07,1.51,3.07,3.43v.25h-5.18a2.25,2.25,0,0,0,2.3,2.21,2.81,2.81,0,0,0,2-.81l.47.65a3.44,3.44,0,0,1-2.54,1,3.16,3.16,0,0,1-3.25-3.36A3.2,3.2,0,0,1,216.57,349.82Zm-2.11,2.95h4.2a2.07,2.07,0,0,0-2.11-2.12A2.14,2.14,0,0,0,214.46,352.77Z"/><path d="M221.19,354.81a2.89,2.89,0,0,0,2.1.92c1,0,1.51-.44,1.51-1.06s-.78-.93-1.64-1.14c-1.08-.25-2.31-.54-2.31-1.87,0-1,.86-1.84,2.38-1.84a3.24,3.24,0,0,1,2.37.93l-.47.69a2.48,2.48,0,0,0-1.9-.81c-.88,0-1.42.4-1.42,1s.73.82,1.56,1c1.12.25,2.4.57,2.4,2,0,1.07-.86,1.93-2.51,1.93a3.41,3.41,0,0,1-2.58-1Z"/><path d="M94.35,370.16a3.75,3.75,0,0,0,2.78,1.26c1.57,0,2.08-.85,2.08-1.52,0-1.06-1.07-1.35-2.24-1.67-1.41-.37-3-.77-3-2.5,0-1.45,1.3-2.45,3-2.45a4.16,4.16,0,0,1,3.14,1.23l-.66.81a3.39,3.39,0,0,0-2.56-1.06c-1.06,0-1.81.57-1.81,1.4s1,1.16,2.14,1.46c1.44.38,3.09.83,3.09,2.69,0,1.28-.88,2.59-3.26,2.59A4.39,4.39,0,0,1,93.7,371Z"/><path d="M103.08,365.12v7.12H102v-8.82h1.13l5.08,7v-7h1.09v8.82h-1Z"/><path d="M111.46,370.16a3.73,3.73,0,0,0,2.78,1.26c1.57,0,2.08-.85,2.08-1.52,0-1.06-1.07-1.35-2.24-1.67-1.41-.37-3-.77-3-2.5,0-1.45,1.3-2.45,3-2.45a4.16,4.16,0,0,1,3.14,1.23l-.66.81a3.39,3.39,0,0,0-2.56-1.06c-1.06,0-1.81.57-1.81,1.4s1,1.16,2.14,1.46c1.44.38,3.08.83,3.08,2.69,0,1.28-.87,2.59-3.25,2.59a4.39,4.39,0,0,1-3.39-1.4Z"/><path d="M122.66,370.9v-4.18H121.6v-.87h1.06V364.1h1v1.75H125v.87h-1.3v4c0,.48.21.82.65.82a1,1,0,0,0,.68-.26l.29.74a1.61,1.61,0,0,1-1.19.41A1.31,1.31,0,0,1,122.66,370.9Z"/><path d="M126,369a3.17,3.17,0,1,1,3.16,3.36A3.14,3.14,0,0,1,126,369Zm5.28,0a2.15,2.15,0,1,0-2.12,2.47A2.22,2.22,0,0,0,131.26,369Z"/><path d="M133.91,374.67v-8.82h1v.95a2.68,2.68,0,0,1,2.16-1.11c1.68,0,2.85,1.27,2.85,3.35s-1.17,3.36-2.85,3.36a2.63,2.63,0,0,1-2.16-1.13v3.4Zm2.9-8.09a2.37,2.37,0,0,0-1.91,1v2.88a2.38,2.38,0,0,0,1.91,1c1.28,0,2.05-1.06,2.05-2.47S138.09,366.58,136.81,366.58Z"/><path d="M141.33,364.1a.66.66,0,0,1,.66-.66.67.67,0,0,1,.68.66.69.69,0,0,1-.68.68A.68.68,0,0,1,141.33,364.1Zm.17,1.75h1v6.39h-1Z"/><path d="M147.29,365.69a2.76,2.76,0,0,1,2.35,1.11l-.66.61a1.91,1.91,0,0,0-1.63-.83,2.48,2.48,0,0,0,0,4.93,1.94,1.94,0,0,0,1.63-.83l.66.61a2.76,2.76,0,0,1-2.35,1.11,3.36,3.36,0,0,1,0-6.71Z"/><path d="M154.63,370.9v-4.18h-1.06v-.87h1.06V364.1h1v1.75h1.3v.87h-1.3v4c0,.48.22.82.65.82a1,1,0,0,0,.68-.26l.29.74a1.61,1.61,0,0,1-1.19.41A1.31,1.31,0,0,1,154.63,370.9Z"/><path d="M158,369a3.17,3.17,0,1,1,3.16,3.36A3.14,3.14,0,0,1,158,369Zm5.28,0a2.15,2.15,0,1,0-2.12,2.47A2.22,2.22,0,0,0,163.23,369Z"/><path d="M169.25,370.68a2.91,2.91,0,0,0,2.11.91c1,0,1.51-.44,1.51-1.06s-.78-.92-1.64-1.13c-1.09-.26-2.32-.55-2.32-1.87,0-1,.86-1.84,2.38-1.84a3.22,3.22,0,0,1,2.37.93l-.46.69a2.49,2.49,0,0,0-1.91-.81c-.87,0-1.41.4-1.41,1s.72.82,1.56,1c1.11.25,2.39.57,2.39,2,0,1.07-.86,1.93-2.51,1.93a3.39,3.39,0,0,1-2.58-1Z"/><path d="M178.22,365.69c1.93,0,3.07,1.51,3.07,3.43v.25h-5.17a2.25,2.25,0,0,0,2.3,2.21,2.77,2.77,0,0,0,2-.81l.48.65a3.51,3.51,0,0,1-2.54,1,3.36,3.36,0,0,1-.11-6.71Zm-2.1,2.95h4.19a2.07,2.07,0,0,0-2.1-2.13A2.13,2.13,0,0,0,176.12,368.64Z"/><path d="M187.2,368.06c0-1.12-.57-1.48-1.43-1.48a2.45,2.45,0,0,0-1.89,1v4.67h-1v-6.39h1v.93a3.16,3.16,0,0,1,2.27-1.09,1.82,1.82,0,0,1,2,2.07v4.48h-1Z"/><path d="M194.8,371.29a2.66,2.66,0,0,1-2.15,1.11c-1.67,0-2.85-1.27-2.85-3.35s1.17-3.36,2.85-3.36a2.63,2.63,0,0,1,2.15,1.13v-3.4h1v8.82h-1Zm0-3.68a2.37,2.37,0,0,0-1.92-1c-1.28,0-2,1.06-2,2.47s.77,2.46,2,2.46a2.37,2.37,0,0,0,1.92-1Z"/><path d="M201.35,370.16a3.71,3.71,0,0,0,2.77,1.26c1.58,0,2.08-.85,2.08-1.52,0-1.06-1.07-1.35-2.23-1.67-1.42-.37-3-.77-3-2.5,0-1.45,1.29-2.45,3-2.45a4.15,4.15,0,0,1,3.13,1.23l-.66.81a3.37,3.37,0,0,0-2.55-1.06c-1.06,0-1.82.57-1.82,1.4s1,1.16,2.15,1.46c1.44.38,3.08.83,3.08,2.69,0,1.28-.87,2.59-3.26,2.59a4.36,4.36,0,0,1-3.38-1.4Z"/><path d="M216.52,364.9l-3,7.34h-.45l-3-7.34v7.34H209v-8.82h1.57l2.74,6.72,2.75-6.72h1.57v8.82h-1.09Z"/><path d="M219.79,370.16a3.71,3.71,0,0,0,2.78,1.26c1.57,0,2.08-.85,2.08-1.52,0-1.06-1.08-1.35-2.24-1.67-1.42-.37-3-.77-3-2.5,0-1.45,1.3-2.45,3-2.45a4.14,4.14,0,0,1,3.13,1.23l-.66.81a3.35,3.35,0,0,0-2.55-1.06c-1.06,0-1.81.57-1.81,1.4s1,1.16,2.14,1.46c1.44.38,3.08.83,3.08,2.69,0,1.28-.87,2.59-3.25,2.59a4.37,4.37,0,0,1-3.39-1.4Z"/><g id="Icon-Resource_Compute_Res_Amazon-Lambda_Lambda-Function_48" data-name="Icon-Resource/Compute/Res_Amazon-Lambda_Lambda-Function_48"><path id="Amazon-Lambda-Lambda-Function_Resource-Icon_light-bg" data-name="Amazon-Lambda-Lambda-Function Resource-Icon light-bg" class="cls-7" d="M259.72,189.6a24.18,24.18,0,1,1,24.18-24.18,24.21,24.21,0,0,1-24.18,24.18Zm0-50.78a26.6,26.6,0,1,0,26.6,26.6,26.63,26.63,0,0,0-26.6-26.6ZM251.54,179h-6.48L252.73,163l3.24,6.69Zm2.27-19.39a1.21,1.21,0,0,0-1.09-.68h0a1.22,1.22,0,0,0-1.09.69l-9.58,20.07a1.21,1.21,0,0,0,1.09,1.73h9.16a1.22,1.22,0,0,0,1.1-.69l5-10.6a1.22,1.22,0,0,0,0-1ZM274.38,179h-6.59l-12-25.75a1.2,1.2,0,0,0-1.09-.7h-4.36v-5h8.73L271,173.33a1.21,1.21,0,0,0,1.1.7h2.27Zm1.21-7.4h-2.71L261,145.87a1.21,1.21,0,0,0-1.1-.7H249.15a1.21,1.21,0,0,0-1.21,1.2v7.41a1.21,1.21,0,0,0,1.21,1.21h4.8l12,25.75a1.21,1.21,0,0,0,1.1.7h8.57a1.21,1.21,0,0,0,1.21-1.21v-7.4a1.21,1.21,0,0,0-1.21-1.21Z"/></g><path d="M243.35,205.72h1.55v5.89H248V213h-4.62Z"/><path d="M252.09,212.43a2.19,2.19,0,0,1-1.66.67,1.75,1.75,0,0,1-1.83-1.74,1.66,1.66,0,0,1,1.83-1.67,2.1,2.1,0,0,1,1.66.64v-.73c0-.53-.45-.88-1.15-.88a2.24,2.24,0,0,0-1.54.62l-.52-.93a3.47,3.47,0,0,1,2.3-.82c1.19,0,2.29.48,2.29,2V213h-1.38Zm0-1.37a1.36,1.36,0,0,0-1.11-.46c-.54,0-1,.28-1,.8s.45.77,1,.77a1.36,1.36,0,0,0,1.11-.46Z"/><path d="M261.36,209.65c0-.48-.21-.83-.78-.83a1.39,1.39,0,0,0-1.09.61V213H258.1v-3.32a.72.72,0,0,0-.78-.83,1.38,1.38,0,0,0-1.09.62V213h-1.38v-5.25h1.38v.68a2.31,2.31,0,0,1,1.72-.81,1.38,1.38,0,0,1,1.45,1,2.25,2.25,0,0,1,1.81-1,1.41,1.41,0,0,1,1.55,1.59V213h-1.4Z"/><path d="M264.12,205.72h1.38v2.67a2,2,0,0,1,1.62-.8c1.34,0,2.33,1,2.33,2.76s-1,2.75-2.33,2.75a2,2,0,0,1-1.62-.8V213h-1.38Zm2.57,6.15a1.35,1.35,0,0,0,1.33-1.52,1.36,1.36,0,0,0-1.33-1.53,1.52,1.52,0,0,0-1.19.61v1.86A1.56,1.56,0,0,0,266.69,211.87Z"/><path d="M274.11,212.3a2.05,2.05,0,0,1-1.62.8c-1.33,0-2.33-1-2.33-2.75s1-2.76,2.33-2.76a2,2,0,0,1,1.62.8v-2.67h1.39V213h-1.39Zm0-2.88a1.5,1.5,0,0,0-1.2-.6,1.54,1.54,0,0,0,0,3.05,1.53,1.53,0,0,0,1.2-.59Z"/><path d="M280,212.43a2.19,2.19,0,0,1-1.67.67,1.75,1.75,0,0,1-1.83-1.74,1.66,1.66,0,0,1,1.83-1.67,2.11,2.11,0,0,1,1.67.64v-.73c0-.53-.46-.88-1.16-.88a2.23,2.23,0,0,0-1.53.62l-.52-.93a3.46,3.46,0,0,1,2.29-.82c1.2,0,2.3.48,2.3,2V213H280Zm0-1.37a1.38,1.38,0,0,0-1.11-.46c-.55,0-1,.28-1,.8s.44.77,1,.77a1.38,1.38,0,0,0,1.11-.46Z"/><path d="M243.07,222h-.87v-1.2h.87v-.29a1.69,1.69,0,0,1,1.78-1.82,2.25,2.25,0,0,1,1,.21l-.29,1a.9.9,0,0,0-.44-.11c-.39,0-.66.27-.66.77v.26h1.07V222h-1.07V226h-1.39Z"/><path d="M249.87,225.37a2.47,2.47,0,0,1-1.85.79,1.5,1.5,0,0,1-1.69-1.65v-3.73h1.38V224a.85.85,0,0,0,1,1,1.52,1.52,0,0,0,1.19-.6v-3.55h1.38V226h-1.38Z"/><path d="M256.17,222.85a.85.85,0,0,0-1-1,1.48,1.48,0,0,0-1.19.62V226h-1.38v-5.25H254v.68a2.42,2.42,0,0,1,1.84-.81,1.53,1.53,0,0,1,1.71,1.67V226h-1.39Z"/><path d="M261.37,220.65a2.44,2.44,0,0,1,2.08.94l-.9.85a1.27,1.27,0,0,0-1.11-.56,1.53,1.53,0,0,0,0,3.05,1.32,1.32,0,0,0,1.11-.56l.9.83a2.42,2.42,0,0,1-2.08,1,2.76,2.76,0,1,1,0-5.51Z"/><path d="M264.63,224.73V222h-.87v-1.2h.87v-1.44H266v1.44h1.07V222H266v2.38a.51.51,0,0,0,.48.57.74.74,0,0,0,.48-.15l.29,1a1.65,1.65,0,0,1-1.15.34A1.31,1.31,0,0,1,264.63,224.73Z"/><path d="M267.89,219.18a.83.83,0,0,1,1.66,0,.83.83,0,0,1-1.66,0Zm.15,1.6h1.38V226H268Z"/><path d="M270.45,223.4a2.78,2.78,0,1,1,2.78,2.76A2.66,2.66,0,0,1,270.45,223.4Zm4.12,0a1.35,1.35,0,1,0-1.34,1.53A1.38,1.38,0,0,0,274.57,223.4Z"/><path d="M280.58,222.85a.85.85,0,0,0-1-1,1.48,1.48,0,0,0-1.19.62V226H277v-5.25h1.39v.68a2.4,2.4,0,0,1,1.83-.81,1.52,1.52,0,0,1,1.71,1.67V226h-1.38Z"/><path d="M247.52,419h-3.25l-.45,1.25h-1.7l2.81-7.25h1.93l2.8,7.25H248Zm-2.83-1.34h2.4l-1.19-3.32Z"/><path d="M256.82,416.9c0-.49-.22-.84-.78-.84a1.39,1.39,0,0,0-1.09.61v3.54h-1.39V416.9c0-.49-.22-.84-.79-.84a1.38,1.38,0,0,0-1.08.62v3.53H250.3V415h1.39v.68a2.29,2.29,0,0,1,1.71-.81,1.38,1.38,0,0,1,1.46,1,2.24,2.24,0,0,1,1.81-1,1.4,1.4,0,0,1,1.54,1.59v3.79h-1.39Z"/><path d="M262.73,419.67a2.19,2.19,0,0,1-1.66.67,1.75,1.75,0,0,1-1.83-1.74,1.66,1.66,0,0,1,1.83-1.67,2.14,2.14,0,0,1,1.66.64v-.73c0-.53-.46-.88-1.15-.88a2.24,2.24,0,0,0-1.54.62l-.52-.93a3.47,3.47,0,0,1,2.3-.82c1.19,0,2.29.48,2.29,2v3.39h-1.38Zm0-1.37a1.36,1.36,0,0,0-1.11-.46c-.54,0-1,.28-1,.8s.45.77,1,.77a1.36,1.36,0,0,0,1.11-.46Z"/><path d="M265.26,419.18l2.37-3h-2.37V415h4.24v1L267.1,419h2.44v1.2h-4.28Z"/><path d="M270.36,417.58a2.78,2.78,0,1,1,2.77,2.76A2.66,2.66,0,0,1,270.36,417.58Zm4.12,0a1.38,1.38,0,0,0-1.35-1.52,1.54,1.54,0,0,0,0,3.05A1.39,1.39,0,0,0,274.48,417.58Z"/><path d="M280.49,417a.85.85,0,0,0-1-1,1.46,1.46,0,0,0-1.19.62v3.53h-1.39V415h1.39v.68a2.38,2.38,0,0,1,1.83-.81,1.52,1.52,0,0,1,1.71,1.67v3.71h-1.38Z"/><path d="M232.72,429.65a3.67,3.67,0,0,1,3.81-3.75,3.37,3.37,0,0,1,3.09,1.77l-1.33.65a2,2,0,0,0-1.76-1.05,2.39,2.39,0,0,0,0,4.76,2,2,0,0,0,1.76-1l1.33.64a3.38,3.38,0,0,1-3.09,1.78A3.67,3.67,0,0,1,232.72,429.65Z"/><path d="M240.51,426h1.38v7.25h-1.38Z"/><path d="M242.93,430.64a2.78,2.78,0,1,1,2.77,2.76A2.66,2.66,0,0,1,242.93,430.64Zm4.12,0a1.36,1.36,0,1,0-1.35,1.53A1.38,1.38,0,0,0,247.05,430.64Z"/><path d="M253.06,432.61a2.47,2.47,0,0,1-1.85.79,1.5,1.5,0,0,1-1.7-1.65V428h1.38v3.18a.85.85,0,0,0,1,1,1.54,1.54,0,0,0,1.2-.6V428h1.38v5.25h-1.38Z"/><path d="M259.42,432.6a2,2,0,0,1-1.62.8c-1.33,0-2.33-1-2.33-2.75s1-2.76,2.33-2.76a2,2,0,0,1,1.62.8V426h1.39v7.25h-1.39Zm0-2.89a1.52,1.52,0,0,0-1.19-.59,1.54,1.54,0,0,0,0,3.05,1.5,1.5,0,0,0,1.19-.6Z"/><path d="M266.5,428.29l-1.27,5h-1.64L261.51,426h1.73l1.28,5.24L265.9,426h1.2l1.38,5.24,1.26-5.24h1.74l-2.07,7.25h-1.64Z"/><path d="M274.9,432.73a2.19,2.19,0,0,1-1.67.67,1.75,1.75,0,0,1-1.83-1.74,1.66,1.66,0,0,1,1.83-1.67,2.11,2.11,0,0,1,1.67.64v-.73c0-.53-.46-.88-1.16-.88a2.23,2.23,0,0,0-1.53.62l-.52-.93a3.46,3.46,0,0,1,2.29-.82c1.2,0,2.3.48,2.3,2v3.39H274.9Zm0-1.37a1.38,1.38,0,0,0-1.11-.46c-.55,0-1,.28-1,.79s.44.78,1,.78a1.41,1.41,0,0,0,1.11-.46Z"/><path d="M277.92,432v-2.74h-.87V428h.87v-1.44h1.39V428h1.07v1.21h-1.07v2.37a.51.51,0,0,0,.48.57.72.72,0,0,0,.48-.15l.3,1a1.7,1.7,0,0,1-1.16.34A1.31,1.31,0,0,1,277.92,432Z"/><path d="M283.78,427.89a2.42,2.42,0,0,1,2.07.94l-.9.85a1.27,1.27,0,0,0-1.11-.56,1.53,1.53,0,0,0,0,3.05,1.32,1.32,0,0,0,1.11-.56l.9.83a2.38,2.38,0,0,1-2.07,1,2.76,2.76,0,1,1,0-5.51Z"/><path d="M290.32,430.07c0-.73-.38-.95-1-.95a1.51,1.51,0,0,0-1.2.62v3.53h-1.38V426h1.38v2.68a2.44,2.44,0,0,1,1.85-.81,1.51,1.51,0,0,1,1.71,1.65v3.73h-1.38Z"/><path d="M253.56,441.08h1.38v.71a2.26,2.26,0,0,1,1.67-.83v1.35a1.25,1.25,0,0,0-.38-.05,1.76,1.76,0,0,0-1.29.6v3.47h-1.38Z"/><path d="M261,445.67a2.47,2.47,0,0,1-1.85.79,1.51,1.51,0,0,1-1.7-1.65v-3.73h1.39v3.18c0,.73.38,1,1,1a1.53,1.53,0,0,0,1.2-.6v-3.55h1.38v5.25H261Z"/><path d="M263.78,439.07h1.38v7.26h-1.38Z"/><path d="M268.91,440.94a2.64,2.64,0,0,1,2.63,2.9v.3h-3.9a1.41,1.41,0,0,0,1.51,1.22,2.1,2.1,0,0,0,1.4-.52l.61.89a3.26,3.26,0,0,1-2.16.73,2.76,2.76,0,1,1-.09-5.52Zm-1.29,2.27h2.59a1.23,1.23,0,0,0-1.3-1.17A1.26,1.26,0,0,0,267.62,443.21Z"/><path d="M87.87,508.82H85.74v-1.36h5.79v1.36H89.42v5.9H87.87Z"/><path d="M91.09,512.09a2.78,2.78,0,1,1,2.77,2.76A2.66,2.66,0,0,1,91.09,512.09Zm4.12,0a1.36,1.36,0,1,0-1.35,1.53A1.39,1.39,0,0,0,95.21,512.09Z"/><path d="M97.67,516.72v-7.26h1.38v.67a2.05,2.05,0,0,1,1.62-.8c1.35,0,2.33,1,2.33,2.76s-1,2.76-2.33,2.76a2,2,0,0,1-1.62-.81v2.68Zm2.57-6.16a1.55,1.55,0,0,0-1.19.6V513a1.58,1.58,0,0,0,1.19.6,1.55,1.55,0,0,0,0-3.06Z"/><path d="M103.9,507.86a.83.83,0,1,1,.82.83A.83.83,0,0,1,103.9,507.86Zm.14,1.6h1.38v5.26H104Z"/><path d="M109.24,509.33a2.46,2.46,0,0,1,2.08.95l-.91.85a1.28,1.28,0,0,0-1.11-.57,1.53,1.53,0,0,0,0,3.06,1.32,1.32,0,0,0,1.11-.57l.91.84a2.44,2.44,0,0,1-2.08,1,2.76,2.76,0,1,1,0-5.52Z"/><path d="M191.78,736.5h-2.13v-1.36h5.79v1.36h-2.11v5.9h-1.55Z"/><path d="M195,739.76a2.78,2.78,0,1,1,2.77,2.77A2.66,2.66,0,0,1,195,739.76Zm4.12,0a1.36,1.36,0,1,0-1.35,1.54A1.39,1.39,0,0,0,199.12,739.76Z"/><path d="M201.58,744.4v-7.26H203v.66a2,2,0,0,1,1.62-.79c1.35,0,2.33,1,2.33,2.75s-1,2.77-2.33,2.77a2,2,0,0,1-1.62-.81v2.68Zm2.57-6.16a1.55,1.55,0,0,0-1.19.6v1.86a1.61,1.61,0,0,0,1.19.6,1.55,1.55,0,0,0,0-3.06Z"/><path d="M207.81,735.54a.83.83,0,1,1,.82.83A.83.83,0,0,1,207.81,735.54Zm.14,1.6h1.38v5.26H208Z"/><path d="M213.15,737a2.45,2.45,0,0,1,2.08,1l-.91.85a1.28,1.28,0,0,0-1.11-.57,1.53,1.53,0,0,0,0,3.06,1.32,1.32,0,0,0,1.11-.57l.91.84a2.42,2.42,0,0,1-2.08,1,2.76,2.76,0,1,1,0-5.52Z"/><path d="M196.46,841.92a2.64,2.64,0,0,1,2.64,2.9v.3h-3.91a1.42,1.42,0,0,0,1.51,1.22,2.16,2.16,0,0,0,1.4-.52l.61.89a3.26,3.26,0,0,1-2.16.73,2.76,2.76,0,1,1-.09-5.52Zm-1.29,2.27h2.59a1.23,1.23,0,0,0-1.3-1.17A1.25,1.25,0,0,0,195.17,844.19Z"/><path d="M206.61,844c0-.49-.21-.84-.78-.84a1.41,1.41,0,0,0-1.09.61v3.55h-1.39V844c0-.49-.22-.84-.78-.84a1.43,1.43,0,0,0-1.09.62v3.54H200.1v-5.26h1.38v.69a2.28,2.28,0,0,1,1.72-.82,1.4,1.4,0,0,1,1.46,1,2.22,2.22,0,0,1,1.8-1,1.41,1.41,0,0,1,1.55,1.59v3.8h-1.4Z"/><path d="M212.52,846.76a2.16,2.16,0,0,1-1.66.68A1.75,1.75,0,0,1,209,845.7a1.67,1.67,0,0,1,1.83-1.68,2.11,2.11,0,0,1,1.66.64v-.72c0-.54-.45-.89-1.15-.89a2.2,2.2,0,0,0-1.53.62l-.53-.92a3.45,3.45,0,0,1,2.3-.83c1.2,0,2.3.48,2.3,2v3.4h-1.39Zm0-1.37a1.38,1.38,0,0,0-1.11-.45c-.54,0-1,.28-1,.79s.45.77,1,.77a1.38,1.38,0,0,0,1.11-.45Z"/><path d="M215.14,840.45a.83.83,0,1,1,.82.83A.83.83,0,0,1,215.14,840.45Zm.14,1.6h1.38v5.26h-1.38Z"/><path d="M218,840.05h1.38v7.26H218Z"/><g id="Icon-Resource_Business-Applications_Res_Amazon-Simple-Email-Service_Email_48" data-name="Icon-Resource/Business-Applications/Res_Amazon-Simple-Email-Service_Email_48"><path id="Amazon-Amazon-Simple-Email-Service-Email_Resource-Icon_light-bg" data-name="Amazon-Amazon-Simple-Email-Service-Email Resource-Icon light-bg" class="cls-8" d="M189.49,795.1a5.88,5.88,0,0,0-.05.8v.18a1.49,1.49,0,0,0,0,.21,1.53,1.53,0,0,1-1.15.56c-.74,0-1.11-.76-1.11-2.27a8,8,0,0,1,.54-3.15c.36-.83.81-1.24,1.35-1.24a1.87,1.87,0,0,1,1,.4Zm-6.09,7.08a8.16,8.16,0,0,0,7.33.25v-2a9,9,0,0,1-3.11.6,4.63,4.63,0,0,1-3.77-1.59,7,7,0,0,1-1.32-4.61,11.28,11.28,0,0,1,.87-4.52,7.75,7.75,0,0,1,2.47-3.21,5.81,5.81,0,0,1,3.59-1.19,5.06,5.06,0,0,1,3.92,1.45,6,6,0,0,1,1.35,4.25,10.28,10.28,0,0,1-.3,2.54,5.69,5.69,0,0,1-.85,1.94,1.48,1.48,0,0,1-1.14.77.58.58,0,0,1-.49-.24,1,1,0,0,1-.18-.63,3.61,3.61,0,0,1,0-.62l1-6.91h-2.06l-.27.78a2.44,2.44,0,0,0-2-1.11,2.72,2.72,0,0,0-1.88.85,6.22,6.22,0,0,0-1.47,2.4,9.53,9.53,0,0,0-.58,3.41,5.28,5.28,0,0,0,.71,3,2.37,2.37,0,0,0,2.09,1,3.14,3.14,0,0,0,1.34-.33,3.94,3.94,0,0,0,1.23-.91,2.49,2.49,0,0,0,1,.89,3,3,0,0,0,1.37.31,3.79,3.79,0,0,0,2.42-.89,6,6,0,0,0,1.74-2.53,10.33,10.33,0,0,0,.64-3.78,9.36,9.36,0,0,0-.86-4.16,6.14,6.14,0,0,0-2.55-2.69,8.06,8.06,0,0,0-4-.94,8.66,8.66,0,0,0-4.76,1.37,9.75,9.75,0,0,0-3.46,3.9,12.59,12.59,0,0,0-1.29,5.81,10.43,10.43,0,0,0,.86,4.42,6.31,6.31,0,0,0,2.5,2.84Zm21.87,14.28a1.24,1.24,0,0,0,.77.28,1.26,1.26,0,0,0,.78-.28l3.66-3.06,17.6,14.67H184l17.6-14.67Zm7.1-4.63L230.22,797V826.7Zm19.06-18.66h-32v2.41h28.63L206,814l-12.85-10.72-1.55,1.86,8.07,6.73L181.86,826.7V804.48h-2.41v24.8a1.21,1.21,0,0,0,1.21,1.21h50.77a1.21,1.21,0,0,0,1.21-1.21V794.37a1.21,1.21,0,0,0-1.21-1.2Z"/></g><path d="M81.72,645.18l-2,5.22H79l-2-5.22v5.22H75.41v-7.26h2.16l1.77,4.53,1.76-4.53h2.17v7.26H81.72Z"/><path d="M87.06,645a2.64,2.64,0,0,1,2.64,2.9v.3H85.79a1.41,1.41,0,0,0,1.51,1.22,2.15,2.15,0,0,0,1.41-.52l.61.89a3.29,3.29,0,0,1-2.17.73,2.76,2.76,0,1,1-.09-5.52Zm-1.29,2.27h2.59a1.22,1.22,0,0,0-1.3-1.17A1.26,1.26,0,0,0,85.77,647.28Z"/><path d="M90.84,648.75a3,3,0,0,0,1.82.71c.6,0,.88-.2.88-.53s-.46-.5-1.06-.62c-.9-.17-2.06-.39-2.06-1.64,0-.88.77-1.66,2.15-1.66a3.37,3.37,0,0,1,2.12.72l-.55.95a2.23,2.23,0,0,0-1.56-.61c-.5,0-.83.18-.83.49s.42.45,1,.57c.91.17,2.12.41,2.12,1.71,0,1-.82,1.69-2.28,1.69a3.51,3.51,0,0,1-2.35-.82Z"/><path d="M96,648.75a3,3,0,0,0,1.82.71c.6,0,.88-.2.88-.53s-.46-.5-1.06-.62c-.9-.17-2.06-.39-2.06-1.64,0-.88.77-1.66,2.15-1.66a3.37,3.37,0,0,1,2.12.72l-.55.95a2.23,2.23,0,0,0-1.56-.61c-.5,0-.83.18-.83.49s.42.45,1,.57c.91.17,2.12.41,2.12,1.71,0,1-.82,1.69-2.28,1.69a3.51,3.51,0,0,1-2.35-.82Z"/><path d="M104.24,649.86a2.19,2.19,0,0,1-1.67.67,1.75,1.75,0,0,1-1.83-1.74,1.67,1.67,0,0,1,1.83-1.68,2.12,2.12,0,0,1,1.67.65V647c0-.54-.46-.88-1.16-.88a2.17,2.17,0,0,0-1.53.62l-.52-.93a3.46,3.46,0,0,1,2.29-.83c1.2,0,2.3.48,2.3,2v3.39h-1.38Zm0-1.38a1.4,1.4,0,0,0-1.11-.45c-.55,0-1,.28-1,.79s.44.78,1,.78a1.41,1.41,0,0,0,1.11-.46Z"/><path d="M107.5,650.75a2.09,2.09,0,0,0,1.64.65,1.28,1.28,0,0,0,1.45-1.33v-.53a2.05,2.05,0,0,1-1.62.83c-1.32,0-2.32-.93-2.32-2.68s1-2.68,2.32-2.68a2,2,0,0,1,1.62.81v-.67H112V650c0,2-1.54,2.49-2.84,2.49a3.16,3.16,0,0,1-2.26-.78Zm3.09-3.91a1.5,1.5,0,0,0-1.19-.6,1.46,1.46,0,0,0,0,2.9,1.53,1.53,0,0,0,1.19-.6Z"/><path d="M115.74,645a2.64,2.64,0,0,1,2.63,2.9v.3h-3.91a1.42,1.42,0,0,0,1.52,1.22,2.12,2.12,0,0,0,1.4-.52l.61.89a3.27,3.27,0,0,1-2.17.73,2.76,2.76,0,0,1-.08-5.52Zm-1.3,2.27H117a1.22,1.22,0,0,0-1.29-1.17A1.28,1.28,0,0,0,114.44,647.28Z"/><g id="Icon-Architecture_64_Arch_AWS-Tools-and-SDK_64" data-name="Icon-Architecture/64/Arch_AWS-Tools-and-SDK_64"><g id="Icon-Architecture-BG_64_Developer-Tools-2" data-name="Icon-Architecture-BG/64/Developer-Tools"><rect id="Rectangle-3" data-name="Rectangle" class="cls-9" x="316.59" y="138.82" width="55.95" height="55.95"/></g><path id="AWS-Tools-and-SDK_Icon_64_Squid" data-name="AWS-Tools-and-SDK Icon 64 Squid" class="cls-5" d="M360,176.18l-14.69,8.3v-5.8h-1.4v5.8l-14.69-8.3V158.26l4.53,2.83.74-1.18L329.86,157l15.05-8.33L359.24,157l-5.22,2.9.68,1.22,5.26-2.92ZM361,156.4l-15.75-9.1a.71.71,0,0,0-.69,0l-16.42,9.09a.69.69,0,0,0-.37.61v19.59a.69.69,0,0,0,.36.6l16.09,9.1a.69.69,0,0,0,.68,0l16.09-9.1a.69.69,0,0,0,.36-.6V157a.7.7,0,0,0-.35-.6Zm-8.75,15-7,4v-8.25l7-3.5Zm-7.48-5.53L338,162l6.57-3.48,6.94,4.05Zm-.91,9.57-7-4V163l7,4ZM353.32,162l-8.4-4.89a.69.69,0,0,0-.68,0l-8.39,4.45a.7.7,0,0,0-.37.62v9.69a.71.71,0,0,0,.35.61l8.39,4.84a.66.66,0,0,0,.7,0l8.39-4.84a.71.71,0,0,0,.35-.61V162.6a.72.72,0,0,0-.34-.61Z"/></g><path d="M311.94,205.72h3.39a2.33,2.33,0,1,1,0,4.65h-1.85V213h-1.54Zm3.18,1.32h-1.64v2h1.64a1,1,0,1,0,0-2Z"/><path d="M319.15,213.88a.7.7,0,0,0,.73-.38l.19-.45-2.13-5.33h1.48l1.37,3.65,1.37-3.65h1.49l-2.47,6.11a1.92,1.92,0,0,1-2,1.28,4.06,4.06,0,0,1-.68-.08l.2-1.24A1.33,1.33,0,0,0,319.15,213.88Z"/><path d="M324.55,211.67v-2.74h-.87v-1.21h.87v-1.44h1.39v1.44H327v1.21h-1.07v2.37c0,.32.17.57.48.57a.74.74,0,0,0,.48-.15l.29,1.05a1.75,1.75,0,0,1-1.15.33A1.31,1.31,0,0,1,324.55,211.67Z"/><path d="M331.51,209.77c0-.72-.38-1-1-1a1.49,1.49,0,0,0-1.19.62V213H328v-7.25h1.39v2.68a2.43,2.43,0,0,1,1.85-.81,1.51,1.51,0,0,1,1.7,1.65V213h-1.38Z"/><path d="M333.93,210.34a2.78,2.78,0,1,1,2.77,2.76A2.66,2.66,0,0,1,333.93,210.34Zm4.12,0a1.36,1.36,0,1,0-1.35,1.53A1.38,1.38,0,0,0,338.05,210.34Z"/><path d="M344.06,209.8a.85.85,0,0,0-1-1,1.5,1.5,0,0,0-1.2.62V213h-1.38v-5.25h1.38v.68a2.42,2.42,0,0,1,1.84-.81,1.52,1.52,0,0,1,1.71,1.67V213h-1.38Z"/><path d="M349.36,210.33a7.57,7.57,0,0,1,1.72-4.81l.87.65a8,8,0,0,0-1.1,4.16,7.85,7.85,0,0,0,1.1,4.13l-.87.68A7.55,7.55,0,0,1,349.36,210.33Z"/><path d="M352.83,205.72h1.38v2.67a2,2,0,0,1,1.62-.8c1.34,0,2.33,1,2.33,2.76s-1,2.75-2.33,2.75a2.05,2.05,0,0,1-1.62-.8V213h-1.38Zm2.57,6.15a1.36,1.36,0,0,0,1.34-1.52,1.37,1.37,0,0,0-1.34-1.53,1.52,1.52,0,0,0-1.19.61v1.86A1.56,1.56,0,0,0,355.4,211.87Z"/><path d="M358.87,210.34a2.78,2.78,0,1,1,2.77,2.76A2.66,2.66,0,0,1,358.87,210.34Zm4.12,0a1.38,1.38,0,0,0-1.35-1.52,1.54,1.54,0,0,0,0,3.05A1.39,1.39,0,0,0,363,210.34Z"/><path d="M365.73,211.67v-2.74h-.88v-1.21h.88v-1.44h1.39v1.44h1.06v1.21h-1.06v2.37c0,.32.17.57.48.57a.76.76,0,0,0,.48-.15l.29,1.05a1.75,1.75,0,0,1-1.15.33A1.31,1.31,0,0,1,365.73,211.67Z"/><path d="M368.79,210.34a2.78,2.78,0,1,1,2.78,2.76A2.66,2.66,0,0,1,368.79,210.34Zm4.13,0a1.36,1.36,0,1,0-1.35,1.53A1.38,1.38,0,0,0,372.92,210.34Z"/><path d="M374.88,206.17l.87-.65a7.52,7.52,0,0,1,0,9.62l-.87-.68a7.68,7.68,0,0,0,1.11-4.13A7.85,7.85,0,0,0,374.88,206.17Z"/><line class="cls-10" x1="84.59" y1="267.25" x2="206.75" y2="267.25"/><polygon points="87.91 271.34 88.59 270.61 84.98 267.25 88.59 263.9 87.91 263.17 83.51 267.25 87.91 271.34"/><line class="cls-10" x1="83.51" y1="280.04" x2="205.66" y2="280.04"/><polygon points="202.35 284.13 201.67 283.4 205.28 280.04 201.67 276.69 202.35 275.95 206.75 280.04 202.35 284.13"/><line class="cls-10" x1="79.92" y1="166.13" x2="232.04" y2="166.13"/><polygon points="228.72 170.22 228.04 169.49 231.65 166.14 228.04 162.78 228.72 162.05 233.12 166.14 228.72 170.22"/><polyline class="cls-10" points="102.73 414.44 102.73 386.83 226.39 386.83"/><polygon points="106.83 411.13 106.09 410.45 102.74 414.06 99.38 410.45 98.65 411.13 102.74 415.53 106.83 411.13"/><polyline class="cls-10" points="52.09 136.93 52.09 55.37 102.13 55.37"/><polygon points="56.17 133.62 55.44 132.94 52.09 136.55 48.73 132.94 48 133.62 52.09 138.02 56.17 133.62"/><line class="cls-10" x1="206.75" y1="782.44" x2="206.75" y2="756.89"/><polygon points="210.84 779.13 210.1 778.45 206.75 782.06 203.39 778.45 202.66 779.13 206.75 783.53 210.84 779.13"/><line class="cls-10" x1="262.39" y1="345.39" x2="262.39" y2="240.55"/><polygon points="266.48 342.08 265.75 341.39 262.39 345.01 259.04 341.39 258.3 342.08 262.39 346.48 266.48 342.08"/><polyline class="cls-10" points="356.45 436.82 356.45 386.83 298.76 386.83"/><polygon points="360.54 433.51 359.81 432.83 356.45 436.44 353.1 432.83 352.37 433.51 356.45 437.91 360.54 433.51"/><polyline class="cls-10" points="206.75 655.51 206.75 525.69 316.59 525.69"/><polygon points="210.84 652.2 210.1 651.52 206.75 655.13 203.39 651.52 202.66 652.2 206.75 656.6 210.84 652.2"/><line class="cls-10" x1="98.5" y1="525.69" x2="98.5" y2="566.17"/><polygon points="94.41 562.86 95.15 562.17 98.5 565.78 101.86 562.17 102.59 562.86 98.5 567.25 94.41 562.86"/><g id="Icon-Resource_Managment-Governance_Res_Amazon-Cloudwatch_Rule_48" data-name="Icon-Resource/Managment-Governance/Res_Amazon-Cloudwatch_Rule_48"><path id="Amazon-Cloudwatch_rule_Resource-Icon_light-bg" data-name="Amazon-Cloudwatch rule Resource-Icon light-bg" class="cls-3" d="M235.84,349.74v15.08l13.32,0,3.22,3.18L289,368l0-15.08H253.36l-3.2-3.15Zm14.31,12.69-11.89,0V352.16h10.91l3.2,3.15h34.14l0,10.25-33.16.05Zm29.09-3.68L277,356.46l-1.71,1.7,2.29,2.3-2.3,2.3,1.71,1.71,2.3-2.3,2.3,2.31,1.71-1.71-2.3-2.31,2.3-2.3-1.71-1.71Zm-43.45,7.88v15.11h13.37l3.2,3.17,36.58,0,0-15.06H253.35l-3.12-3.19ZM238.2,369h11l3.12,3.2h34.18v10.23H253.36l-3.21-3.17h-12Zm38,8.84-1.35-1.35-1.71,1.71,2.92,2.92,7.17-6-1.55-1.86Zm-40.4,5.65v15.12l13.4,0,3.21,3.13,36.53.06v-15.1H253.36l-3.28-3.19ZM238.2,386h10.89l3.28,3.19h34.15V399.4l-33.13-.06-3.21-3.13-12,0Zm37.7,8.78-1.35-1.35-1.71,1.71,2.92,2.92,7.17-6-1.55-1.86Z"/></g><path d="M212.09,481h-3.24l-.46,1.25h-1.7L209.5,475h1.94l2.79,7.26h-1.68Zm-2.83-1.34h2.4l-1.19-3.33Z"/><path d="M221.39,479c0-.49-.22-.84-.78-.84a1.41,1.41,0,0,0-1.09.61v3.55h-1.39V479c0-.49-.22-.84-.78-.84a1.41,1.41,0,0,0-1.09.62v3.54h-1.38V477h1.38v.69a2.28,2.28,0,0,1,1.72-.82,1.38,1.38,0,0,1,1.45,1,2.25,2.25,0,0,1,1.81-1,1.4,1.4,0,0,1,1.54,1.59v3.8h-1.39Z"/><path d="M227.3,481.75a2.19,2.19,0,0,1-1.66.67,1.75,1.75,0,0,1-1.83-1.74,1.67,1.67,0,0,1,1.83-1.68,2.11,2.11,0,0,1,1.66.65v-.73c0-.54-.45-.88-1.15-.88a2.2,2.2,0,0,0-1.54.62l-.52-.93a3.48,3.48,0,0,1,2.3-.83c1.19,0,2.29.48,2.29,2v3.39H227.3Zm0-1.38a1.39,1.39,0,0,0-1.11-.45c-.54,0-1,.28-1,.79s.45.77,1,.77a1.39,1.39,0,0,0,1.11-.45Z"/><path d="M229.83,481.26l2.37-3h-2.37V477h4.24v1l-2.4,3h2.44v1.21h-4.28Z"/><path d="M234.93,479.66a2.78,2.78,0,1,1,2.78,2.76A2.67,2.67,0,0,1,234.93,479.66Zm4.13,0a1.36,1.36,0,1,0-1.35,1.53A1.4,1.4,0,0,0,239.06,479.66Z"/><path d="M245.06,479.11a.85.85,0,0,0-1-1,1.51,1.51,0,0,0-1.19.62v3.54h-1.38V477h1.38v.69a2.4,2.4,0,0,1,1.83-.82,1.53,1.53,0,0,1,1.71,1.68v3.71h-1.38Z"/><path d="M207.81,493.15a3.2,3.2,0,0,0,2.31,1c.85,0,1.26-.4,1.26-.82s-.63-.73-1.47-.92c-1.18-.27-2.71-.6-2.71-2.22,0-1.21,1.05-2.19,2.76-2.19a4,4,0,0,1,2.82,1l-.85,1.14a3.1,3.1,0,0,0-2.08-.8c-.7,0-1.07.31-1.07.74s.61.64,1.45.84c1.19.27,2.72.63,2.72,2.24,0,1.33-.95,2.33-2.91,2.33a4.22,4.22,0,0,1-3.08-1.15Z"/><path d="M215.54,490.47v4.88H214v-7.26h1.59l3.36,4.7v-4.7h1.55v7.26H219Z"/><path d="M222.27,493.15a3.22,3.22,0,0,0,2.31,1c.85,0,1.26-.4,1.26-.82s-.63-.73-1.47-.92c-1.18-.27-2.7-.6-2.7-2.22,0-1.21,1-2.19,2.75-2.19a4.06,4.06,0,0,1,2.83,1l-.86,1.14a3.08,3.08,0,0,0-2.08-.8c-.7,0-1.07.31-1.07.74s.61.64,1.45.84c1.2.27,2.72.63,2.72,2.24,0,1.33-.95,2.33-2.9,2.33a4.18,4.18,0,0,1-3.08-1.15Z"/><g id="Icon-Architecture_64_Arch_AWS-Simple-Notification-Service_64" data-name="Icon-Architecture/64/Arch_AWS-Simple-Notification-Service_64"><g id="Icon-Architecture-BG_64_Application-Integration" data-name="Icon-Architecture-BG/64/Application-Integration"><rect id="Rectangle-4" data-name="Rectangle" class="cls-11" x="142.48" y="443.4" width="55.95" height="55.95"/></g><path id="AWS-Simple-Notification-Service_Icon_64_Squid" data-name="AWS-Simple-Notification-Service Icon 64 Squid" class="cls-5" d="M154.37,470a1.4,1.4,0,1,1-1.4,1.4,1.4,1.4,0,0,1,1.4-1.4Zm16.78,18.18a17,17,0,0,1-16.65-14,2.79,2.79,0,0,0,2.57-2.08h4.29v-1.4h-4.29a2.8,2.8,0,0,0-2.56-2.09,17.26,17.26,0,0,1,16.64-14,16.66,16.66,0,0,1,9.4,3.37l.8-1.15a18,18,0,0,0-10.2-3.62A18.69,18.69,0,0,0,153,468.94a2.78,2.78,0,0,0,0,4.87,18.46,18.46,0,0,0,18.14,15.75,18.82,18.82,0,0,0,10.9-3.63l-.81-1.13a17.44,17.44,0,0,1-10.09,3.36Zm-7.62-19.27a18.55,18.55,0,0,0,4.13.39,19.32,19.32,0,0,0,3.93-.35l-3.16,6.33a.67.67,0,0,0-.07.31v3.12a8.34,8.34,0,0,1-2.1,1.07v-4.19a.66.66,0,0,0-.06-.27Zm4.13-2.41c2.81,0,4.32.42,4.78.7-.46.28-2,.7-4.78.7s-4.32-.42-4.79-.7c.47-.28,2-.7,4.79-.7Zm-2.1,14.69h.79a8.54,8.54,0,0,0,2.9-1.38l.18-.12a.71.71,0,0,0,.33-.59v-3.33l3.88-7.78a1.13,1.13,0,0,0,.31-.78c0-1.82-3.94-2.1-6.29-2.1s-6.3.28-6.3,2.1a1.16,1.16,0,0,0,.23.68l3.27,7.85v4.76a.7.7,0,0,0,.7.7Zm20.28-.7a1.4,1.4,0,1,1-1.4,1.4,1.4,1.4,0,0,1,1.4-1.4Zm0-21a1.4,1.4,0,1,1-1.4,1.4,1.4,1.4,0,0,1,1.4-1.4Zm1.4,10.49a1.4,1.4,0,1,1-1.4,1.4,1.4,1.4,0,0,1,1.4-1.4Zm-7,2.1h4.29a2.8,2.8,0,1,0,0-1.4h-4.29v-9.09h2.89a2.8,2.8,0,1,0,0-1.4h-3.59a.7.7,0,0,0-.7.7v9.79H174v1.4h4.9v9.79a.7.7,0,0,0,.7.7h3.59a2.8,2.8,0,1,0,0-1.4h-2.89Z"/></g><path d="M320.41,713.41h-3.25l-.45,1.25H315l2.81-7.26h1.93l2.8,7.26h-1.69Zm-2.83-1.34H320l-1.2-3.33Z"/><path d="M329.71,711.34c0-.49-.22-.84-.78-.84a1.4,1.4,0,0,0-1.09.61v3.55h-1.39v-3.32c0-.49-.22-.84-.79-.84a1.43,1.43,0,0,0-1.09.62v3.54h-1.38V709.4h1.38v.69a2.3,2.3,0,0,1,1.72-.82,1.38,1.38,0,0,1,1.46,1,2.24,2.24,0,0,1,1.81-1,1.4,1.4,0,0,1,1.54,1.59v3.8h-1.39Z"/><path d="M335.62,714.11a2.16,2.16,0,0,1-1.67.68,1.75,1.75,0,0,1-1.82-1.74,1.66,1.66,0,0,1,1.82-1.68,2.15,2.15,0,0,1,1.67.64v-.73c0-.53-.46-.88-1.15-.88a2.24,2.24,0,0,0-1.54.62l-.52-.92a3.43,3.43,0,0,1,2.3-.83c1.19,0,2.29.48,2.29,2v3.4h-1.38Zm0-1.37a1.4,1.4,0,0,0-1.11-.46c-.54,0-1,.29-1,.8s.45.77,1,.77a1.39,1.39,0,0,0,1.11-.45Z"/><path d="M338.15,713.62l2.37-3h-2.37V709.4h4.24v1L340,713.45h2.45v1.21h-4.28Z"/><path d="M343.25,712a2.78,2.78,0,1,1,2.77,2.77A2.66,2.66,0,0,1,343.25,712Zm4.12,0A1.39,1.39,0,0,0,346,710.5a1.55,1.55,0,0,0,0,3.06A1.39,1.39,0,0,0,347.37,712Z"/><path d="M353.38,711.48a.85.85,0,0,0-1-1,1.53,1.53,0,0,0-1.2.62v3.54h-1.38V709.4h1.38v.69a2.42,2.42,0,0,1,1.84-.82,1.53,1.53,0,0,1,1.71,1.68v3.71h-1.38Z"/><path d="M316.13,725.52a3.2,3.2,0,0,0,2.31,1c.85,0,1.26-.41,1.26-.82s-.63-.73-1.47-.92c-1.19-.28-2.71-.6-2.71-2.22,0-1.21,1-2.19,2.75-2.19a4,4,0,0,1,2.83,1l-.86,1.13a3.12,3.12,0,0,0-2.08-.79c-.69,0-1.06.3-1.06.74s.61.64,1.45.84c1.19.27,2.72.63,2.72,2.24,0,1.33-.95,2.33-2.91,2.33a4.18,4.18,0,0,1-3.08-1.16Z"/><path d="M323.86,722.84v4.88h-1.55v-7.26h1.59l3.36,4.7v-4.7h1.55v7.26h-1.49Z"/><path d="M330.59,725.52a3.2,3.2,0,0,0,2.31,1c.85,0,1.26-.41,1.26-.82s-.63-.73-1.47-.92c-1.18-.28-2.71-.6-2.71-2.22,0-1.21,1-2.19,2.75-2.19a4,4,0,0,1,2.83,1l-.86,1.13a3.09,3.09,0,0,0-2.07-.79c-.7,0-1.07.3-1.07.74s.61.64,1.45.84c1.19.27,2.72.63,2.72,2.24,0,1.33-1,2.33-2.91,2.33a4.18,4.18,0,0,1-3.08-1.16Z"/><g id="Icon-Architecture_64_Arch_AWS-Simple-Notification-Service_64-2" data-name="Icon-Architecture/64/Arch_AWS-Simple-Notification-Service_64"><g id="Icon-Architecture-BG_64_Application-Integration-2" data-name="Icon-Architecture-BG/64/Application-Integration"><rect id="Rectangle-5" data-name="Rectangle" class="cls-12" x="250.8" y="675.77" width="55.95" height="55.95"/></g><path id="AWS-Simple-Notification-Service_Icon_64_Squid-2" data-name="AWS-Simple-Notification-Service Icon 64 Squid" class="cls-5" d="M262.69,702.34a1.4,1.4,0,1,1-1.4,1.4,1.4,1.4,0,0,1,1.4-1.4Zm16.78,18.19a17,17,0,0,1-16.65-14,2.79,2.79,0,0,0,2.56-2.09h4.3V703h-4.3a2.78,2.78,0,0,0-2.56-2.08,17.27,17.27,0,0,1,16.65-14,16.54,16.54,0,0,1,9.39,3.37l.8-1.15a18,18,0,0,0-10.19-3.62,18.69,18.69,0,0,0-18.14,15.75,2.78,2.78,0,0,0,0,4.87,18.46,18.46,0,0,0,18.14,15.75,18.87,18.87,0,0,0,10.9-3.63l-.82-1.14a17.45,17.45,0,0,1-10.08,3.37Zm-7.62-19.28a18.51,18.51,0,0,0,4.12.39,19.38,19.38,0,0,0,3.94-.34l-3.16,6.33a.65.65,0,0,0-.08.31v3.11a8.67,8.67,0,0,1-2.09,1.08v-4.19a.66.66,0,0,0-.06-.27Zm4.12-2.4c2.82,0,4.32.42,4.79.7a16.7,16.7,0,0,1-9.57,0c.47-.28,2-.7,4.78-.7Zm-2.09,14.68h.79a8.41,8.41,0,0,0,2.89-1.38l.19-.12a.7.7,0,0,0,.32-.59V708.1l3.89-7.77a1.18,1.18,0,0,0,.31-.78c0-1.83-3.94-2.1-6.3-2.1s-6.29.27-6.29,2.1a1.12,1.12,0,0,0,.22.67l3.28,7.86v4.76a.69.69,0,0,0,.7.69Zm20.28-.69a1.4,1.4,0,1,1-1.4,1.39,1.4,1.4,0,0,1,1.4-1.39Zm0-21a1.4,1.4,0,1,1-1.4,1.4,1.4,1.4,0,0,1,1.4-1.4Zm1.4,10.49a1.4,1.4,0,1,1-1.4,1.4,1.4,1.4,0,0,1,1.4-1.4Zm-7,2.1h4.3a2.79,2.79,0,1,0,0-1.4h-4.3V694h2.9a2.8,2.8,0,1,0,0-1.4h-3.6a.7.7,0,0,0-.69.7V703h-4.9v1.4h4.9v9.79a.69.69,0,0,0,.69.7h3.6a2.79,2.79,0,1,0,0-1.4h-2.9Z"/></g><g id="Icon-Resource_Application-Integration_Res_Amazon-Simple-Notification-Service_Topic_48" data-name="Icon-Resource/Application-Integration/Res_Amazon-Simple-Notification-Service_Topic_48"><path id="Amazon-Simple-Notification-Service_Topic_Resource-Icon_light-bg" data-name="Amazon-Simple-Notification-Service Topic Resource-Icon light-bg" class="cls-3" d="M122.69,488.91h2.41v-2.42h-2.41Zm2.41-6.65v1.81h-2.41v-.6h-.61v-2.42h1.82a1.21,1.21,0,0,1,1.2,1.21Zm-39.29,1.21h3.62v-2.42H85.81Zm29,0h3.62v-2.42h-3.62Zm-21.77,0h3.63v-2.42H93.06Zm-14.51,0h3.63v-2.42H78.55Zm29,0h3.63v-2.42h-3.63Zm-7.25,0h3.62v-2.42h-3.62Zm-27.21-2.42h1.81v2.42h-.6v.6H71.9v-1.81a1.21,1.21,0,0,1,1.21-1.21Zm-1.21,7.86h2.42v-2.42H71.9Zm2.42,3h.6v2.42H73.11a1.21,1.21,0,0,1-1.21-1.21v-1.81h2.42Zm18.74,2.42h3.63v-2.42H93.06Zm14.51,0h3.63v-2.42h-3.63Zm7.26,0h3.62v-2.42h-3.62Zm-36.28,0h3.63v-2.42H78.55Zm21.77,0h3.62v-2.42h-3.62Zm-14.51,0h3.62v-2.42H85.81Zm36.88-3h2.41v1.81a1.21,1.21,0,0,1-1.2,1.21h-1.82v-2.42h.61Zm0-18.14h2.41v-2.42h-2.41Zm2.41-6.65v1.81h-2.41v-.6h-.61v-2.42h1.82a1.21,1.21,0,0,1,1.2,1.21Zm-17.53,1.21h3.63v-2.42h-3.63Zm-29,0h3.63v-2.42H78.55Zm36.28,0h3.62v-2.42h-3.62Zm-29,0h3.62v-2.42H85.81Zm7.25,0h3.63v-2.42H93.06Zm7.26,0h3.62v-2.42h-3.62Zm-27.21-2.42h1.81v2.42h-.6v.6H71.9v-1.81a1.21,1.21,0,0,1,1.21-1.21Zm-1.21,7.86h2.42v-2.42H71.9Zm2.42,3h.6v2.42H73.11a1.21,1.21,0,0,1-1.21-1.21v-1.81h2.42Zm18.74,2.42h3.63v-2.42H93.06Zm14.51,0h3.63v-2.42h-3.63Zm-29,0h3.63v-2.42H78.55Zm7.26,0h3.62v-2.42H85.81Zm29,0h3.62v-2.42h-3.62Zm-14.51,0h3.62v-2.42h-3.62Zm22.37-3h2.41v1.81a1.21,1.21,0,0,1-1.2,1.21h-1.82v-2.42h.61ZM74.32,460.49h48.37v-9.67H74.32ZM123.9,448.4H73.11a1.21,1.21,0,0,0-1.21,1.21V461.7a1.21,1.21,0,0,0,1.21,1.21H123.9a1.21,1.21,0,0,0,1.2-1.21V449.61a1.21,1.21,0,0,0-1.2-1.21Z"/></g><g id="Icon-Resource_Application-Integration_Res_Amazon-Simple-Notification-Service_Topic_48-2" data-name="Icon-Resource/Application-Integration/Res_Amazon-Simple-Notification-Service_Topic_48"><path id="Amazon-Simple-Notification-Service_Topic_Resource-Icon_light-bg-2" data-name="Amazon-Simple-Notification-Service Topic Resource-Icon light-bg" class="cls-3" d="M226.6,716.27H229v-2.41H226.6Zm2.41-6.65v1.82H226.6v-.61H226v-2.42h1.82a1.21,1.21,0,0,1,1.2,1.21Zm-39.29,1.21h3.62v-2.42h-3.62Zm29,0h3.62v-2.42h-3.62Zm-21.77,0h3.63v-2.42H197Zm-14.51,0h3.63v-2.42h-3.63Zm29,0h3.63v-2.42h-3.63Zm-7.25,0h3.62v-2.42h-3.62ZM177,708.41h1.81v2.42h-.6v.61h-2.42v-1.82a1.21,1.21,0,0,1,1.21-1.21Zm-1.21,7.86h2.42v-2.41h-2.42Zm2.42,3h.6v2.41H177a1.21,1.21,0,0,1-1.21-1.2v-1.82h2.42ZM197,721.71h3.63V719.3H197Zm14.51,0h3.63V719.3h-3.63Zm7.26,0h3.62V719.3h-3.62Zm-36.28,0h3.63V719.3h-3.63Zm21.77,0h3.62V719.3h-3.62Zm-14.51,0h3.62V719.3h-3.62Zm36.88-3H229v1.82a1.2,1.2,0,0,1-1.2,1.2H226V719.3h.61Zm0-18.14H229v-2.41H226.6ZM229,693.9v1.82H226.6v-.61H226v-2.42h1.82a1.21,1.21,0,0,1,1.2,1.21Zm-17.53,1.21h3.63v-2.42h-3.63Zm-29,0h3.63v-2.42h-3.63Zm36.28,0h3.62v-2.42h-3.62Zm-29,0h3.62v-2.42h-3.62Zm7.25,0h3.63v-2.42H197Zm7.26,0h3.62v-2.42h-3.62ZM177,692.69h1.81v2.42h-.6v.61h-2.42V693.9a1.21,1.21,0,0,1,1.21-1.21Zm-1.21,7.86h2.42v-2.41h-2.42Zm2.42,3h.6V706H177a1.21,1.21,0,0,1-1.21-1.21V703h2.42ZM197,706h3.63v-2.42H197Zm14.51,0h3.63v-2.42h-3.63Zm-29,0h3.63v-2.42h-3.63Zm7.26,0h3.62v-2.42h-3.62Zm29,0h3.62v-2.42h-3.62Zm-14.51,0h3.62v-2.42h-3.62Zm22.37-3H229v1.82a1.21,1.21,0,0,1-1.2,1.21H226v-2.42h.61Zm-48.37-15.11H226.6v-9.67H178.23Zm49.58-12.09H177a1.21,1.21,0,0,0-1.21,1.21v12.09a1.21,1.21,0,0,0,1.21,1.21h50.79a1.21,1.21,0,0,0,1.2-1.21V677a1.21,1.21,0,0,0-1.2-1.21Z"/></g><g id="Icon-Resource_Application-Integration_Res_Amazon-Simple-Notification-Service_Message_48" data-name="Icon-Resource/Application-Integration/Res_Amazon-Simple-Notification-Service_Message_48"><path id="Amazon-Simple-Notification-Service_Message_48" data-name="Amazon-Simple-Notification-Service Message 48" class="cls-3" d="M111.8,578.33h2.42v-2.42H111.8Zm-4.23-2.42h1.82v2.42h-.61v.6h-2.42v-1.81a1.21,1.21,0,0,1,1.21-1.21Zm-1.21,39.3h2.42v-3.63h-2.42Zm0,7.25h2.42v-3.62h-2.42Zm0-14.51h2.42v-3.62h-2.42Zm0-21.76h2.42v-3.63h-2.42Zm0,7.25h2.42v-3.62h-2.42Zm0,7.26h2.42v-3.63h-2.42Zm2.42,26h.61v2.41h-1.82a1.21,1.21,0,0,1-1.21-1.2v-1.82h2.42Zm3,2.41h2.42V626.7H111.8Zm5.44-3h2.42v1.82a1.21,1.21,0,0,1-1.21,1.2h-1.81V626.7h.6Zm0-3.63h2.42v-3.62h-2.42Zm0-7.25h2.42v-3.63h-2.42Zm0-21.77h2.42v-3.62h-2.42Zm0-7.25h2.42v-3.63h-2.42Zm0,21.76h2.42v-3.62h-2.42Zm0-7.25h2.42v-3.63h-2.42Zm2.42-23.58v1.81h-2.42v-.6h-.6v-2.42h1.81a1.21,1.21,0,0,1,1.21,1.21Zm-23.58,1.21H98.5v-2.42H96.08Zm-4.23-2.42h1.82v2.42h-.61v.6H90.64v-1.81a1.21,1.21,0,0,1,1.21-1.21Zm-1.21,10.28h2.42v-3.63H90.64Zm0,29h2.42v-3.63H90.64Zm0-7.26h2.42v-3.62H90.64Zm0-7.25h2.42v-3.63H90.64Zm0,21.76h2.42v-3.62H90.64Zm0-29h2.42v-3.62H90.64Zm2.42,33.26h.61v2.41H91.85a1.21,1.21,0,0,1-1.21-1.2v-1.82h2.42Zm3,2.41H98.5V626.7H96.08Zm5.45-3h2.41v1.82a1.2,1.2,0,0,1-1.2,1.2h-1.82V626.7h.61Zm0-39.9h2.41v-3.63h-2.41Zm0,7.25h2.41v-3.62h-2.41Zm0,7.26h2.41v-3.63h-2.41Zm0,21.76h2.41v-3.62h-2.41Zm0-14.51h2.41v-3.62h-2.41Zm0,7.26h2.41v-3.63h-2.41Zm2.41-38.09v1.81h-2.41v-.6h-.61v-2.42h1.82a1.21,1.21,0,0,1,1.2,1.21ZM76.13,626.7h9.68V578.33H76.13ZM87,575.91H74.92a1.21,1.21,0,0,0-1.2,1.21v50.79a1.2,1.2,0,0,0,1.2,1.2H87a1.21,1.21,0,0,0,1.21-1.2V577.12A1.21,1.21,0,0,0,87,575.91Z"/></g><path d="M341.61,516.45h-3.25l-.45,1.25h-1.7l2.81-7.26H341l2.8,7.26h-1.69Zm-2.83-1.34h2.4l-1.2-3.33Z"/><path d="M350.91,514.38c0-.49-.22-.84-.78-.84a1.4,1.4,0,0,0-1.09.61v3.55h-1.39v-3.32c0-.49-.22-.84-.79-.84a1.43,1.43,0,0,0-1.09.62v3.54h-1.38v-5.26h1.38v.69a2.3,2.3,0,0,1,1.72-.82,1.38,1.38,0,0,1,1.46,1,2.24,2.24,0,0,1,1.81-1,1.4,1.4,0,0,1,1.54,1.59v3.8h-1.39Z"/><path d="M356.82,517.15a2.16,2.16,0,0,1-1.67.68,1.75,1.75,0,0,1-1.82-1.74,1.66,1.66,0,0,1,1.82-1.68,2.15,2.15,0,0,1,1.67.64v-.73c0-.53-.46-.88-1.15-.88a2.24,2.24,0,0,0-1.54.62l-.52-.92a3.43,3.43,0,0,1,2.3-.83c1.19,0,2.29.48,2.29,2v3.4h-1.38Zm0-1.37a1.39,1.39,0,0,0-1.11-.45c-.54,0-1,.28-1,.79s.45.77,1,.77a1.39,1.39,0,0,0,1.11-.45Z"/><path d="M359.35,516.66l2.37-3h-2.37v-1.21h4.24v1l-2.41,3h2.45v1.21h-4.28Z"/><path d="M364.45,515.06a2.78,2.78,0,1,1,2.77,2.77A2.66,2.66,0,0,1,364.45,515.06Zm4.12,0a1.39,1.39,0,0,0-1.35-1.52,1.55,1.55,0,0,0,0,3.06A1.39,1.39,0,0,0,368.57,515.06Z"/><path d="M374.58,514.52a.85.85,0,0,0-1-1,1.53,1.53,0,0,0-1.2.62v3.54H371v-5.26h1.38v.69a2.42,2.42,0,0,1,1.84-.82A1.53,1.53,0,0,1,376,514v3.71h-1.38Z"/><path d="M326.81,527.13a3.67,3.67,0,0,1,3.8-3.75,3.34,3.34,0,0,1,3.09,1.77l-1.32.66a2,2,0,0,0-1.77-1.06,2.39,2.39,0,0,0,0,4.77,2,2,0,0,0,1.77-1.06l1.32.64a3.35,3.35,0,0,1-3.09,1.79A3.67,3.67,0,0,1,326.81,527.13Z"/><path d="M334.6,523.5H336v7.26H334.6Z"/><path d="M337,528.12a2.78,2.78,0,1,1,2.78,2.77A2.66,2.66,0,0,1,337,528.12Zm4.13,0a1.36,1.36,0,1,0-1.35,1.54A1.39,1.39,0,0,0,341.14,528.12Z"/><path d="M347.15,530.09a2.45,2.45,0,0,1-1.85.8,1.51,1.51,0,0,1-1.7-1.66V525.5H345v3.19a.85.85,0,0,0,1,1,1.58,1.58,0,0,0,1.2-.6V525.5h1.38v5.26h-1.38Z"/><path d="M353.51,530.08a2,2,0,0,1-1.62.81c-1.33,0-2.33-1-2.33-2.76s1-2.76,2.33-2.76a2,2,0,0,1,1.62.81V523.5h1.39v7.26h-1.39Zm0-2.88a1.5,1.5,0,0,0-1.2-.6,1.55,1.55,0,0,0,0,3.06,1.5,1.5,0,0,0,1.2-.6Z"/><path d="M360.58,525.77l-1.26,5h-1.64l-2.08-7.26h1.73l1.27,5.24L360,523.5h1.2l1.37,5.24,1.27-5.24h1.74l-2.07,7.26h-1.64Z"/><path d="M369,530.21a2.16,2.16,0,0,1-1.67.68,1.75,1.75,0,0,1-1.83-1.74,1.67,1.67,0,0,1,1.83-1.68,2.15,2.15,0,0,1,1.67.64v-.73c0-.53-.46-.88-1.16-.88a2.22,2.22,0,0,0-1.53.62l-.52-.92a3.41,3.41,0,0,1,2.29-.83c1.2,0,2.3.48,2.3,2v3.4H369Zm0-1.37a1.41,1.41,0,0,0-1.11-.46c-.55,0-1,.29-1,.8s.44.77,1,.77a1.38,1.38,0,0,0,1.11-.46Z"/><path d="M372,529.45v-2.74h-.87V525.5H372v-1.43h1.39v1.43h1.07v1.21H373.4v2.37c0,.33.18.58.48.58a.78.78,0,0,0,.48-.15l.3,1a1.75,1.75,0,0,1-1.16.34A1.31,1.31,0,0,1,372,529.45Z"/><path d="M377.87,525.37a2.43,2.43,0,0,1,2.07,1l-.9.85a1.28,1.28,0,0,0-1.11-.57,1.53,1.53,0,0,0,0,3.06,1.32,1.32,0,0,0,1.11-.57l.9.84a2.4,2.4,0,0,1-2.07,1,2.76,2.76,0,1,1,0-5.52Z"/><path d="M384.41,527.56c0-.73-.39-1-1-1a1.51,1.51,0,0,0-1.2.62v3.54h-1.38V523.5h1.38v2.69a2.41,2.41,0,0,1,1.85-.82,1.51,1.51,0,0,1,1.71,1.65v3.74h-1.38Z"/><path d="M346.42,543.27a2.2,2.2,0,0,1-1.67.68,1.76,1.76,0,0,1-1.83-1.75,1.67,1.67,0,0,1,1.83-1.67,2.15,2.15,0,0,1,1.67.64v-.73c0-.53-.46-.88-1.16-.88a2.23,2.23,0,0,0-1.53.62l-.52-.92a3.42,3.42,0,0,1,2.29-.83c1.2,0,2.3.48,2.3,2v3.39h-1.38Zm0-1.37a1.41,1.41,0,0,0-1.11-.46c-.55,0-1,.29-1,.8s.44.77,1,.77a1.38,1.38,0,0,0,1.11-.46Z"/><path d="M349.17,536.56h1.38v7.25h-1.38Z"/><path d="M355.08,543.27a2.2,2.2,0,0,1-1.67.68,1.75,1.75,0,0,1-1.82-1.75,1.66,1.66,0,0,1,1.82-1.67,2.15,2.15,0,0,1,1.67.64v-.73c0-.53-.46-.88-1.15-.88a2.24,2.24,0,0,0-1.54.62l-.52-.92a3.42,3.42,0,0,1,2.29-.83c1.2,0,2.3.48,2.3,2v3.39h-1.38Zm0-1.37a1.41,1.41,0,0,0-1.11-.46c-.55,0-1,.29-1,.8s.44.77,1,.77a1.38,1.38,0,0,0,1.11-.46Z"/><path d="M357.83,538.56h1.38v.72a2.26,2.26,0,0,1,1.68-.84v1.35a1.92,1.92,0,0,0-.38,0,1.79,1.79,0,0,0-1.3.59v3.47h-1.38Z"/><path d="M368.27,540.5c0-.49-.22-.84-.79-.84a1.35,1.35,0,0,0-1.08.61v3.54H365V540.5c0-.49-.21-.84-.78-.84a1.4,1.4,0,0,0-1.09.62v3.53h-1.38v-5.25h1.38v.69a2.3,2.3,0,0,1,1.72-.82,1.4,1.4,0,0,1,1.46,1,2.22,2.22,0,0,1,1.8-1,1.41,1.41,0,0,1,1.55,1.59v3.79h-1.39Z"/><g id="Icon-Resource_Managment-Governance_Res_Amazon-Cloudwatch_Alarm_48" data-name="Icon-Resource/Managment-Governance/Res_Amazon-Cloudwatch_Alarm_48"><path id="Amazon-Cloudwatch_alarm_Resource-Icon_light-bg" data-name="Amazon-Cloudwatch alarm Resource-Icon light-bg" class="cls-3" d="M377.56,490.15h-8.21V465a13.69,13.69,0,0,0,8.21,0Zm.69-28.06a11.18,11.18,0,0,1-9.59,0,1.21,1.21,0,0,0-1.73,1.09v28.18a1.21,1.21,0,0,0,1.21,1.21h10.63a1.21,1.21,0,0,0,1.21-1.21V463.18a1.22,1.22,0,0,0-.57-1,1.2,1.2,0,0,0-1.16-.07Zm-4.79-16.27a6.23,6.23,0,1,1-6.23,6.23,6.24,6.24,0,0,1,6.23-6.23Zm0,14.88a8.65,8.65,0,1,0-8.65-8.65,8.66,8.66,0,0,0,8.65,8.65Zm-43.57,36.12H383v-2.41H329.89Zm22.46-6.67h8.21V474.51h-8.21Zm-1.21,2.42h10.63a1.21,1.21,0,0,0,1.21-1.21V473.3a1.21,1.21,0,0,0-1.21-1.21H351.14a1.21,1.21,0,0,0-1.21,1.21v18.06a1.21,1.21,0,0,0,1.21,1.21Zm-15.79-2.42h8.21V469.2h-8.21Zm-1.21,2.42h10.63a1.21,1.21,0,0,0,1.21-1.21V468a1.21,1.21,0,0,0-1.21-1.21H334.14a1.21,1.21,0,0,0-1.21,1.21v23.37a1.21,1.21,0,0,0,1.21,1.21Z"/></g><path d="M221.23,563.26a4.4,4.4,0,0,1,4.49-4.56,4,4,0,0,1,3.39,1.75l-.93.51a3,3,0,0,0-2.46-1.28,3.59,3.59,0,0,0,0,7.17,3,3,0,0,0,2.46-1.28l.94.51a4,4,0,0,1-3.4,1.75A4.4,4.4,0,0,1,221.23,563.26Z"/><path d="M230.48,558.85h1v8.82h-1Z"/><path d="M233.09,564.47a3.17,3.17,0,1,1,3.16,3.36A3.13,3.13,0,0,1,233.09,564.47Zm5.27,0a2.14,2.14,0,1,0-2.11,2.47A2.22,2.22,0,0,0,238.36,564.47Z"/><path d="M245.33,566.77a3.1,3.1,0,0,1-2.27,1.06,1.8,1.8,0,0,1-2-2v-4.51h1v4.21c0,1.12.57,1.45,1.43,1.45a2.45,2.45,0,0,0,1.89-1v-4.7h1v6.39h-1Z"/><path d="M252.93,566.72a2.69,2.69,0,0,1-2.15,1.11c-1.67,0-2.85-1.27-2.85-3.35s1.17-3.36,2.85-3.36a2.63,2.63,0,0,1,2.15,1.13v-3.4h1v8.82h-1Zm0-3.68a2.36,2.36,0,0,0-1.91-1c-1.29,0-2.06,1.06-2.06,2.47s.77,2.46,2.06,2.46a2.37,2.37,0,0,0,1.91-1Z"/><path d="M260.75,560.55l-1.95,7.12h-1.19l-2.51-8.82h1.22l1.95,7.35,2-7.35h.91l2,7.35,1.95-7.35h1.22l-2.52,8.82h-1.19Z"/><path d="M271.05,566.94a2.78,2.78,0,0,1-2.12.89,2.14,2.14,0,0,1-2.24-2.12,2.1,2.1,0,0,1,2.24-2.1,2.7,2.7,0,0,1,2.12.87v-1.15c0-.86-.69-1.35-1.62-1.35a2.52,2.52,0,0,0-1.95.89l-.47-.69a3.37,3.37,0,0,1,2.56-1.06c1.35,0,2.47.61,2.47,2.16v4.39h-1Zm0-1.82a2.15,2.15,0,0,0-1.76-.8,1.41,1.41,0,1,0,0,2.79,2.15,2.15,0,0,0,1.76-.79Z"/><path d="M274.22,566.33v-4.18h-1.06v-.87h1.06v-1.75h1v1.75h1.3v.87h-1.3v4c0,.48.21.82.65.82a1,1,0,0,0,.67-.26l.29.74a1.6,1.6,0,0,1-1.19.41C274.69,567.83,274.22,567.29,274.22,566.33Z"/><path d="M280.73,561.12a2.75,2.75,0,0,1,2.34,1.11l-.66.61a1.91,1.91,0,0,0-1.63-.83,2.48,2.48,0,0,0,0,4.93,1.94,1.94,0,0,0,1.63-.83l.66.61a2.75,2.75,0,0,1-2.34,1.11,3.36,3.36,0,0,1,0-6.71Z"/><path d="M288.78,563.46c0-1.12-.58-1.45-1.44-1.45a2.52,2.52,0,0,0-1.9,1v4.67h-1v-8.82h1v3.36a3.21,3.21,0,0,1,2.29-1.09,1.8,1.8,0,0,1,2,2v4.51h-1Z"/><path d="M299.16,566.94a2.78,2.78,0,0,1-2.12.89,2.13,2.13,0,0,1-2.23-2.12,2.09,2.09,0,0,1,2.23-2.1,2.7,2.7,0,0,1,2.12.87v-1.15c0-.86-.69-1.35-1.62-1.35a2.52,2.52,0,0,0-2,.89l-.47-.69a3.37,3.37,0,0,1,2.56-1.06c1.35,0,2.47.61,2.47,2.16v4.39h-1Zm0-1.82a2.15,2.15,0,0,0-1.76-.8,1.41,1.41,0,1,0,0,2.79,2.15,2.15,0,0,0,1.76-.79Z"/><path d="M302.13,558.85h1v8.82h-1Z"/><path d="M309.1,566.94a2.78,2.78,0,0,1-2.12.89,2.13,2.13,0,0,1-2.23-2.12,2.09,2.09,0,0,1,2.23-2.1,2.69,2.69,0,0,1,2.12.87v-1.15c0-.86-.69-1.35-1.61-1.35a2.54,2.54,0,0,0-2,.89l-.47-.69a3.37,3.37,0,0,1,2.56-1.06c1.35,0,2.47.61,2.47,2.16v4.39h-1Zm0-1.82a2.14,2.14,0,0,0-1.76-.8,1.4,1.4,0,1,0,0,2.79,2.13,2.13,0,0,0,1.76-.79Z"/><path d="M312.07,561.28h1v1a2.74,2.74,0,0,1,2.13-1.16v1a1.46,1.46,0,0,0-.39,0,2.35,2.35,0,0,0-1.74,1v4.52h-1Z"/><path d="M324.15,563.33c0-.81-.36-1.32-1.18-1.32a2.21,2.21,0,0,0-1.69,1v4.68h-1v-4.34c0-.81-.35-1.32-1.18-1.32a2.21,2.21,0,0,0-1.68,1v4.67h-1v-6.39h1v.93a2.75,2.75,0,0,1,2.06-1.09,1.64,1.64,0,0,1,1.72,1.19,2.7,2.7,0,0,1,2.14-1.19c1.17,0,1.79.65,1.79,1.93v4.62h-1Z"/><path d="M331,568.57a2.45,2.45,0,0,0,2.08.87,1.83,1.83,0,0,0,2-1.92v-.91a2.67,2.67,0,0,1-2.15,1.14c-1.66,0-2.84-1.24-2.84-3.31s1.16-3.32,2.84-3.32a2.65,2.65,0,0,1,2.15,1.13v-1h1v6.2c0,2.12-1.48,2.78-3,2.78a3.25,3.25,0,0,1-2.58-1Zm4.13-5.53a2.35,2.35,0,0,0-1.91-1c-1.28,0-2.05,1-2.05,2.43s.77,2.44,2.05,2.44a2.37,2.37,0,0,0,1.91-1Z"/><path d="M337.75,564.47a3.17,3.17,0,1,1,3.16,3.36A3.14,3.14,0,0,1,337.75,564.47Zm5.28,0a2.15,2.15,0,1,0-2.12,2.47A2.22,2.22,0,0,0,343,564.47Z"/><path d="M348.46,561.12c1.93,0,3.07,1.51,3.07,3.43v.25h-5.17a2.25,2.25,0,0,0,2.3,2.21,2.77,2.77,0,0,0,2-.81l.48.65a3.51,3.51,0,0,1-2.54,1,3.36,3.36,0,0,1-.11-6.71Zm-2.1,3h4.19a2.07,2.07,0,0,0-2.1-2.13A2.13,2.13,0,0,0,346.36,564.07Z"/><path d="M353.09,566.11a2.88,2.88,0,0,0,2.1.91c1,0,1.51-.44,1.51-1.06s-.78-.92-1.64-1.14c-1.09-.25-2.32-.54-2.32-1.86,0-1,.86-1.84,2.39-1.84a3.2,3.2,0,0,1,2.36.93l-.46.68a2.48,2.48,0,0,0-1.9-.8c-.88,0-1.42.39-1.42,1s.73.82,1.56,1c1.11.25,2.4.57,2.4,2,0,1.07-.86,1.93-2.52,1.93a3.41,3.41,0,0,1-2.58-1Z"/><path d="M221.74,582.2V578h-1.06v-.87h1.06V575.4h1v1.75H224V578h-1.3v4c0,.47.21.82.65.82a1,1,0,0,0,.68-.27l.29.74a1.61,1.61,0,0,1-1.19.41A1.31,1.31,0,0,1,221.74,582.2Z"/><path d="M225.06,580.33a3.17,3.17,0,1,1,3.16,3.36A3.13,3.13,0,0,1,225.06,580.33Zm5.28,0a2.15,2.15,0,1,0-2.12,2.48A2.23,2.23,0,0,0,230.34,580.33Z"/><path d="M242,581.58h-4.47l-.78,2h-1.22l3.55-8.83h1.36l3.56,8.83h-1.22Zm-4.15-1h3.82l-1.91-4.91Z"/><path d="M245.14,574.71h1.1v7.85h4.1v1h-5.2Z"/><path d="M257.44,581.58H253l-.78,2H251l3.55-8.83h1.36l3.56,8.83h-1.22Zm-4.15-1h3.82l-1.9-4.91Z"/><path d="M263.44,580h-1.75v3.51h-1.1v-8.83h3.54a2.57,2.57,0,0,1,2.77,2.66,2.45,2.45,0,0,1-2.29,2.57l2.38,3.6h-1.3Zm.56-4.34h-2.31v3.37H264a1.69,1.69,0,1,0,0-3.37Z"/><path d="M276.17,576.19l-3,7.35h-.45l-3-7.35v7.35h-1.09v-8.83h1.57l2.74,6.72,2.75-6.72h1.58v8.83h-1.1Z"/><path d="M282.65,582a2.91,2.91,0,0,0,2.11.92c1,0,1.51-.44,1.51-1.06s-.79-.93-1.64-1.14c-1.09-.25-2.32-.54-2.32-1.86,0-1,.86-1.84,2.38-1.84a3.26,3.26,0,0,1,2.37.92l-.46.69a2.52,2.52,0,0,0-1.91-.81c-.87,0-1.41.4-1.41,1s.72.82,1.56,1c1.11.25,2.39.57,2.39,2,0,1.07-.86,1.93-2.51,1.93a3.38,3.38,0,0,1-2.58-1Z"/><path d="M289,582.2V578H288v-.87H289V575.4h1v1.75h1.3V578H290v4c0,.47.21.82.65.82a1,1,0,0,0,.68-.27l.29.74a1.61,1.61,0,0,1-1.19.41A1.31,1.31,0,0,1,289,582.2Z"/><path d="M296.72,582.81a2.75,2.75,0,0,1-2.11.88,2.12,2.12,0,0,1-2.24-2.11,2.1,2.1,0,0,1,2.24-2.11,2.64,2.64,0,0,1,2.11.88V579.2c0-.86-.68-1.35-1.61-1.35a2.53,2.53,0,0,0-2,.88l-.46-.68a3.33,3.33,0,0,1,2.55-1.06c1.35,0,2.48.61,2.48,2.15v4.4h-1Zm0-1.83a2.12,2.12,0,0,0-1.76-.79,1.4,1.4,0,1,0,0,2.79,2.12,2.12,0,0,0,1.76-.79Z"/><path d="M299.9,582.2V578h-1.06v-.87h1.06V575.4h1v1.75h1.29V578h-1.29v4c0,.47.21.82.65.82a.94.94,0,0,0,.67-.27l.29.74a1.61,1.61,0,0,1-1.19.41A1.3,1.3,0,0,1,299.9,582.2Z"/><path d="M306.36,577c1.93,0,3.07,1.51,3.07,3.42v.25h-5.17a2.25,2.25,0,0,0,2.3,2.21,2.8,2.8,0,0,0,2-.8l.48.65a3.5,3.5,0,0,1-2.54,1,3.35,3.35,0,0,1-.11-6.7Zm-2.1,3h4.19a2.07,2.07,0,0,0-2.1-2.13A2.13,2.13,0,0,0,304.26,579.94Z"/><path d="M318.3,578.4l-1.66,5.14h-1l-2-6.39h1l1.56,5.09,1.68-5.09h.85l1.68,5.09,1.56-5.09h1l-2,6.39h-1Z"/><path d="M328.47,579.33c0-1.13-.58-1.46-1.44-1.46a2.49,2.49,0,0,0-1.89,1v4.67h-1v-8.83h1v3.36a3.16,3.16,0,0,1,2.29-1.08,1.79,1.79,0,0,1,2,2v4.52h-1Z"/><path d="M334.22,577c1.93,0,3.07,1.51,3.07,3.42v.25h-5.17a2.24,2.24,0,0,0,2.3,2.21,2.8,2.8,0,0,0,2-.8l.48.65a3.5,3.5,0,0,1-2.54,1,3.35,3.35,0,0,1-.11-6.7Zm-2.1,3h4.19a2.07,2.07,0,0,0-2.1-2.13A2.13,2.13,0,0,0,332.12,579.94Z"/><path d="M343.2,579.35c0-1.12-.57-1.48-1.43-1.48a2.46,2.46,0,0,0-1.89,1v4.67h-1v-6.39h1v.92a3.16,3.16,0,0,1,2.28-1.08,1.81,1.81,0,0,1,2,2.06v4.49h-1Z"/><path d="M221.74,598.07v-4.18h-1.06V593h1.06v-1.74h1V593H224v.88h-1.3v4c0,.48.21.83.65.83a1,1,0,0,0,.68-.27l.29.74a1.61,1.61,0,0,1-1.19.41A1.31,1.31,0,0,1,221.74,598.07Z"/><path d="M229.76,595.2c0-1.13-.59-1.46-1.45-1.46a2.55,2.55,0,0,0-1.89,1v4.67h-1v-8.82h1v3.36a3.19,3.19,0,0,1,2.29-1.09,1.8,1.8,0,0,1,2,2v4.51h-1Z"/><path d="M235.51,592.85c1.93,0,3.07,1.51,3.07,3.43v.25H233.4a2.25,2.25,0,0,0,2.31,2.21,2.8,2.8,0,0,0,2-.81l.47.65a3.44,3.44,0,0,1-2.54,1,3.16,3.16,0,0,1-3.25-3.36A3.2,3.2,0,0,1,235.51,592.85Zm-2.11,2.95h4.2a2.08,2.08,0,0,0-2.11-2.13A2.14,2.14,0,0,0,233.4,595.8Z"/><path d="M247.9,595.22c0-1.12-.57-1.48-1.43-1.48a2.48,2.48,0,0,0-1.89,1v4.67h-1V593h1v.93a3.16,3.16,0,0,1,2.27-1.09,1.82,1.82,0,0,1,2,2.07v4.48h-1Z"/><path d="M255.18,598.5a3.1,3.1,0,0,1-2.27,1.06,1.8,1.8,0,0,1-2-2V593h1v4.21c0,1.12.57,1.46,1.43,1.46a2.43,2.43,0,0,0,1.89-1V593h1v6.39h-1Z"/><path d="M265.87,595.06c0-.8-.36-1.32-1.18-1.32a2.24,2.24,0,0,0-1.69,1v4.68h-1v-4.34c0-.8-.34-1.32-1.17-1.32a2.24,2.24,0,0,0-1.68,1v4.67h-1V593h1v.93a2.75,2.75,0,0,1,2.06-1.09,1.63,1.63,0,0,1,1.72,1.2,2.68,2.68,0,0,1,2.14-1.2c1.17,0,1.79.65,1.79,1.94v4.61h-1Z"/><path d="M268.84,590.58h1V594a2.66,2.66,0,0,1,2.16-1.13c1.66,0,2.84,1.33,2.84,3.36s-1.18,3.35-2.84,3.35a2.7,2.7,0,0,1-2.16-1.11v.95h-1Zm2.9,8.1c1.29,0,2.06-1,2.06-2.47s-.77-2.47-2.06-2.47a2.39,2.39,0,0,0-1.91,1v2.9A2.35,2.35,0,0,0,271.74,598.68Z"/><path d="M279.22,592.85c1.93,0,3.07,1.51,3.07,3.43v.25h-5.17a2.24,2.24,0,0,0,2.3,2.21,2.77,2.77,0,0,0,2-.81l.47.65a3.44,3.44,0,0,1-2.54,1,3.16,3.16,0,0,1-3.25-3.36A3.2,3.2,0,0,1,279.22,592.85Zm-2.1,2.95h4.19a2.07,2.07,0,0,0-2.1-2.13A2.13,2.13,0,0,0,277.12,595.8Z"/><path d="M283.89,593h1v1a2.69,2.69,0,0,1,2.13-1.17v1a1.59,1.59,0,0,0-.4,0,2.32,2.32,0,0,0-1.73,1v4.52h-1Z"/><path d="M291.29,596.2a3.17,3.17,0,1,1,3.16,3.36A3.14,3.14,0,0,1,291.29,596.2Zm5.28,0a2.15,2.15,0,1,0-2.12,2.48A2.22,2.22,0,0,0,296.57,596.2Z"/><path d="M299.5,593.89h-1.06V593h1.06v-.49a1.93,1.93,0,0,1,2.82-1.85l-.25.74a1.15,1.15,0,0,0-.57-.14c-.65,0-1,.45-1,1.25V593h1.3v.88h-1.3v5.51h-1Z"/><path d="M306.57,598.07v-4.18h-1.05V593h1.05v-1.74h1V593h1.29v.88h-1.29v4c0,.48.21.83.65.83a.94.94,0,0,0,.67-.27l.29.74a1.61,1.61,0,0,1-1.19.41A1.31,1.31,0,0,1,306.57,598.07Z"/><path d="M310.09,591.27a.67.67,0,1,1,.66.67A.67.67,0,0,1,310.09,591.27Zm.17,1.74h1v6.39h-1Z"/><path d="M321,595.06c0-.8-.36-1.32-1.18-1.32a2.24,2.24,0,0,0-1.69,1v4.68h-1v-4.34c0-.8-.35-1.32-1.18-1.32a2.24,2.24,0,0,0-1.68,1v4.67h-1V593h1v.93a2.78,2.78,0,0,1,2.06-1.09,1.63,1.63,0,0,1,1.72,1.2,2.69,2.69,0,0,1,2.15-1.2c1.16,0,1.78.65,1.78,1.94v4.61h-1Z"/><path d="M326.7,592.85c1.93,0,3.07,1.51,3.07,3.43v.25H324.6a2.24,2.24,0,0,0,2.3,2.21,2.77,2.77,0,0,0,2-.81l.48.65a3.47,3.47,0,0,1-2.54,1,3.36,3.36,0,0,1-.11-6.71Zm-2.1,2.95h4.19a2.07,2.07,0,0,0-2.1-2.13A2.13,2.13,0,0,0,324.6,595.8Z"/><path d="M331.33,597.84a2.88,2.88,0,0,0,2.1.91c1,0,1.51-.43,1.51-1s-.78-.93-1.64-1.14c-1.09-.25-2.32-.54-2.32-1.87,0-1,.86-1.84,2.38-1.84a3.2,3.2,0,0,1,2.37.93l-.46.69a2.51,2.51,0,0,0-1.91-.81c-.87,0-1.41.4-1.41,1s.73.82,1.56,1c1.11.25,2.39.56,2.39,2,0,1.07-.86,1.93-2.51,1.93a3.44,3.44,0,0,1-2.58-1Z"/><path d="M341.12,598.07v-4.18h-1.05V593h1.05v-1.74h1V593h1.29v.88h-1.29v4c0,.48.21.83.65.83a.94.94,0,0,0,.67-.27l.29.74a1.61,1.61,0,0,1-1.19.41A1.31,1.31,0,0,1,341.12,598.07Z"/><path d="M349.14,595.2c0-1.13-.58-1.46-1.44-1.46a2.51,2.51,0,0,0-1.89,1v4.67h-1v-8.82h1v3.36a3.17,3.17,0,0,1,2.28-1.09,1.8,1.8,0,0,1,2,2v4.51h-1Z"/><path d="M354.89,592.85c1.93,0,3.07,1.51,3.07,3.43v.25h-5.17a2.24,2.24,0,0,0,2.3,2.21,2.77,2.77,0,0,0,2-.81l.48.65a3.47,3.47,0,0,1-2.54,1,3.36,3.36,0,0,1-.11-6.71Zm-2.1,2.95H357a2.07,2.07,0,0,0-2.1-2.13A2.13,2.13,0,0,0,352.79,595.8Z"/><path d="M221.54,608.88h1v1a2.74,2.74,0,0,1,2.13-1.16v1a1.46,1.46,0,0,0-.39,0,2.37,2.37,0,0,0-1.74,1v4.53h-1Z"/><path d="M230.22,614.37a3.11,3.11,0,0,1-2.28,1.06,1.8,1.8,0,0,1-2-2v-4.51h1v4.21c0,1.12.57,1.45,1.43,1.45a2.45,2.45,0,0,0,1.89-1v-4.7h1v6.39h-1Z"/><path d="M233.19,606.44h1v8.83h-1Z"/><path d="M238.94,608.72c1.94,0,3.07,1.51,3.07,3.43v.25h-5.17a2.26,2.26,0,0,0,2.3,2.21,2.77,2.77,0,0,0,2-.81l.48.65a3.51,3.51,0,0,1-2.54,1,3.36,3.36,0,0,1-.11-6.71Zm-2.1,2.95H241a2.06,2.06,0,0,0-2.1-2.13A2.13,2.13,0,0,0,236.84,611.67Z"/><path d="M246.85,607.13a.66.66,0,0,1,.66-.66.67.67,0,0,1,.68.66.69.69,0,0,1-.68.68A.68.68,0,0,1,246.85,607.13Zm.17,1.75h1v6.39h-1Z"/><path d="M250,613.71a2.88,2.88,0,0,0,2.1.91c1,0,1.51-.44,1.51-1.06s-.78-.92-1.64-1.14c-1.09-.25-2.32-.54-2.32-1.86,0-1,.86-1.84,2.38-1.84a3.2,3.2,0,0,1,2.37.93l-.46.68a2.52,2.52,0,0,0-1.91-.8c-.87,0-1.41.39-1.41,1s.73.82,1.56,1c1.11.25,2.39.57,2.39,2,0,1.07-.86,1.93-2.51,1.93a3.39,3.39,0,0,1-2.58-1Z"/><path d="M259.75,613.93v-4.18h-1.06v-.87h1.06v-1.75h1v1.75H262v.87h-1.29v4c0,.48.21.82.64.82a1,1,0,0,0,.68-.26l.29.74a1.61,1.61,0,0,1-1.19.41A1.31,1.31,0,0,1,259.75,613.93Z"/><path d="M263.44,608.88h1v1a2.74,2.74,0,0,1,2.13-1.16v1a1.51,1.51,0,0,0-.39,0,2.37,2.37,0,0,0-1.74,1v4.53h-1Z"/><path d="M267.63,607.13a.67.67,0,0,1,1.34,0,.67.67,0,1,1-1.34,0Zm.18,1.75h1v6.39h-1Z"/><path d="M271.27,616.17a2.45,2.45,0,0,0,2.08.87,1.83,1.83,0,0,0,2-1.92v-.91a2.69,2.69,0,0,1-2.15,1.14c-1.66,0-2.84-1.25-2.84-3.31s1.16-3.32,2.84-3.32a2.65,2.65,0,0,1,2.15,1.13v-1h1v6.2c0,2.12-1.48,2.78-3,2.78a3.25,3.25,0,0,1-2.58-1Zm4.13-5.53a2.35,2.35,0,0,0-1.91-1c-1.28,0-2.05,1-2.05,2.43s.77,2.44,2.05,2.44a2.37,2.37,0,0,0,1.91-1.05Z"/><path d="M278.86,616.17a2.45,2.45,0,0,0,2.08.87,1.83,1.83,0,0,0,2.05-1.92v-.91a2.69,2.69,0,0,1-2.15,1.14c-1.66,0-2.84-1.25-2.84-3.31s1.16-3.32,2.84-3.32a2.65,2.65,0,0,1,2.15,1.13v-1h1v6.2c0,2.12-1.48,2.78-3,2.78a3.25,3.25,0,0,1-2.58-1Zm4.13-5.53a2.35,2.35,0,0,0-1.91-1c-1.28,0-2.05,1-2.05,2.43s.77,2.44,2.05,2.44a2.37,2.37,0,0,0,1.91-1.05Z"/><path d="M288.74,608.72c1.93,0,3.07,1.51,3.07,3.43v.25h-5.18a2.26,2.26,0,0,0,2.31,2.21,2.8,2.8,0,0,0,2-.81l.47.65a3.48,3.48,0,0,1-2.54,1,3.36,3.36,0,0,1-.1-6.71Zm-2.11,2.95h4.2a2.08,2.08,0,0,0-2.11-2.13A2.14,2.14,0,0,0,286.63,611.67Z"/><path d="M293.4,608.88h1v1a2.71,2.71,0,0,1,2.13-1.16v1a1.59,1.59,0,0,0-.4,0,2.34,2.34,0,0,0-1.73,1v4.53h-1Z"/><path d="M300.55,608.72c1.93,0,3.06,1.51,3.06,3.43v.25h-5.17a2.26,2.26,0,0,0,2.3,2.21,2.81,2.81,0,0,0,2-.81l.47.65a3.48,3.48,0,0,1-2.54,1,3.36,3.36,0,0,1-.1-6.71Zm-2.11,2.95h4.2a2.08,2.08,0,0,0-2.11-2.13A2.13,2.13,0,0,0,298.44,611.67Z"/><path d="M309.84,614.32a2.7,2.7,0,0,1-2.15,1.11c-1.67,0-2.85-1.27-2.85-3.35s1.17-3.36,2.85-3.36a2.63,2.63,0,0,1,2.15,1.13v-3.41h1v8.83h-1Zm0-3.68a2.38,2.38,0,0,0-1.92-1c-1.28,0-2.05,1.06-2.05,2.47s.77,2.46,2.05,2.46a2.39,2.39,0,0,0,1.92-1Z"/><path d="M315.62,613.26l5-2.41-5-2.42v-.83l5.83,2.89v.7l-5.83,2.89Z"/><path d="M329.29,606.31c2.41,0,3.37,2.4,3.37,4.55s-1,4.57-3.37,4.57-3.37-2.42-3.37-4.57S326.87,606.31,329.29,606.31Zm0,1c-1.68,0-2.25,1.81-2.25,3.57s.57,3.59,2.25,3.59,2.25-1.83,2.25-3.59S331,607.29,329.29,607.29Z"/><path d="M337.56,607.13a.67.67,0,0,1,1.34,0,.67.67,0,1,1-1.34,0Zm.18,1.75h1v6.39h-1Z"/><path d="M345,611.09c0-1.13-.56-1.48-1.42-1.48a2.45,2.45,0,0,0-1.9,1v4.67h-1v-6.39h1v.93a3.19,3.19,0,0,1,2.28-1.09,1.82,1.82,0,0,1,2,2.06v4.49h-1Z"/><path d="M355.4,614.54a2.76,2.76,0,0,1-2.11.89,2.13,2.13,0,0,1-2.24-2.12,2.09,2.09,0,0,1,2.24-2.1,2.67,2.67,0,0,1,2.11.87v-1.15c0-.86-.68-1.35-1.61-1.35a2.54,2.54,0,0,0-2,.89l-.46-.69a3.33,3.33,0,0,1,2.55-1.06c1.35,0,2.48.61,2.48,2.16v4.39h-1Zm0-1.82a2.14,2.14,0,0,0-1.76-.8,1.4,1.4,0,1,0,0,2.79,2.13,2.13,0,0,0,1.76-.79Z"/><path d="M221.54,633.57v-8.82h1v1a2.68,2.68,0,0,1,2.16-1.11c1.68,0,2.85,1.27,2.85,3.35s-1.17,3.36-2.85,3.36a2.63,2.63,0,0,1-2.16-1.13v3.4Zm2.9-8.1a2.4,2.4,0,0,0-1.91,1v2.89a2.41,2.41,0,0,0,1.91,1c1.28,0,2.05-1.06,2.05-2.47S225.72,625.47,224.44,625.47Z"/><path d="M233.13,630.41a2.78,2.78,0,0,1-2.12.89,2.14,2.14,0,0,1-2.24-2.12,2.1,2.1,0,0,1,2.24-2.11,2.68,2.68,0,0,1,2.12.88V626.8c0-.86-.69-1.35-1.62-1.35a2.54,2.54,0,0,0-1.95.88l-.47-.68a3.34,3.34,0,0,1,2.56-1.06c1.35,0,2.47.61,2.47,2.15v4.4h-1Zm0-1.83a2.15,2.15,0,0,0-1.76-.79,1.41,1.41,0,1,0,0,2.79,2.15,2.15,0,0,0,1.76-.79Z"/><path d="M236.1,624.75h1v1a2.72,2.72,0,0,1,2.13-1.17v1a2.23,2.23,0,0,0-.39,0,2.37,2.37,0,0,0-1.74,1v4.53h-1Z"/><path d="M240.66,629.8v-4.18H239.6v-.87h1.06V623h1v1.75H243v.87h-1.3v4c0,.47.22.82.65.82a1,1,0,0,0,.68-.27l.29.75a1.66,1.66,0,0,1-1.19.41A1.31,1.31,0,0,1,240.66,629.8Z"/><path d="M244.18,623a.67.67,0,0,1,1.33,0,.67.67,0,1,1-1.33,0Zm.17,1.75h1v6.39h-1Z"/><path d="M250.14,624.59a2.71,2.71,0,0,1,2.34,1.11l-.66.61a1.89,1.89,0,0,0-1.62-.84,2.49,2.49,0,0,0,0,4.94,1.92,1.92,0,0,0,1.62-.84l.66.61a2.72,2.72,0,0,1-2.34,1.12,3.36,3.36,0,0,1,0-6.71Z"/><path d="M258.18,630.24a3.14,3.14,0,0,1-2.27,1.06,1.8,1.8,0,0,1-2-2v-4.51h1V629c0,1.13.57,1.46,1.43,1.46a2.43,2.43,0,0,0,1.89-1v-4.69h1v6.39h-1Z"/><path d="M261.15,622.31h1v8.83h-1Z"/><path d="M268.12,630.41a2.75,2.75,0,0,1-2.11.89,2.13,2.13,0,0,1-2.24-2.12,2.1,2.1,0,0,1,2.24-2.11,2.64,2.64,0,0,1,2.11.88V626.8c0-.86-.68-1.35-1.61-1.35a2.56,2.56,0,0,0-2,.88l-.46-.68a3.33,3.33,0,0,1,2.55-1.06c1.35,0,2.48.61,2.48,2.15v4.4h-1Zm0-1.83a2.12,2.12,0,0,0-1.76-.79,1.4,1.4,0,1,0,0,2.79,2.12,2.12,0,0,0,1.76-.79Z"/><path d="M271.1,624.75h1v1a2.7,2.7,0,0,1,2.13-1.17v1a2.25,2.25,0,0,0-.4,0,2.35,2.35,0,0,0-1.73,1v4.53h-1Z"/><path d="M278.87,633.57v-8.82h1v1a2.68,2.68,0,0,1,2.16-1.11c1.68,0,2.84,1.27,2.84,3.35s-1.16,3.36-2.84,3.36a2.63,2.63,0,0,1-2.16-1.13v3.4Zm2.9-8.1a2.4,2.4,0,0,0-1.91,1v2.89a2.41,2.41,0,0,0,1.91,1c1.28,0,2.05-1.06,2.05-2.47S283.05,625.47,281.77,625.47Z"/><path d="M289.24,624.59c1.93,0,3.07,1.51,3.07,3.42v.26h-5.17a2.25,2.25,0,0,0,2.3,2.21,2.81,2.81,0,0,0,2-.81l.48.65a3.51,3.51,0,0,1-2.54,1,3.36,3.36,0,0,1-.11-6.71Zm-2.1,2.95h4.19a2.07,2.07,0,0,0-2.1-2.13A2.12,2.12,0,0,0,287.14,627.54Z"/><path d="M293.91,624.75h1v1a2.69,2.69,0,0,1,2.13-1.17v1a2.25,2.25,0,0,0-.4,0,2.35,2.35,0,0,0-1.73,1v4.53h-1Z"/><path d="M298.1,623a.67.67,0,0,1,1.33,0,.67.67,0,1,1-1.33,0Zm.17,1.75h1v6.39h-1Z"/><path d="M300.87,627.94A3.17,3.17,0,1,1,304,631.3,3.13,3.13,0,0,1,300.87,627.94Zm5.28,0a2.15,2.15,0,1,0-2.12,2.47A2.23,2.23,0,0,0,306.15,627.94Z"/><path d="M313.44,630.18a2.7,2.7,0,0,1-2.16,1.12c-1.67,0-2.84-1.28-2.84-3.35s1.16-3.36,2.84-3.36a2.68,2.68,0,0,1,2.16,1.12v-3.4h1v8.83h-1Zm0-3.67a2.41,2.41,0,0,0-1.92-1c-1.28,0-2,1.06-2,2.48s.77,2.46,2,2.46a2.38,2.38,0,0,0,1.92-1Z"/><path d="M276.06,246.11h-2.8v-1H280v1h-2.81V254h-1.09Z"/><path d="M280.25,247.56h1v1a2.71,2.71,0,0,1,2.13-1.16v1a1.59,1.59,0,0,0-.4,0,2.32,2.32,0,0,0-1.73,1V254h-1Z"/><path d="M284.44,245.81a.67.67,0,0,1,1.33,0,.67.67,0,1,1-1.33,0Zm.17,1.75h1V254h-1Z"/><path d="M288.07,254.85a2.46,2.46,0,0,0,2.08.87,1.82,1.82,0,0,0,2.05-1.91v-.92a2.66,2.66,0,0,1-2.14,1.14c-1.67,0-2.85-1.24-2.85-3.31s1.17-3.32,2.85-3.32a2.64,2.64,0,0,1,2.14,1.13v-1h1v6.21c0,2.11-1.48,2.77-3,2.77a3.25,3.25,0,0,1-2.58-1Zm4.13-5.53a2.36,2.36,0,0,0-1.9-1c-1.29,0-2.06,1-2.06,2.43s.77,2.44,2.06,2.44a2.35,2.35,0,0,0,1.9-1Z"/><path d="M295.66,254.85a2.46,2.46,0,0,0,2.08.87,1.82,1.82,0,0,0,2.05-1.91v-.92a2.66,2.66,0,0,1-2.14,1.14c-1.67,0-2.85-1.24-2.85-3.31s1.17-3.32,2.85-3.32a2.66,2.66,0,0,1,2.14,1.13v-1h1v6.21c0,2.11-1.48,2.77-3,2.77a3.25,3.25,0,0,1-2.58-1Zm4.13-5.53a2.36,2.36,0,0,0-1.91-1c-1.28,0-2.05,1-2.05,2.43s.77,2.44,2.05,2.44a2.35,2.35,0,0,0,1.91-1Z"/><path d="M305.54,247.4c1.93,0,3.07,1.51,3.07,3.43v.25h-5.17a2.25,2.25,0,0,0,2.3,2.21,2.77,2.77,0,0,0,2-.81l.48.65a3.47,3.47,0,0,1-2.54,1,3.36,3.36,0,0,1-.11-6.71Zm-2.1,2.95h4.19a2.07,2.07,0,0,0-2.1-2.13A2.12,2.12,0,0,0,303.44,250.35Z"/><path d="M310.21,247.56h1v1a2.72,2.72,0,0,1,2.13-1.16v1a1.59,1.59,0,0,0-.4,0,2.32,2.32,0,0,0-1.73,1V254h-1Z"/><path d="M314.53,252.39a2.88,2.88,0,0,0,2.1.91c1,0,1.51-.43,1.51-1.06s-.78-.92-1.64-1.13c-1.08-.26-2.31-.55-2.31-1.87,0-1,.86-1.84,2.38-1.84a3.2,3.2,0,0,1,2.36.93l-.46.69a2.45,2.45,0,0,0-1.9-.81c-.88,0-1.42.4-1.42,1s.73.81,1.56,1c1.11.25,2.4.57,2.4,2,0,1.07-.86,1.93-2.52,1.93a3.41,3.41,0,0,1-2.58-1Z"/><path d="M273.52,265.41a4.4,4.4,0,0,1,4.49-4.56,4,4,0,0,1,3.39,1.74l-.93.52a3,3,0,0,0-2.46-1.28,3.59,3.59,0,0,0,0,7.17,2.94,2.94,0,0,0,2.46-1.29l.94.52A4,4,0,0,1,278,270,4.4,4.4,0,0,1,273.52,265.41Z"/><path d="M282.77,261h1v8.83h-1Z"/><path d="M285.38,266.62a3.17,3.17,0,1,1,3.16,3.36A3.13,3.13,0,0,1,285.38,266.62Zm5.27,0a2.14,2.14,0,1,0-2.11,2.47A2.22,2.22,0,0,0,290.65,266.62Z"/><path d="M297.62,268.92a3.14,3.14,0,0,1-2.27,1.06,1.8,1.8,0,0,1-2-2v-4.51h1v4.2c0,1.13.57,1.46,1.43,1.46a2.43,2.43,0,0,0,1.89-1v-4.69h1v6.39h-1Z"/><path d="M305.22,268.86a2.67,2.67,0,0,1-2.15,1.12c-1.67,0-2.85-1.27-2.85-3.35s1.17-3.36,2.85-3.36a2.65,2.65,0,0,1,2.15,1.12V261h1v8.83h-1Zm0-3.67a2.37,2.37,0,0,0-1.91-1c-1.29,0-2.05,1.06-2.05,2.48s.76,2.46,2.05,2.46a2.35,2.35,0,0,0,1.91-1Z"/><path d="M313,262.7l-2,7.12H309.9L307.39,261h1.22l1.95,7.36,2-7.36h.91l2,7.36,1.94-7.36h1.22l-2.52,8.83H315Z"/><path d="M323.34,269.09a2.78,2.78,0,0,1-2.12.89,2.13,2.13,0,0,1-2.23-2.12,2.09,2.09,0,0,1,2.23-2.1,2.66,2.66,0,0,1,2.12.87v-1.15c0-.86-.69-1.35-1.62-1.35a2.56,2.56,0,0,0-2,.88l-.47-.68a3.34,3.34,0,0,1,2.56-1.06c1.35,0,2.47.61,2.47,2.15v4.4h-1Zm0-1.83a2.15,2.15,0,0,0-1.76-.79,1.41,1.41,0,1,0,0,2.79,2.15,2.15,0,0,0,1.76-.79Z"/><path d="M326.51,268.48V264.3h-1.06v-.87h1.06v-1.75h1v1.75h1.3v.87h-1.3v4c0,.48.21.82.65.82a.92.92,0,0,0,.67-.27l.3.75a1.67,1.67,0,0,1-1.19.41A1.31,1.31,0,0,1,326.51,268.48Z"/><path d="M333,263.27a2.73,2.73,0,0,1,2.34,1.11l-.66.61a1.92,1.92,0,0,0-1.63-.84,2.49,2.49,0,0,0,0,4.94,2,2,0,0,0,1.63-.83l.66.6A2.73,2.73,0,0,1,333,270a3.36,3.36,0,0,1,0-6.71Z"/><path d="M341.07,265.61c0-1.12-.58-1.46-1.44-1.46a2.49,2.49,0,0,0-1.89,1v4.67h-1V261h1v3.36a3.16,3.16,0,0,1,2.28-1.08,1.8,1.8,0,0,1,2,2v4.51h-1Z"/><path d="M273.87,276.86h5.78v1H275v2.84h4.59v1H275v3h4.68v1h-5.78Z"/><path d="M280.4,279.29h1.08l2.12,5.24,2.12-5.24h1.09l-2.66,6.39h-1.09Z"/><path d="M290.61,279.14c1.93,0,3.07,1.5,3.07,3.42v.25h-5.17a2.25,2.25,0,0,0,2.3,2.21,2.8,2.8,0,0,0,2-.8l.48.64a3.47,3.47,0,0,1-2.54,1,3.35,3.35,0,0,1-.11-6.7Zm-2.1,2.95h4.19a2.07,2.07,0,0,0-2.1-2.13A2.13,2.13,0,0,0,288.51,282.09Z"/><path d="M299.59,281.5c0-1.12-.57-1.48-1.43-1.48a2.48,2.48,0,0,0-1.89,1v4.67h-1v-6.39h1v.93a3.16,3.16,0,0,1,2.28-1.08,1.81,1.81,0,0,1,2,2.06v4.48h-1Z"/><path d="M302.76,284.35v-4.18H301.7v-.88h1.06v-1.74h1v1.74h1.3v.88h-1.3v4c0,.47.22.82.65.82a1,1,0,0,0,.68-.27l.29.74a1.61,1.61,0,0,1-1.19.41A1.31,1.31,0,0,1,302.76,284.35Z"/></g></g></svg>