<svg xmlns="http://www.w3.org/2000/svg" viewBox="0 0 121.63 121.63"><g id="Layer_2" data-name="Layer 2"><g id="Layer_1-2" data-name="Layer 1"><path d="M7.92,121.1a6.72,6.72,0,0,1-4.78-11.42L108.94,2.52a6.61,6.61,0,0,1,4.77-2A6.72,6.72,0,0,1,118.49,12L12.7,119.11A6.65,6.65,0,0,1,7.92,121.1Z" style="fill:#fff"/><path d="M113.71,1.06h0a6.16,6.16,0,0,1,4.4,10.51L12.32,118.74a6.18,6.18,0,0,1-10.58-4.3,6.11,6.11,0,0,1,1.78-4.38L109.31,2.89a6.15,6.15,0,0,1,4.4-1.83m0-1.06a7.25,7.25,0,0,0-5.15,2.14L2.77,109.31a7.24,7.24,0,0,0,10.3,10.18L118.86,12.32A7.23,7.23,0,0,0,113.71,0Z" style="fill:#fff"/><path d="M114.4,120.41a6.69,6.69,0,0,1-4.72-1.92L2.52,12.69A6.71,6.71,0,0,1,2.46,3.2,6.75,6.75,0,0,1,12,3.14l107.16,105.8a6.69,6.69,0,0,1-4.71,11.47Z" style="fill:#fff"/><path d="M7.23,1.74h0a6.1,6.1,0,0,1,4.34,1.78L118.74,109.31a6.18,6.18,0,0,1-4.34,10.58,6.1,6.1,0,0,1-4.34-1.78L2.89,12.32a6.2,6.2,0,0,1-.06-8.74,6.12,6.12,0,0,1,4.4-1.84m0-1A7.23,7.23,0,0,0,2.14,13.07L109.31,118.86a7.27,7.27,0,0,0,10.24-.06h0a7.26,7.26,0,0,0-.06-10.24L12.32,2.77A7.22,7.22,0,0,0,7.23.69Z" style="fill:#fff"/></g></g></svg>