<svg xmlns="http://www.w3.org/2000/svg" viewBox="0 0 251.33 213.76"><g id="Layer_2" data-name="Layer 2"><g id="Layer_1-2" data-name="Layer 1"><g id="Layer_8" data-name="Layer 8"><path d="M251.33,18.32V212.37a49.39,49.39,0,0,1-10.36.88c-74.47-1.47-140.12.5-215,.51H16.68c-2.5,0-5.1,0-7.35-1.23-12.11-6.51-10.89-38-5-48.62,8-14.39,12.41-19.57,17.33-29a81.59,81.59,0,0,0,9.47-42.55c-.52-8.49-1.55-17-.57-25.46s4.3-17,10.65-21.65c13.23-9.69,30.8,1.47,46.42-1a29.7,29.7,0,0,0,19.89-13.65C111,25.07,113.13,18.18,118,14.23c7.59-6.13,18-2.63,27.38-2.83,10.17-.22,17.81,2.8,28.65-4S251.33-9.15,251.33,18.32Z" style="fill:#28c8e5"/></g></g></g></svg>