<svg xmlns="http://www.w3.org/2000/svg" xmlns:xlink="http://www.w3.org/1999/xlink" viewBox="0 0 940 358"><defs><style>.cls-1,.cls-5{fill:#fff;}.cls-2{fill:#c2eaf1;}.cls-3{fill:#b0084d;}.cls-3,.cls-5,.cls-7,.cls-9{fill-rule:evenodd;}.cls-4{fill:url(#linear-gradient);}.cls-6{fill:url(#linear-gradient-2);}.cls-7{fill:#d45b07;}.cls-8{fill:url(#linear-gradient-3);}.cls-9{fill:#bf0816;}.cls-10{fill:url(#linear-gradient-4);}.cls-11{fill:none;stroke:#000;stroke-miterlimit:10;}.cls-12{fill:url(#linear-gradient-5);}</style><linearGradient id="linear-gradient" x1="-2450.29" y1="377.55" x2="-2449.71" y2="378.13" gradientTransform="matrix(80, 0, 0, -80, 196191.57, 30340.96)" gradientUnits="userSpaceOnUse"><stop offset="0" stop-color="#c8511b"/><stop offset="1" stop-color="#f90"/></linearGradient><linearGradient id="linear-gradient-2" x1="-2450.28" y1="375.43" x2="-2449.7" y2="376.02" gradientTransform="matrix(80, 0, 0, -80, 196191.57, 30340.96)" gradientUnits="userSpaceOnUse"><stop offset="0" stop-color="#2e27ad"/><stop offset="1" stop-color="#527fff"/></linearGradient><linearGradient id="linear-gradient-3" x1="-2444.59" y1="378.26" x2="-2444.01" y2="378.84" gradientTransform="matrix(80, 0, 0, -80, 196191.57, 30340.96)" gradientUnits="userSpaceOnUse"><stop offset="0" stop-color="#b0084d"/><stop offset="1" stop-color="#ff4f8b"/></linearGradient><linearGradient id="linear-gradient-4" x1="-2448.52" y1="378.1" x2="-2447.95" y2="378.68" xlink:href="#linear-gradient-2"/><linearGradient id="linear-gradient-5" x1="-2447.31" y1="375.28" x2="-2446.73" y2="375.85" xlink:href="#linear-gradient-3"/></defs><g id="Layer_2" data-name="Layer 2"><g id="Layer_1-2" data-name="Layer 1"><rect class="cls-1" width="940" height="358"/><rect class="cls-2" x="643.36" y="7.52" width="152.61" height="100.3" rx="11.06"/><rect class="cls-2" x="191.99" y="35.1" width="178.3" height="178.3" rx="15.94"/><rect class="cls-2" x="429.69" y="250.8" width="125.25" height="98.55" rx="9.93"/><path d="M73,108.49H70.36l-.38,1h-1.4l2.32-6h1.6l2.32,6h-1.4Zm-2.34-1.11h2l-1-2.75Z"/><path d="M80.74,106.78c0-.41-.18-.7-.65-.7a1.18,1.18,0,0,0-.9.51v2.93H78v-2.74c0-.41-.18-.7-.65-.7a1.19,1.19,0,0,0-.9.52v2.92H75.35v-4.34h1.14v.56a1.91,1.91,0,0,1,1.42-.67,1.15,1.15,0,0,1,1.21.79,1.83,1.83,0,0,1,1.49-.79,1.16,1.16,0,0,1,1.28,1.31v3.14H80.74Z"/><path d="M85.63,109.07a1.78,1.78,0,0,1-1.38.56,1.45,1.45,0,0,1-1.51-1.44,1.37,1.37,0,0,1,1.51-1.38,1.76,1.76,0,0,1,1.38.53v-.61c0-.44-.38-.73-1-.73a1.85,1.85,0,0,0-1.27.52l-.43-.77a2.85,2.85,0,0,1,1.9-.68c1,0,1.9.39,1.9,1.65v2.8H85.63Zm0-1.13a1.16,1.16,0,0,0-.92-.38c-.45,0-.82.24-.82.66s.37.64.82.64a1.16,1.16,0,0,0,.92-.38Z"/><path d="M87.71,108.67l2-2.49h-2v-1h3.51V106l-2,2.53h2v1H87.71Z"/><path d="M91.93,107.35a2.3,2.3,0,1,1,2.3,2.28A2.2,2.2,0,0,1,91.93,107.35Zm3.42,0a1.12,1.12,0,1,0-2.23,0,1.12,1.12,0,1,0,2.23,0Z"/><path d="M100.31,106.9c0-.61-.31-.82-.8-.82a1.25,1.25,0,0,0-1,.52v2.92H97.38v-4.34h1.14v.56a2,2,0,0,1,1.52-.67,1.27,1.27,0,0,1,1.42,1.38v3.07h-1.15Z"/><path d="M48.24,117.33a3,3,0,0,1,3.15-3.11A2.78,2.78,0,0,1,54,115.69l-1.1.54a1.64,1.64,0,0,0-1.46-.88,2,2,0,0,0,0,4,1.62,1.62,0,0,0,1.46-.88L54,119a2.8,2.8,0,0,1-2.56,1.47A3,3,0,0,1,48.24,117.33Z"/><path d="M54.68,114.32h1.15v6H54.68Z"/><path d="M56.68,118.15a2.3,2.3,0,1,1,2.3,2.28A2.2,2.2,0,0,1,56.68,118.15Zm3.41,0A1.12,1.12,0,1,0,59,119.41,1.15,1.15,0,0,0,60.09,118.15Z"/><path d="M65.06,119.78a2,2,0,0,1-1.53.65,1.24,1.24,0,0,1-1.4-1.37V116h1.14v2.63c0,.61.31.8.8.8a1.29,1.29,0,0,0,1-.49V116h1.15v4.34H65.06Z"/><path d="M70.33,119.77a1.7,1.7,0,0,1-1.34.66c-1.1,0-1.93-.83-1.93-2.28s.82-2.28,1.93-2.28a1.68,1.68,0,0,1,1.34.66v-2.21h1.15v6H70.33Zm0-2.39a1.25,1.25,0,0,0-1-.5,1.28,1.28,0,0,0,0,2.53,1.25,1.25,0,0,0,1-.49Z"/><path d="M76.18,116.2l-1.05,4.12H73.77l-1.72-6h1.43l1.06,4.34,1.14-4.34h1l1.13,4.34,1-4.34H80.3l-1.71,6H77.23Z"/><path d="M83.12,119.87a1.75,1.75,0,0,1-1.37.56A1.45,1.45,0,0,1,80.23,119a1.37,1.37,0,0,1,1.52-1.38,1.71,1.71,0,0,1,1.37.53v-.61c0-.44-.37-.73-1-.73a1.85,1.85,0,0,0-1.27.52l-.43-.77a2.83,2.83,0,0,1,1.9-.68c1,0,1.9.39,1.9,1.65v2.8H83.12Zm0-1.13a1.12,1.12,0,0,0-.91-.38c-.45,0-.82.24-.82.66s.37.64.82.64a1.12,1.12,0,0,0,.91-.38Z"/><path d="M85.62,119.24V117h-.71v-1h.71v-1.19h1.16V116h.88v1h-.88v2c0,.27.14.47.39.47a.65.65,0,0,0,.4-.12l.24.86a1.36,1.36,0,0,1-1,.28A1.09,1.09,0,0,1,85.62,119.24Z"/><path d="M90.47,115.87a2,2,0,0,1,1.72.78l-.75.7a1.07,1.07,0,0,0-.92-.47,1.27,1.27,0,0,0,0,2.53,1.09,1.09,0,0,0,.92-.46l.75.69a2,2,0,0,1-1.72.79,2.28,2.28,0,1,1,0-4.56Z"/><path d="M95.88,117.68c0-.61-.32-.8-.81-.8a1.26,1.26,0,0,0-1,.52v2.92H92.93v-6h1.15v2.22a2,2,0,0,1,1.53-.67A1.25,1.25,0,0,1,97,117.24v3.08H95.88Z"/><path d="M102.43,115.87a2.18,2.18,0,0,1,2.18,2.39v.25h-3.23a1.17,1.17,0,0,0,1.25,1,1.79,1.79,0,0,0,1.16-.43l.5.74a2.67,2.67,0,0,1-1.79.6,2.28,2.28,0,1,1-.07-4.56Zm-1.07,1.87h2.14a1,1,0,0,0-1.07-1A1,1,0,0,0,101.36,117.74Z"/><path d="M104.81,116H106l1.13,3,1.14-3h1.23l-1.75,4.34h-1.23Z"/><path d="M112,115.87a2.18,2.18,0,0,1,2.18,2.39v.25H111a1.17,1.17,0,0,0,1.25,1,1.77,1.77,0,0,0,1.16-.43l.51.74a2.72,2.72,0,0,1-1.8.6,2.28,2.28,0,1,1-.07-4.56ZM111,117.74h2.14a1,1,0,0,0-1.07-1A1,1,0,0,0,111,117.74Z"/><path d="M118,117.7c0-.61-.31-.82-.8-.82a1.25,1.25,0,0,0-1,.52v2.92H115V116h1.14v.56a2,2,0,0,1,1.52-.67,1.27,1.27,0,0,1,1.42,1.38v3.07H118Z"/><path d="M120.46,119.24V117h-.72v-1h.72v-1.19h1.16V116h.88v1h-.88v2c0,.27.14.47.39.47a.65.65,0,0,0,.4-.12l.24.86a1.37,1.37,0,0,1-1,.28A1.09,1.09,0,0,1,120.46,119.24Z"/><path d="M60.33,128.94a6.24,6.24,0,0,1,1.43-4l.72.54a6.58,6.58,0,0,0-.91,3.44,6.46,6.46,0,0,0,.91,3.42l-.72.56A6.24,6.24,0,0,1,60.33,128.94Z"/><path d="M63.43,130v-2.26h-.72v-1h.72v-1.19h1.15v1.19h.89v1h-.89v2a.42.42,0,0,0,.4.47.62.62,0,0,0,.39-.12l.25.86a1.39,1.39,0,0,1-1,.28A1.08,1.08,0,0,1,63.43,130Z"/><path d="M66.13,125.45a.69.69,0,0,1,.69-.68.68.68,0,0,1,.68.68.69.69,0,0,1-.68.69A.7.7,0,0,1,66.13,125.45Zm.12,1.33h1.14v4.34H66.25Z"/><path d="M73.92,128.38c0-.41-.18-.7-.65-.7a1.13,1.13,0,0,0-.9.51v2.93H71.22v-2.74c0-.41-.18-.7-.65-.7a1.15,1.15,0,0,0-.9.52v2.92H68.53v-4.34h1.14v.56a1.89,1.89,0,0,1,1.42-.67,1.15,1.15,0,0,1,1.21.79,1.83,1.83,0,0,1,1.49-.79A1.16,1.16,0,0,1,75.07,128v3.14H73.92Z"/><path d="M78.17,126.67a2.17,2.17,0,0,1,2.17,2.39v.25H77.11a1.17,1.17,0,0,0,1.25,1,1.75,1.75,0,0,0,1.16-.43l.51.74a2.69,2.69,0,0,1-1.79.6,2.28,2.28,0,1,1-.07-4.56Zm-1.08,1.87h2.15a1,1,0,0,0-1.07-1A1.05,1.05,0,0,0,77.09,128.54Z"/><path d="M80.87,128.46H83v1H80.87Z"/><path d="M83.87,125.12H85v2.21a1.68,1.68,0,0,1,1.34-.66c1.11,0,1.93.86,1.93,2.28s-.83,2.28-1.93,2.28a1.7,1.7,0,0,1-1.34-.66v.55H83.87ZM86,130.21A1.12,1.12,0,0,0,87.1,129,1.14,1.14,0,0,0,86,127.68a1.26,1.26,0,0,0-1,.51v1.54A1.26,1.26,0,0,0,86,130.21Z"/><path d="M91.75,130.67a1.75,1.75,0,0,1-1.37.56,1.45,1.45,0,0,1-1.52-1.44,1.38,1.38,0,0,1,1.52-1.39,1.71,1.71,0,0,1,1.37.54v-.61c0-.44-.37-.73-1-.73a1.85,1.85,0,0,0-1.27.52l-.43-.77a2.83,2.83,0,0,1,1.9-.68c1,0,1.9.39,1.9,1.65v2.8H91.75Zm0-1.13a1.12,1.12,0,0,0-.91-.38c-.45,0-.82.24-.82.66s.37.64.82.64a1.12,1.12,0,0,0,.91-.38Z"/><path d="M94.15,129.76a2.51,2.51,0,0,0,1.5.59c.5,0,.73-.17.73-.44s-.38-.42-.87-.51c-.75-.15-1.71-.33-1.71-1.36,0-.73.64-1.37,1.78-1.37a2.76,2.76,0,0,1,1.75.59l-.45.78a1.88,1.88,0,0,0-1.29-.5c-.42,0-.69.15-.69.41s.35.37.83.46c.75.15,1.75.35,1.75,1.43,0,.79-.68,1.39-1.88,1.39a3,3,0,0,1-1.95-.67Z"/><path d="M100.29,126.67a2.18,2.18,0,0,1,2.18,2.39v.25H99.24a1.17,1.17,0,0,0,1.25,1,1.77,1.77,0,0,0,1.16-.43l.51.74a2.69,2.69,0,0,1-1.79.6,2.28,2.28,0,1,1-.08-4.56Zm-1.07,1.87h2.15a1,1,0,0,0-1.08-1A1,1,0,0,0,99.22,128.54Z"/><path d="M106.29,130.57a1.69,1.69,0,0,1-1.34.66c-1.1,0-1.93-.83-1.93-2.28s.82-2.28,1.93-2.28a1.67,1.67,0,0,1,1.34.66v-2.21h1.15v6h-1.15Zm0-2.39a1.24,1.24,0,0,0-1-.5,1.28,1.28,0,0,0,0,2.53,1.23,1.23,0,0,0,1-.49Z"/><path d="M108.16,125.5l.72-.54a6.22,6.22,0,0,1,0,8l-.72-.56a6.37,6.37,0,0,0,.92-3.42A6.49,6.49,0,0,0,108.16,125.5Z"/><g id="Icon-Resource_Managment-Governance_Res_Amazon-Cloudwatch_Event-Time-Based_48" data-name="Icon-Resource/Managment-Governance/Res_Amazon-Cloudwatch_Event-Time-Based_48"><path id="Amazon-Cloudwatch_Event-time-based_Resource-Icon_light-bg" data-name="Amazon-Cloudwatch Event-time-based Resource-Icon light-bg" class="cls-3" d="M100.34,57.55H95v-2h3.39V51.28h2Zm-1-7.91a6,6,0,1,1-6,6,6,6,0,0,1,6-6Zm0,14.08a8,8,0,1,0-8-8,8.05,8.05,0,0,0,8,8Zm3.4,22.63h-6.8V66.8a11.92,11.92,0,0,0,6.8,0Zm.59-21.9a9.9,9.9,0,0,1-8,0,1,1,0,0,0-.95.07,1,1,0,0,0-.46.84v22a1,1,0,0,0,1,1h8.8a1,1,0,0,0,1-1v-22a1,1,0,0,0-1.41-.91ZM63.27,91.87h44v-2h-44Zm18.59-5.52h6.8V73.4h-6.8Zm-1,2h8.8a1,1,0,0,0,1-1V72.4a1,1,0,0,0-1-1h-8.8a1,1,0,0,0-1,1V87.35a1,1,0,0,0,1,1Zm-13.07-2h6.8V69h-6.8Zm-1,2h8.8a1,1,0,0,0,1-1V68a1,1,0,0,0-1-1h-8.8a1,1,0,0,0-1,1V87.35a1,1,0,0,0,1,1Z"/></g><g id="Icon-Architecture_64_Arch_AWS-Lambda_64" data-name="Icon-Architecture/64/Arch_AWS-Lambda_64"><g id="Icon-Architecture-BG_64_Compute" data-name="Icon-Architecture-BG/64/Compute"><rect id="Rectangle" class="cls-4" x="168.66" y="90.33" width="46.37" height="46.37"/></g><path id="AWS-Lambda_Icon_64_Squid" data-name="AWS-Lambda Icon 64 Squid" class="cls-5" d="M184.89,128.58H177.7l8-16.64,3.6,7.43Zm1.28-18.23a.57.57,0,0,0-.52-.32h0a.57.57,0,0,0-.52.33l-8.88,18.55a.58.58,0,0,0,.52.83h8.49a.6.6,0,0,0,.53-.33l4.64-9.8a.55.55,0,0,0,0-.5Zm20.16,18.23h-7.15l-11.47-24a.59.59,0,0,0-.53-.33h-4.67v-5.8h9.17l11.42,24a.58.58,0,0,0,.52.34h2.71Zm.58-7H204l-11.42-24a.57.57,0,0,0-.52-.33H181.93a.58.58,0,0,0-.58.58v7a.58.58,0,0,0,.58.58h4.9l11.47,24a.59.59,0,0,0,.52.33h8.1a.58.58,0,0,0,.58-.58v-7a.58.58,0,0,0-.58-.58Z"/></g><path d="M186.7,152.13H184l-.38,1h-1.4l2.32-6h1.6l2.32,6h-1.4ZM184.36,151h2l-1-2.76Z"/><path d="M192.17,149l-1,4.12h-1.36l-1.72-6h1.43l1.06,4.34,1.14-4.34h1l1.13,4.34,1.05-4.34h1.44l-1.71,6h-1.36Z"/><path d="M197.19,151.34a2.63,2.63,0,0,0,1.9.81c.71,0,1-.33,1-.67s-.52-.61-1.22-.77c-1-.22-2.24-.49-2.24-1.83,0-1,.87-1.81,2.28-1.81a3.38,3.38,0,0,1,2.34.83l-.71.94a2.56,2.56,0,0,0-1.72-.66c-.58,0-.88.26-.88.62s.5.53,1.19.69c1,.22,2.26.52,2.26,1.85,0,1.1-.79,1.93-2.41,1.93a3.5,3.5,0,0,1-2.55-1Z"/><path d="M176.27,158h1.28v4.88h2.54V164h-3.82Z"/><path d="M183.5,163.51a1.81,1.81,0,0,1-1.38.56,1.45,1.45,0,0,1-1.51-1.44,1.38,1.38,0,0,1,1.51-1.39,1.76,1.76,0,0,1,1.38.53v-.6c0-.44-.38-.73-1-.73a1.85,1.85,0,0,0-1.27.51l-.43-.76a2.85,2.85,0,0,1,1.9-.68c1,0,1.9.39,1.9,1.64V164H183.5Zm0-1.13a1.12,1.12,0,0,0-.92-.38c-.45,0-.82.23-.82.66s.37.64.82.64a1.16,1.16,0,0,0,.92-.38Z"/><path d="M191.17,161.22c0-.41-.18-.7-.65-.7a1.13,1.13,0,0,0-.9.51V164h-1.16v-2.74c0-.41-.17-.7-.64-.7a1.15,1.15,0,0,0-.9.52V164h-1.15v-4.35h1.15v.57a1.89,1.89,0,0,1,1.42-.67,1.13,1.13,0,0,1,1.2.79,1.85,1.85,0,0,1,1.5-.79,1.16,1.16,0,0,1,1.28,1.31V164h-1.15Z"/><path d="M193.44,158h1.14v2.21a1.69,1.69,0,0,1,1.35-.66c1.1,0,1.92.86,1.92,2.28s-.83,2.28-1.92,2.28a1.69,1.69,0,0,1-1.35-.67V164h-1.14Zm2.13,5.09a1.12,1.12,0,0,0,1.1-1.26,1.13,1.13,0,0,0-1.1-1.27,1.28,1.28,0,0,0-1,.51v1.54A1.28,1.28,0,0,0,195.57,163.05Z"/><path d="M201.7,163.4a1.67,1.67,0,0,1-1.34.67c-1.1,0-1.92-.83-1.92-2.28s.81-2.28,1.92-2.28a1.67,1.67,0,0,1,1.34.66V158h1.16v6H201.7Zm0-2.38a1.24,1.24,0,0,0-1-.5,1.28,1.28,0,0,0,0,2.53,1.23,1.23,0,0,0,1-.49Z"/><path d="M206.6,163.51a1.81,1.81,0,0,1-1.38.56,1.45,1.45,0,0,1-1.51-1.44,1.38,1.38,0,0,1,1.51-1.39,1.76,1.76,0,0,1,1.38.53v-.6c0-.44-.38-.73-.95-.73a1.84,1.84,0,0,0-1.27.51l-.44-.76a2.86,2.86,0,0,1,1.9-.68c1,0,1.9.39,1.9,1.64V164H206.6Zm0-1.13a1.12,1.12,0,0,0-.92-.38c-.45,0-.82.23-.82.66s.37.64.82.64a1.16,1.16,0,0,0,.92-.38Z"/><path d="M186.7,322.15H184l-.38,1h-1.4l2.32-6h1.6l2.32,6h-1.4ZM184.36,321h2l-1-2.76Z"/><path d="M192.17,319.06l-1,4.12h-1.36l-1.72-6h1.43l1.06,4.34,1.14-4.34h1l1.13,4.34,1.05-4.34h1.44l-1.71,6h-1.36Z"/><path d="M197.19,321.36a2.59,2.59,0,0,0,1.9.81c.71,0,1-.33,1-.67s-.52-.6-1.22-.77c-1-.22-2.24-.49-2.24-1.83,0-1,.87-1.81,2.28-1.81a3.38,3.38,0,0,1,2.34.83l-.71.94a2.56,2.56,0,0,0-1.72-.66c-.58,0-.88.26-.88.62s.5.53,1.19.69c1,.22,2.26.52,2.26,1.85,0,1.1-.79,1.93-2.41,1.93a3.5,3.5,0,0,1-2.55-1Z"/><path d="M183.3,331.79,181.79,334h-1.53l2.18-3.08-2-2.92h1.52l1.38,2,1.36-2h1.54l-2,2.91,2.18,3.09H184.8Z"/><path d="M186.15,331.32h2.16v1h-2.16Z"/><path d="M191.39,331.83h-.94V334h-1.28v-6H192a1.87,1.87,0,0,1,2,1.93,1.74,1.74,0,0,1-1.31,1.79L194,334h-1.47Zm.4-2.75h-1.34v1.65h1.34a.83.83,0,1,0,0-1.65Z"/><path d="M197.37,333.53a1.81,1.81,0,0,1-1.38.56,1.44,1.44,0,0,1-1.51-1.44,1.37,1.37,0,0,1,1.51-1.39,1.78,1.78,0,0,1,1.38.53v-.6c0-.44-.38-.73-1-.73a1.8,1.8,0,0,0-1.27.52l-.43-.77a2.83,2.83,0,0,1,1.9-.68c1,0,1.9.39,1.9,1.64V334h-1.14Zm0-1.13a1.16,1.16,0,0,0-.92-.38c-.45,0-.82.23-.82.66s.37.64.82.64a1.16,1.16,0,0,0,.92-.38Z"/><path d="M200,334.73c.3,0,.5-.08.6-.32l.17-.36L199,329.63h1.23l1.13,3,1.13-3h1.24l-2.05,5.06a1.58,1.58,0,0,1-1.64,1.06,2.78,2.78,0,0,1-.57-.07l.17-1A1.1,1.1,0,0,0,200,334.73Z"/><g id="Icon-Architecture_64_Arch_AWS-X-Ray_64" data-name="Icon-Architecture/64/Arch_AWS-X-Ray_64"><g id="Icon-Architecture-BG_64_Developer-Tools" data-name="Icon-Architecture-BG/64/Developer-Tools"><rect id="Rectangle-2" data-name="Rectangle" class="cls-6" x="168.85" y="259.63" width="46.83" height="46.83"/></g><path id="AWS-X-Ray_Icon_64_Squid" data-name="AWS-X-Ray Icon 64 Squid" class="cls-5" d="M196.66,284.34h-1.17v8.12h-2.34v-5.8H192v5.8h-2.35V288.4h-1.17v4.06h-1.17v1.16h10.54v-1.16h-1.17Zm4.68,4.35a8.49,8.49,0,1,0-8.49,8.42,8.47,8.47,0,0,0,8.49-8.42Zm1.17,0a9.66,9.66,0,1,1-9.66-9.58,9.63,9.63,0,0,1,9.66,9.58Zm6.15-6.4c0,3.31-1.83,5.46-5,5.91l-.16-1.15c1.83-.26,4-1.29,4-4.76,0-3.26-2.49-4.44-4.57-4.86a.57.57,0,0,1-.47-.53c-.14-2.39-1.55-3.45-2.89-3.45a2.69,2.69,0,0,0-2.15,1.08.61.61,0,0,1-.55.22.59.59,0,0,1-.46-.37,8.76,8.76,0,0,0-2-3.21,7.46,7.46,0,0,0-8.22-1.57,7.37,7.37,0,0,0-4.3,6.42,6.25,6.25,0,0,0,.06.87.6.6,0,0,1-.44.64,4.62,4.62,0,0,0-3.83,4.71c0,.13,0,.24,0,.36.1,1.92,1.78,3.69,4.07,4.3l-.3,1.12c-2.77-.73-4.81-2.94-4.94-5.36,0-.14,0-.27,0-.42a5.67,5.67,0,0,1,4.23-5.7c0-.17,0-.35,0-.52a8.5,8.5,0,0,1,5-7.5,8.6,8.6,0,0,1,9.48,1.82,9.56,9.56,0,0,1,2,2.8,3.86,3.86,0,0,1,2.42-.85c1.8,0,3.69,1.27,4,4.1,3.28.79,5.08,2.87,5.08,5.9Z"/></g><path d="M96.45,235a3.64,3.64,0,0,1,3.72-3.78,3.27,3.27,0,0,1,2.8,1.45l-.76.42a2.5,2.5,0,0,0-2-1.06,3,3,0,0,0,0,5.93,2.48,2.48,0,0,0,2-1.06l.77.43a3.32,3.32,0,0,1-2.81,1.44A3.64,3.64,0,0,1,96.45,235Z"/><path d="M107.41,238.06a2.29,2.29,0,0,1-1.75.73,1.76,1.76,0,0,1-1.85-1.75,1.73,1.73,0,0,1,1.85-1.74,2.22,2.22,0,0,1,1.75.72v-1c0-.71-.57-1.12-1.33-1.12a2.08,2.08,0,0,0-1.62.74l-.39-.57a2.78,2.78,0,0,1,2.11-.88c1.12,0,2,.51,2,1.79v3.63h-.82Zm0-1.51a1.77,1.77,0,0,0-1.45-.66,1.16,1.16,0,1,0,0,2.31,1.77,1.77,0,0,0,1.45-.66Z"/><path d="M109.87,231.36h.82v7.3h-.82Z"/><path d="M112.33,231.36h.82v7.3h-.82Z"/><path d="M114.76,237.37a2.4,2.4,0,0,0,1.74.75c.8,0,1.24-.36,1.24-.87s-.64-.77-1.35-.94c-.9-.21-1.92-.45-1.92-1.55,0-.82.71-1.52,2-1.52a2.67,2.67,0,0,1,2,.77l-.38.57a2.08,2.08,0,0,0-1.58-.67c-.72,0-1.17.33-1.17.8s.6.68,1.29.84c.92.21,2,.47,2,1.64,0,.89-.71,1.6-2.08,1.6a2.81,2.81,0,0,1-2.13-.83Z"/><path d="M126.18,231.24a3.48,3.48,0,0,1,2.84,1.37l-.72.45a2.71,2.71,0,0,0-2.12-1,3,3,0,1,0,2,5.15v-1.48h-2.5v-.81h3.41v2.63a3.78,3.78,0,0,1-2.87,1.26,3.78,3.78,0,0,1,0-7.56Z"/><path d="M132.79,233.24a2.57,2.57,0,0,1,2.54,2.84v.2h-4.28a1.87,1.87,0,0,0,1.9,1.83,2.29,2.29,0,0,0,1.63-.67l.4.54a2.86,2.86,0,0,1-2.1.81,2.78,2.78,0,0,1-.09-5.55Zm-1.74,2.44h3.47a1.72,1.72,0,0,0-1.74-1.76A1.76,1.76,0,0,0,131.05,235.68Z"/><path d="M136.81,237.55V234.1h-.87v-.73h.87v-1.44h.82v1.44h1.07v.73h-1.07v3.28c0,.39.18.68.54.68a.8.8,0,0,0,.56-.22l.24.61a1.35,1.35,0,0,1-1,.34A1.09,1.09,0,0,1,136.81,237.55Z"/><path d="M140,236.94a3.09,3.09,0,0,0,2.3,1c1.3,0,1.72-.7,1.72-1.26,0-.87-.89-1.11-1.85-1.38-1.17-.3-2.47-.63-2.47-2.06,0-1.21,1.07-2,2.5-2a3.44,3.44,0,0,1,2.6,1l-.55.67a2.8,2.8,0,0,0-2.11-.88c-.88,0-1.5.47-1.5,1.16s.84.95,1.77,1.2c1.19.32,2.55.69,2.55,2.23,0,1.06-.72,2.14-2.69,2.14a3.6,3.6,0,0,1-2.8-1.16Z"/><path d="M148.57,233.24a2.57,2.57,0,0,1,2.54,2.84v.2h-4.28a1.85,1.85,0,0,0,1.9,1.83,2.29,2.29,0,0,0,1.63-.67l.4.54a2.86,2.86,0,0,1-2.1.81,2.78,2.78,0,0,1-.09-5.55Zm-1.74,2.44h3.47a1.72,1.72,0,0,0-1.74-1.76A1.76,1.76,0,0,0,146.83,235.68Z"/><path d="M152.43,233.37h.82v.86a2.23,2.23,0,0,1,1.76-1v.84a1.57,1.57,0,0,0-.33,0,1.93,1.93,0,0,0-1.43.85v3.74h-.82Z"/><path d="M155.25,233.37h.88l1.77,4.34,1.75-4.34h.89l-2.2,5.29h-.89Z"/><path d="M161.25,231.93a.55.55,0,0,1,.55-.55.56.56,0,0,1,.56.55.57.57,0,0,1-.56.56A.56.56,0,0,1,161.25,231.93Zm.14,1.44h.82v5.29h-.82Z"/><path d="M166.18,233.24a2.27,2.27,0,0,1,1.94.92l-.55.51a1.55,1.55,0,0,0-1.34-.69,2.05,2.05,0,0,0,0,4.08,1.59,1.59,0,0,0,1.34-.69l.55.5a2.24,2.24,0,0,1-1.94.92,2.78,2.78,0,0,1,0-5.55Z"/><path d="M171.56,233.24a2.57,2.57,0,0,1,2.54,2.84v.2h-4.27a1.85,1.85,0,0,0,1.9,1.83,2.31,2.31,0,0,0,1.63-.67l.39.54a2.83,2.83,0,0,1-2.1.81,2.78,2.78,0,0,1-.09-5.55Zm-1.73,2.44h3.46a1.71,1.71,0,0,0-1.74-1.76A1.76,1.76,0,0,0,169.83,235.68Z"/><path d="M178.91,231.24a3.5,3.5,0,0,1,2.84,1.37l-.73.45a2.67,2.67,0,0,0-2.11-1,3,3,0,1,0,2,5.15v-1.48h-2.5v-.81h3.41v2.63a3.78,3.78,0,0,1-2.87,1.26,3.78,3.78,0,0,1,0-7.56Z"/><path d="M183.22,233.37H184v.86a2.24,2.24,0,0,1,1.76-1v.84a1.49,1.49,0,0,0-.33,0,1.93,1.93,0,0,0-1.43.85v3.74h-.82Z"/><path d="M190.13,238.06a2.29,2.29,0,0,1-1.75.73,1.76,1.76,0,0,1-1.85-1.75,1.73,1.73,0,0,1,1.85-1.74,2.21,2.21,0,0,1,1.75.72v-1c0-.71-.57-1.12-1.33-1.12a2.08,2.08,0,0,0-1.62.74l-.38-.57a2.75,2.75,0,0,1,2.11-.88c1.11,0,2,.51,2,1.79v3.63h-.82Zm0-1.51a1.75,1.75,0,0,0-1.45-.66,1.16,1.16,0,1,0,0,2.31,1.75,1.75,0,0,0,1.45-.66Z"/><path d="M192.59,240.67v-7.3h.82v.79a2.23,2.23,0,0,1,1.79-.92c1.38,0,2.35,1,2.35,2.77s-1,2.78-2.35,2.78a2.17,2.17,0,0,1-1.79-.93v2.81ZM195,234a2,2,0,0,0-1.58.84v2.38a2,2,0,0,0,1.58.86c1.06,0,1.69-.88,1.69-2.05S196.05,234,195,234Z"/><path d="M202.45,235.18c0-.93-.49-1.2-1.2-1.2a2.05,2.05,0,0,0-1.56.82v3.86h-.82v-7.3h.82v2.78a2.61,2.61,0,0,1,1.89-.9,1.49,1.49,0,0,1,1.69,1.69v3.73h-.82Z"/><path d="M212.35,237h-3.69l-.65,1.62h-1l2.93-7.3h1.13l2.94,7.3h-1Zm-3.43-.81h3.16l-1.58-4.06Z"/><path d="M215,231.36h2.93a2.2,2.2,0,1,1,0,4.4h-2v2.9H215Zm2.83.81h-1.92V235h1.92a1.39,1.39,0,1,0,0-2.78Z"/><path d="M221.37,231.36h.91v7.3h-.91Z"/><path d="M327.91,133.6H325.6v-.81h5.53v.81h-2.31v6.49h-.91Z"/><path d="M331.37,134.81h.82v.85a2.25,2.25,0,0,1,1.77-1v.84a1.61,1.61,0,0,0-.33,0,1.92,1.92,0,0,0-1.44.84v3.74h-.82Z"/><path d="M334.84,133.36a.55.55,0,0,1,1.1,0,.55.55,0,1,1-1.1,0Zm.14,1.45h.82v5.28H335Z"/><path d="M337.85,140.83a2,2,0,0,0,1.71.73,1.52,1.52,0,0,0,1.7-1.59v-.76a2.19,2.19,0,0,1-1.77.94c-1.38,0-2.35-1-2.35-2.73s1-2.75,2.35-2.75a2.19,2.19,0,0,1,1.77.93v-.79h.82v5.13c0,1.75-1.22,2.29-2.52,2.29a2.7,2.7,0,0,1-2.13-.78Zm3.41-4.57a1.94,1.94,0,0,0-1.58-.85c-1.06,0-1.69.84-1.69,2s.63,2,1.69,2a2,2,0,0,0,1.58-.86Z"/><path d="M344.12,140.83a2,2,0,0,0,1.72.73,1.52,1.52,0,0,0,1.7-1.59v-.76a2.21,2.21,0,0,1-1.78.94c-1.37,0-2.35-1-2.35-2.73s1-2.75,2.35-2.75a2.2,2.2,0,0,1,1.78.93v-.79h.82v5.13c0,1.75-1.23,2.29-2.52,2.29a2.69,2.69,0,0,1-2.13-.78Zm3.42-4.57a2,2,0,0,0-1.58-.85c-1.06,0-1.69.84-1.69,2s.63,2,1.69,2a2,2,0,0,0,1.58-.86Z"/><path d="M352.29,134.67a2.57,2.57,0,0,1,2.54,2.84v.21h-4.28a1.87,1.87,0,0,0,1.91,1.82,2.31,2.31,0,0,0,1.63-.67l.39.54a2.83,2.83,0,0,1-2.1.81,2.78,2.78,0,0,1-.09-5.55Zm-1.74,2.44H354a1.71,1.71,0,0,0-1.74-1.76A1.77,1.77,0,0,0,350.55,137.11Z"/><path d="M356.15,134.81H357v.85a2.24,2.24,0,0,1,1.76-1v.84a1.51,1.51,0,0,0-.32,0,1.92,1.92,0,0,0-1.44.84v3.74h-.82Z"/><path d="M359.73,138.8a2.41,2.41,0,0,0,1.74.75c.81,0,1.24-.36,1.24-.87s-.64-.77-1.35-.94c-.9-.21-1.92-.45-1.92-1.54,0-.83.71-1.53,2-1.53a2.67,2.67,0,0,1,2,.77L363,136a2.08,2.08,0,0,0-1.58-.67c-.72,0-1.17.33-1.17.8s.6.68,1.29.84c.92.21,2,.47,2,1.64,0,.89-.71,1.6-2.08,1.6a2.81,2.81,0,0,1-2.13-.83Z"/><path d="M367.4,136.45a3.65,3.65,0,0,1,3.72-3.78,3.28,3.28,0,0,1,2.8,1.45l-.76.42a2.49,2.49,0,0,0-2-1.06,3,3,0,0,0,0,5.93,2.46,2.46,0,0,0,2-1.06l.78.43a3.34,3.34,0,0,1-2.82,1.44A3.65,3.65,0,0,1,367.4,136.45Z"/><path d="M375.06,132.79h.82v7.3h-.82Z"/><path d="M377.21,137.44a2.62,2.62,0,1,1,2.62,2.78A2.6,2.6,0,0,1,377.21,137.44Zm4.37,0a1.78,1.78,0,1,0-1.75,2.05A1.84,1.84,0,0,0,381.58,137.44Z"/><path d="M387.34,139.35a2.56,2.56,0,0,1-1.88.87,1.49,1.49,0,0,1-1.69-1.68v-3.73h.82v3.47c0,.93.47,1.21,1.19,1.21a2,2,0,0,0,1.56-.8v-3.88h.82v5.28h-.82Z"/><path d="M393.63,139.3a2.23,2.23,0,0,1-1.79.92c-1.37,0-2.35-1.05-2.35-2.77s1-2.78,2.35-2.78a2.23,2.23,0,0,1,1.79.93v-2.81h.82v7.3h-.82Zm0-3a2,2,0,0,0-1.59-.85c-1.06,0-1.7.87-1.7,2s.64,2,1.7,2a2,2,0,0,0,1.59-.83Z"/><path d="M400.09,134.2l-1.61,5.89h-1l-2.08-7.3h1l1.61,6.08,1.68-6.08h.75l1.68,6.08,1.61-6.08h1l-2.08,7.3h-1Z"/><path d="M408.61,139.49a2.29,2.29,0,0,1-1.75.73,1.76,1.76,0,0,1-1.85-1.75,1.73,1.73,0,0,1,1.85-1.74,2.22,2.22,0,0,1,1.75.72v-.95c0-.71-.57-1.11-1.34-1.11a2.08,2.08,0,0,0-1.62.73l-.38-.57a2.78,2.78,0,0,1,2.11-.88c1.12,0,2.05.51,2.05,1.79v3.63h-.82Zm0-1.51a1.78,1.78,0,0,0-1.46-.66,1.16,1.16,0,1,0,0,2.31,1.78,1.78,0,0,0,1.46-.66Z"/><path d="M411.23,139v-3.45h-.87v-.72h.87v-1.45h.82v1.45h1.07v.72h-1.07v3.28c0,.39.18.68.54.68a.8.8,0,0,0,.56-.22l.24.61a1.35,1.35,0,0,1-1,.34A1.09,1.09,0,0,1,411.23,139Z"/><path d="M416.61,134.67a2.28,2.28,0,0,1,1.94.92l-.55.51a1.55,1.55,0,0,0-1.34-.69,2.05,2.05,0,0,0,0,4.08,1.59,1.59,0,0,0,1.34-.69l.55.5a2.25,2.25,0,0,1-1.94.92,2.78,2.78,0,0,1,0-5.55Z"/><path d="M423.27,136.61c0-.93-.48-1.2-1.19-1.2a2.09,2.09,0,0,0-1.57.82v3.86h-.82v-7.3h.82v2.78a2.65,2.65,0,0,1,1.9-.9,1.49,1.49,0,0,1,1.68,1.69v3.73h-.82Z"/><path d="M428.58,132.79h4.79v.81h-3.88V136h3.8v.81h-3.8v2.52h3.88v.81h-4.79Z"/><path d="M434,134.81h.88l1.76,4.33,1.75-4.33h.9l-2.2,5.28h-.9Z"/><path d="M442.43,134.67a2.57,2.57,0,0,1,2.54,2.84v.21h-4.28a1.86,1.86,0,0,0,1.9,1.82,2.27,2.27,0,0,0,1.63-.67l.4.54a2.86,2.86,0,0,1-2.1.81,2.78,2.78,0,0,1-.09-5.55Zm-1.74,2.44h3.47a1.72,1.72,0,0,0-1.74-1.76A1.76,1.76,0,0,0,440.69,137.11Z"/><path d="M449.85,136.63c0-.93-.47-1.22-1.18-1.22a2,2,0,0,0-1.56.82v3.86h-.82v-5.28h.82v.76a2.6,2.6,0,0,1,1.88-.9,1.51,1.51,0,0,1,1.69,1.71v3.71h-.83Z"/><path d="M452.48,139v-3.45h-.88v-.72h.88v-1.45h.82v1.45h1.07v.72H453.3v3.28c0,.39.17.68.53.68a.8.8,0,0,0,.56-.22l.24.61a1.32,1.32,0,0,1-1,.34A1.08,1.08,0,0,1,452.48,139Z"/><path d="M501.69,222.45a3.64,3.64,0,0,1,3.72-3.77,3.28,3.28,0,0,1,2.8,1.44l-.76.43a2.5,2.5,0,0,0-2-1.06,3,3,0,0,0,0,5.93,2.48,2.48,0,0,0,2-1.06l.77.42a3.3,3.3,0,0,1-2.81,1.45A3.64,3.64,0,0,1,501.69,222.45Z"/><path d="M509.35,218.8h.82v7.3h-.82Z"/><path d="M511.5,223.45a2.62,2.62,0,1,1,2.61,2.78A2.6,2.6,0,0,1,511.5,223.45Zm4.37,0a1.78,1.78,0,1,0-1.76,2.05A1.85,1.85,0,0,0,515.87,223.45Z"/><path d="M521.63,225.35a2.61,2.61,0,0,1-1.88.88,1.49,1.49,0,0,1-1.69-1.69v-3.73h.82v3.48c0,.93.47,1.21,1.18,1.21a2.05,2.05,0,0,0,1.57-.8v-3.89h.82v5.29h-.82Z"/><path d="M527.92,225.31a2.23,2.23,0,0,1-1.79.92c-1.38,0-2.35-1-2.35-2.77s1-2.78,2.35-2.78a2.23,2.23,0,0,1,1.79.93V218.8h.82v7.3h-.82Zm0-3a2,2,0,0,0-1.59-.86c-1.06,0-1.7.88-1.7,2.05s.64,2,1.7,2a2,2,0,0,0,1.59-.84Z"/><path d="M534.38,220.21l-1.61,5.89h-1l-2.07-7.3h1l1.62,6.08L534,218.8h.75l1.67,6.08L538,218.8h1L537,226.1h-1Z"/><path d="M542.9,225.5a2.29,2.29,0,0,1-1.75.73,1.76,1.76,0,0,1-1.85-1.75,1.73,1.73,0,0,1,1.85-1.74,2.22,2.22,0,0,1,1.75.72v-1c0-.71-.57-1.12-1.34-1.12a2.09,2.09,0,0,0-1.62.74l-.38-.57a2.78,2.78,0,0,1,2.11-.88c1.12,0,2.05.51,2.05,1.79v3.63h-.82Zm0-1.51a1.78,1.78,0,0,0-1.46-.66,1.16,1.16,0,1,0,0,2.31,1.78,1.78,0,0,0,1.46-.66Z"/><path d="M545.52,225v-3.46h-.88v-.72h.88v-1.44h.82v1.44h1.07v.72h-1.07v3.29c0,.39.17.68.53.68a.78.78,0,0,0,.56-.22l.24.61a1.31,1.31,0,0,1-1,.34A1.08,1.08,0,0,1,545.52,225Z"/><path d="M550.9,220.68a2.29,2.29,0,0,1,1.94.92l-.55.5a1.57,1.57,0,0,0-1.35-.69,2.06,2.06,0,0,0,0,4.09,1.6,1.6,0,0,0,1.35-.69l.55.5a2.29,2.29,0,0,1-1.94.92,2.78,2.78,0,0,1,0-5.55Z"/><path d="M557.56,222.62c0-.93-.48-1.21-1.19-1.21a2.08,2.08,0,0,0-1.57.83v3.86H554v-7.3h.82v2.78a2.63,2.63,0,0,1,1.9-.9,1.49,1.49,0,0,1,1.68,1.69v3.73h-.82Z"/><path d="M565.24,223.2h-1.46v2.9h-.91v-7.3h2.93a2.12,2.12,0,0,1,2.29,2.2,2,2,0,0,1-1.89,2.12l2,3h-1.08Zm.45-3.59h-1.91v2.79h1.91a1.4,1.4,0,1,0,0-2.79Z"/><path d="M573.05,225.35a2.57,2.57,0,0,1-1.88.88,1.49,1.49,0,0,1-1.68-1.69v-3.73h.82v3.48c0,.93.47,1.21,1.18,1.21a2,2,0,0,0,1.56-.8v-3.89h.82v5.29h-.82Z"/><path d="M575.51,218.8h.82v7.3h-.82Z"/><path d="M580.27,220.68a2.57,2.57,0,0,1,2.54,2.84v.2h-4.28a1.87,1.87,0,0,0,1.91,1.83,2.31,2.31,0,0,0,1.63-.67l.39.54a2.91,2.91,0,0,1-2.1.81,2.78,2.78,0,0,1-.09-5.55Zm-1.74,2.44H582a1.71,1.71,0,0,0-1.74-1.76A1.76,1.76,0,0,0,578.53,223.12Z"/><path d="M586.81,219.37a.55.55,0,0,1,1.1,0,.55.55,0,1,1-1.1,0Zm.14,1.44h.82v5.29H587Z"/><path d="M593,222.64c0-.93-.47-1.23-1.18-1.23a2,2,0,0,0-1.57.83v3.86h-.82v-5.29h.82v.77a2.62,2.62,0,0,1,1.88-.9,1.51,1.51,0,0,1,1.69,1.71v3.71H593Z"/><path d="M594.65,220.81h.89l1.76,4.34,1.75-4.34h.89l-2.19,5.29h-.9Z"/><path d="M600.49,223.45a2.62,2.62,0,1,1,2.61,2.78A2.59,2.59,0,0,1,600.49,223.45Zm4.36,0a1.78,1.78,0,1,0-1.75,2.05A1.84,1.84,0,0,0,604.85,223.45Z"/><path d="M608.75,223.72l-.88.87v1.51h-.82v-7.3h.82v4.82l2.78-2.81h1l-2.34,2.4,2.35,2.89h-1.05Z"/><path d="M614.72,220.68a2.57,2.57,0,0,1,2.53,2.84v.2H613a1.85,1.85,0,0,0,1.9,1.83,2.31,2.31,0,0,0,1.63-.67l.39.54a2.87,2.87,0,0,1-2.1.81,2.78,2.78,0,0,1-.08-5.55ZM613,223.12h3.46a1.7,1.7,0,0,0-1.73-1.76A1.76,1.76,0,0,0,613,223.12Z"/><path d="M618.54,224.81a2.41,2.41,0,0,0,1.74.75c.81,0,1.25-.36,1.25-.87s-.65-.77-1.36-.95c-.9-.2-1.91-.44-1.91-1.54,0-.82.71-1.52,2-1.52a2.64,2.64,0,0,1,1.95.77l-.38.57a2,2,0,0,0-1.57-.67c-.73,0-1.17.33-1.17.8s.6.68,1.29.84c.92.21,2,.47,2,1.64,0,.89-.71,1.6-2.08,1.6a2.78,2.78,0,0,1-2.13-.83Z"/><path d="M507.86,237.5a3.09,3.09,0,0,0,2.3,1c1.3,0,1.72-.7,1.72-1.26,0-.87-.89-1.11-1.85-1.38-1.17-.3-2.47-.63-2.47-2.06,0-1.21,1.07-2,2.5-2a3.44,3.44,0,0,1,2.6,1l-.55.67a2.8,2.8,0,0,0-2.11-.88c-.88,0-1.5.47-1.5,1.16s.84.95,1.77,1.21c1.19.31,2.55.68,2.55,2.22,0,1.06-.72,2.14-2.69,2.14a3.6,3.6,0,0,1-2.8-1.16Z"/><path d="M515.08,233.33v5.89h-.91v-7.3h.93l4.2,5.77v-5.77h.91v7.3h-.87Z"/><path d="M522,237.5a3.09,3.09,0,0,0,2.3,1c1.3,0,1.72-.7,1.72-1.26,0-.87-.89-1.11-1.85-1.38-1.17-.3-2.47-.63-2.47-2.06,0-1.21,1.07-2,2.5-2a3.44,3.44,0,0,1,2.6,1l-.55.67a2.8,2.8,0,0,0-2.11-.88c-.88,0-1.5.47-1.5,1.16s.84.95,1.77,1.21c1.19.31,2.55.68,2.55,2.22,0,1.06-.72,2.14-2.69,2.14a3.6,3.6,0,0,1-2.8-1.16Z"/><path d="M531.28,238.11v-3.45h-.88v-.72h.88v-1.45h.82v1.45h1.07v.72H532.1v3.28c0,.39.17.68.53.68a.8.8,0,0,0,.56-.22l.24.61a1.32,1.32,0,0,1-1,.34A1.08,1.08,0,0,1,531.28,238.11Z"/><path d="M534,236.57a2.62,2.62,0,1,1,2.61,2.78A2.6,2.6,0,0,1,534,236.57Zm4.37,0a1.78,1.78,0,1,0-1.76,2.05A1.84,1.84,0,0,0,538.39,236.57Z"/><path d="M540.58,241.23v-7.29h.82v.78a2.24,2.24,0,0,1,1.79-.92c1.38,0,2.35,1,2.35,2.77s-1,2.78-2.35,2.78a2.17,2.17,0,0,1-1.79-.93v2.81Zm2.4-6.69a2,2,0,0,0-1.58.84v2.38a2,2,0,0,0,1.58.86c1.06,0,1.69-.88,1.69-2.05S544,234.54,543,234.54Z"/><path d="M546.72,232.49a.55.55,0,1,1,1.1,0,.55.55,0,1,1-1.1,0Zm.14,1.45h.82v5.28h-.82Z"/><path d="M551.65,233.8a2.26,2.26,0,0,1,1.93.92l-.54.51a1.55,1.55,0,0,0-1.35-.69,2.05,2.05,0,0,0,0,4.08,1.6,1.6,0,0,0,1.35-.69l.54.5a2.24,2.24,0,0,1-1.93.92,2.78,2.78,0,0,1,0-5.55Z"/><path d="M557.72,238.11v-3.45h-.88v-.72h.88v-1.45h.82v1.45h1.07v.72h-1.07v3.28c0,.39.17.68.53.68a.8.8,0,0,0,.56-.22l.24.61a1.32,1.32,0,0,1-1,.34A1.08,1.08,0,0,1,557.72,238.11Z"/><path d="M560.46,236.57a2.62,2.62,0,1,1,2.62,2.78A2.6,2.6,0,0,1,560.46,236.57Zm4.37,0a1.78,1.78,0,1,0-3.52,0,1.78,1.78,0,1,0,3.52,0Z"/><path d="M569.81,237.93a2.41,2.41,0,0,0,1.74.75c.81,0,1.25-.36,1.25-.87s-.65-.77-1.36-.94c-.9-.21-1.91-.45-1.91-1.55,0-.82.71-1.52,2-1.52a2.64,2.64,0,0,1,2,.77l-.38.57a2.08,2.08,0,0,0-1.57-.67c-.73,0-1.18.33-1.18.8s.61.68,1.3.84c.91.21,2,.47,2,1.64,0,.89-.72,1.6-2.08,1.6a2.82,2.82,0,0,1-2.14-.83Z"/><path d="M577.23,233.8a2.57,2.57,0,0,1,2.53,2.84v.21h-4.27a1.85,1.85,0,0,0,1.9,1.82A2.31,2.31,0,0,0,579,238l.39.54a2.83,2.83,0,0,1-2.1.81,2.78,2.78,0,0,1-.08-5.55Zm-1.74,2.44H579a1.71,1.71,0,0,0-1.74-1.76A1.76,1.76,0,0,0,575.49,236.24Z"/><path d="M584.65,235.76c0-.93-.47-1.22-1.18-1.22a2,2,0,0,0-1.57.82v3.86h-.82v-5.28h.82v.76a2.64,2.64,0,0,1,1.89-.9,1.5,1.5,0,0,1,1.68,1.71v3.71h-.82Z"/><path d="M590.94,238.43a2.22,2.22,0,0,1-1.78.92c-1.38,0-2.36-1-2.36-2.77s1-2.78,2.36-2.78a2.21,2.21,0,0,1,1.78.93v-2.81h.82v7.3h-.82Zm0-3a2,2,0,0,0-1.59-.85c-1.06,0-1.69.87-1.69,2s.63,2,1.69,2a2,2,0,0,0,1.59-.83Z"/><path d="M596.35,237.5a3.07,3.07,0,0,0,2.3,1c1.3,0,1.72-.7,1.72-1.26,0-.87-.89-1.11-1.85-1.38-1.17-.3-2.48-.63-2.48-2.06,0-1.21,1.08-2,2.51-2a3.4,3.4,0,0,1,2.59,1l-.55.67a2.79,2.79,0,0,0-2.11-.88c-.87,0-1.5.47-1.5,1.16s.85.95,1.78,1.21c1.19.31,2.55.68,2.55,2.22,0,1.06-.73,2.14-2.69,2.14a3.64,3.64,0,0,1-2.81-1.16Z"/><path d="M608.9,233.15l-2.49,6.07H606l-2.47-6.07v6.07h-.91v-7.3H604l2.27,5.56,2.27-5.56h1.3v7.3h-.9Z"/><path d="M611.6,237.5a3.09,3.09,0,0,0,2.3,1c1.3,0,1.72-.7,1.72-1.26,0-.87-.89-1.11-1.85-1.38-1.17-.3-2.47-.63-2.47-2.06,0-1.21,1.07-2,2.5-2a3.44,3.44,0,0,1,2.6,1l-.55.67a2.8,2.8,0,0,0-2.11-.88c-.88,0-1.5.47-1.5,1.16s.84.95,1.77,1.21c1.19.31,2.55.68,2.55,2.22,0,1.06-.72,2.14-2.69,2.14a3.6,3.6,0,0,1-2.8-1.16Z"/><path d="M279,241h-1.46v2.9h-.91v-7.3h2.94a2.12,2.12,0,0,1,2.28,2.2,2,2,0,0,1-1.89,2.12l2,3h-1.07Zm.46-3.59h-1.92v2.79h1.92a1.4,1.4,0,1,0,0-2.79Z"/><path d="M285.21,238.45a2.57,2.57,0,0,1,2.54,2.83v.21h-4.28a1.87,1.87,0,0,0,1.9,1.83,2.29,2.29,0,0,0,1.63-.67l.4.54a2.91,2.91,0,0,1-2.1.81,2.78,2.78,0,0,1-.09-5.55Zm-1.74,2.44h3.47a1.71,1.71,0,0,0-1.74-1.76A1.76,1.76,0,0,0,283.47,240.89Z"/><path d="M289.23,242.76V239.3h-.87v-.72h.87v-1.44h.82v1.44h1.07v.72h-1.07v3.29c0,.39.18.67.54.67a.8.8,0,0,0,.56-.21l.24.61a1.35,1.35,0,0,1-1,.34A1.09,1.09,0,0,1,289.23,242.76Z"/><path d="M295.85,243.12A2.61,2.61,0,0,1,294,244a1.49,1.49,0,0,1-1.69-1.69v-3.73h.82v3.48c0,.93.47,1.2,1.18,1.2a2,2,0,0,0,1.57-.79v-3.89h.82v5.29h-.82Z"/><path d="M298.31,238.58h.82v.86a2.24,2.24,0,0,1,1.76-1v.84a1.61,1.61,0,0,0-.33,0,2,2,0,0,0-1.43.84v3.75h-.82Z"/><path d="M305.48,240.41c0-.93-.47-1.23-1.18-1.23a2,2,0,0,0-1.56.82v3.87h-.82v-5.29h.82v.77a2.6,2.6,0,0,1,1.88-.9,1.5,1.5,0,0,1,1.68,1.71v3.71h-.82Z"/><path d="M307.91,242.57a2.38,2.38,0,0,0,1.74.76c.81,0,1.25-.36,1.25-.88s-.65-.76-1.36-.94c-.9-.2-1.92-.44-1.92-1.54,0-.82.72-1.52,2-1.52a2.67,2.67,0,0,1,2,.77l-.38.56a2.08,2.08,0,0,0-1.58-.66c-.72,0-1.17.33-1.17.8s.6.67,1.29.84c.92.21,2,.47,2,1.64,0,.89-.71,1.6-2.07,1.6a2.82,2.82,0,0,1-2.14-.83Z"/><path d="M272.49,251.7h.82v.86a2.24,2.24,0,0,1,1.76-1v.85a1.11,1.11,0,0,0-.33,0,1.93,1.93,0,0,0-1.43.85V257h-.82Z"/><path d="M278.39,251.57a2.57,2.57,0,0,1,2.54,2.84v.2h-4.28a1.87,1.87,0,0,0,1.91,1.83,2.31,2.31,0,0,0,1.63-.67l.39.54a2.91,2.91,0,0,1-2.1.81,2.78,2.78,0,0,1-.09-5.55ZM276.65,254h3.47a1.71,1.71,0,0,0-1.74-1.76A1.76,1.76,0,0,0,276.65,254Z"/><path d="M282.22,255.7a2.41,2.41,0,0,0,1.74.75c.81,0,1.24-.36,1.24-.87s-.64-.77-1.35-.94c-.9-.21-1.92-.45-1.92-1.55,0-.82.71-1.52,2-1.52a2.67,2.67,0,0,1,2,.77l-.38.57a2,2,0,0,0-1.58-.67c-.72,0-1.17.33-1.17.8s.6.68,1.29.84c.92.21,2,.47,2,1.64,0,.89-.71,1.6-2.08,1.6a2.81,2.81,0,0,1-2.13-.83Z"/><path d="M287.33,259v-7.3h.83v.79a2.22,2.22,0,0,1,1.78-.92c1.39,0,2.35,1.05,2.35,2.77s-1,2.78-2.35,2.78a2.16,2.16,0,0,1-1.78-.93V259Zm2.4-6.69a1.94,1.94,0,0,0-1.57.84v2.38a2,2,0,0,0,1.57.86c1.06,0,1.7-.88,1.7-2S290.79,252.31,289.73,252.31Z"/><path d="M293.31,254.34a2.62,2.62,0,1,1,2.61,2.78A2.59,2.59,0,0,1,293.31,254.34Zm4.36,0a1.77,1.77,0,1,0-3.51,0,1.78,1.78,0,1,0,3.51,0Z"/><path d="M303.43,253.53c0-.93-.47-1.22-1.18-1.22a2,2,0,0,0-1.56.82V257h-.82V251.7h.82v.77a2.6,2.6,0,0,1,1.88-.9,1.5,1.5,0,0,1,1.68,1.71V257h-.82Z"/><path d="M305.86,255.7a2.41,2.41,0,0,0,1.74.75c.81,0,1.25-.36,1.25-.87s-.65-.77-1.36-.94c-.9-.21-1.92-.45-1.92-1.55,0-.82.72-1.52,2-1.52a2.65,2.65,0,0,1,2,.77l-.38.57a2,2,0,0,0-1.58-.67c-.72,0-1.17.33-1.17.8s.6.68,1.29.84c.92.21,2,.47,2,1.64,0,.89-.71,1.6-2.07,1.6a2.82,2.82,0,0,1-2.14-.83Z"/><path d="M313.27,251.57a2.57,2.57,0,0,1,2.54,2.84v.2h-4.27a1.85,1.85,0,0,0,1.9,1.83,2.31,2.31,0,0,0,1.63-.67l.39.54a2.87,2.87,0,0,1-2.1.81,2.78,2.78,0,0,1-.09-5.55ZM311.54,254H315a1.71,1.71,0,0,0-1.74-1.76A1.76,1.76,0,0,0,311.54,254Z"/><g id="Icon-Resource_Compute_Res_Amazon-Lambda_Lambda-Function_48" data-name="Icon-Resource/Compute/Res_Amazon-Lambda_Lambda-Function_48"><path id="Amazon-Lambda-Lambda-Function_Resource-Icon_light-bg" data-name="Amazon-Lambda-Lambda-Function Resource-Icon light-bg" class="cls-7" d="M294,167.1a20,20,0,1,1,20-20,20,20,0,0,1-20,20Zm0-42a22,22,0,1,0,22,22,22,22,0,0,0-22-22Zm-6.77,33.25h-5.36l6.35-13.29,2.68,5.53Zm1.88-16a1,1,0,0,0-.9-.56h0a1,1,0,0,0-.9.57l-7.92,16.6a1,1,0,0,0,.05,1,1,1,0,0,0,.85.47h7.57a1,1,0,0,0,.91-.57L292.9,151a1,1,0,0,0,0-.86Zm17,16h-5.45l-9.91-21.3a1,1,0,0,0-.91-.58h-3.6v-4.12h7.22l9.87,21.29a1,1,0,0,0,.9.58h1.88Zm1-6.13h-2.24L295,130.93a1,1,0,0,0-.91-.58h-8.86a1,1,0,0,0-1,1v6.12a1,1,0,0,0,1,1h4l9.91,21.3a1,1,0,0,0,.9.58h7.09a1,1,0,0,0,1-1v-6.13a1,1,0,0,0-1-1Z"/></g><path d="M278.27,179.08h1.27V184h2.54v1.13h-3.81Z"/><path d="M285.49,184.64a1.79,1.79,0,0,1-1.37.56,1.45,1.45,0,0,1-1.52-1.44,1.38,1.38,0,0,1,1.52-1.39,1.74,1.74,0,0,1,1.37.53v-.6c0-.44-.37-.73-.95-.73a1.84,1.84,0,0,0-1.27.51l-.43-.76a2.84,2.84,0,0,1,1.9-.69c1,0,1.9.4,1.9,1.65v2.81h-1.15Zm0-1.14a1.11,1.11,0,0,0-.91-.37c-.45,0-.82.23-.82.65s.37.64.82.64a1.09,1.09,0,0,0,.91-.38Z"/><path d="M293.16,182.34c0-.4-.18-.69-.65-.69a1.18,1.18,0,0,0-.9.5v2.94h-1.15v-2.75c0-.4-.18-.69-.65-.69a1.18,1.18,0,0,0-.9.51v2.93h-1.14v-4.35h1.14v.57a1.92,1.92,0,0,1,1.43-.68,1.14,1.14,0,0,1,1.2.79,1.86,1.86,0,0,1,1.5-.79,1.17,1.17,0,0,1,1.28,1.32v3.14h-1.16Z"/><path d="M295.44,179.08h1.14v2.22a1.68,1.68,0,0,1,1.34-.67c1.11,0,1.93.87,1.93,2.29s-.83,2.28-1.93,2.28a1.7,1.7,0,0,1-1.34-.67v.56h-1.14Zm2.12,5.1a1.28,1.28,0,0,0,0-2.53,1.28,1.28,0,0,0-1,.5v1.54A1.27,1.27,0,0,0,297.56,184.18Z"/><path d="M303.7,184.53a1.7,1.7,0,0,1-1.34.67c-1.1,0-1.93-.83-1.93-2.28s.82-2.29,1.93-2.29a1.68,1.68,0,0,1,1.34.67v-2.22h1.15v6H303.7Zm0-2.39a1.26,1.26,0,0,0-1-.49,1.28,1.28,0,0,0,0,2.53,1.24,1.24,0,0,0,1-.5Z"/><path d="M308.6,184.64a1.81,1.81,0,0,1-1.38.56,1.45,1.45,0,0,1-1.51-1.44,1.38,1.38,0,0,1,1.51-1.39,1.76,1.76,0,0,1,1.38.53v-.6c0-.44-.38-.73-1-.73a1.84,1.84,0,0,0-1.27.51l-.43-.76a2.86,2.86,0,0,1,1.9-.69c1,0,1.9.4,1.9,1.65v2.81H308.6Zm0-1.14a1.15,1.15,0,0,0-.92-.37c-.45,0-.82.23-.82.65s.37.64.82.64a1.12,1.12,0,0,0,.92-.38Z"/><path d="M278,192.54h-.72v-1H278v-.23a1.41,1.41,0,0,1,1.47-1.52,2,2,0,0,1,.83.18l-.24.81a.69.69,0,0,0-.36-.09c-.33,0-.54.22-.54.63v.22h.88v1h-.88v3.35H278Z"/><path d="M283.66,195.34a2.05,2.05,0,0,1-1.53.66,1.25,1.25,0,0,1-1.41-1.37v-3.09h1.15v2.64a.7.7,0,0,0,.8.8,1.26,1.26,0,0,0,1-.5v-2.94h1.14v4.35h-1.14Z"/><path d="M288.87,193.26a.71.71,0,0,0-.8-.81,1.24,1.24,0,0,0-1,.51v2.93h-1.14v-4.35h1.14v.57a2,2,0,0,1,1.52-.68,1.27,1.27,0,0,1,1.41,1.39v3.07h-1.14Z"/><path d="M293.17,191.43a2,2,0,0,1,1.72.79l-.75.7a1,1,0,0,0-.91-.47,1.27,1.27,0,0,0,0,2.53,1.08,1.08,0,0,0,.91-.47l.75.69a2,2,0,0,1-1.72.8,2.29,2.29,0,1,1,0-4.57Z"/><path d="M295.86,194.81v-2.27h-.72v-1h.72v-1.19H297v1.19h.89v1H297v2c0,.27.15.48.4.48a.61.61,0,0,0,.4-.13l.24.87a1.44,1.44,0,0,1-1,.28A1.09,1.09,0,0,1,295.86,194.81Z"/><path d="M298.56,190.22a.7.7,0,0,1,.69-.69.69.69,0,1,1-.69.69Zm.12,1.32h1.14v4.35h-1.14Z"/><path d="M300.68,193.71A2.3,2.3,0,1,1,303,196,2.2,2.2,0,0,1,300.68,193.71Zm3.41,0a1.15,1.15,0,0,0-1.12-1.26,1.28,1.28,0,0,0,0,2.53A1.16,1.16,0,0,0,304.09,193.71Z"/><path d="M309.06,193.26a.71.71,0,0,0-.8-.81,1.22,1.22,0,0,0-1,.51v2.93h-1.15v-4.35h1.15v.57a2,2,0,0,1,1.52-.68,1.27,1.27,0,0,1,1.41,1.39v3.07h-1.14Z"/><path d="M480,184.05h-2.68l-.38,1h-1.4l2.32-6h1.6l2.32,6h-1.4Zm-2.34-1.1h2l-1-2.76Z"/><path d="M487.73,182.34c0-.4-.18-.69-.65-.69a1.17,1.17,0,0,0-.9.5v2.94H485v-2.75c0-.4-.18-.69-.65-.69a1.16,1.16,0,0,0-.9.51v2.93h-1.14v-4.35h1.14v.57a1.91,1.91,0,0,1,1.42-.68,1.16,1.16,0,0,1,1.21.79,1.86,1.86,0,0,1,1.49-.79,1.17,1.17,0,0,1,1.28,1.32v3.14h-1.15Z"/><path d="M492.62,184.64a1.81,1.81,0,0,1-1.38.56,1.44,1.44,0,0,1-1.51-1.44,1.37,1.37,0,0,1,1.51-1.39,1.78,1.78,0,0,1,1.38.53v-.6c0-.44-.38-.73-1-.73a1.84,1.84,0,0,0-1.27.51l-.43-.76a2.84,2.84,0,0,1,1.9-.69c1,0,1.9.4,1.9,1.65v2.81h-1.14Zm0-1.14a1.15,1.15,0,0,0-.92-.37c-.45,0-.82.23-.82.65s.37.64.82.64a1.12,1.12,0,0,0,.92-.38Z"/><path d="M494.7,184.23l2-2.49h-2v-1h3.51v.83l-2,2.52h2v1H494.7Z"/><path d="M498.92,182.91a2.3,2.3,0,1,1,2.3,2.29A2.21,2.21,0,0,1,498.92,182.91Zm3.41,0a1.12,1.12,0,1,0-1.11,1.27A1.15,1.15,0,0,0,502.33,182.91Z"/><path d="M507.3,182.46a.7.7,0,0,0-.8-.81,1.24,1.24,0,0,0-1,.51v2.93h-1.14v-4.35h1.14v.57a2,2,0,0,1,1.52-.68,1.27,1.27,0,0,1,1.42,1.39v3.07H507.3Z"/><path d="M467.79,192.89a3,3,0,0,1,3.15-3.11,2.77,2.77,0,0,1,2.56,1.47l-1.1.54a1.65,1.65,0,0,0-1.46-.87,2,2,0,0,0,0,3.94,1.63,1.63,0,0,0,1.46-.87l1.1.53a2.79,2.79,0,0,1-2.56,1.48A3,3,0,0,1,467.79,192.89Z"/><path d="M474.24,189.88h1.14v6h-1.14Z"/><path d="M476.23,193.71a2.3,2.3,0,1,1,2.3,2.29A2.21,2.21,0,0,1,476.23,193.71Zm3.42,0a1.12,1.12,0,1,0-1.12,1.27A1.15,1.15,0,0,0,479.65,193.71Z"/><path d="M484.61,195.34a2,2,0,0,1-1.53.66,1.25,1.25,0,0,1-1.4-1.37v-3.09h1.14v2.64a.7.7,0,0,0,.8.8,1.23,1.23,0,0,0,1-.5v-2.94h1.15v4.35h-1.15Z"/><path d="M489.88,195.33a1.7,1.7,0,0,1-1.34.67c-1.1,0-1.93-.83-1.93-2.28s.82-2.29,1.93-2.29a1.68,1.68,0,0,1,1.34.67v-2.22H491v6h-1.15Zm0-2.39a1.26,1.26,0,0,0-1-.49,1.28,1.28,0,0,0,0,2.53,1.24,1.24,0,0,0,1-.5Z"/><path d="M495.73,191.77l-1.05,4.12h-1.35l-1.72-6H493l1,4.34,1.14-4.34h1l1.14,4.34,1-4.34h1.44l-1.71,6h-1.36Z"/><path d="M502.68,195.44a1.81,1.81,0,0,1-1.38.56,1.45,1.45,0,0,1-1.51-1.44,1.38,1.38,0,0,1,1.51-1.39,1.76,1.76,0,0,1,1.38.53v-.6c0-.44-.38-.73-1-.73a1.84,1.84,0,0,0-1.27.51l-.43-.76a2.86,2.86,0,0,1,1.9-.69c1,0,1.9.4,1.9,1.65v2.81h-1.14Zm0-1.14a1.15,1.15,0,0,0-.92-.37c-.45,0-.82.23-.82.65s.37.64.82.64a1.12,1.12,0,0,0,.92-.38Z"/><path d="M505.18,194.81v-2.27h-.72v-1h.72v-1.19h1.15v1.19h.88v1h-.88v2c0,.27.14.48.4.48a.56.56,0,0,0,.39-.13l.25.87a1.46,1.46,0,0,1-1,.28A1.09,1.09,0,0,1,505.18,194.81Z"/><path d="M510,191.43a2,2,0,0,1,1.72.79l-.75.7a1,1,0,0,0-.92-.47,1.27,1.27,0,0,0,0,2.53,1.08,1.08,0,0,0,.92-.47l.75.69a2,2,0,0,1-1.72.8,2.29,2.29,0,1,1,0-4.57Z"/><path d="M515.43,193.24c0-.6-.31-.79-.81-.79a1.27,1.27,0,0,0-1,.51v2.93h-1.14v-6h1.14v2.23a2,2,0,0,1,1.53-.68,1.25,1.25,0,0,1,1.41,1.37v3.09h-1.14Z"/><path d="M485,202.34h1.14v.59a1.9,1.9,0,0,1,1.39-.69v1.12a1.32,1.32,0,0,0-.32,0,1.45,1.45,0,0,0-1.07.5v2.87H485Z"/><path d="M491.2,206.14a2,2,0,0,1-1.53.66,1.25,1.25,0,0,1-1.4-1.37v-3.09h1.14V205a.7.7,0,0,0,.8.8,1.26,1.26,0,0,0,1-.5v-2.94h1.15v4.35H491.2Z"/><path d="M493.48,200.68h1.14v6h-1.14Z"/><path d="M497.73,202.23a2.19,2.19,0,0,1,2.18,2.4v.25h-3.24a1.18,1.18,0,0,0,1.25,1,1.75,1.75,0,0,0,1.17-.44l.5.74a2.7,2.7,0,0,1-1.79.61,2.29,2.29,0,0,1-.07-4.57Zm-1.07,1.87h2.14a1,1,0,0,0-1.07-1A1,1,0,0,0,496.66,204.1Z"/><path d="M707.38,185.67H704.7l-.38,1h-1.4l2.32-6h1.61l2.31,6h-1.4ZM705,184.56h2l-1-2.76Z"/><path d="M715.08,184c0-.4-.18-.69-.65-.69a1.16,1.16,0,0,0-.9.51v2.93h-1.15V184c0-.4-.18-.69-.65-.69a1.16,1.16,0,0,0-.9.52v2.92h-1.14v-4.35h1.14v.57a1.91,1.91,0,0,1,1.42-.68,1.15,1.15,0,0,1,1.21.8,1.84,1.84,0,0,1,1.5-.8,1.16,1.16,0,0,1,1.27,1.32v3.14h-1.15Z"/><path d="M720,186.25a1.81,1.81,0,0,1-1.38.56,1.45,1.45,0,0,1-1.51-1.44,1.38,1.38,0,0,1,1.51-1.39,1.76,1.76,0,0,1,1.38.53v-.6c0-.44-.38-.73-1-.73a1.84,1.84,0,0,0-1.27.51l-.43-.76a2.86,2.86,0,0,1,1.9-.69c1,0,1.9.4,1.9,1.65v2.81H720Zm0-1.13a1.12,1.12,0,0,0-.92-.38c-.45,0-.82.23-.82.66s.37.63.82.63a1.15,1.15,0,0,0,.92-.37Z"/><path d="M722.05,185.85l2-2.5h-2v-1h3.52v.83l-2,2.52h2v1h-3.55Z"/><path d="M726.28,184.52a2.3,2.3,0,1,1,2.29,2.29A2.2,2.2,0,0,1,726.28,184.52Zm3.41,0a1.12,1.12,0,1,0-1.12,1.27A1.15,1.15,0,0,0,729.69,184.52Z"/><path d="M734.65,184.07a.7.7,0,0,0-.8-.81,1.22,1.22,0,0,0-1,.52v2.92h-1.14v-4.35h1.14v.57a2,2,0,0,1,1.52-.68,1.27,1.27,0,0,1,1.42,1.39v3.07h-1.15Z"/><path d="M695.14,194.5a3,3,0,0,1,3.15-3.1,2.78,2.78,0,0,1,2.56,1.46l-1.1.54a1.65,1.65,0,0,0-1.46-.87,2,2,0,0,0,0,3.94,1.61,1.61,0,0,0,1.46-.87l1.1.53a2.79,2.79,0,0,1-2.56,1.48A3,3,0,0,1,695.14,194.5Z"/><path d="M701.59,191.5h1.14v6h-1.14Z"/><path d="M703.59,195.32a2.3,2.3,0,1,1,2.29,2.29A2.2,2.2,0,0,1,703.59,195.32Zm3.41,0a1.15,1.15,0,0,0-1.12-1.26,1.28,1.28,0,0,0,0,2.53A1.15,1.15,0,0,0,707,195.32Z"/><path d="M712,197a2.05,2.05,0,0,1-1.53.66,1.25,1.25,0,0,1-1.41-1.37v-3.09h1.15v2.64a.7.7,0,0,0,.8.8,1.29,1.29,0,0,0,1-.49v-2.95h1.14v4.35H712Z"/><path d="M717.23,196.94a1.7,1.7,0,0,1-1.34.67c-1.1,0-1.93-.83-1.93-2.28s.82-2.29,1.93-2.29a1.68,1.68,0,0,1,1.34.67V191.5h1.15v6h-1.15Zm0-2.38a1.24,1.24,0,0,0-1-.5,1.28,1.28,0,0,0,0,2.53,1.26,1.26,0,0,0,1-.49Z"/><path d="M723.08,193.38l-1,4.12h-1.36l-1.72-6h1.43l1.05,4.34,1.15-4.34h1l1.13,4.34,1-4.34h1.45l-1.72,6h-1.36Z"/><path d="M730,197.05a1.81,1.81,0,0,1-1.38.56,1.45,1.45,0,0,1-1.51-1.44,1.38,1.38,0,0,1,1.51-1.39,1.76,1.76,0,0,1,1.38.53v-.6c0-.44-.38-.73-1-.73a1.85,1.85,0,0,0-1.27.51l-.43-.76a2.86,2.86,0,0,1,1.9-.69c1,0,1.9.4,1.9,1.65v2.81H730Zm0-1.13a1.12,1.12,0,0,0-.92-.38c-.45,0-.82.23-.82.66s.37.63.82.63a1.15,1.15,0,0,0,.92-.37Z"/><path d="M732.53,196.42v-2.27h-.72v-1h.72V192h1.15v1.19h.88v1h-.88v2c0,.27.15.48.4.48a.62.62,0,0,0,.39-.12l.25.86a1.44,1.44,0,0,1-1,.28A1.08,1.08,0,0,1,732.53,196.42Z"/><path d="M737.37,193a2,2,0,0,1,1.72.79l-.74.7a1.06,1.06,0,0,0-.92-.47,1.27,1.27,0,0,0,0,2.53,1.11,1.11,0,0,0,.92-.47l.74.7a2,2,0,0,1-1.72.79,2.29,2.29,0,1,1,0-4.57Z"/><path d="M742.78,194.85c0-.6-.31-.79-.81-.79a1.27,1.27,0,0,0-1,.51v2.93h-1.14v-6H741v2.22a2,2,0,0,1,1.53-.68,1.26,1.26,0,0,1,1.42,1.37v3.09h-1.15Z"/><path d="M711.36,207.85a1.79,1.79,0,0,1-1.37.56,1.45,1.45,0,0,1-1.52-1.44,1.38,1.38,0,0,1,1.52-1.39,1.76,1.76,0,0,1,1.37.53v-.6c0-.44-.38-.73-1-.73a1.84,1.84,0,0,0-1.27.51l-.43-.76a2.84,2.84,0,0,1,1.9-.69c1,0,1.9.4,1.9,1.65v2.81h-1.15Zm0-1.13a1.12,1.12,0,0,0-.91-.38c-.46,0-.83.23-.83.65s.37.64.83.64a1.14,1.14,0,0,0,.91-.37Z"/><path d="M713.64,202.3h1.14v6h-1.14Z"/><path d="M718.53,207.85a1.81,1.81,0,0,1-1.38.56,1.45,1.45,0,0,1-1.51-1.44,1.38,1.38,0,0,1,1.51-1.39,1.76,1.76,0,0,1,1.38.53v-.6c0-.44-.38-.73-1-.73a1.85,1.85,0,0,0-1.27.51l-.43-.76a2.86,2.86,0,0,1,1.9-.69c1,0,1.9.4,1.9,1.65v2.81h-1.14Zm0-1.13a1.12,1.12,0,0,0-.92-.38c-.45,0-.82.23-.82.65s.37.64.82.64a1.15,1.15,0,0,0,.92-.37Z"/><path d="M720.8,204H722v.6a1.83,1.83,0,0,1,1.38-.7V205a1.3,1.3,0,0,0-.31,0,1.44,1.44,0,0,0-1.07.5v2.87H720.8Z"/><path d="M729.44,205.55c0-.4-.18-.69-.65-.69a1.13,1.13,0,0,0-.9.51v2.93h-1.16v-2.75c0-.4-.18-.69-.64-.69a1.16,1.16,0,0,0-.9.51v2.93H724V204h1.15v.57a1.89,1.89,0,0,1,1.42-.68,1.14,1.14,0,0,1,1.2.8,1.86,1.86,0,0,1,1.5-.8,1.17,1.17,0,0,1,1.28,1.32v3.14h-1.15Z"/><path d="M417.41,334.29h-2.68l-.38,1h-1.41l2.33-6h1.6l2.31,6h-1.39Zm-2.34-1.1h2l-1-2.76Z"/><path d="M425.1,332.58c0-.4-.18-.69-.64-.69a1.15,1.15,0,0,0-.9.5v2.94H422.4v-2.75c0-.4-.18-.69-.65-.69a1.16,1.16,0,0,0-.89.51v2.93h-1.15V331h1.15v.57a1.89,1.89,0,0,1,1.42-.68,1.14,1.14,0,0,1,1.2.79,1.88,1.88,0,0,1,1.5-.79,1.17,1.17,0,0,1,1.28,1.32v3.14H425.1Z"/><path d="M430,334.88a1.81,1.81,0,0,1-1.38.56A1.45,1.45,0,0,1,427.1,334a1.38,1.38,0,0,1,1.51-1.39,1.76,1.76,0,0,1,1.38.53v-.6c0-.44-.38-.73-.95-.73a1.84,1.84,0,0,0-1.27.51l-.44-.76a2.87,2.87,0,0,1,1.9-.69c1,0,1.9.4,1.9,1.65v2.81H430Zm0-1.14a1.15,1.15,0,0,0-.92-.37c-.45,0-.82.23-.82.65s.37.64.82.64a1.12,1.12,0,0,0,.92-.38Z"/><path d="M432.08,334.47l2-2.49h-2v-1h3.51v.83l-2,2.52h2v1h-3.54Z"/><path d="M436.3,333.15a2.3,2.3,0,1,1,2.29,2.29A2.2,2.2,0,0,1,436.3,333.15Zm3.41,0a1.15,1.15,0,0,0-1.12-1.26,1.28,1.28,0,0,0,0,2.53A1.16,1.16,0,0,0,439.71,333.15Z"/><path d="M444.68,332.7a.71.71,0,0,0-.8-.81,1.24,1.24,0,0,0-1,.51v2.93h-1.15V331h1.15v.57a2,2,0,0,1,1.52-.68,1.27,1.27,0,0,1,1.41,1.39v3.07h-1.14Z"/><path d="M421.89,344.31a2.63,2.63,0,0,0,1.91.81c.7,0,1-.33,1-.67s-.52-.61-1.21-.77c-1-.23-2.25-.5-2.25-1.84,0-1,.87-1.81,2.28-1.81a3.32,3.32,0,0,1,2.34.84l-.71.94a2.55,2.55,0,0,0-1.72-.66c-.57,0-.88.25-.88.61s.5.53,1.2.7c1,.22,2.25.52,2.25,1.85,0,1.1-.78,1.93-2.41,1.93a3.42,3.42,0,0,1-2.54-1Z"/><path d="M428.28,342.1v4H427v-6h1.32L431.1,344v-3.89h1.28v6h-1.24Z"/><path d="M433.85,344.31a2.63,2.63,0,0,0,1.91.81c.7,0,1-.33,1-.67s-.52-.61-1.21-.77c-1-.23-2.24-.5-2.24-1.84,0-1,.86-1.81,2.27-1.81a3.32,3.32,0,0,1,2.34.84l-.71.94a2.55,2.55,0,0,0-1.72-.66c-.57,0-.88.25-.88.61s.51.53,1.2.7c1,.22,2.25.52,2.25,1.85,0,1.1-.78,1.93-2.4,1.93a3.43,3.43,0,0,1-2.55-1Z"/><path d="M635.42,96.24h-2.69l-.37,1H631l2.32-6h1.61l2.31,6H635.8Zm-2.34-1.11h2l-1-2.76Z"/><path d="M643.11,94.53c0-.41-.18-.7-.65-.7a1.16,1.16,0,0,0-.9.51v2.93h-1.15V94.53c0-.41-.18-.7-.65-.7a1.18,1.18,0,0,0-.9.52v2.92h-1.14V92.92h1.14v.57a1.92,1.92,0,0,1,1.43-.67,1.13,1.13,0,0,1,1.2.79,1.85,1.85,0,0,1,1.5-.79,1.16,1.16,0,0,1,1.28,1.31v3.14h-1.16Z"/><path d="M648,96.82a1.81,1.81,0,0,1-1.38.56,1.45,1.45,0,0,1-1.51-1.44,1.38,1.38,0,0,1,1.51-1.39,1.76,1.76,0,0,1,1.38.53v-.6c0-.44-.38-.73-1-.73a1.78,1.78,0,0,0-1.26.52l-.44-.77a2.85,2.85,0,0,1,1.9-.68c1,0,1.9.39,1.9,1.64v2.81H648Zm0-1.13a1.16,1.16,0,0,0-.92-.38c-.45,0-.82.23-.82.66s.37.64.82.64a1.16,1.16,0,0,0,.92-.38Z"/><path d="M650.09,96.42l2-2.5h-2v-1h3.51v.83l-2,2.52h2v1h-3.54Z"/><path d="M654.31,95.09a2.3,2.3,0,1,1,2.29,2.29A2.19,2.19,0,0,1,654.31,95.09Zm3.41,0a1.15,1.15,0,0,0-1.12-1.26,1.28,1.28,0,0,0,0,2.53A1.15,1.15,0,0,0,657.72,95.09Z"/><path d="M662.69,94.64a.71.71,0,0,0-.8-.81,1.23,1.23,0,0,0-1,.52v2.92h-1.15V92.92h1.15v.57a2,2,0,0,1,1.52-.67,1.26,1.26,0,0,1,1.41,1.38v3.07h-1.14Z"/><path d="M639.9,106.25a2.59,2.59,0,0,0,1.91.81c.7,0,1-.33,1-.67s-.52-.61-1.21-.77c-1-.22-2.25-.49-2.25-1.83,0-1,.87-1.81,2.28-1.81a3.36,3.36,0,0,1,2.34.83l-.71.94a2.56,2.56,0,0,0-1.72-.66c-.58,0-.88.26-.88.62s.5.53,1.2.69c1,.22,2.25.52,2.25,1.85,0,1.1-.79,1.93-2.41,1.93a3.46,3.46,0,0,1-2.54-1Z"/><path d="M646.29,104v4H645v-6h1.31l2.79,3.89v-3.89h1.27v6h-1.23Z"/><path d="M651.86,106.25a2.59,2.59,0,0,0,1.91.81c.7,0,1-.33,1-.67s-.52-.61-1.21-.77c-1-.22-2.25-.49-2.25-1.83,0-1,.87-1.81,2.28-1.81a3.36,3.36,0,0,1,2.34.83l-.71.94a2.55,2.55,0,0,0-1.72-.66c-.57,0-.88.26-.88.62s.5.53,1.2.69c1,.22,2.25.52,2.25,1.85,0,1.1-.78,1.93-2.41,1.93a3.46,3.46,0,0,1-2.54-1Z"/><g id="Icon-Architecture_64_Arch_AWS-Simple-Notification-Service_64" data-name="Icon-Architecture/64/Arch_AWS-Simple-Notification-Service_64"><g id="Icon-Architecture-BG_64_Application-Integration" data-name="Icon-Architecture-BG/64/Application-Integration"><rect id="Rectangle-3" data-name="Rectangle" class="cls-8" x="624.56" y="34.03" width="46.27" height="46.27"/></g><path id="AWS-Simple-Notification-Service_Icon_64_Squid" data-name="AWS-Simple-Notification-Service Icon 64 Squid" class="cls-5" d="M634.39,56a1.16,1.16,0,1,1-1.15,1.16A1.16,1.16,0,0,1,634.39,56Zm13.88,15A14.11,14.11,0,0,1,634.5,59.47a2.3,2.3,0,0,0,2.12-1.72h3.56V56.59h-3.56a2.3,2.3,0,0,0-2.11-1.72,14.26,14.26,0,0,1,13.76-11.58A13.65,13.65,0,0,1,656,46.08l.66-.95a14.81,14.81,0,0,0-8.43-3,15.46,15.46,0,0,0-15,13,2.29,2.29,0,0,0,0,4,15.27,15.27,0,0,0,15,13,15.65,15.65,0,0,0,9-3l-.68-.94a14.46,14.46,0,0,1-8.34,2.78ZM642,55.11a15.54,15.54,0,0,0,3.41.32,16.21,16.21,0,0,0,3.26-.28L646,60.38a.58.58,0,0,0-.06.26v2.58a7.07,7.07,0,0,1-1.73.88V60.64a.54.54,0,0,0-.05-.22Zm3.41-2a9.31,9.31,0,0,1,4,.58,9.31,9.31,0,0,1-4,.58,9.2,9.2,0,0,1-4-.58,9.2,9.2,0,0,1,4-.58Zm-1.73,12.15h.65a7,7,0,0,0,2.4-1.14l.15-.1a.58.58,0,0,0,.27-.49V60.78l3.21-6.43a1,1,0,0,0,.26-.65c0-1.51-3.26-1.74-5.21-1.74s-5.2.23-5.2,1.74a1,1,0,0,0,.18.56l2.71,6.49v3.94a.58.58,0,0,0,.58.58Zm16.77-.58a1.16,1.16,0,1,1-1.16,1.16,1.16,1.16,0,0,1,1.16-1.16Zm0-17.35a1.16,1.16,0,1,1-1.16,1.15,1.15,1.15,0,0,1,1.16-1.15ZM661.58,56a1.16,1.16,0,1,1-1.16,1.16A1.16,1.16,0,0,1,661.58,56Zm-5.79,1.74h3.56a2.31,2.31,0,1,0,0-1.16h-3.56V49.07h2.4a2.31,2.31,0,1,0,0-1.16h-3a.58.58,0,0,0-.58.58v8.1h-4v1.16h4v8.1a.58.58,0,0,0,.58.57h3a2.32,2.32,0,1,0,0-1.15h-2.4Z"/></g><path d="M483.52,330.45h-1.76v-1.13h4.79v1.13H484.8v4.88h-1.28Z"/><path d="M486.18,333.15a2.3,2.3,0,1,1,2.29,2.29A2.2,2.2,0,0,1,486.18,333.15Zm3.41,0a1.12,1.12,0,1,0-1.12,1.27A1.15,1.15,0,0,0,489.59,333.15Z"/><path d="M491.62,337v-6h1.15v.55a1.69,1.69,0,0,1,1.34-.66c1.11,0,1.93.83,1.93,2.28s-.82,2.29-1.93,2.29a1.67,1.67,0,0,1-1.34-.67V337Zm2.13-5.1a1.3,1.3,0,0,0-1,.49v1.54a1.31,1.31,0,0,0,1,.5,1.28,1.28,0,0,0,0-2.53Z"/><path d="M496.77,329.66a.7.7,0,0,1,.69-.69.69.69,0,1,1-.69.69Zm.12,1.32H498v4.35h-1.14Z"/><path d="M501.19,330.87a2,2,0,0,1,1.72.79l-.75.7a1,1,0,0,0-.91-.47,1.27,1.27,0,0,0,0,2.53,1.08,1.08,0,0,0,.91-.47l.75.69a2,2,0,0,1-1.72.8,2.29,2.29,0,1,1,0-4.57Z"/><path d="M710.87,92.39h-1.76V91.27h4.79v1.12h-1.75v4.88h-1.28Z"/><path d="M713.53,95.09a2.3,2.3,0,1,1,2.3,2.29A2.2,2.2,0,0,1,713.53,95.09Zm3.41,0a1.12,1.12,0,1,0-1.11,1.27A1.15,1.15,0,0,0,716.94,95.09Z"/><path d="M719,98.93v-6h1.14v.55a1.68,1.68,0,0,1,1.34-.65c1.12,0,1.93.82,1.93,2.27s-.81,2.29-1.93,2.29a1.67,1.67,0,0,1-1.34-.67v2.22Zm2.12-5.1a1.28,1.28,0,0,0-1,.5v1.54a1.3,1.3,0,0,0,1,.49,1.28,1.28,0,0,0,0-2.53Z"/><path d="M724.12,91.6a.69.69,0,0,1,.69-.68.68.68,0,0,1,0,1.36A.69.69,0,0,1,724.12,91.6Zm.12,1.32h1.14v4.35h-1.14Z"/><path d="M728.54,92.82a2,2,0,0,1,1.72.78l-.74.7a1.06,1.06,0,0,0-.92-.47,1.27,1.27,0,0,0,0,2.53,1.13,1.13,0,0,0,.92-.46l.74.69a2,2,0,0,1-1.72.79,2.28,2.28,0,1,1,0-4.56Z"/><path d="M861.43,89.58a2.18,2.18,0,0,1,2.18,2.4v.25h-3.23a1.17,1.17,0,0,0,1.25,1,1.79,1.79,0,0,0,1.16-.43l.5.73a2.68,2.68,0,0,1-1.79.61,2.29,2.29,0,0,1-.07-4.57Zm-1.07,1.87h2.14a1,1,0,0,0-1.07-1A1,1,0,0,0,860.36,91.45Z"/><path d="M869.83,91.29c0-.4-.18-.69-.65-.69a1.17,1.17,0,0,0-.9.5V94h-1.15V91.29c0-.4-.18-.69-.65-.69a1.16,1.16,0,0,0-.9.51V94h-1.14V89.69h1.14v.57a1.91,1.91,0,0,1,1.42-.68,1.16,1.16,0,0,1,1.21.79,1.86,1.86,0,0,1,1.49-.79A1.17,1.17,0,0,1,871,90.9V94h-1.15Z"/><path d="M874.71,93.59a1.77,1.77,0,0,1-1.37.56,1.44,1.44,0,0,1-1.51-1.44,1.37,1.37,0,0,1,1.51-1.39,1.74,1.74,0,0,1,1.37.53v-.6c0-.44-.37-.73-1-.73a1.84,1.84,0,0,0-1.27.51l-.43-.76a2.84,2.84,0,0,1,1.9-.69c1,0,1.9.4,1.9,1.65V94h-1.15Zm0-1.14a1.11,1.11,0,0,0-.91-.37c-.45,0-.82.23-.82.65s.37.64.82.64a1.09,1.09,0,0,0,.91-.38Z"/><path d="M876.87,88.37a.7.7,0,0,1,.69-.69.69.69,0,0,1,0,1.37A.7.7,0,0,1,876.87,88.37Zm.12,1.32h1.15V94H877Z"/><path d="M879.27,88h1.14v6h-1.14Z"/><g id="Icon-Resource_Business-Applications_Res_Amazon-Simple-Email-Service_Email_48" data-name="Icon-Resource/Business-Applications/Res_Amazon-Simple-Email-Service_Email_48"><path id="Amazon-Amazon-Simple-Email-Service-Email_Resource-Icon_light-bg" data-name="Amazon-Amazon-Simple-Email-Service-Email Resource-Icon light-bg" class="cls-9" d="M856.24,44.46a6.12,6.12,0,0,0,0,.66v.15a1.09,1.09,0,0,0,0,.18,1.29,1.29,0,0,1-1,.46c-.61,0-.92-.63-.92-1.88a6.57,6.57,0,0,1,.45-2.61q.45-1,1.11-1a1.55,1.55,0,0,1,.85.33Zm-5,5.86a6.77,6.77,0,0,0,6.06.2V48.9a7.41,7.41,0,0,1-2.57.5,3.79,3.79,0,0,1-3.11-1.32,5.79,5.79,0,0,1-1.1-3.81,9.34,9.34,0,0,1,.72-3.74,6.48,6.48,0,0,1,2-2.65,4.83,4.83,0,0,1,3-1,4.21,4.21,0,0,1,3.25,1.2,5,5,0,0,1,1.11,3.52,8.2,8.2,0,0,1-.25,2.09,4.69,4.69,0,0,1-.7,1.61,1.22,1.22,0,0,1-.94.63.48.48,0,0,1-.41-.19.82.82,0,0,1-.14-.52,3.94,3.94,0,0,1,0-.52L859,39h-1.71l-.22.64a2,2,0,0,0-1.67-.91,2.24,2.24,0,0,0-1.55.7,5.12,5.12,0,0,0-1.22,2,8,8,0,0,0-.48,2.82,4.43,4.43,0,0,0,.59,2.48,2,2,0,0,0,1.72.86,2.54,2.54,0,0,0,1.12-.28,3.37,3.37,0,0,0,1-.75,1.86,1.86,0,0,0,.79.73,2.33,2.33,0,0,0,1.13.26,3.11,3.11,0,0,0,2-.73,5,5,0,0,0,1.44-2.1,8.57,8.57,0,0,0,.53-3.12,7.76,7.76,0,0,0-.71-3.44,5.11,5.11,0,0,0-2.11-2.23,6.67,6.67,0,0,0-3.33-.78,7.19,7.19,0,0,0-3.94,1.14,8.05,8.05,0,0,0-2.86,3.23,10.41,10.41,0,0,0-1.06,4.8,8.61,8.61,0,0,0,.7,3.65,5.25,5.25,0,0,0,2.07,2.36Zm18.08,11.8a1,1,0,0,0,1.29,0l3-2.52,14.56,12.13H851.7L866.26,59.6Zm5.88-3.83L889.93,46V70.59Zm15.76-15.43H864.49v2h23.68L869.93,60.05l-10.62-8.86L858,52.73l6.67,5.56-14.76,12.3V52.21h-2V72.73a1,1,0,0,0,1,1h42a1,1,0,0,0,1-1V43.86a1,1,0,0,0-1-1Z"/></g><path d="M610.18,331l-1.69,4.32h-.56L606.24,331v4.32H605v-6h1.79l1.46,3.75,1.46-3.75h1.8v6h-1.29Z"/><path d="M614.6,330.87a2.18,2.18,0,0,1,2.18,2.4v.25h-3.23a1.17,1.17,0,0,0,1.25,1,1.79,1.79,0,0,0,1.16-.43l.5.73a2.68,2.68,0,0,1-1.79.61,2.29,2.29,0,0,1-.07-4.57Zm-1.07,1.87h2.14a1,1,0,0,0-1.07-1A1,1,0,0,0,613.53,332.74Z"/><path d="M617.72,334a2.5,2.5,0,0,0,1.51.59c.49,0,.73-.17.73-.44s-.38-.41-.88-.51c-.75-.14-1.71-.32-1.71-1.36,0-.73.64-1.37,1.78-1.37a2.74,2.74,0,0,1,1.76.6l-.46.78a1.84,1.84,0,0,0-1.29-.5c-.41,0-.68.15-.68.4s.34.37.83.47c.74.14,1.74.34,1.74,1.42,0,.79-.67,1.4-1.88,1.4a2.9,2.9,0,0,1-1.94-.68Z"/><path d="M622,334a2.45,2.45,0,0,0,1.5.59c.49,0,.73-.17.73-.44s-.38-.41-.88-.51c-.74-.14-1.71-.32-1.71-1.36,0-.73.64-1.37,1.79-1.37a2.73,2.73,0,0,1,1.75.6l-.46.78a1.81,1.81,0,0,0-1.28-.5c-.42,0-.69.15-.69.4s.34.37.83.47c.75.14,1.75.34,1.75,1.42,0,.79-.68,1.4-1.89,1.4a2.9,2.9,0,0,1-1.94-.68Z"/><path d="M628.8,334.88a1.81,1.81,0,0,1-1.38.56,1.45,1.45,0,0,1-1.51-1.44,1.38,1.38,0,0,1,1.51-1.39,1.76,1.76,0,0,1,1.38.53v-.6c0-.44-.38-.73-.95-.73a1.84,1.84,0,0,0-1.27.51l-.43-.76a2.84,2.84,0,0,1,1.9-.69c1,0,1.9.4,1.9,1.65v2.81H628.8Zm0-1.14a1.15,1.15,0,0,0-.92-.37c-.45,0-.82.23-.82.65s.37.64.82.64a1.12,1.12,0,0,0,.92-.38Z"/><path d="M631.5,335.62a1.75,1.75,0,0,0,1.36.54,1.07,1.07,0,0,0,1.2-1.1v-.44a1.69,1.69,0,0,1-1.34.68c-1.09,0-1.92-.76-1.92-2.21s.82-2.22,1.92-2.22a1.68,1.68,0,0,1,1.34.67V331h1.15v4c0,1.66-1.28,2.06-2.35,2.06a2.65,2.65,0,0,1-1.87-.64Zm2.56-3.24a1.25,1.25,0,0,0-1-.49,1.2,1.2,0,0,0,0,2.39,1.25,1.25,0,0,0,1-.49Z"/><path d="M638.31,330.87a2.18,2.18,0,0,1,2.18,2.4v.25h-3.23a1.17,1.17,0,0,0,1.25,1,1.77,1.77,0,0,0,1.16-.43l.51.73a2.7,2.7,0,0,1-1.79.61,2.29,2.29,0,1,1-.08-4.57Zm-1.07,1.87h2.15a1,1,0,0,0-1.08-1A1,1,0,0,0,637.24,332.74Z"/><g id="Icon-Architecture_64_Arch_AWS-Tools-and-SDK_64" data-name="Icon-Architecture/64/Arch_AWS-Tools-and-SDK_64"><g id="Icon-Architecture-BG_64_Developer-Tools-2" data-name="Icon-Architecture-BG/64/Developer-Tools"><rect id="Rectangle-4" data-name="Rectangle" class="cls-10" x="309.6" y="46.78" width="46.27" height="46.27"/></g><path id="AWS-Tools-and-SDK_Icon_64_Squid" data-name="AWS-Tools-and-SDK Icon 64 Squid" class="cls-5" d="M345.46,77.68l-12.15,6.87v-4.8h-1.15v4.8L320,77.68V62.87l3.74,2.34.62-1-3.8-2.37L333,55l11.86,6.84-4.32,2.4.56,1,4.35-2.41Zm.87-16.36-13-7.52a.58.58,0,0,0-.57,0l-13.59,7.52a.58.58,0,0,0-.3.5V78a.58.58,0,0,0,.3.5L332.45,86a.6.6,0,0,0,.29.08A.6.6,0,0,0,333,86l13.3-7.52a.56.56,0,0,0,.3-.5V61.82a.59.59,0,0,0-.29-.5ZM339.1,73.76l-5.79,3.34V70.28l5.79-2.89Zm-6.19-4.57-5.62-3.25,5.43-2.88,5.74,3.35Zm-.75,7.91-5.79-3.34v-7l5.79,3.34ZM340,66,333,61.9a.61.61,0,0,0-.57,0l-6.94,3.68a.57.57,0,0,0-.3.51v8a.59.59,0,0,0,.29.5l6.94,4a.57.57,0,0,0,.58,0l6.94-4a.59.59,0,0,0,.29-.5V66.45A.57.57,0,0,0,340,66Z"/></g><path d="M305.93,103.52h2.81a1.93,1.93,0,1,1,0,3.85h-1.53v2.15h-1.28Zm2.64,1.1h-1.36v1.65h1.36a.83.83,0,1,0,0-1.65Z"/><path d="M311.9,110.27a.58.58,0,0,0,.6-.31l.16-.37-1.76-4.41h1.22l1.13,3,1.14-3h1.23l-2,5.06a1.6,1.6,0,0,1-1.65,1.05,4,4,0,0,1-.57-.06l.18-1A1,1,0,0,0,311.9,110.27Z"/><path d="M316.36,108.44v-2.26h-.72v-1h.72V104h1.15v1.19h.88v1h-.88v2a.42.42,0,0,0,.4.47.62.62,0,0,0,.39-.12l.25.86a1.4,1.4,0,0,1-1,.28A1.08,1.08,0,0,1,316.36,108.44Z"/><path d="M322.12,106.88c0-.61-.32-.8-.81-.8a1.28,1.28,0,0,0-1,.52v2.92h-1.14v-6h1.14v2.22a2,2,0,0,1,1.53-.67,1.25,1.25,0,0,1,1.41,1.37v3.08h-1.14Z"/><path d="M324.12,107.35a2.3,2.3,0,1,1,2.29,2.28A2.2,2.2,0,0,1,324.12,107.35Zm3.41,0a1.16,1.16,0,0,0-1.12-1.27,1.27,1.27,0,1,0,1.12,1.27Z"/><path d="M332.5,106.9c0-.61-.32-.82-.8-.82a1.23,1.23,0,0,0-1,.52v2.92h-1.15v-4.34h1.15v.56a2,2,0,0,1,1.52-.67,1.26,1.26,0,0,1,1.41,1.38v3.07H332.5Z"/><path d="M336.88,107.34a6.29,6.29,0,0,1,1.42-4l.72.54a6.67,6.67,0,0,0-.91,3.44,6.55,6.55,0,0,0,.91,3.42l-.72.56A6.29,6.29,0,0,1,336.88,107.34Z"/><path d="M339.75,103.52h1.14v2.21a1.68,1.68,0,0,1,1.34-.66c1.11,0,1.93.86,1.93,2.28s-.83,2.28-1.93,2.28a1.7,1.7,0,0,1-1.34-.66v.55h-1.14Zm2.12,5.09a1.12,1.12,0,0,0,1.11-1.26,1.14,1.14,0,0,0-1.11-1.27,1.26,1.26,0,0,0-1,.51v1.54A1.26,1.26,0,0,0,341.87,108.61Z"/><path d="M344.74,107.35a2.3,2.3,0,1,1,2.3,2.28A2.2,2.2,0,0,1,344.74,107.35Zm3.42,0a1.12,1.12,0,1,0-2.23,0,1.12,1.12,0,1,0,2.23,0Z"/><path d="M350.41,108.44v-2.26h-.72v-1h.72V104h1.16v1.19h.88v1h-.88v2c0,.27.14.47.39.47a.65.65,0,0,0,.4-.12l.24.86a1.37,1.37,0,0,1-1,.28A1.09,1.09,0,0,1,350.41,108.44Z"/><path d="M353,107.35a2.3,2.3,0,1,1,2.3,2.28A2.2,2.2,0,0,1,353,107.35Zm3.41,0a1.12,1.12,0,1,0-1.11,1.26A1.15,1.15,0,0,0,356.36,107.35Z"/><path d="M358,103.9l.72-.54a6.22,6.22,0,0,1,0,8l-.72-.56a6.37,6.37,0,0,0,.92-3.42A6.49,6.49,0,0,0,358,103.9Z"/><line class="cls-11" x1="108.46" y1="70.98" x2="167.97" y2="112.93"/><polygon points="162.9 114.37 162.77 113.38 167.65 112.71 166.64 107.89 167.62 107.68 168.85 113.56 162.9 114.37"/><line class="cls-11" x1="215.13" y1="113.56" x2="269.92" y2="146.54"/><polygon points="264.98 148.33 264.77 147.35 269.59 146.34 268.23 141.6 269.19 141.33 270.85 147.1 264.98 148.33"/><line class="cls-11" x1="317.13" y1="147.1" x2="468.09" y2="147.1"/><polygon points="464.78 151.19 464.1 150.46 467.71 147.1 464.1 143.74 464.78 143.01 469.18 147.1 464.78 151.19"/><line class="cls-11" x1="515.45" y1="147.1" x2="695.44" y2="147.1"/><polygon points="692.13 151.19 691.45 150.46 695.06 147.1 691.45 143.74 692.13 143.01 696.53 147.1 692.13 151.19"/><line class="cls-11" x1="745.58" y1="57.67" x2="845.71" y2="57.67"/><polygon points="842.4 61.76 841.72 61.03 845.33 57.67 841.72 54.31 842.4 53.58 846.8 57.67 842.4 61.76"/><line class="cls-11" x1="265.4" y1="213.4" x2="215.92" y2="259.7"/><polygon points="215.54 254.45 216.54 254.52 216.2 259.44 221.13 259.42 221.13 260.42 215.13 260.44 215.54 254.45"/><line class="cls-11" x1="289.75" y1="214.14" x2="215.13" y2="283.96"/><polygon points="284.53 213.41 284.53 214.42 289.46 214.4 289.12 219.32 290.12 219.39 290.54 213.4 284.53 213.41"/><line class="cls-11" x1="492.31" y1="213.4" x2="492.31" y2="249.72"/><polygon points="488.22 246.41 488.95 245.72 492.31 249.34 495.67 245.72 496.4 246.41 492.31 250.81 488.22 246.41"/><line class="cls-11" x1="719.66" y1="110.61" x2="719.66" y2="124.56"/><polygon points="715.58 113.92 716.31 114.61 719.66 110.99 723.02 114.61 723.75 113.92 719.66 109.53 715.58 113.92"/><line class="cls-11" x1="516.45" y1="295.73" x2="599.25" y2="295.73"/><polygon points="595.94 299.82 595.26 299.08 598.87 295.73 595.26 292.37 595.94 291.64 600.34 295.73 595.94 299.82"/><g id="Icon-Resource_Managment-Governance_Res_Amazon-Cloudwatch_Rule_48" data-name="Icon-Resource/Managment-Governance/Res_Amazon-Cloudwatch_Rule_48"><path id="Amazon-Cloudwatch_rule_Resource-Icon_light-bg" data-name="Amazon-Cloudwatch rule Resource-Icon light-bg" class="cls-3" d="M470.37,125.56V138l11,0,2.66,2.63,30.25-.05,0-12.47H484.87l-2.65-2.61Zm11.84,10.5-9.84,0v-8.48h9l2.65,2.61h28.23v8.47l-27.42.05ZM506.27,133l-1.89-1.89L503,132.53l1.89,1.9-1.9,1.9,1.42,1.41,1.9-1.89,1.9,1.9,1.41-1.41-1.9-1.91,1.9-1.9-1.41-1.41Zm-35.94,6.52V152h11.06l2.65,2.62h30.25l0-12.46H484.86l-2.58-2.64Zm2,2h9.1l2.59,2.64h28.26v8.46H484.86L482.21,150h-9.88Zm31.42,7.31-1.12-1.12-1.42,1.41,2.42,2.42,5.93-5-1.29-1.53Zm-33.42,4.67V166h11.08l2.66,2.58,30.21,0V156.15H484.86l-2.71-2.64Zm2,2h9l2.71,2.64h28.24v8.48l-27.4,0L482.22,164h-9.89Zm31.18,7.26-1.12-1.12L501,163.07l2.42,2.41,5.93-5L508,159Z"/></g><g id="Icon-Architecture_64_Arch_AWS-Simple-Notification-Service_64-2" data-name="Icon-Architecture/64/Arch_AWS-Simple-Notification-Service_64"><g id="Icon-Architecture-BG_64_Application-Integration-2" data-name="Icon-Architecture-BG/64/Application-Integration"><rect id="Rectangle-5" data-name="Rectangle" class="cls-12" x="406.55" y="272.59" width="46.27" height="46.27"/></g><path id="AWS-Simple-Notification-Service_Icon_64_Squid-2" data-name="AWS-Simple-Notification-Service Icon 64 Squid" class="cls-5" d="M416.38,294.57a1.16,1.16,0,1,1-1.15,1.16,1.16,1.16,0,0,1,1.15-1.16Zm13.89,15A14.09,14.09,0,0,1,416.5,298a2.3,2.3,0,0,0,2.11-1.73h3.56v-1.15h-3.56a2.3,2.3,0,0,0-2.11-1.73,14.27,14.27,0,0,1,13.77-11.58,13.72,13.72,0,0,1,7.76,2.79l.66-.95a14.79,14.79,0,0,0-8.42-3,15.45,15.45,0,0,0-15,13,2.3,2.3,0,0,0,0,4,15.27,15.27,0,0,0,15,13,15.58,15.58,0,0,0,9-3l-.68-.93a14.45,14.45,0,0,1-8.33,2.78ZM424,293.67a18.4,18.4,0,0,0,6.67,0L428,298.94a.58.58,0,0,0-.06.26v2.57a6.78,6.78,0,0,1-1.73.89V299.2a.59.59,0,0,0-.05-.23Zm3.41-2a9.31,9.31,0,0,1,4,.58,14,14,0,0,1-7.91,0,9.24,9.24,0,0,1,3.95-.58Zm-1.73,12.14h.65a6.89,6.89,0,0,0,2.4-1.15l.15-.09a.58.58,0,0,0,.27-.49v-2.76l3.21-6.43a.94.94,0,0,0,.26-.64c0-1.51-3.26-1.74-5.21-1.74s-5.2.23-5.2,1.74a1,1,0,0,0,.18.55l2.71,6.5v3.94a.58.58,0,0,0,.58.57Zm16.77-.57a1.16,1.16,0,1,1-1.15,1.15,1.15,1.15,0,0,1,1.15-1.15Zm0-17.36a1.16,1.16,0,1,1-1.15,1.16,1.16,1.16,0,0,1,1.15-1.16Zm1.16,8.68a1.16,1.16,0,1,1-1.16,1.16,1.16,1.16,0,0,1,1.16-1.16Zm-5.79,1.73h3.56a2.32,2.32,0,1,0,0-1.15h-3.56v-7.52h2.4a2.31,2.31,0,1,0,0-1.16h-3a.58.58,0,0,0-.58.58v8.1h-4.05v1.15h4.05v8.1a.58.58,0,0,0,.58.58h3a2.31,2.31,0,1,0,0-1.16h-2.4Z"/></g><g id="Icon-Resource_Application-Integration_Res_Amazon-Simple-Notification-Service_Topic_48" data-name="Icon-Resource/Application-Integration/Res_Amazon-Simple-Notification-Service_Topic_48"><path id="Amazon-Simple-Notification-Service_Topic_Resource-Icon_light-bg" data-name="Amazon-Simple-Notification-Service Topic Resource-Icon light-bg" class="cls-3" d="M512.31,310.23h2v-2h-2Zm2-5.5v1.5h-2v-.5h-.5v-2h1.5a1,1,0,0,1,1,1Zm-32.5,1h3v-2h-3Zm24,0h3v-2h-3Zm-18,0h3v-2h-3Zm-12,0h3v-2h-3Zm24,0h3v-2h-3Zm-6,0h3v-2h-3Zm-22.5-2h1.5v2h-.5v.5h-2v-1.5a1,1,0,0,1,1-1Zm-1,6.5h2v-2h-2Zm2,2.5h.5v2h-1.5a1,1,0,0,1-1-1v-1.5h2Zm15.5,2h3v-2h-3Zm12,0h3v-2h-3Zm6,0h3v-2h-3Zm-30,0h3v-2h-3Zm18,0h3v-2h-3Zm-12,0h3v-2h-3Zm30.5-2.5h2v1.5a1,1,0,0,1-1,1h-1.5v-2h.5Zm0-15h2v-2h-2Zm2-5.5v1.5h-2v-.5h-.5v-2h1.5a1,1,0,0,1,1,1Zm-14.5,1h3v-2h-3Zm-24,0h3v-2h-3Zm30,0h3v-2h-3Zm-24,0h3v-2h-3Zm6,0h3v-2h-3Zm6,0h3v-2h-3Zm-22.5-2h1.5v2h-.5v.5h-2v-1.5a1,1,0,0,1,1-1Zm-1,6.5h2v-2h-2Zm2,2.5h.5v2h-1.5a1,1,0,0,1-1-1v-1.5h2Zm15.5,2h3v-2h-3Zm12,0h3v-2h-3Zm-24,0h3v-2h-3Zm6,0h3v-2h-3Zm24,0h3v-2h-3Zm-12,0h3v-2h-3Zm18.5-2.5h2v1.5a1,1,0,0,1-1,1h-1.5v-2h.5Zm-40-12.5h40v-8h-40Zm41-10h-42a1,1,0,0,0-1,1v10a1,1,0,0,0,1,1h42a1,1,0,0,0,1-1v-10a1,1,0,0,0-1-1Z"/></g><g id="Icon-Resource_Application-Integration_Res_Amazon-Simple-Notification-Service_Topic_48-2" data-name="Icon-Resource/Application-Integration/Res_Amazon-Simple-Notification-Service_Topic_48"><path id="Amazon-Simple-Notification-Service_Topic_Resource-Icon_light-bg-2" data-name="Amazon-Simple-Notification-Service Topic Resource-Icon light-bg" class="cls-3" d="M739.66,72.17h2v-2h-2Zm2-5.5v1.5h-2v-.5h-.5v-2h1.5a1,1,0,0,1,1,1Zm-32.5,1h3v-2h-3Zm24,0h3v-2h-3Zm-18,0h3v-2h-3Zm-12,0h3v-2h-3Zm24,0h3v-2h-3Zm-6,0h3v-2h-3Zm-22.5-2h1.5v2h-.5v.5h-2v-1.5a1,1,0,0,1,1-1Zm-1,6.5h2v-2h-2Zm2,2.5h.5v2h-1.5a1,1,0,0,1-1-1v-1.5h2Zm15.5,2h3v-2h-3Zm12,0h3v-2h-3Zm6,0h3v-2h-3Zm-30,0h3v-2h-3Zm18,0h3v-2h-3Zm-12,0h3v-2h-3Zm30.5-2.5h2v1.5a1,1,0,0,1-1,1h-1.5v-2h.5Zm0-15h2v-2h-2Zm2-5.5v1.5h-2v-.5h-.5v-2h1.5a1,1,0,0,1,1,1Zm-14.5,1h3v-2h-3Zm-24,0h3v-2h-3Zm30,0h3v-2h-3Zm-24,0h3v-2h-3Zm6,0h3v-2h-3Zm6,0h3v-2h-3Zm-22.5-2h1.5v2h-.5v.5h-2v-1.5a1,1,0,0,1,1-1Zm-1,6.5h2v-2h-2Zm2,2.5h.5v2h-1.5a1,1,0,0,1-1-1v-1.5h2Zm15.5,2h3v-2h-3Zm12,0h3v-2h-3Zm-24,0h3v-2h-3Zm6,0h3v-2h-3Zm24,0h3v-2h-3Zm-12,0h3v-2h-3Zm18.5-2.5h2v1.5a1,1,0,0,1-1,1h-1.5v-2h.5Zm-40-12.5h40v-8h-40Zm41-10h-42a1,1,0,0,0-1,1v10a1,1,0,0,0,1,1h42a1,1,0,0,0,1-1v-10a1,1,0,0,0-1-1Z"/></g><g id="Icon-Resource_Application-Integration_Res_Amazon-Simple-Notification-Service_Message_48" data-name="Icon-Resource/Application-Integration/Res_Amazon-Simple-Notification-Service_Message_48"><path id="Amazon-Simple-Notification-Service_Message_48" data-name="Amazon-Simple-Notification-Service Message 48" class="cls-3" d="M635.06,275.73h2v-2h-2Zm-3.5-2h1.5v2h-.5v.5h-2v-1.5a1,1,0,0,1,1-1Zm-1,32.5h2v-3h-2Zm0,6h2v-3h-2Zm0-12h2v-3h-2Zm0-18h2v-3h-2Zm0,6h2v-3h-2Zm0,6h2v-3h-2Zm2,21.5h.5v2h-1.5a1,1,0,0,1-1-1v-1.5h2Zm2.5,2h2v-2h-2Zm4.5-2.5h2v1.5a1,1,0,0,1-1,1h-1.5v-2h.5Zm0-3h2v-3h-2Zm0-6h2v-3h-2Zm0-18h2v-3h-2Zm0-6h2v-3h-2Zm0,18h2v-3h-2Zm0-6h2v-3h-2Zm2-19.5v1.5h-2v-.5h-.5v-2h1.5a1,1,0,0,1,1,1Zm-19.5,1h2v-2h-2Zm-3.5-2h1.5v2h-.5v.5h-2v-1.5a1,1,0,0,1,1-1Zm-1,8.5h2v-3h-2Zm0,24h2v-3h-2Zm0-6h2v-3h-2Zm0-6h2v-3h-2Zm0,18h2v-3h-2Zm0-24h2v-3h-2Zm2,27.5h.5v2h-1.5a1,1,0,0,1-1-1v-1.5h2Zm2.5,2h2v-2h-2Zm4.5-2.5h2v1.5a1,1,0,0,1-1,1h-1.5v-2h.5Zm0-33h2v-3h-2Zm0,6h2v-3h-2Zm0,6h2v-3h-2Zm0,18h2v-3h-2Zm0-12h2v-3h-2Zm0,6h2v-3h-2Zm2-31.5v1.5h-2v-.5h-.5v-2h1.5a1,1,0,0,1,1,1Zm-23,41h8v-40h-8Zm9-42h-10a1,1,0,0,0-1,1v42a1,1,0,0,0,1,1h10a1,1,0,0,0,1-1v-42a1,1,0,0,0-1-1Z"/></g><g id="Icon-Resource_Managment-Governance_Res_Amazon-Cloudwatch_Alarm_48" data-name="Icon-Resource/Managment-Governance/Res_Amazon-Cloudwatch_Alarm_48"><path id="Amazon-Cloudwatch_alarm_Resource-Icon_light-bg" data-name="Amazon-Cloudwatch alarm Resource-Icon light-bg" class="cls-3" d="M737.12,163.92h-6.79V143.08a11.24,11.24,0,0,0,6.79,0Zm.57-23.21a9.25,9.25,0,0,1-7.93,0,1,1,0,0,0-1,.06,1,1,0,0,0-.47.85v23.3a1,1,0,0,0,1,1h8.79a1,1,0,0,0,1-1v-23.3a1,1,0,0,0-.47-.85,1,1,0,0,0-1-.06Zm-4-13.46a5.16,5.16,0,1,1-5.15,5.16,5.17,5.17,0,0,1,5.15-5.16Zm0,12.31a7.16,7.16,0,1,0-7.15-7.15,7.16,7.16,0,0,0,7.15,7.15Zm-36,29.88h43.94v-2H697.69Zm18.58-5.52h6.79V151h-6.79Zm-1,2h8.79a1,1,0,0,0,1-1V150a1,1,0,0,0-1-1h-8.79a1,1,0,0,0-1,1v14.94a1,1,0,0,0,1,1Zm-13.06-2H709V146.59h-6.79Zm-1,2H710a1,1,0,0,0,1-1V145.59a1,1,0,0,0-1-1h-8.79a1,1,0,0,0-1,1v19.33a1,1,0,0,0,1,1Z"/></g><path d="M761.7,130.9a3.64,3.64,0,0,1,3.72-3.77,3.27,3.27,0,0,1,2.8,1.44l-.76.43a2.49,2.49,0,0,0-2-1.06,3,3,0,0,0,0,5.93,2.46,2.46,0,0,0,2-1.06l.77.43a3.3,3.3,0,0,1-2.81,1.44A3.64,3.64,0,0,1,761.7,130.9Z"/><path d="M769.36,127.25h.82v7.3h-.82Z"/><path d="M771.51,131.9a2.62,2.62,0,1,1,2.62,2.78A2.6,2.6,0,0,1,771.51,131.9Zm4.37,0a1.78,1.78,0,1,0-3.52,0,1.78,1.78,0,1,0,3.52,0Z"/><path d="M781.64,133.8a2.61,2.61,0,0,1-1.88.88,1.49,1.49,0,0,1-1.69-1.69v-3.73h.82v3.48c0,.93.47,1.21,1.18,1.21a2.05,2.05,0,0,0,1.57-.8v-3.89h.82v5.29h-.82Z"/><path d="M787.93,133.76a2.23,2.23,0,0,1-1.79.92c-1.37,0-2.35-1.05-2.35-2.77s1-2.78,2.35-2.78a2.23,2.23,0,0,1,1.79.93v-2.81h.82v7.3h-.82Zm0-3a2,2,0,0,0-1.59-.85c-1.06,0-1.7.87-1.7,2s.64,2,1.7,2a2,2,0,0,0,1.59-.84Z"/><path d="M794.39,128.66l-1.61,5.89h-1l-2.08-7.3h1l1.61,6.08,1.68-6.08h.75l1.68,6.08,1.61-6.08h1l-2.08,7.3h-1Z"/><path d="M802.91,134a2.29,2.29,0,0,1-1.75.73,1.76,1.76,0,0,1-1.85-1.75,1.73,1.73,0,0,1,1.85-1.74,2.22,2.22,0,0,1,1.75.72V131c0-.71-.57-1.12-1.34-1.12a2.09,2.09,0,0,0-1.62.74l-.38-.57a2.78,2.78,0,0,1,2.11-.88c1.12,0,2.05.51,2.05,1.79v3.63h-.82Zm0-1.51a1.78,1.78,0,0,0-1.46-.66,1.16,1.16,0,1,0,0,2.31,1.78,1.78,0,0,0,1.46-.66Z"/><path d="M805.53,133.44V130h-.87v-.73h.87v-1.44h.82v1.44h1.07V130h-1.07v3.28c0,.39.18.68.54.68a.8.8,0,0,0,.56-.22l.24.61a1.35,1.35,0,0,1-1,.34A1.08,1.08,0,0,1,805.53,133.44Z"/><path d="M810.91,129.13a2.29,2.29,0,0,1,1.94.92l-.55.51a1.55,1.55,0,0,0-1.34-.69,2.05,2.05,0,0,0,0,4.08,1.59,1.59,0,0,0,1.34-.69l.55.5a2.27,2.27,0,0,1-1.94.92,2.78,2.78,0,0,1,0-5.55Z"/><path d="M817.57,131.07c0-.93-.48-1.2-1.19-1.2a2.09,2.09,0,0,0-1.57.82v3.86H814v-7.3h.82V130a2.65,2.65,0,0,1,1.9-.9,1.49,1.49,0,0,1,1.68,1.69v3.73h-.82Z"/><path d="M826.16,134a2.29,2.29,0,0,1-1.75.73,1.76,1.76,0,0,1-1.85-1.75,1.73,1.73,0,0,1,1.85-1.74,2.22,2.22,0,0,1,1.75.72V131c0-.71-.57-1.12-1.34-1.12a2.09,2.09,0,0,0-1.62.74l-.38-.57a2.78,2.78,0,0,1,2.11-.88c1.12,0,2.05.51,2.05,1.79v3.63h-.82Zm0-1.51a1.78,1.78,0,0,0-1.46-.66,1.16,1.16,0,1,0,0,2.31,1.78,1.78,0,0,0,1.46-.66Z"/><path d="M828.61,127.25h.82v7.3h-.82Z"/><path d="M834.38,134a2.29,2.29,0,0,1-1.75.73,1.76,1.76,0,0,1-1.85-1.75,1.73,1.73,0,0,1,1.85-1.74,2.22,2.22,0,0,1,1.75.72V131c0-.71-.57-1.12-1.34-1.12a2.09,2.09,0,0,0-1.62.74L831,130a2.78,2.78,0,0,1,2.11-.88c1.12,0,2.05.51,2.05,1.79v3.63h-.82Zm0-1.51a1.78,1.78,0,0,0-1.46-.66,1.16,1.16,0,1,0,0,2.31,1.78,1.78,0,0,0,1.46-.66Z"/><path d="M836.84,129.26h.82v.86a2.24,2.24,0,0,1,1.76-1V130a1.57,1.57,0,0,0-.33,0,1.93,1.93,0,0,0-1.43.85v3.74h-.82Z"/><path d="M846.82,131c0-.67-.29-1.09-1-1.09a1.83,1.83,0,0,0-1.4.81v3.87h-.82V131c0-.67-.29-1.09-1-1.09a1.82,1.82,0,0,0-1.39.82v3.86h-.82v-5.29h.82V130a2.28,2.28,0,0,1,1.7-.9,1.37,1.37,0,0,1,1.43,1,2.21,2.21,0,0,1,1.77-1c1,0,1.47.54,1.47,1.6v3.82h-.82Z"/><path d="M852.51,135.29a2,2,0,0,0,1.72.72,1.51,1.51,0,0,0,1.69-1.58v-.76a2.19,2.19,0,0,1-1.77.94c-1.38,0-2.35-1-2.35-2.73s1-2.75,2.35-2.75a2.19,2.19,0,0,1,1.77.93v-.8h.82v5.14c0,1.75-1.22,2.29-2.51,2.29a2.7,2.7,0,0,1-2.14-.79Zm3.41-4.57a1.94,1.94,0,0,0-1.57-.85c-1.07,0-1.7.84-1.7,2s.63,2,1.7,2a1.94,1.94,0,0,0,1.57-.86Z"/><path d="M858.07,131.9a2.62,2.62,0,1,1,2.62,2.78A2.6,2.6,0,0,1,858.07,131.9Zm4.37,0a1.78,1.78,0,1,0-1.75,2A1.84,1.84,0,0,0,862.44,131.9Z"/><path d="M866.93,129.13a2.57,2.57,0,0,1,2.54,2.84v.2h-4.28A1.87,1.87,0,0,0,867.1,134a2.31,2.31,0,0,0,1.63-.67l.39.54a2.86,2.86,0,0,1-2.1.81,2.78,2.78,0,0,1-.09-5.55Zm-1.74,2.44h3.47a1.71,1.71,0,0,0-1.74-1.76A1.76,1.76,0,0,0,865.19,131.57Z"/><path d="M870.76,133.26a2.41,2.41,0,0,0,1.74.75c.81,0,1.24-.36,1.24-.87s-.64-.77-1.35-.94c-.9-.21-1.92-.45-1.92-1.55,0-.82.71-1.52,2-1.52a2.67,2.67,0,0,1,2,.77l-.38.57a2,2,0,0,0-1.58-.67c-.72,0-1.17.33-1.17.8s.6.68,1.29.84c.92.21,2,.47,2,1.64,0,.89-.71,1.6-2.08,1.6a2.81,2.81,0,0,1-2.13-.83Z"/><path d="M878.86,133.44V130H878v-.73h.87v-1.44h.82v1.44h1.07V130h-1.07v3.28c0,.39.18.68.54.68a.8.8,0,0,0,.56-.22l.24.61a1.35,1.35,0,0,1-1,.34A1.08,1.08,0,0,1,878.86,133.44Z"/><path d="M881.61,131.9a2.62,2.62,0,1,1,2.61,2.78A2.59,2.59,0,0,1,881.61,131.9Zm4.36,0a1.77,1.77,0,1,0-3.51,0,1.78,1.78,0,1,0,3.51,0Z"/><path d="M766.59,146.05h-3.7l-.64,1.62h-1l2.93-7.3h1.13l3,7.3h-1Zm-3.43-.81h3.16l-1.58-4.06Z"/><path d="M769.19,140.37h.91v6.49h3.39v.81h-4.3Z"/><path d="M779.37,146.05h-3.7l-.65,1.62h-1l2.93-7.3h1.12l2.95,7.3h-1Zm-3.44-.81h3.16l-1.57-4.06Z"/><path d="M784.33,144.77h-1.46v2.9H782v-7.3h2.93a2.13,2.13,0,0,1,2.28,2.2,2,2,0,0,1-1.89,2.13l2,3h-1.07Zm.46-3.59h-1.92V144h1.92a1.4,1.4,0,1,0,0-2.79Z"/><path d="M794.85,141.6l-2.48,6.07H792l-2.48-6.07v6.07h-.91v-7.3h1.31l2.26,5.56,2.28-5.56h1.3v7.3h-.91Z"/><path d="M800.22,146.38a2.4,2.4,0,0,0,1.74.75c.81,0,1.24-.36,1.24-.87s-.64-.77-1.35-.94c-.9-.21-1.92-.45-1.92-1.54,0-.83.71-1.53,2-1.53a2.67,2.67,0,0,1,2,.77l-.38.57a2.08,2.08,0,0,0-1.58-.67c-.72,0-1.17.33-1.17.8s.6.68,1.29.84c.92.21,2,.47,2,1.64,0,.89-.71,1.6-2.08,1.6a2.81,2.81,0,0,1-2.13-.83Z"/><path d="M805.5,146.57v-3.46h-.88v-.72h.88v-1.45h.82v1.45h1.07v.72h-1.07v3.28c0,.39.17.68.53.68a.8.8,0,0,0,.56-.22l.24.61a1.31,1.31,0,0,1-1,.34A1.08,1.08,0,0,1,805.5,146.57Z"/><path d="M811.85,147.07a2.28,2.28,0,0,1-1.75.73,1.76,1.76,0,0,1-1.85-1.75,1.74,1.74,0,0,1,1.85-1.74,2.21,2.21,0,0,1,1.75.72v-.95c0-.71-.57-1.11-1.33-1.11a2.1,2.1,0,0,0-1.62.73l-.38-.57a2.75,2.75,0,0,1,2.11-.88c1.11,0,2,.51,2,1.79v3.63h-.82Zm0-1.51a1.75,1.75,0,0,0-1.45-.66,1.16,1.16,0,1,0,0,2.31,1.75,1.75,0,0,0,1.45-.66Z"/><path d="M814.48,146.57v-3.46h-.88v-.72h.88v-1.45h.82v1.45h1.07v.72H815.3v3.28c0,.39.17.68.53.68a.8.8,0,0,0,.56-.22l.24.61a1.32,1.32,0,0,1-1,.34A1.08,1.08,0,0,1,814.48,146.57Z"/><path d="M819.82,142.25a2.57,2.57,0,0,1,2.54,2.84v.21h-4.28a1.87,1.87,0,0,0,1.91,1.82,2.34,2.34,0,0,0,1.63-.66l.39.53a2.83,2.83,0,0,1-2.1.81,2.78,2.78,0,0,1-.09-5.55Zm-1.74,2.45h3.47a1.71,1.71,0,0,0-1.74-1.77A1.78,1.78,0,0,0,818.08,144.7Z"/><path d="M829.7,143.43l-1.38,4.24h-.82l-1.69-5.28h.86L828,146.6l1.39-4.21h.7l1.39,4.21,1.29-4.21h.85l-1.68,5.28h-.82Z"/><path d="M838.11,144.19c0-.93-.48-1.2-1.19-1.2a2.07,2.07,0,0,0-1.57.82v3.86h-.82v-7.3h.82v2.78a2.63,2.63,0,0,1,1.89-.9,1.49,1.49,0,0,1,1.69,1.69v3.73h-.82Z"/><path d="M842.86,142.25a2.57,2.57,0,0,1,2.54,2.84v.21h-4.28a1.87,1.87,0,0,0,1.91,1.82,2.34,2.34,0,0,0,1.63-.66l.39.53a2.83,2.83,0,0,1-2.1.81,2.78,2.78,0,0,1-.09-5.55Zm-1.74,2.45h3.47a1.71,1.71,0,0,0-1.74-1.77A1.78,1.78,0,0,0,841.12,144.7Z"/><path d="M850.29,144.21c0-.93-.47-1.22-1.18-1.22a2,2,0,0,0-1.57.82v3.86h-.82v-5.28h.82v.76a2.64,2.64,0,0,1,1.88-.9,1.51,1.51,0,0,1,1.69,1.71v3.71h-.82Z"/><path d="M855.73,146.57v-3.46h-.87v-.72h.87v-1.45h.82v1.45h1.08v.72h-1.08v3.28c0,.39.18.68.54.68a.8.8,0,0,0,.56-.22l.24.61a1.33,1.33,0,0,1-1,.34A1.08,1.08,0,0,1,855.73,146.57Z"/><path d="M862.36,144.19c0-.93-.48-1.2-1.19-1.2a2.09,2.09,0,0,0-1.57.82v3.86h-.82v-7.3h.82v2.78a2.65,2.65,0,0,1,1.9-.9,1.49,1.49,0,0,1,1.68,1.69v3.73h-.82Z"/><path d="M867.12,142.25a2.57,2.57,0,0,1,2.54,2.84v.21h-4.28a1.85,1.85,0,0,0,1.9,1.82,2.32,2.32,0,0,0,1.63-.66l.4.53a2.86,2.86,0,0,1-2.1.81,2.62,2.62,0,0,1-2.7-2.78A2.65,2.65,0,0,1,867.12,142.25Zm-1.74,2.45h3.47a1.72,1.72,0,0,0-1.74-1.77A1.77,1.77,0,0,0,865.38,144.7Z"/><path d="M765.53,157.34c0-.93-.47-1.23-1.18-1.23a2,2,0,0,0-1.56.82v3.86H762v-5.28h.83v.76a2.63,2.63,0,0,1,1.88-.89,1.5,1.5,0,0,1,1.68,1.7v3.71h-.82Z"/><path d="M771.56,160.05a2.6,2.6,0,0,1-1.88.87,1.48,1.48,0,0,1-1.69-1.68v-3.73h.82V159c0,.93.47,1.2,1.18,1.2a2,2,0,0,0,1.57-.8v-3.88h.82v5.28h-.82Z"/><path d="M780.39,157.2c0-.66-.29-1.09-1-1.09a1.83,1.83,0,0,0-1.4.81v3.87h-.82V157.2c0-.66-.28-1.09-1-1.09a1.82,1.82,0,0,0-1.39.82v3.86H774v-5.28h.82v.76a2.31,2.31,0,0,1,1.7-.89,1.38,1.38,0,0,1,1.43,1,2.2,2.2,0,0,1,1.77-1c1,0,1.47.53,1.47,1.59v3.82h-.82Z"/><path d="M782.85,153.5h.82v2.81a2.2,2.2,0,0,1,1.79-.93c1.37,0,2.35,1.09,2.35,2.78s-1,2.76-2.35,2.76a2.23,2.23,0,0,1-1.79-.92v.79h-.82Zm2.4,6.69c1.07,0,1.7-.86,1.7-2s-.63-2-1.7-2a2,2,0,0,0-1.58.85v2.4A2,2,0,0,0,785.25,160.19Z"/><path d="M791.44,155.38a2.56,2.56,0,0,1,2.54,2.83v.21H789.7a1.86,1.86,0,0,0,1.9,1.83,2.33,2.33,0,0,0,1.63-.67l.4.53a2.86,2.86,0,0,1-2.1.81,2.77,2.77,0,0,1-.09-5.54Zm-1.74,2.44h3.47a1.71,1.71,0,0,0-1.74-1.76A1.76,1.76,0,0,0,789.7,157.82Z"/><path d="M795.3,155.51h.82v.85a2.23,2.23,0,0,1,1.76-1v.84a1.61,1.61,0,0,0-.33,0,1.92,1.92,0,0,0-1.43.84v3.74h-.82Z"/><path d="M801.42,158.15a2.62,2.62,0,1,1,2.61,2.77A2.59,2.59,0,0,1,801.42,158.15Zm4.37,0a1.78,1.78,0,1,0-1.76,2A1.84,1.84,0,0,0,805.79,158.15Z"/><path d="M808.21,156.23h-.88v-.72h.88v-.41a1.5,1.5,0,0,1,1.53-1.71,1.53,1.53,0,0,1,.8.18l-.21.61a1,1,0,0,0-.47-.12c-.53,0-.83.38-.83,1v.41h1.07v.72H809v4.56h-.82Z"/><path d="M814.06,159.69v-3.46h-.87v-.72h.87v-1.45h.82v1.45H816v.72h-1.07v3.28c0,.4.18.68.54.68A.8.8,0,0,0,816,160l.24.61a1.35,1.35,0,0,1-1,.34A1.08,1.08,0,0,1,814.06,159.69Z"/><path d="M817,154.06a.55.55,0,0,1,1.1,0,.55.55,0,1,1-1.1,0Zm.14,1.45h.82v5.28h-.82Z"/><path d="M826,157.2c0-.66-.3-1.09-1-1.09a1.83,1.83,0,0,0-1.4.81v3.87h-.83V157.2c0-.66-.28-1.09-1-1.09a1.86,1.86,0,0,0-1.39.82v3.86h-.82v-5.28h.82v.76a2.31,2.31,0,0,1,1.71-.89,1.35,1.35,0,0,1,1.42,1,2.24,2.24,0,0,1,1.77-1c1,0,1.48.53,1.48,1.59v3.82H826Z"/><path d="M830.71,155.38a2.56,2.56,0,0,1,2.53,2.83v.21H829a1.86,1.86,0,0,0,1.9,1.83,2.35,2.35,0,0,0,1.63-.67l.39.53a2.83,2.83,0,0,1-2.1.81,2.62,2.62,0,0,1-2.69-2.77A2.64,2.64,0,0,1,830.71,155.38ZM829,157.82h3.46a1.71,1.71,0,0,0-1.74-1.76A1.76,1.76,0,0,0,829,157.82Z"/><path d="M834.53,159.5a2.38,2.38,0,0,0,1.74.76c.81,0,1.25-.36,1.25-.88s-.65-.76-1.36-.94c-.9-.21-1.91-.45-1.91-1.54,0-.82.71-1.52,2-1.52a2.68,2.68,0,0,1,1.95.76l-.38.57a2.08,2.08,0,0,0-1.57-.67c-.73,0-1.18.33-1.18.8s.61.68,1.3.85c.91.2,2,.47,2,1.64,0,.88-.71,1.59-2.08,1.59a2.82,2.82,0,0,1-2.14-.83Z"/><path d="M842.63,159.69v-3.46h-.87v-.72h.87v-1.45h.83v1.45h1.07v.72h-1.07v3.28c0,.4.17.68.53.68a.8.8,0,0,0,.56-.22l.24.61a1.33,1.33,0,0,1-1,.34A1.08,1.08,0,0,1,842.63,159.69Z"/><path d="M849.26,157.31c0-.93-.48-1.2-1.19-1.2a2.09,2.09,0,0,0-1.57.82v3.86h-.82V153.5h.82v2.77a2.68,2.68,0,0,1,1.9-.89,1.48,1.48,0,0,1,1.68,1.68v3.73h-.82Z"/><path d="M854,155.38a2.56,2.56,0,0,1,2.54,2.83v.21h-4.28a1.86,1.86,0,0,0,1.9,1.83,2.33,2.33,0,0,0,1.63-.67l.4.53a2.86,2.86,0,0,1-2.1.81,2.77,2.77,0,0,1-.09-5.54Zm-1.74,2.44h3.47a1.71,1.71,0,0,0-1.74-1.76A1.76,1.76,0,0,0,852.28,157.82Z"/><path d="M860.7,155.51h.82v.85a2.24,2.24,0,0,1,1.76-1v.84a1.61,1.61,0,0,0-.33,0,1.92,1.92,0,0,0-1.43.84v3.74h-.82Z"/><path d="M867.87,160.05a2.56,2.56,0,0,1-1.88.87,1.48,1.48,0,0,1-1.68-1.68v-3.73h.82V159c0,.93.47,1.2,1.18,1.2a2,2,0,0,0,1.56-.8v-3.88h.82v5.28h-.82Z"/><path d="M870.33,153.5h.82v7.29h-.82Z"/><path d="M875.09,155.38a2.56,2.56,0,0,1,2.54,2.83v.21h-4.28a1.87,1.87,0,0,0,1.9,1.83,2.32,2.32,0,0,0,1.63-.67l.4.53a2.86,2.86,0,0,1-2.1.81,2.77,2.77,0,0,1-.09-5.54Zm-1.74,2.44h3.47a1.71,1.71,0,0,0-1.74-1.76A1.76,1.76,0,0,0,873.35,157.82Z"/><path d="M881.63,154.06a.55.55,0,0,1,1.1,0,.55.55,0,1,1-1.1,0Zm.14,1.45h.82v5.28h-.82Z"/><path d="M884.2,159.5a2.36,2.36,0,0,0,1.74.76c.81,0,1.24-.36,1.24-.88s-.64-.76-1.35-.94c-.9-.21-1.92-.45-1.92-1.54,0-.82.71-1.52,2-1.52a2.7,2.7,0,0,1,2,.76l-.38.57a2.08,2.08,0,0,0-1.58-.67c-.72,0-1.17.33-1.17.8s.6.68,1.29.85c.92.2,2,.47,2,1.64,0,.88-.71,1.59-2.08,1.59a2.81,2.81,0,0,1-2.13-.83Z"/><path d="M762.13,172.81v-3.46h-.88v-.72h.88v-1.44H763v1.44H764v.72H763v3.28c0,.4.17.68.54.68a.77.77,0,0,0,.55-.22l.24.62a1.35,1.35,0,0,1-1,.34A1.08,1.08,0,0,1,762.13,172.81Z"/><path d="M765.18,168.63H766v.85a2.27,2.27,0,0,1,1.76-1v.84a1.55,1.55,0,0,0-.33,0,2,2,0,0,0-1.43.84v3.74h-.82Z"/><path d="M768.65,167.19a.55.55,0,1,1,1.1,0,.55.55,0,1,1-1.1,0Zm.14,1.44h.82v5.28h-.82Z"/><path d="M771.65,174.66a2,2,0,0,0,1.72.72,1.52,1.52,0,0,0,1.7-1.59V173a2.21,2.21,0,0,1-1.78.94c-1.37,0-2.35-1-2.35-2.74s1-2.74,2.35-2.74a2.21,2.21,0,0,1,1.78.93v-.8h.82v5.13c0,1.75-1.23,2.3-2.52,2.3a2.7,2.7,0,0,1-2.13-.79Zm3.42-4.57a2,2,0,0,0-1.58-.86c-1.06,0-1.7.84-1.7,2s.64,2,1.7,2a2,2,0,0,0,1.58-.87Z"/><path d="M777.93,174.66a2,2,0,0,0,1.72.72,1.51,1.51,0,0,0,1.69-1.59V173a2.19,2.19,0,0,1-1.77.94c-1.38,0-2.35-1-2.35-2.74s1-2.74,2.35-2.74a2.18,2.18,0,0,1,1.77.93v-.8h.82v5.13c0,1.75-1.22,2.3-2.51,2.3a2.73,2.73,0,0,1-2.14-.79Zm3.41-4.57a1.94,1.94,0,0,0-1.57-.86c-1.06,0-1.7.84-1.7,2s.64,2,1.7,2a2,2,0,0,0,1.57-.87Z"/><path d="M786.1,168.5a2.57,2.57,0,0,1,2.54,2.83v.21h-4.28a1.85,1.85,0,0,0,1.9,1.83,2.29,2.29,0,0,0,1.63-.67l.4.54a2.91,2.91,0,0,1-2.1.81,2.78,2.78,0,0,1-.09-5.55Zm-1.74,2.44h3.47a1.71,1.71,0,0,0-1.74-1.76A1.76,1.76,0,0,0,784.36,170.94Z"/><path d="M790,168.63h.82v.85a2.26,2.26,0,0,1,1.76-1v.84a1.61,1.61,0,0,0-.33,0,2,2,0,0,0-1.43.84v3.74H790Z"/><path d="M795.86,168.5a2.57,2.57,0,0,1,2.54,2.83v.21h-4.28a1.87,1.87,0,0,0,1.91,1.83,2.31,2.31,0,0,0,1.63-.67l.39.54a2.87,2.87,0,0,1-2.1.81,2.78,2.78,0,0,1-.09-5.55Zm-1.74,2.44h3.47a1.71,1.71,0,0,0-1.74-1.76A1.77,1.77,0,0,0,794.12,170.94Z"/><path d="M803.55,173.13a2.24,2.24,0,0,1-1.78.92c-1.38,0-2.35-1.05-2.35-2.77s1-2.78,2.35-2.78a2.21,2.21,0,0,1,1.78.93v-2.81h.82v7.29h-.82Zm0-3a2,2,0,0,0-1.59-.86c-1.06,0-1.69.88-1.69,2.05s.63,2,1.69,2a2,2,0,0,0,1.59-.83Z"/><path d="M808.33,172.25l4.11-2-4.11-2v-.69l4.82,2.4v.57l-4.82,2.39Z"/><path d="M819.64,166.51c2,0,2.79,2,2.79,3.76s-.8,3.78-2.79,3.78-2.79-2-2.79-3.78S817.63,166.51,819.64,166.51Zm0,.81c-1.39,0-1.86,1.5-1.86,3s.47,3,1.86,3,1.86-1.51,1.86-3S821,167.32,819.64,167.32Z"/><path d="M826.48,167.19a.55.55,0,0,1,.55-.55.56.56,0,0,1,.56.55.56.56,0,0,1-.56.55A.55.55,0,0,1,826.48,167.19Zm.14,1.44h.82v5.28h-.82Z"/><path d="M832.65,170.46c0-.93-.47-1.23-1.18-1.23a2.07,2.07,0,0,0-1.57.82v3.86h-.82v-5.28h.82v.77a2.64,2.64,0,0,1,1.89-.9,1.5,1.5,0,0,1,1.68,1.71v3.7h-.82Z"/><path d="M841.23,173.31a2.29,2.29,0,0,1-1.75.74,1.77,1.77,0,0,1-1.85-1.75,1.73,1.73,0,0,1,1.85-1.74,2.19,2.19,0,0,1,1.75.72v-.95c0-.72-.56-1.12-1.33-1.12a2.1,2.1,0,0,0-1.62.73l-.38-.57a2.75,2.75,0,0,1,2.11-.87c1.11,0,2,.5,2,1.78v3.63h-.82Zm0-1.51a1.77,1.77,0,0,0-1.45-.65,1.16,1.16,0,1,0,0,2.3,1.74,1.74,0,0,0,1.45-.65Z"/><path d="M846.51,175.93v-7.3h.82v.79a2.21,2.21,0,0,1,1.79-.92c1.39,0,2.35,1.05,2.35,2.77s-1,2.78-2.35,2.78a2.19,2.19,0,0,1-1.79-.93v2.81Zm2.4-6.7a2,2,0,0,0-1.58.84v2.39a2,2,0,0,0,1.58.85c1.06,0,1.7-.87,1.7-2S850,169.23,848.91,169.23Z"/><path d="M856.09,173.31a2.29,2.29,0,0,1-1.75.74,1.76,1.76,0,0,1-1.84-1.75,1.72,1.72,0,0,1,1.84-1.74,2.19,2.19,0,0,1,1.75.72v-.95c0-.72-.56-1.12-1.33-1.12a2.1,2.1,0,0,0-1.62.73l-.38-.57a2.75,2.75,0,0,1,2.11-.87c1.12,0,2,.5,2,1.78v3.63h-.83Zm0-1.51a1.77,1.77,0,0,0-1.45-.65,1.16,1.16,0,1,0,0,2.3,1.74,1.74,0,0,0,1.45-.65Z"/><path d="M858.55,168.63h.82v.85a2.27,2.27,0,0,1,1.76-1v.84a1.45,1.45,0,0,0-.32,0,2,2,0,0,0-1.44.84v3.74h-.82Z"/><path d="M862.33,172.81v-3.46h-.88v-.72h.88v-1.44h.82v1.44h1.07v.72h-1.07v3.28c0,.4.17.68.53.68a.8.8,0,0,0,.56-.22l.24.62a1.36,1.36,0,0,1-1,.34A1.08,1.08,0,0,1,862.33,172.81Z"/><path d="M865.23,167.19a.56.56,0,1,1,.55.55A.56.56,0,0,1,865.23,167.19Zm.15,1.44h.82v5.28h-.82Z"/><path d="M870.17,168.5a2.24,2.24,0,0,1,1.93.92l-.54.5a1.57,1.57,0,0,0-1.35-.69,2.05,2.05,0,0,0,0,4.08,1.6,1.6,0,0,0,1.35-.69l.54.51a2.26,2.26,0,0,1-1.93.92,2.78,2.78,0,0,1,0-5.55Z"/><path d="M876.82,173.17a2.61,2.61,0,0,1-1.89.88,1.49,1.49,0,0,1-1.68-1.69v-3.73h.82v3.48c0,.93.47,1.2,1.18,1.2a2,2,0,0,0,1.57-.8v-3.88h.82v5.28h-.82Z"/><path d="M879.27,166.62h.82v7.29h-.82Z"/><path d="M885,173.31a2.3,2.3,0,0,1-1.75.74,1.76,1.76,0,0,1-1.85-1.75,1.73,1.73,0,0,1,1.85-1.74,2.22,2.22,0,0,1,1.75.72v-.95c0-.72-.57-1.12-1.34-1.12a2.11,2.11,0,0,0-1.62.73l-.38-.57a2.77,2.77,0,0,1,2.11-.87c1.12,0,2.05.5,2.05,1.78v3.63H885Zm0-1.51a1.8,1.8,0,0,0-1.46-.65,1.16,1.16,0,1,0,0,2.3,1.77,1.77,0,0,0,1.46-.65Z"/><path d="M887.5,168.63h.82v.85a2.26,2.26,0,0,1,1.76-1v.84a1.61,1.61,0,0,0-.33,0,2,2,0,0,0-1.43.84v3.74h-.82Z"/><path d="M762,189.05v-7.3h.83v.79a2.19,2.19,0,0,1,1.78-.92c1.39,0,2.35,1,2.35,2.77s-1,2.78-2.35,2.78a2.16,2.16,0,0,1-1.78-.93v2.81Zm2.4-6.7a2,2,0,0,0-1.57.85v2.38a2,2,0,0,0,1.57.86c1.06,0,1.7-.88,1.7-2.05S765.42,182.35,764.36,182.35Z"/><path d="M770.54,181.62a2.57,2.57,0,0,1,2.54,2.83v.21H768.8a1.87,1.87,0,0,0,1.9,1.83,2.29,2.29,0,0,0,1.63-.67l.4.54a2.91,2.91,0,0,1-2.1.81,2.78,2.78,0,0,1-.09-5.55Zm-1.74,2.44h3.47a1.71,1.71,0,0,0-1.74-1.76A1.76,1.76,0,0,0,768.8,184.06Z"/><path d="M774.4,181.75h.82v.86a2.24,2.24,0,0,1,1.76-1v.85a1.11,1.11,0,0,0-.33,0,1.93,1.93,0,0,0-1.43.85V187h-.82Z"/><path d="M777.86,180.31a.56.56,0,0,1,1.11,0,.56.56,0,1,1-1.11,0Zm.15,1.44h.82V187H778Z"/><path d="M780.16,184.39a2.62,2.62,0,1,1,2.61,2.78A2.6,2.6,0,0,1,780.16,184.39Zm4.37,0a1.78,1.78,0,1,0-1.76,2.05A1.85,1.85,0,0,0,784.53,184.39Z"/><path d="M790.55,186.25a2.24,2.24,0,0,1-1.78.92c-1.38,0-2.35-1-2.35-2.77s1-2.78,2.35-2.78a2.21,2.21,0,0,1,1.78.93v-2.81h.82V187h-.82Zm0-3a2,2,0,0,0-1.59-.86c-1.06,0-1.69.88-1.69,2.05s.63,2,1.69,2a2,2,0,0,0,1.59-.84Z"/></g></g></svg>