<?xml version="1.0" encoding="utf-8"?>
<!-- Generator: Adobe Illustrator 25.3.1, SVG Export Plug-In . SVG Version: 6.00 Build 0)  -->
<svg version="1.1" id="Layer_1" xmlns="http://www.w3.org/2000/svg" xmlns:xlink="http://www.w3.org/1999/xlink" x="0px" y="0px"
	 viewBox="0 0 27.6 60" style="enable-background:new 0 0 27.6 60;" xml:space="preserve">
<style type="text/css">
	.st0{fill:#28C8E5;}
</style>
<path class="st0" d="M0,46.5c0-1.6,1.3-2.8,2.8-2.8c0,0,0,0,0,0c0.8,0,1.5,0.3,2,0.9l0,0l5.2,5.3l0.9,0.9V2.9l0,0l0,0
	c0-1.6,1.2-2.8,2.8-2.9c0,0,0,0,0,0h0.1c1.5,0,2.8,1.3,2.8,2.8l0,0l0,0v47.9l0.9-0.9l5.2-5.3l0,0h0c1.1-1.1,2.9-1.1,4,0.1
	c1.1,1.1,1.1,2.9-0.1,4l0,0l0,0L16.4,59c-1.4,1.4-3.7,1.4-5.1,0L0.9,48.5l0,0C0.3,48,0,47.3,0,46.5z"/>
</svg>
