<?xml version="1.0" encoding="utf-8"?>
<!-- Generator: Adobe Illustrator 25.3.1, SVG Export Plug-In . SVG Version: 6.00 Build 0)  -->
<svg version="1.1" id="Layer_1" xmlns="http://www.w3.org/2000/svg" xmlns:xlink="http://www.w3.org/1999/xlink" x="0px" y="0px"
	 viewBox="0 0 60 27.6" style="enable-background:new 0 0 60 27.6;" xml:space="preserve">
<style type="text/css">
	.st0{fill:#28C8E5;}
</style>
<path class="st0" d="M46.5,27.6c-1.6,0-2.8-1.3-2.8-2.8c0-0.8,0.3-1.5,0.9-2l0,0l5.3-5.2l0.9-0.9H2.8c-1.5,0-2.8-1.2-2.8-2.8v-0.1
	c0-0.8,0.3-1.5,0.8-2c0.5-0.5,1.3-0.8,2-0.8h47.8l-0.9-0.9l-5.3-5.2l0,0l0,0c-1.1-1.1-1.1-2.9,0.1-4c0.5-0.5,1.2-0.8,1.9-0.8
	c0.8,0,1.5,0.3,2,0.9l0,0l10.4,10.4c1.4,1.4,1.4,3.7,0,5.1L48.5,26.7l0,0C48,27.3,47.2,27.6,46.5,27.6z"/>
</svg>
